<svg fill="none" height="139" viewBox="0 0 882 139" width="882" xmlns="http://www.w3.org/2000/svg" xmlns:xlink="http://www.w3.org/1999/xlink"><linearGradient id="a"><stop offset="0" stop-color="#55937c"/><stop offset="1" stop-color="#6dbed5"/></linearGradient><linearGradient id="b" gradientUnits="userSpaceOnUse" x1="22.857" x2="82.8677" xlink:href="#a" y1="70.6202" y2="56.8973"/><linearGradient id="c" gradientUnits="userSpaceOnUse" x1="106.67" x2="157.021" xlink:href="#a" y1="76.148" y2="63.7473"/><linearGradient id="d" gradientUnits="userSpaceOnUse" x1="174.505" x2="223.93" xlink:href="#a" y1="85.5818" y2="73.2442"/><linearGradient id="e" gradientUnits="userSpaceOnUse" x1="253.04" x2="330.951" xlink:href="#a" y1="52.9747" y2="40.7301"/><linearGradient id="f" gradientUnits="userSpaceOnUse" x1="422.154" x2="484.164" xlink:href="#a" y1="52.7066" y2="44.3842"/><linearGradient id="g" gradientUnits="userSpaceOnUse" x1="487.093" x2="537.443" xlink:href="#a" y1="75.9708" y2="63.6647"/><linearGradient id="h" gradientUnits="userSpaceOnUse" x1="563.348" x2="613.456" xlink:href="#a" y1="79.8065" y2="60.2273"/><linearGradient id="i" gradientUnits="userSpaceOnUse" x1="652.073" x2="719.544" xlink:href="#a" y1="78.5762" y2="46.8008"/><linearGradient id="j" gradientUnits="userSpaceOnUse" x1="750.993" x2="813.131" xlink:href="#a" y1="92.3358" y2="82.4901"/><linearGradient id="k" gradientUnits="userSpaceOnUse" x1="830.981" x2="878.757" xlink:href="#a" y1="76.3781" y2="64.2033"/><path d="m81.5187 51.2941c-.1276-2.9894-.9615-5.9041-2.4317-8.4987-.3839 0-.3839-.3892-.3839-.5838 0-.1947.9599-.3893 1.1519-.3893.8512.3044 1.6501.7423 2.3677 1.2975 2.347 2.5755 3.6298 5.9658 3.5836 9.4719v2.7896c.0362 1.6305-.4096 3.2346-1.2799 4.6062-3.0167 4.3374-6.3539 8.4364-9.9829 12.2615l-8.639 8.4987c-3.0693 3.8009-6.827 6.9718-11.0708 9.3421-1.2799.8434-3.0077 2.0111-4.7355 3.0491-2.2259 1.1838-4.5625 2.14-6.9752 2.8546-1.184.1209-2.3594.3158-3.5197.5838-1.2206.4905-2.5455.6526-3.8462.4708-1.3007-.1819-2.5329-.7016-3.5769-1.5087 0 0-.384-.0001-.384-.3893-1.4217-1.6807-2.4159-3.6888-2.8955-5.8488-.4797-2.16-.4303-4.4062.1438-6.5425l.5759-3.1789v-.5839h-.4479s-.8319 0-.9599.5839c-2.9602 3.2906-6.1008 6.4096-9.407 9.3421-1.6566 2.4489-3.6621 4.6352-5.9513 6.4876-1.5359 3.3086-5.11947 4.0223-7.42322 6.4874-.29394.237-.63262.411-.99521.51-.36258.099-.74139.122-1.11308.068-.37169-.055-.72839-.186-1.04815-.386-.31977-.2-.5958-.464-.81112-.776-.779825-1.006-1.270228-2.2107-1.4170345-3.4815s.0556875-2.558.5851165-3.7194c.545918-1.4793 1.209348-2.9113 1.983768-4.2818 3.26364-6.4876 6.84726-12.9752 9.98293-19.4627.8698-1.08 1.5811-2.2818 2.1118-3.5682.0425-.4499.2382-.8708.5535-1.1904.3153-.3197.7304-.5181 1.1743-.5612.7948-.1757 1.619-.1617 2.4075.041.7885.2026 1.5198.5884 2.136 1.1267.2544.3222.3931.7227.3931 1.1354s-.1387.8131-.3931 1.1353c-1.0821 1.5105-1.9442 3.1711-2.5597 4.9305-.7958 2.8127-2.0975 5.4521-3.8396 7.7851-.6633 1.5696-1.4779 3.069-2.4318 4.4764-.8319 1.557-1.8558 2.8546-2.55969 4.2818v1.038c.91819-.3147 1.70639-.9311 2.23979-1.7516 3.4556-2.9843 6.3993-6.4876 9.7269-9.3421 1.6759-2.153 3.6859-4.0154 5.9514-5.5144 3.1356-2.8546 6.3993-5.4496 9.3429-8.1744 1.4911-1.225 2.8821-2.5702 4.1596-4.0223.763-.7485 1.7577-1.2068 2.8157-1.2975 1.5998-.5839 2.5597 0 3.8396 1.1029v1.6219c0 .3244-1.4719 1.1678-2.1758 2.0112-.8893.9952-1.7023 2.0579-2.4317 3.1789-.576 0-.7039.5839-1.2799.9731-1.4632 1.2228-2.5878 2.8101-3.2636 4.6062l-4.2236 8.6933c-1.0348 2.0027-1.5833 4.2268-1.5998 6.4876 0 1.6219.5759 1.8814 1.7278 1.8814 2.8107.0352 5.5916-.5864 8.1271-1.8165 1.6739-1.049 3.4044-2.002 5.1835-2.8546.6574-.285 1.263-.6798 1.7917-1.1678 5.1835-3.2255 10.0861-6.8934 14.6544-10.9639.7448-.9589 1.6556-1.7723 2.6878-2.4004.7679-.4542 1.2798-1.0381 2.4317-.7786-.384.7786-.9599 1.0381-1.4078 1.4922-.448.4541-2.1118 1.2975-2.3038 2.8546h1.0239c.8315-.7583 1.6019-1.5827 2.3038-2.4654 1.2798-.8433 1.9837-2.1409 3.5195-2.595.1611-.4617.1611-.9655 0-1.4272h-1.1518c-.0213-.3485.0842-.6928.2965-.9678.2122-.275.5165-.4616.8553-.5244v1.4922c.1848.0757.3913.0757.576 0 3.1995-3.0927 6.1325-6.4569 8.767-10.0558-.2304.0634-.4734.0634-.7039 0-.9599 1.038-1.8558 2.2058-2.8157 3.3087-1.0458 1.3529-2.2491 2.5727-3.5836 3.633.0708-.3423.0708-.6957 0-1.038.5119-.9731 1.5358-1.6867 2.1118-2.595.1653-.4086.404-.7826.7039-1.1029v-.5839.5839c.965-.9097 1.6533-2.0803 1.9838-3.3735h-.7039c0-.519-.0001-1.2975.7039-1.2975v.3892c.7039 0 .7039-.7136.7039-1.4273h-.7039c0-.3892 0-1.1677.7039-1.4272v1.4272c.7039-.3892.7039-.9731 0-1.4272v-1.7516c.32-.379.5596-.8207.7039-1.2976v1.2976c-.0517.191-.0517.3927 0 .5838.512 0 .512-.5839.512-.7136.1212-.1658.1969-.3612.2194-.5664.0225-.2051-.0091-.4126-.0915-.6014zm-24.8292 31.854c-.2706-.0531-.551-.0114-.7952.1183-.2442.1296-.4376.3396-.5487.5953.7679-.1297 1.3439.3244 1.3439-.7136zm3.0717-2.1409c-.704 0-1.2799 0-1.5359.7136.8319-.1297 1.2799.1298 1.5359-.8434zm5.8233-5.0603h-.9599c-1.8252 1.472-3.4593 3.1723-4.8634 5.0603h.4479c2.0905-1.3813 3.9126-3.1405 5.3754-5.19z" fill="url(#b)"/><path d="m151.333 78.1525c-2.293.3641-4.559.8843-6.783 1.557-.16.3229-.407.5924-.714.7765-.306.184-.658.2748-1.014.2615-1.82.0049-3.637.135-5.44.3893-2.557.1701-5.122.1701-7.679 0-4.223 0-4.095-.5839-6.399 3.1789l-4.992 5.3198c0 .3892 0 .5838-.575.8434-4.096 2.595-7.488 5.9037-11.775 8.2392-2.829 1.5689-5.9915 2.4149-9.2152 2.4649-2.4452.018-4.7999-.936-6.5587-2.6588-1.7587-1.7223-2.7813-4.0751-2.8483-6.5532.0115-1.3416.2946-2.6664.8319-3.8925 1.0802-5.1817 3.4357-10.0023 6.8473-14.0132 1.5358-1.8165 2.8157-3.8925 4.5435-5.7739.5945-.48 1.0715-1.0928 1.3925-1.7906.322-.6978.481-1.4616.463-2.2317-.117-.7014-.092-1.4196.073-2.111s.467-1.3416.887-1.9113c.949-1.114 1.998-2.1349 3.136-3.0492 1.851-.9101 3.753-1.7115 5.695-2.4004.803-.5027 1.752-.7089 2.688-.5838 1.303-.3244 2.664-.3244 3.967 0 1.066.0876 2.137-.0676 3.136-.4542 1.984-.7136 3.584.4541 5.248 1.038.704 0 .704 1.2976 0 1.6868-.704.3893-.832 0-.384.4541.54 1.0324 1.206 1.9915 1.983 2.8546 1.345 1.5011 2.263 3.3432 2.657 5.3308.394 1.9875.25 4.0463-.417 5.9575-.508 1.7262-1.128 3.4166-1.856 5.0603 2.297.518 4.679.518 6.976 0 3.455-.5838 6.847-1.3624 10.43-2.076 1.984-.7136 3.968-.9731 6.4-1.557 1.142-.292 2.183-.8982 3.007-1.7517 1.16-.3734 2.368-.5701 3.584-.5838.384-.3893 1.28 2.076 1.28 2.2057zm-34.556 2.2707s-.576-.0001-.704-.584c-4.801-.9727-9.095-3.6676-12.095-7.5904-.704-.7785-1.28-.7785-1.408 0-1.352 1.8755-2.45 3.9266-3.2634 6.0983-1.2799 2.7248-2.5598 5.3198-4.0956 8.0446s-1.8558 5.19-3.0077 7.3309c-.4479.9083.448 1.6219 1.2799 1.8814h2.2397c1.3954.1098 2.793-.1825 4.0316-.8433 5.0585-2.5361 9.7345-5.7911 13.8865-9.6665 1.135-1.2085 2.331-2.3562 3.584-3.4384 0 0-.128-1.2326-.576-1.2326zm5.823-22.0578c-.289-.4001-.66-.7321-1.088-.9731 0 0-.704 0-.896 0-1.966.9668-3.813 2.1644-5.503 3.5681-1.964 1.2527-3.826 2.6629-5.568 4.217l-3.135 2.8545c-.163.0797-.299.2041-.395.359s-.147.334-.147.5168.051.3619.147.5168.232.2794.395.359c.376.4034.718.8373 1.024 1.2975 1.35 1.2727 3.004 2.167 4.799 2.5951 2.438.9163 4.972 1.5476 7.551 1.8814.531.126 1.088.0813 1.592-.128.505-.2093.933-.5727 1.224-1.0398 1.629-2.4568 2.619-5.2908 2.88-8.2392.243-1.4522.092-2.9442-.438-4.3158s-1.419-2.5709-2.57-3.4693z" fill="url(#c)"/><path d="m226.845 69.1946c-.231.8145-.599 1.5826-1.087 2.2706-1.152 1.8814-11.135 8.369-12.223 10.2504-.824.9947-1.887 1.7565-3.087 2.2113-1.2.4547-2.495.5869-3.76.3837-.429.0561-.864-.0266-1.243-.2363-.379-.2098-.684-.5358-.869-.9314 0-.8434-.576-1.2975-.768-2.0111-.754-.9902-1.263-2.1485-1.485-3.3785-.223-1.23-.153-2.4962.205-3.693 0-.3893-.704-.8434-1.088-.7137-1.472.7137-3.007 1.1678-4.287 1.8814-6.113 3.5987-11.952 7.6539-17.47 12.1318-.819.6142-1.674 1.1775-2.56 1.6868-.808.8281-1.663 1.6078-2.56 2.3355-1.896 1.4934-3.538 3.2902-4.863 5.3198-2.316 2.6867-4.454 5.5261-6.4 8.4991-.704 1.622-1.983 2.335-2.559 3.633-.576 1.297-1.024 1.167-1.856.713s-1.152-.454-1.152-.454c-.704-1.103-1.536-1.881-2.112-2.854-.16-1.097-.16-2.212 0-3.309.293-.72.68-1.397 1.152-2.011 2.24-4.2171 4.544-8.2394 6.975-12.9753 2.432-4.736 5.504-10.2504 8.063-15.4404 1.303-2.2489 2.396-4.6164 3.264-7.0715.2-.402.48-.7574.823-1.0437.342-.2863.74-.4971 1.167-.6191.427-.1221.875-.1526 1.315-.0897.439.0629.861.2178 1.239.455l2.303 1.2975c.448.7136.832 1.7517 0 2.2058-1.38 2.0402-2.559 4.2132-3.519 6.4876l-3.84 7.0714v.7136h.384c5.753-4.8293 11.996-9.0264 18.622-12.521 3.584-1.7516 7.167-3.0491 10.559-4.8008 1.177-.544 2.498-.6799 3.758-.3868 1.261.2932 2.392.9991 3.217 2.0087l2.24 2.4653c.306.4592.436 1.0162.366 1.5659-.071.5497-.338 1.0543-.75 1.4184-.815.5946-1.456 1.4016-1.856 2.3355-.448 1.7516-1.984 2.8545-2.304 4.4764 6.107-3.2103 12.045-6.74 17.79-10.5747 0 0 .256 1.1678.256 1.2975z" fill="url(#d)"/><path d="m302.485 21.7708c-.384 0-.384.5839 0 .8434s-.384 1.8814-1.535 1.6219c-.704.8433-.832 1.8813-1.536 2.2706-1.422 1.7491-2.962 3.3965-4.608 4.9306-.297.3252-.668.5721-1.081.719-.412.147-.854.1897-1.286.1244.007.2464-.041.4913-.141.7161-.099.2249-.248.4237-.435.5814-.428.3138-.904.5548-1.408.7136.384 0 .384.5839.576.7136.192.1298 0 .4542 0 .5839v.4541c-1.754 1.3372-3.382 2.8357-4.864 4.4765 0 .5839-.704.8434-.96 1.4272-1.962 1.128-3.596 2.7618-4.735 4.7359 0 .5839 0 .7137-.576.7137-1.408.5839-1.984 1.8814-3.264 2.7896-1.28.9083-1.536 1.6868-2.559 2.4005-1.506 1.2772-2.938 2.6419-4.288 4.0871-4.21 3.593-8.611 6.9499-13.183 10.0558-3.075 2.5355-6.69 4.3122-10.558 5.19-.704 0-1.28.7136-1.792.8434-.309.3777-.652.7252-1.024 1.038 0 1.8814-1.28 2.8545-1.984 4.152s-1.856 2.5951-2.816 3.7628c-.784.9742-1.234 2.1816-1.279 3.4384.793-.2593 1.547-.6306 2.239-1.1029 3.398-2.9991 6.967-5.7935 10.687-8.3689 1.591-1.2045 3.308-2.2271 5.12-3.0492.491-.5661 1.137-.9724 1.855-1.1678.512-.519 1.088-1.5569 2.368-.973.544-.6569 1.12-1.2849 1.728-1.8814.832-.1753 1.618-.5293 2.304-1.0381 2.329-.4876 4.518-1.5083 6.399-2.9843 1.343-1.2197 3.062-1.9303 4.863-2.0111.448-.2447.92-.4404 1.408-.5839 1.861-.9451 3.943-1.3493 6.016-1.1678 1.301.021 2.568.4246 3.647 1.1616 1.079.7371 1.924 1.7759 2.432 2.9905.238.2896.353.6628.32 1.038-.418 1.887-1.154 3.6867-2.176 5.3198-.532 1.8896-1.627 3.5663-3.135 4.8008-2.084 1.938-4.356 3.6553-6.784 5.1252l-5.439 3.8925c-.384.5839-.576.7785-.96.7785-2.88 0-4.863 2.7248-7.551 3.4385-2.581 1.3247-5.378 2.1601-8.255 2.4652-.832 0-1.28.3893-1.728 1.2976-.25.8468-.422 1.7157-.512 2.595.151 2.7226.151 5.4519 0 8.1739 0 .584 0 .714.576 1.168.071.251.223.47.432.623s.462.231.72.221c3.886.558 7.848.111 11.519-1.298 4.634-1.768 9.108-3.939 13.374-6.4875 1.984-.8434 3.648-1.6868 5.631-2.7248 1.984-1.038 5.12-2.7248 7.424-4.2818 2.446-1.7193 5.063-3.1761 7.807-4.3467 3.263-1.7516 6.399-3.633 9.279-5.5144 1.088-.3893 2.112-1.4273 3.519-2.1409.637-.1976 1.226-.5291 1.728-.9731 2.378-1.7571 4.956-3.2166 7.679-4.3467 1.232-.4181 2.381-1.0552 3.392-1.8814.517-.461 1.154-.7612 1.835-.8648.681-.1035 1.377-.006 2.005.2809.703 0 1.407 0 1.535.5839s2.176 1.557 2.176 3.1789v.5839s0 0-.576 0c-2.76.3256-5.375 1.4266-7.551 3.1789-.742.1223-1.498.1223-2.24 0-.32 0-.896 0-.896 0-.576 1.7516-1.535 2.0111-2.943 2.3355v-.5839c-.576 0-1.472 0-1.6.5839-.576 0-.576.4542 0 .5839.576.1298 0 1.1678 0 1.1678-1.984.519-3.264 2.595-4.992 3.4384-1.984.7622-3.927 1.6284-5.823 2.595-1.222.5359-2.331 1.307-3.264 2.2707-1.855 1.1677-3.583 2.3355-5.567 3.3735s-4.671 2.7248-6.975 4.2818c-.384.5839-.96.7136-1.088 1.038-2.88 1.427-5.312 2.855-7.999 4.282-2.525 1.669-5.231 3.041-8.063 4.087-2.355 1.318-4.905 2.238-7.552 2.725-2.697.78-5.557.78-8.255 0-1.591-.248-3.107-.854-4.436-1.775-1.329-.92-2.437-2.132-3.243-3.545-2.117-3.704-2.929-8.0278-2.304-12.2616.493-1.4967.836-3.0399 1.024-4.6062.448 0 .448-1.1677.448-1.7516-.218-.3965-.333-.8432-.333-1.2975 0-.4542.115-.901.333-1.2975 0 0-.448 0-.576-.3893-.128-.3892 0 0 0 0-2.14 1.4397-4.133 3.0914-5.951 4.9306-3.008 2.4004-5.823 5.3198-8.831 7.9148-.576.3892-1.408 1.4273-2.112 1.6868s-.832.5839-.832 1.4925c.057.156.072.325.045.49s-.095.319-.197.45c-.103.13-.237.231-.39.294-.152.063-.318.084-.482.063-1.279 0-1.535.714-1.855 1.687s-.96.714-1.536.584c-.449-.228-.842-.555-1.151-.956s-.527-.866-.637-1.363c-.11-.496-.111-1.011-.001-1.508.111-.4966.328-.9622.637-1.3633.45-.8786.65-1.8672.576-2.8545.093-1.5677.626-3.0758 1.536-4.3467.54-1.6279 1.203-3.2112 1.983-4.7359.448-.5839.576-1.6219 1.6-2.2058.549-1.8531 1.563-3.5299 2.944-4.8656 0 0 0 .5839.576 0-.089-.0457-.188-.0694-.288-.0694s-.199.0237-.288.0694c0-1.1678.768-1.7517 1.6-2.3356.832-.5838 0-2.2706 1.408-2.8545.229-.9526.799-1.7848 1.599-2.3355.028-.7598.248-1.4996.641-2.1475.392-.6479.943-1.182 1.599-1.5504v1.4272c.704-.5839.704-.7136 0-1.4272.576-1.0381.576-2.3356 1.536-3.0492.896.7136.896.7136 1.344 0v-.4541h-.448c0-.6094.193-1.2026.55-1.6929.357-.4902.859-.8519 1.434-1.0319v.3892c0 .3893 0 0 0-.3892h-.448c-.065-.4777.041-.9633.299-1.3682.259-.4049.652-.7021 1.109-.8376 0 .4542 0 .4542.832 0 .831-.4541.448-.8434.575-1.7516h.448c0-.3893-.448-.3893-.448-.3893s0-1.1678.576-1.2975c.576-.1298.448.519.896 0h-1.28c0-.7785 0-1.038.896-1.038-.448-.8434.384-1.2975 1.408-2.0111.448.7136.576.7136.576 0h-.576c-.053-.6781.128-1.3538.514-1.9105.385-.5567.951-.9595 1.598-1.1387h.704-.384c-.094-.0995-.16-.2224-.192-.3563s-.028-.274.011-.4059.112-.2509.211-.345c.099-.094.221-.1597.354-.1903v1.6867c.234-.1176.427-.305.552-.5369.126-.2319.179-.4973.152-.7605 0 0 .576-.7137 1.024-.8435h-1.024c.431-1.2028 1.241-2.2285 2.304-2.9193v1.7516c.575-.4542.576-1.038.576-1.7516h-.576c.575-1.4273 1.279-2.9843 2.815-3.4384 0 .4541.448.4541.896 0h-.896c0-.8434 0-1.4273.896-1.7517v1.7517c.451-.4815.742-1.0941.832-1.7517h-.832c0-.5839.384-1.1029.832-1.2975 3.392-4.6062 7.103-8.6285 10.495-12.9752 4.072-5.049 8.711-9.5994 13.822-13.559 3.324-3.18814 7.099-5.85576 11.199-7.91481 3.048-1.91852 6.373-3.34141 9.855-4.216931.577-.4089561 1.289-.5720174 1.984-.4541283.846.3696113 1.769.5254453 2.688.4541283 1.112-.082185 2.228.097607 3.26.525281 1.033.42767 1.954 1.09163 2.691 1.94.315.42144.511.92167.567 1.44727.057.5256-.029 1.05682-.247 1.53701-.868 1.11699-1.599 2.33699-2.176 3.63304-2.133 1.88264-3.986 4.06774-5.503 6.48764-.471.8733-1.154 1.6102-1.984 2.1408-1.117.795-2.128 1.7326-3.008 2.7897s-.576.3244-1.152.7785zm-68.92 62.086c-1.152 0-1.28 1.038-1.28 1.8814v1.038h.512c-.016-.2957.026-.5917.125-.8703.099-.2787.253-.5343.451-.7516.173-.4087.239-.8554.192-1.2975zm1.856-2.595c.576-.7136.704-2.1409 2.112-1.4273l-.704-1.1677c0-.5839-.576 0-.896 0-1.376 1.4785-2.308 3.3237-2.688 5.3198h1.28c.168-.9471.47-1.8647.896-2.7248zm-.576 2.7896c-.448 0-.448 0-.576 0s.256.5839.576 0zm3.007-7.3958c.576-.5839 1.088-.7136 1.28-1.2975s.384-.5839.832-.7136v-1.2976c-1.536.1298-1.728 1.4273-2.112 3.3087zm8.768-13.8185h.703v-1.7517c-.703-.1297-.703.9083-.703 1.4922zm4.735 20.3061c1.5.1345 2.905.8006 3.968 1.8814.576.7136.576 1.7516 1.279 1.7516.704 0 1.536-.5838 1.984-.8434.448-.2595 1.536-1.0379 2.432-1.2974 1.611-.4187 3.145-1.0978 4.543-2.0112 3.907-2.6515 7.608-5.6011 11.071-8.8231 2.592-1.935 4.499-4.6649 5.44-7.7851 0 0 0-.4541 0-1.038h-.768c-2.59 1.1575-5.239 2.1754-7.935 3.0491-.59.4711-1.264.8235-1.984 1.0381-3.136 1.8814-5.824 3.6979-8.959 5.4495-1.882.9951-3.68 2.1451-5.376 3.4384-1.855 1.1678-3.711 2.5951-5.439 3.6331-.72.3011-1.31.8533-1.664 1.557zm-.704-27.5073c-.576 0-.448 1.038-.448 1.7516.448-.5838.96-.7136.448-1.7516zm14.591-14.2727c-.031.3439-.132.6775-.297.9792-.165.3018-.391.5649-.663.7725-1.408 1.557-3.264 2.4653-3.712 4.8657-.3.6366-.687 1.2264-1.152 1.7516-1.087.9027-1.906 2.0928-2.368 3.4384-.85 1.2557-1.814 2.4285-2.879 3.5033v.7136c-.59 1.3973-1.514 2.6236-2.688 3.5682-.096.2023-.146.4241-.146.6488 0 .2246.05.4464.146.6487h.96c1.128-.7194 2.217-1.499 3.264-2.3355 7.871-5.774 15.806-12.2615 23.037-18.5545 4.544-3.7628 8.575-7.5255 12.799-11.5478.576-.4542-1.152-.4542-.448-1.1678s2.303-2.0111 3.263-3.0492l1.28-1.2975 6.4-6.4875c.02.1941.02.3897 0 .5838 0 0-.001.0001.383-.5838h-.512s0-.7137.512-.7137.768-.5838 1.024-.5838v.5838s.576.0001.576-.5838h-.576c0-.4541 0-.7137.704-.9732s0 0 .448 0c0-1.7516 1.408-2.4652 2.432-3.4384v1.6868l.96-.7137v-1.2975c-.448 0-.576-.5838-.96-.5838s.512-1.1678 1.408-1.29756c.896-.12975.384-.45413.832-.90826s0-.97314.704-1.29752c.62-1.14207 1.396-2.19028 2.303-3.11403 0-1.03801 0-1.75164-.448-2.20577-.544-.4422-1.221-.68315-1.919-.68315s-1.375.24095-1.92.68315c-.982.94664-2.134 1.6952-3.392 2.20577-1.6.97314-3.711 2.01114-5.695 2.98428-3.27 1.3566-6.264 3.31409-8.831 5.77389-.883 1.0377-2.004 1.8397-3.264 2.3356-.904.9375-1.914 1.7648-3.008 2.4653-2.541 2.22-4.703 4.8505-6.399 7.785 0 0-.96.3893-1.152.7137-.459.4375-.976.8086-1.536 1.1029-.047.5827-.245 1.1423-.575 1.6218-.529 1.0086-1.151 1.9643-1.856 2.8546-1.21 1.5105-2.537 2.9207-3.968 4.2169-1.284 1.4616-2.321 3.1273-3.071 4.9305zm-12.223 11.2236c.308.0001.613-.0624.896-.1838.284-.1214.541-.2993.756-.5231s.383-.489.495-.7799.165-.6015.157-.9137c-.549.1785-1.046.4907-1.447.9092-.402.4185-.696.9306-.857 1.4913zm7.423-10.1855c1.408 0 1.408-.0001 1.408-1.2976-.311.1058-.596.2758-.838.4991-.243.2234-.437.4952-.57.7985zm18.75.8433c-1.364.6146-2.473 1.6932-3.136 3.0492 1.389-.625 2.536-1.6967 3.264-3.0492zm3.136-2.1409c-.832 0-1.28.0001-1.408.8434-.128.8434 1.152 0 1.408-.8434zm44.219 33.2813h-1.28c-3.264 1.7516-6.399 3.1789-9.663 4.7359-2.112 1.4272-4.672 2.595-7.103 4.0223-1.572.787-3.197 1.459-4.864 2.0111l-4.671 2.7897c-1.024.8434-2.432 1.2975-3.392 2.0112-3.135 1.8814-6.399 3.6978-9.279 5.4495-1.938 1.0124-3.709 2.3258-5.247 3.8925h1.28c1.28-.8434 2.687-1.2975 3.839-2.0111 4.288-2.2707 8.639-5.1901 12.799-7.4607 2.56-1.1678 4.543-2.595 7.103-3.8926 5.119-3.1789 10.367-6.0983 15.806-8.823 1.28-.4542 2.24-.9732 3.52-1.4273 1.28-.4542 1.152-.5839 1.152-1.2975zm-38.396-38.3416c-.412-.0589-.831.0242-1.191.236s-.639.5399-.793.9318c.388.0108.771-.0941 1.101-.3016.33-.2076.592-.5088.755-.8662zm15.486-14.2726v-.5839c.448 0 .448.1298-.128.5839zm6.4-11.0937s0-.5839.448-.5839v-.45417c0-.84338 0-.84336-.576-.58386s-.448.45413-.576.45413 0 .5839-.832.5839c.384.7136.832.5839 1.536.5839z" fill="url(#e)"/><path d="m474.305 27.2152v-1.2975c-1.152.5839-3.008 1.1678-3.391 3.0492.947.0481 1.885-.2011 2.687-.7137 0-.3243.576-.4541.704-1.038v1.1678c-.704.7136-1.6 2.1409-2.56 2.595-.288.3817-.485.8258-.576 1.2975-2.615 2.215-4.957 4.7418-6.975 7.5256.02.1284-.009.2596-.08.3677s-.179.1853-.304.2162c-14.411 13.7663-30.42 25.7046-47.674 35.5518l-2.944 3.3087c-.576 1.6219-1.856 2.0111-2.88 3.3735-.526.7877-.956 1.6373-1.28 2.5302 0 1.6219-1.408 2.2058-1.855 3.633-.392.989-.863 1.9437-1.408 2.8545 0 .4542-.704 1.0381-.832 1.4922s-1.728.9731 0 1.8814c-.794 1.177-1.135 2.6077-.96 4.0223-.041.6381.152 1.2694.541 1.7724.39.503.949.842 1.571.952 2.731.48 5.523.48 8.255 0 4.493-1.088 8.805-2.8361 12.798-5.1897 5.12-2.9194 10.239-6.0983 15.167-9.4069 3.711-2.4653 6.847-5.4496 10.239-7.331.575-.4542.895-1.1678 1.471-1.2975.239-.4589.622-.8242 1.088-1.0381.433.1126.892.063 1.291-.1396.4-.2026.714-.5446.885-.9632.641-1.1674 1.692-2.0474 2.944-2.4653 2.151-1.2786 4.167-2.7787 6.015-4.4764.571-.4583 1.231-.7879 1.937-.9669.707-.179 1.442-.2032 2.159-.0711.448 0 1.023 0 1.023.4541s1.088 1.1678 1.792 1.6219.576.7136.32 1.6867c-.256.9732-.832.7137-1.28 1.1678-.298.2955-.645.5369-1.024.7136-.86.0287-1.706.2331-2.487.601-.78.3678-1.48.8916-2.056 1.54-2.049 1.1916-4.036 2.4909-5.951 3.8925l-5.568 4.0872c-.561.2283-1.048.6101-1.408 1.1029-.366.3419-.846.5317-1.343.5317-.498 0-.978-.1898-1.344-.5317 0 0-.576.3892-.576.8433 0 .4542 0 1.4273-.832 1.8814-1.539.4598-2.887 1.4166-3.84 2.7248-.921.818-1.985 1.4559-3.135 1.8814-.599.3953-1.137.876-1.6 1.4273-1.066.934-2.249 1.7194-3.52 2.3355-1.334 1.0679-2.722 2.064-4.159 2.9843-1.989 1.37-4.138 2.481-6.4 3.309-1.532.871-3.113 1.65-4.735 2.335-1.432.824-3.029 1.312-4.672 1.427-1.726.369-3.483.565-5.247.584-2.961.007-5.838-1.002-8.162-2.863-2.323-1.861-3.958-4.4648-4.637-7.3871-.256-1.3718-.256-2.7802 0-4.152.371-2.0028 1.109-3.9174 2.176-5.6442.425-1.4476 1.097-2.8088 1.984-4.0223 0 .4542.384.4542.704 0 .239-.1767.429-.4127.552-.6853.124-.2726.176-.5728.152-.8717h-.704c-.32-1.1677.576-1.7516 1.28-2.3355s0-1.038.832-1.1678c.832-.1297 0-.3893 0-.3893l.448.3893c0 .4542.383.4542.511 0v-.3893.3893c.207-.2249.365-.4912.464-.7817.099-.2904.138-.5987.112-.905h-.704c.686-2.2423 1.919-4.2729 3.584-5.9038.448.3893.448.3893.448.5191 0 .1297 0-.0001 0-.5191h-.704c-.006-.4987.165-.983.483-1.3642.317-.3812.759-.6339 1.245-.7118h-.448.448v.4542c.102-.0263.194-.0841.263-.1654s.111-.1822.121-.2888h-.384c0-.5839 0-1.038.384-1.1677v1.1677c.261-.1548.468-.3873.594-.6659s.164-.5897.11-.8911h-.512c0-.5839 0-.7136.512-.7136v.7136s.576-.5839.896-.7136h-.64c0-1.2975.576-1.7517 1.6-2.3355 0 .7136.448.5838.704 0h-.704c-.005-.2597.058-.516.182-.7436.123-.2275.303-.4185.522-.5539v1.2975c.252-.1052.466-.2857.615-.5174.148-.2318.224-.5038.216-.7801.448 0 .704-.3893.704-.9732l.448-.5838h-.448v-.5839c1.004-2.7345 2.731-5.1362 4.992-6.9417.049-.6963.291-1.3644.699-1.9269.407-.5626.964-.9966 1.605-1.252.072-.6256.322-1.2164.72-1.7003.397-.4838.925-.8398 1.519-1.0245v1.038c.093-.3396.093-.6984 0-1.038h-.704c0-.5839 0-.7136.704-.7136v.7136s0-.5839.448-.7136h-.448v-.5839c.823-1.5282 2.011-2.8222 3.456-3.7628h.448-.576v-.8434c1.408-1.557 2.56-3.5682 4.096-5.1901 5.247-5.0603 10.238-10.38 15.358-15.116 2.04-2.4574 4.385-4.6379 6.975-6.4875 5.166-3.8836 10.622-7.35407 16.318-10.38016 3.017-.95779 6.277-.7498 9.151.58388.86.3884 1.625.96434 2.24 1.68676.286.42237.465.9098.521 1.41905.056.50926-.013 1.02461-.201 1.50036-.39 1.30091-1.094 2.48271-2.048 3.43841l-2.496 3.6331c0 1.1677-1.855 1.1677-2.303 1.8813s0 0 0 .7136h.704s.704-.7136.832 0c.128.7137 0 .0001 0 .584-.264.3098-.626.5164-1.024.5838-1.152-.5839-1.856 0-2.432 1.1678v.5839h.448.704.448c-.546.1428-1.118.1428-1.664 0-1.152 0-1.152.7136-1.28 1.8165s0 0-.576.5839h1.728c.122.2882.175.6012.156.9141-.019.313-.109.617-.265.8881-.155.271-.371.5014-.63.6729-.259.1714-.554.2791-.861.3145zm-69.368 64.162c-.285-.1771-.585-.3291-.896-.4541h-.384v-2.1409c-.576 0-.896.4542-.576.5839v1.557c-1.024 0-.832.9083-.832 1.2975h.512s0 .4542.448.5839c.448.1298.448-.5839.448-.5839.253-.0924.49-.2237.704-.3892 0 0 .256-.4542.576-.4542zm1.408-6.4875v-1.2975c-.576 0-.576.7136-.576 1.4272-1.152 0-1.408 1.1678-1.408 1.8814.263.0181.527-.0252.771-.1264s.462-.2577.637-.4575c0 .4542.448.4542.448.5839 0 .1298 0 0 0-.5839 1.088-.5838 1.087-1.1677.128-1.4272zm2.431-5.0603c-1.152 0-1.599 1.1678-1.472 2.2058.768-.4542 1.728-1.0381 1.472-2.2058zm6.4-7.9149c-.06-.0288-.126-.0438-.192-.0438-.067 0-.132.015-.192.0438v-1.7516c-1.28 0-1.6.9732-1.408 1.6868h.32s0-.3893.896-.3893v.3893c.116.0661.252.089.384.0648zm1.024-4.0222c.403-.212.834-.3649 1.279-.4542-.138-.5535-.138-1.1332 0-1.6867-1.343.519-1.471.8434-1.471 2.1409zm1.983-3.6331c-.243.149-.423.3837-.505.6591-.083.2754-.063.5721.057.8331.576-.1947.576-.7786.256-1.4922zm1.152-.8434c.704 0 1.152-.8433 1.152-2.0111-.249.0325-.488.1218-.698.2612-.211.1395-.387.3255-.517.544-.129.2185-.208.4638-.23.7177-.022.2538.012.5095.101.7477zm62.137-56.3769c-.109-.25191-.281-.47135-.497-.63766-.216-.16632-.471-.27403-.74-.31297s-.543-.00783-.797.09038-.478.26029-.653.47098c-1.624 1.58554-3.454 2.93882-5.44 4.02227-2.633 1.4286-5.157 3.055-7.551 4.8657-.576 0-.704 1.038-1.28 1.038-2.341 1.4477-4.492 3.1918-6.399 5.1901-2.432 1.4272-3.968 4.152-6.399 6.0334-1.644 2.2628-3.557 4.3111-5.696 6.0983 0 .3893-.832.7137-.96 1.1029-.824 1.1787-1.745 2.2854-2.751 3.3086-.832 1.1678-2.24 2.5951-3.072 3.7628-.832 1.1678-1.472 2.3356-2.432 3.3087s-1.152 1.2975-1.472 2.0111c-.32.7137-.704 1.0381-1.087 1.7517-.65.5487-1.27 1.1335-1.856 1.7516-.576.7137-.896 1.557-1.28 2.0112-.163.1073-.299.2508-.399.4193-.099.1686-.16.358-.177.5538 0 1.2975-1.152 1.7517-1.856 2.9194-2.314 2.3217-4.453 4.8155-6.399 7.4607-.896 1.038-1.024 2.4653-2.048 3.3087s-.832 1.038-.832 2.2058c1.28.3892 2.56-1.6219 3.264-2.2058 4.543-2.9843 7.807-4.8657 13.63-9.3421 5.592-4.2824 10.875-8.9654 15.807-14.0132 4.543-5.1251 10.942-9.9259 15.358-15.116 3.136-3.5682 5.951-7.3309 8.959-10.9639 1.177-1.7003 2.165-3.5281 2.944-5.4496.868-1.2558 1.598-2.6046 2.175-4.02231.128-.58388-.256-1.03801-.256-1.62189zm-61.369 53.9117c1.28 0 1.664-.7137 1.664-2.0112-.896.7136-1.664 1.4273-1.664 2.0112zm1.664-2.0112c.54-.2177 1.004-.5926 1.335-1.0775.33-.4849.511-1.0581.521-1.6473-.475.2831-.875.6791-1.164 1.1539-.29.4747-.462 1.0139-.5 1.5709zm3.584-3.4384v-1.6219c-.249.1825-.446.429-.57.7141-.123.2851-.17.5984-.134.9078zm0-1.6219c1.151 0 1.151 0 1.535-1.4273-.352.044-.678.2102-.923.4703-.245.2602-.394.5984-.421.957zm.575 45.413h1.152c4.486-1.976 8.772-4.3877 12.799-7.2012 3.156-1.9736 6.191-4.1402 9.087-6.4876.426-.0352.854-.0352 1.28 0 0-.5839 0-.8434.576-1.1029 2.112-1.2975 3.967-2.9194 6.399-4.3466 2.432-1.4273 2.56-2.1409 3.968-3.0492 1.475-.4567 2.801-1.3083 3.839-2.4652 0 0 0-.3893.576-.9732-.96 0-1.664.5839-2.56.7136-2.307 1.9127-4.722 3.6889-7.231 5.3198-1.457 1.0614-2.974 2.0362-4.543 2.9194-3.392 2.2707-7.104 4.1521-10.111 6.4876-3.008 2.3355-6.4 4.2818-9.343 6.4876-.546.5966-1.262 1.005-2.048 1.1677-1.493.4105-2.789 1.3555-3.648 2.66zm3.648-50.4084c-.832 0-1.216 0-1.216 1.1678 1.28.1297 1.408.1297 1.408-1.0381zm3.584-2.9194v-1.7517c-.96.7137-2.112 1.1678-2.112 2.8546.719-.4325 1.494-.7601 2.304-.9732zm1.535-4.0223c-.703 0-.831.8434-.703 1.6219.895-.3244 1.215-.6488.895-1.4922zm23.806 2.2706-.576-.7136c-.812.4901-1.528 1.1279-2.112 1.8814.247.1376.522.2163.803.2303.282.0139.563-.0374.822-.1499.259-.1126.489-.2835.673-.4997.185-.2163.318-.4722.39-.7485zm5.247-5.19c-.357-.1212-.655-.3766-.832-.7137-.576.3893-1.407.584-1.407 1.5571s.703 0 .703.4541 1.408-.2595 1.408-1.1029zm.704-1.6219v-.3893s0 0-.512.3893h.512v.7136c.32 0 .576-.3892.704-.7136zm2.88-2.9843-.576-.4541-2.304 1.2975v-.4541.4541 1.4272c.32 0 .576.4542.704.7137.772-.8593 1.458-1.7937 2.048-2.7897zm-1.6 38.9254c.325.1018.675.0863.99-.0438s.576-.3668.738-.6698h-.704c-.448.1297-1.152.4541-1.152 1.1677zm4.544-43.5316c0 .7137-.512.7137-1.28.7137s-.704.4541-.512 1.2975 0 .7136 0 .8434c0 .1297.448 0 1.024-.7136.504-.7255 1.257-1.2344 2.111-1.4273-.448-.4542 0-1.4273-.831-1.4273-.832 0-.576.4541-.768.7136v-.7136s0 .4541-.384.4541.384.7137.512.7137z" fill="url(#f)"/><path d="m531.581 78.1459c-2.293.364-4.559.8842-6.783 1.557-.16.3228-.407.5924-.714.7764-.306.1841-.658.2748-1.014.2615-1.798.0073-3.594.1374-5.375.3893-2.557.1673-5.122.1673-7.679 0-4.288 0-4.16-.5839-6.72 3.1789l-4.927 5.3198c0 .3893 0 .5839-.576.8434-4.16 2.595-7.551 5.9037-11.839 8.2392-2.825 1.5766-5.99 2.4226-9.215 2.4656-2.422-.101-4.71-1.152-6.382-2.9319-1.671-1.7794-2.596-4.1479-2.577-6.6051.012-1.3416.295-2.6665.832-3.8926 1.106-5.1726 3.458-9.9869 6.847-14.0131 1.536-1.8165 2.816-3.8925 4.544-5.7739.594-.48 1.071-1.0929 1.393-1.7907.322-.6977.48-1.4615.463-2.2316-.208-1.4163.137-2.8588.959-4.0223.965-1.0986 2.013-2.1182 3.136-3.0492 1.852-.9101 3.753-1.7116 5.695-2.4004.807-.493 1.753-.6985 2.688-.5839 1.325-.3248 2.707-.3248 4.032 0 1.044.0822 2.094-.0729 3.071-.4541 2.048-.7137 3.584.4541 5.312 1.038.704 0 .704 1.2975 0 1.6867-.704.3893-.896.0001-.448.4542.54 1.0324 1.207 1.9914 1.984 2.8545 1.337 1.5053 2.255 3.3441 2.66 5.3278.405 1.9838.282 4.041-.357 5.9606-.576 1.557-1.023 3.3087-1.855 5.0603 2.297.518 4.678.518 6.975 0 3.392-.5839 6.783-1.3624 10.367-2.076 2.105-.6317 4.241-1.1515 6.399-1.557 1.12-.303 2.137-.9084 2.944-1.7517 1.159-.3734 2.367-.5702 3.583-.5839.448-.3892 1.28 2.0761 1.28 2.2058zm-34.492 2.2706s-.576 0-.704-.5839c-4.871-.9289-9.24-3.6279-12.287-7.5905-.704-.7785-1.28-.7785-1.472 0-1.326 1.8921-2.422 3.9397-3.263 6.0984-1.28 2.7248-2.56 5.3198-4.096 8.0445-1.536 2.7248-1.856 5.1901-3.007 7.331-.384.9082.448 1.6219 1.279 1.8814h2.304c1.375.1081 2.752-.1845 3.968-.8434 5.069-2.5517 9.764-5.8049 13.95-9.6664 1.096-1.2251 2.272-2.3739 3.52-3.4385 0 0 .192-1.2326-.384-1.2326zm5.823-22.0578c-.317-.3979-.708-.7286-1.152-.9731 0 0-.704 0-.831 0-1.986.9671-3.855 2.1645-5.568 3.5682-1.953 1.2687-3.813 2.678-5.567 4.2169l-3.136 2.8545c-.162.0797-.299.2041-.395.359s-.146.334-.146.5169c0 .1828.05.3619.146.5168s.233.2793.395.359c0 .3892.896.8433 1.024 1.2975 1.374 1.2751 3.049 2.169 4.863 2.595 2.417.9159 4.929 1.5472 7.488 1.8814.54.1214 1.103.0749 1.617-.1334s.954-.5688 1.262-1.0343c1.582-2.4751 2.549-5.3024 2.816-8.2393.258-1.4343.133-2.9125-.362-4.2813-.495-1.3689-1.342-2.5786-2.454-3.5038z" fill="url(#g)"/><path d="m619.764 71.463c-1.352 1.587-2.926 2.9641-4.672 4.0872-1.98 1.6128-4.125 3.0049-6.399 4.1521-1.881 1.0532-3.641 2.3152-5.248 3.7628-1.279.9731-2.559 1.6867-3.839 2.7247-1.53.9265-3.005 1.9447-4.416 3.0492-3.283 2.7347-7.206 4.5667-11.39 5.3198-.832 0-1.536.4541-2.56.4541-.966.4213-2.053.4619-3.047.1139-.994-.3479-1.824-1.0594-2.329-1.9953-.065-.3773-.219-.7332-.447-1.038-.735-.5226-1.31-1.2433-1.66-2.0804-.351-.8371-.463-1.757-.324-2.6555v-1.7517c-.145-1.7055.259-3.4127 1.152-4.8656.297-1.153.682-2.2809 1.152-3.3736h-.32c-.448 0-.576 0-.576 0-2.432 2.3356-5.12 4.3467-7.552 6.4876l-7.231 5.5144c-.954.6316-1.815 1.3959-2.56 2.2707-2.378 2.1406-5.198 3.7145-8.255 4.6061-.583.4665-1.321.6864-2.061.6138-.739-.0725-1.422-.4319-1.906-1.003-1.153-.9277-2.011-2.1794-2.467-3.5987-.455-1.4193-.487-2.9431-.093-4.381.715-2.905 1.904-5.668 3.52-8.1743 2.833-5.0218 6.133-9.7576 9.855-14.1429 1.407-1.5571 2.239-1.5571 3.711 0 0 0 .576.3892.576.8433 0 .4542.512 1.1678 0 1.4273-.778.859-1.405 1.8463-1.856 2.9194-.982 1.9968-2.094 3.9257-3.327 5.774-.938 1.4853-1.793 3.0231-2.56 4.6061-1.088 1.8814-2.368 3.6979-3.392 5.9037-.576.8434-.704 2.0111-1.28 2.7248l.704.4541c.89-.3535 1.747-.7877 2.56-1.2975 4.288-3.3735 8.575-6.4876 12.799-9.6665l17.342-12.9751c.859-.6511 1.876-1.0546 2.944-1.1678h.767c.768 0 .96.3893 1.408.8434s1.856 1.1678 1.28 2.4653c-.074.7277-.224 1.4452-.448 2.1409-1.28 1.1677-1.728 3.0491-2.815 4.0223l-.768.4541c-1.664 4.1521-4.096 8.2392-5.632 12.3913 0 1.038 0 1.1677.576 1.1677 2.356.3433 4.757-.1617 6.783-1.4272 4.672-2.7897 8.831-5.6442 13.119-8.6934 4.288-3.0491 8.895-5.4495 13.631-8.8879l1.855-1.1678c3.264-2.3355 4.096-2.7248 6.4 0 1.023 1.2326.128 2.3355-.704 3.0491zm-19.198 8.2393c-1.152 0-1.856.4541-1.984 1.557.466.0553.935-.0767 1.306-.3678.37-.2912.614-.7181.678-1.1892zm1.728-1.1678h-.576c-.369.2591-.658.6191-.832 1.038.509.038 1.013-.1246 1.408-.4541zm4.671-1.1678c-.576 0-1.152 0-1.28 1.038.704 0 1.152 0 1.28-1.038zm4.544-2.7247c-1.088 0-1.856-.0001-2.112 1.4921 1.024 0 1.536-.5839 2.112-1.4921zm-1.408-1.2976c.11.1074.241.1914.384.2471.142.0557.295.082.448.0773h.576c.265-.395.46-.8342.576-1.2975-.448 0-1.152 0-1.28.7136z" fill="url(#h)"/><path d="m729.701 75.5538c-2.88 1.1029-5.567 2.0111-8.575 2.9842-.817.6037-1.805.9224-2.816.9083-.96 0-1.408 0-1.152 1.2975l-.832.3893-15.358 6.4875c-4.095 1.5571-8.639 3.3087-12.35 4.6062-2.026 1.085-4.175 1.9129-6.4 2.4653-2.246.7664-4.651.9229-6.975.4541-.576-.4541-1.728-1.038-2.432-1.4921-.873-.8296-1.666-1.7421-2.367-2.7248-.57-.7924-.883-1.7444-.896-2.7248-.339-4.7314.204-9.4851 1.599-14.0131.622-1.371 1.094-2.8068 1.408-4.2818.307-1.0306.458-2.1024.448-3.1789 0-1.038 0-1.1678-.896-.4541-3.391 1.1677-6.399 2.4652-9.663 3.633-1.855.8434-3.007 1.8814-4.671 2.7247-1.664.8434-4.672 3.0492-6.975 4.736-.832.9082-2.688.9082-3.584 2.2057-4.496 3.018-8.639 6.5439-12.351 10.5099-.704.5839-1.407 1.4272-1.983 2.0111-1.324 2.0857-3.182 3.7674-5.376 4.8657-.576.5839-.896 1.1678-1.472 1.7517-.363.0894-.741.095-1.106.0164-.366-.0786-.709-.2394-1.005-.4706-1.152-2.0111-2.432-4.152-1.152-6.4875.467-1.3861 1.045-2.7313 1.728-4.0223.704-1.7517 1.535-3.0492 2.303-4.7359.164-.7253.544-1.382 1.088-1.8814 3.185-4.8824 5.583-10.2478 7.103-15.8946.704-1.557 1.728-2.0111 3.008-1.557 1.517.7248 2.836 1.8164 3.84 3.1789.576.5839 0 .8434 0 1.1678-1.233 1.2914-2.019 2.9532-2.24 4.7359-.487.5336-.838 1.1793-1.024 1.8814-1.721 2.7488-3.302 5.5854-4.735 8.4987-.417.6021-.701 1.288-.832 2.0111.268.0992.563.0992.832 0 2.879-2.0111 5.439-3.6978 8.127-5.9036 2.731-2.5038 5.737-4.6806 8.959-6.4876 1.838-1.3169 3.786-2.4675 5.823-3.4384 1.989-1.5633 4.134-2.9114 6.399-4.0223 1.461-.5362 2.84-1.2788 4.096-2.2057 1.322-.8 2.714-1.4734 4.159-2.0112 1.224-.6322 2.605-.8806 3.968-.7137.358.1809.682.4223.96.7137.768 1.038 1.856 2.2058 2.56 3.3087.195.6114.195 1.2699 0 1.8814-.704 3.5032-1.536 6.9416-2.368 10.5098-.832 3.5681-1.152 5.5144-1.728 7.9797-.536.7996-.784 1.7616-.704 2.7248 0 1.557.704 2.0111 2.432 1.6867 3.717-.361 7.385-1.1221 10.943-2.2706 2.727-1.3071 5.526-2.4551 8.383-3.4384 2.431-1.038 4.543-2.2058 7.103-3.0492 2.56-.8433 6.847-2.7248 9.919-3.633 3.072-.9083 5.887-2.2706 9.151-3.5682 3.264-1.2975 5.375-2.0111 8.063-3.4384.896-.5838 2.432 0 3.712-.4541.061-.0116.124-.0079.184.0108.059.0187.113.0518.158.0966.044.0447.076.0997.095.1601.018.0604.022.1245.011.1866-.576 1.8814 1.279 3.4384-4.544 5.774zm-42.811 13.4941h-1.536s0 .4541.576.4541c.186.0282.377.0001.547-.0806.171-.0808.314-.2107.413-.3735zm1.984-.519s-1.536-.4541-1.856.3892h1.024c.832 0 .832.0001.832-.3892zm12.798-4.6711h-1.152c-.448 0-.576 0-1.024.9083.64.1297 1.472.1298 2.176-.9083zm3.648-1.2326c-.592-.1262-1.204-.1159-1.791.0301s-1.134.4239-1.601.8133c.552.0913 1.116.0634 1.657-.082.54-.1453 1.044-.4048 1.479-.7614zm2.176-1.038h-1.024c-.281.0115-.549.1211-.759.3103-.21.1893-.349.4464-.393.7277.768 0 1.6.1298 1.919-1.038zm23.869-8.369s-.448-.5838-.448 0c-1.618.1657-3.197.6042-4.672 1.2975 0 0-.703.7137-1.151.3893-1.856-.3892-3.264.7785-5.12 1.3624-.576 0 0 1.2326-1.408 1.2326-.499.0304-.983.1864-1.408.4541-.625.3023-1.295.4995-1.983.5839-2.304.8434-4.544 1.4273-6.4 2.3356-.448 0-1.024.3892-1.024.8433 1.024.5839 1.856 0 2.816 0 3.456-1.3941 6.98-2.6067 10.559-3.633 0 0 .384 0 .832-.4541s2.176-.7137 2.88-1.2327c2.276-.5463 4.442-1.4903 6.399-2.7896 0 0-.128-.3893-.128-.3893z" fill="url(#i)"/><path d="m766.113 101.496c-.448 0-.576 0-.832.389s0 2.336-1.599 2.725c-.216.239-.336.552-.336.876s.12.636.336.876v.713c-.832 0-1.664 0-1.28 1.168-.318.157-.58.41-.752.723-.171.313-.244.672-.208 1.029 0 .973-1.024 0-1.28.519-1.152 2.205-2.304 4.087-3.392 5.968-.989 2.023-2.358 3.83-4.031 5.32-1.088 1.557-1.984 2.4-3.136 3.893-1.152 1.492-.96 1.427-1.984 1.427-.023.531-.162 1.05-.405 1.521s-.585.881-1.002 1.204c-1.382 1.704-2.902 3.288-4.544 4.736-1.152.778-1.856 2.076-3.136 2.465-.246.326-.579.574-.96.713-2.879 1.752-4.863 1.168-6.975-1.686-2.061-2.712-2.981-6.14-2.56-9.537.018-2.525.874-4.971 2.432-6.942 1.981-2.989 4.117-5.869 6.4-8.628 1.535-1.298 2.815-2.725 4.415-4.023 4.274-3.793 8.784-7.303 13.503-10.5093.379-.0844.772-.0844 1.151 0 0 .9731-1.151 1.1028-1.727 1.6867-1.536 1.1678-2.816 2.0116-3.968 3.0496-.258.201-.472.455-.626.746-.155.29-.247.611-.27.94 1.172-.658 2.285-1.418 3.328-2.27 2.672-2.4226 5.667-4.4534 8.895-6.0337l1.024-1.2976c1.651-.4001 3.2-1.152 4.543-2.2057.576-.5839.576-.7137 1.024-.9732s0-.9082-.448-1.1677c.448 0 .448-.8434.576-1.1678 1.386-1.061 2.504-2.4393 3.264-4.0223.349-1.0691.993-2.0146 1.856-2.7248.036-.4499.242-.8683.575-1.1677.054-.8641.301-1.7044.722-2.4574.422-.7531 1.006-1.3991 1.71-1.8893-.062.2557-.062.5229 0 .7785-.058.1679-.058.3511 0 .519v-.519-.9082h-.576c.608-2.4176 1.556-4.7337 2.816-6.8769 1.152-2.7248 2.432-5.19 3.584-7.6553 0 0 0-.4541 0-.5839 0 0-.448 0-.704.4542-.284.183-.524.4266-.704.7136-2.169 2.3761-4.547 4.5476-7.104 6.4876-1.855 1.2975-3.263 2.9193-5.119 4.0222l-5.823 5.1901c-2.304 2.4653-5.12 4.3467-7.168 6.4876-2.425 2.1692-5.139 3.9819-8.063 5.3847-1.269.468-2.474 1.1003-3.583 1.8814-1.126.4167-2.324.5934-3.52.5189-1.186.1003-2.37-.2111-3.358-.883-.989-.672-1.723-1.6645-2.081-2.8149-.49-1.0897-.744-2.2733-.744-3.4708 0-1.1976.254-2.3812.744-3.4709.767-1.8205 1.875-3.4729 3.263-4.8657 3.333-4.054 7.21-7.6137 11.519-10.5747 3.99-2.7708 8.136-5.3052 12.415-7.5904 2.368-.7785 5.119-2.4653 7.487-3.179.56-.1927 1.167-.1927 1.728 0 2.572.0741 5.047 1.0094 7.039 2.66 0 .3892.704.3892 1.28 0 1.609-1.6429 3.319-3.1813 5.119-4.6062.398-.3611.827-.6867 1.28-.9731 1.28-1.8814 3.008-1.4273 4.096.5839v.9731c-1.521 4.5738-3.294 9.0573-5.312 13.4292-.706 1.6561-1.562 3.2417-2.559 4.736-1.217 1.8189-2.165 3.8076-2.816 5.9036 0 .7137 0 1.2976-.576 1.4273-.73.9937-1.212 2.1508-1.408 3.3736 1.856 0 2.688-1.1678 4.416-1.7517 1.009-.6847 2.179-1.0874 3.391-1.1678-1.912 1.2499-3.9 2.3767-5.951 3.3736-.448 0-1.152 0-1.856 0v-.7136c-.448 0-.448.5838 0 .7136-.32 1.1029-1.28 1.1029-1.6 1.8814s-.512.3892 0 .519c.512.1297 0 .5838 0 0 1.843-.7271 3.639-1.5722 5.376-2.5302 1.983-1.038 4.287-2.076 6.399-2.9194s5.439-2.595 8.127-3.8925c0 0 0 0 0-.4541-1.212.0272-2.407.2915-3.52.7784-.402.3204-.866.5498-1.363.6729s-1.014.137-1.516.0408c0 0 0-.4542.448-.7137 2.917-1.5188 6.014-2.6525 9.215-3.3735 2.527-1.0112 5.173-1.6871 7.871-2.0111 2.368-1.4273 4.095 0 5.631 1.8814.448.4541 1.856.7136 1.856 1.8814 0 1.1677-.576 1.6218-1.088 1.6218h-.576c-1.347-.4788-2.78-.6627-4.203-.5397s-2.804.5502-4.052 1.2534c-.372-.1391-.78-.1391-1.152 0-.441.3126-.966.4803-1.504.4803s-1.063-.1677-1.503-.4803c0-.4541.576-.4542 1.151-.7137.576-.2595 0-.4541.832-.7784-1.252.0339-2.488.2976-3.647.7784-.32 0-.32.5191-.576.7137h1.856v1.1029c-1.001.0907-2.008.0907-3.008 0l.576-.5839s0-.4541.704-.7136c-2.075.016-4.099.6475-5.824 1.8165-1.599 0-2.879 0-3.583 1.557.614.1312 1.248.1356 1.863.0129.616-.1226 1.201-.3697 1.72-.7265-.048.523-.249 1.0195-.575 1.4272-.128.1782-.311.3073-.521.3662-.209.0589-.431.0442-.631-.0418-.186-.1371-.41-.211-.64-.211s-.454.0739-.64.211c-.832 0-1.408 0-2.24 0v-.7785c-.576 0-1.152 0-1.472.7785h1.472c.01.5602-.15 1.1099-.46 1.5742-.309.4644-.752.8209-1.268 1.0208-1.024 0-1.856 0-2.688 0l1.408-.7136c.704 0 1.536-.4541 1.536-1.557-1.282.2083-2.518.6477-3.647 1.2975-1.495.6744-2.929 1.4775-4.288 2.4004 0 0-.704.4541-.704.5839 1.408.4541 2.432-.3893 3.392-.5839s.448-.5839 1.024-.5839 0 0 0 .5839v.4541c-.955.5296-1.938 1.006-2.944 1.4273-.896.5839-1.024 0-1.856-.3893v-.9082c-1.124.4615-2.215 1.0035-3.263 1.6219-1.024.8434-.576 1.4273-.576 2.0111h.384-.384c-.462.4816-1.003.8769-1.6 1.1678v.4541c-.832 1.2976-1.792 2.5951-2.56 3.8926s-.512 1.5569-1.28 1.6867c.027.5389-.121 1.0719-.421 1.5172-.301.4453-.737.7784-1.243.9481-.576 0-.576.5839-.576 1.1678v.4539s.896 1.427.896 1.168zm-2.431.389v-1.427c-.153.193-.348.347-.571.449-.222.101-.465.148-.709.135 0 .843 0 1.297-.832 1.687-.044-.308-.014-.621.086-.915.1-.293.268-.558.49-.772 0-1.038.576-1.7518 1.536-1.8816.273-.6999.508-1.4146.704-2.1409v-.5838h-.576c-1.159 1.5404-2.676 2.7662-4.416 3.5683-.704.454-1.28 1.038-2.24 1.751-3.007 2.141-6.015 4.477-8.959 6.488-2.943 2.011-3.711 3.763-5.567 5.514-.889.739-1.703 1.565-2.432 2.466-1.337.891-2.366 2.184-2.944 3.698l-1.151 1.492c-2.171 2.617-3.725 5.701-4.544 9.017-.032.194-.032.391 0 .584-.07.398-.042.808.08 1.192.123.385.337.733.624 1.014.321.279.712.463 1.13.532s.846.019 1.238-.143c1.117-.109 2.192-.487 3.135-1.102 1.922-1.305 3.74-2.758 5.44-4.347.707-.998 1.523-1.912 2.432-2.725.772-1.852 2.091-3.415 3.775-4.476 0 1.881-1.536 2.465-2.688 4.022 0 0-.703 0-.831.454s0 1.168-.832 1.427c-1.28 1.557-2.304 3.049-3.712 4.477-.576 0-.704.713-.576 1.427 1.408 0 1.856-1.168 2.56-1.752 1.085-1.598 2.426-3.001 3.967-4.152 1.024-1.427 2.112-2.919 3.264-4.346 2.253-2.694 4.206-5.631 5.823-8.759l.32-1.751-1.28.713c0-1.297.001-1.881 1.28-2.011 0-.843 0-1.297.576-1.557.576-.259.576-.908.96-.908s0-1.103.576-1.427c.576-.325 0 1.168-.448 1.427-.448.26 0 .908-.704.908-.015.321-.112.633-.28.906-.168.272-.402.497-.68.651v1.298c0-.584.96-.584 1.152-.714 1.565-2 2.897-4.177 3.968-6.487.664-.943 1.284-1.917 1.856-2.92zm-23.294 31.141c-.603.024-1.185.227-1.674.585-.49.358-.864.854-1.078 1.426 1.728.324 2.432-.973 2.752-2.011zm-.32-22.642v1.038c1.988-1.279 3.654-3.012 4.864-5.06-.081-.069-.183-.107-.288-.107-.106 0-.208.038-.288.107-1.585 1.159-3.025 2.51-4.288 4.022zm34.428-48.9812h-1.151c.434-.6393.819-1.3117 1.151-2.0112 0-.5839 0-1.038 0-1.6219s-1.151-.3892-1.727 0l-.96.7137c-.448.4541-.704.9082-1.28 1.1677-1.984.5839-3.584 2.3356-5.44 3.0492-1.855.7136-3.967 2.8545-5.951 3.8925-2.105.8838-3.892 2.401-5.119 4.3467v.3893c-3.992 2.7993-7.588 6.1389-10.687 9.9259-.843 1.0788-1.474 2.3123-1.856 3.6331 1.456.0683 2.901-.2922 4.16-1.038 1.791-.7137 3.391-2.1409 5.247-2.9843l1.664-1.038 9.087-6.4876c4.159-3.3087 8.127-6.4876 11.967-10.1206.305-.1842.551-.4532.71-.7751.159-.322.223-.6835.185-1.0414zm-28.86 44.1152c1.855 0 2.687-1.297 3.519-2.789-.732.061-1.437.307-2.052.715-.614.408-1.119.965-1.467 1.62zm7.807 10.056c-.005.443-.112.879-.312 1.273s-.487.736-.84.998c-.545 1.574-1.669 2.876-3.136 3.633.207-.809.582-1.564 1.101-2.213s1.169-1.178 1.907-1.55c-.069-.453.021-.915.255-1.307.234-.391.597-.687 1.025-.834zm1.728-2.336c.053.334-.006.676-.169.97-.163.295-.419.525-.727.652 0-.843 0-1.557.896-1.881zm6.975-19.8515c-.404-.1206-.836-.1035-1.229.0489s-.726.4315-.947.7945c-.832 0-1.408.7136-1.856.7136v-.7136c2.198-1.4835 4.534-2.7439 6.975-3.7628 0 .9082-.895 1.1677-1.279 1.4272-.353.0605-.687.2033-.976.4172-.289.214-.524.4932-.688.8155zm-1.856 11.9375c.004.491-.17.967-.488 1.337-.318.371-.759.61-1.24.674-.068-.268-.075-.548-.02-.819s.17-.526.336-.745c.167-.219.381-.396.625-.519.245-.123.514-.187.787-.188zm1.28-2.336c-.02.463-.146.916-.368 1.321-.222.406-.534.753-.912 1.015-.185-.534-.154-1.12.086-1.63.24-.511.669-.904 1.194-1.095zm3.711-4.6061c-.52.2062-.967.5683-1.279 1.038v1.1681c1.087-.584 1.279-1.2978 1.279-2.4656zm0-3.6979c.384-.5839.832-.7136 1.088-1.4273.256-.7136 0 0 0 0-.499.4202-1.092.7098-1.728.8434 0 0-.127.3244.448.3244zm1.024 2.4004c-1.024 0-.832.5839-.832 1.2975s.64-.9731.64-1.557zm-.832-6.8768c0-.7137.832-.5839 1.408-.5839s-.768.5839-1.6.3244zm1.664 4.7359c-.448.3893-.576.8434-.576 1.8165.576 0 .832-.9731 1.152-1.4273-.03-.1832-.125-.3494-.265-.4683-.141-.119-.319-.183-.503-.1804zm19.198-15.6999c-.576-.4541 0-.8434.576-.8434.581-.301 1.209-.4984 1.856-.5839-.315.4255-.735.7581-1.219.9634s-1.013.2759-1.533.2044zm3.136 1.557c-.279-.0462-.565-.0021-.818.126s-.459.3337-.59.5876c.704 0 1.408.3244 1.664-.7136zm8.063-2.0111c0 .5839-.576.7136-.96 1.2975s-1.28.7136-1.984.4541-.704-.4541-1.28-.5839v-.5839h1.984c.556-.4475 1.218-.7384 1.92-.8433zm.896-4.0223c-.576 0-1.472 0-1.6.8433-.128.8434.832.0649 1.28-1.1028zm1.984-.5839c-.704 0-1.728 0-1.984.5839h1.28c.064-.2595.384-.3893.384-.8434zm2.111-.4541h-.576c-.248-.1179-.53-.1366-.791-.0524s-.481.2651-.616.5065h1.599c.094.0086.187-.0207.259-.0816.072-.0608.117-.1482.125-.2428.009-.0946-.02-.1888-.08-.2618s-.146-.1188-.24-.1274zm5.824.4541c-1.63-.022-3.239.3801-4.672 1.1678 1.575.0839 3.124-.4244 4.352-1.4273zm-2.688-1.8814h2.112.32c.32 0-.448 0-.576 0-.669-.3547-1.444-.447-2.176-.2595z" fill="url(#j)"/><path d="m881.3 76.6597s-.704.3893-.896.3893c-2.359.5116-4.641 1.3407-6.783 2.4653-3.584 1.557-7.104 2.9194-10.559 4.3466-.384 0-.96 0-1.088.5839-3.036 1.6806-6.178 3.1544-9.407 4.4115-3.136 1.2975-6.399 2.7897-9.215 4.217-4.305 2.5003-9.039 4.1513-13.95 4.8656-.832 0-1.408.0001-1.984 1.0381-2.553.7928-5.311.5364-7.679-.7137-1.398-.3796-2.676-1.1168-3.712-2.1409-1.493-1.2786-2.546-3.0053-3.008-4.9305-.604-2.1192-.604-4.3685 0-6.4876l1.024-1.8814c2.198-5.0898 5.606-9.5478 9.919-12.9751 3.832-3.7749 8.134-7.0247 12.799-9.6665 1.505-1.1437 3.262-1.9005 5.119-2.2057 1.28-.519 2.944-.7137 4.224-1.2976.681-.6468 1.561-1.038 2.492-1.1088.931-.0707 1.858.1831 2.627.7196 0 .3892.704 0 1.28.3892.576.3893 1.408 0 1.6.5839.881.9551 1.634 2.024 2.24 3.1789.628.8028.969 1.7974.969 2.8221s-.341 2.0193-.969 2.8221c-1.856 2.2707-3.008 4.8657-5.824 6.0335l-2.048 1.2974c-3.838 2.9497-8.394 4.7883-13.182 5.3198-1.341.4382-2.757.5928-4.16.4542-1.792 0-4.095-.4542-6.399-.4542-.244-.0184-.49.0254-.713.1274-.224.102-.418.2589-.567.4566-2.566 3.0711-4.718 6.4744-6.399 10.1205-.115.25-.177.5212-.184.7968-.007.2755.042.5496.144.8051.102.2556.255.4871.449.6803.194.1931.425.3438.679.4426 1.6.4541 3.455 1.2975 4.863.4541 3.088-.2105 6.139-.7986 9.087-1.7516 2.462-.7616 4.877-1.6715 7.231-2.7248 2.752-1.2975 4.864-2.4652 7.296-3.7628.703.8434.703.8434 1.407 0 1.037-1.0514 2.311-1.8308 3.712-2.2706 0-.5839.96-.5839 1.856-.9083 4.671-2.0111 9.471-4.4764 13.886-6.4876 1.339-.6427 2.731-1.1638 4.16-1.557 1.236-.497 2.416-1.1277 3.519-1.8814.709-.3823 1.536-.4743 2.31-.257.774.2172 1.436.7272 1.85 1.4248.352.3837.791.6735 1.28.8434.96 1.2327 1.536 2.8545.704 3.3735zm-55.61 0c.448.4542 1.28 0 1.728 0 .611-.1353 1.244-.1353 1.856 0l4.095-.7136c1.637-.5245 3.24-1.1529 4.8-1.8814 3.624-1.0667 7.013-2.8286 9.982-5.19 1.613-1.0347 2.866-2.5545 3.584-4.3467.384-.3893.384-1.2975.384-2.0112 0-.7136 0-.9731-.704-1.557-.704-.5838-.96 0-1.152.5839s-.832.7136-1.664.7136c-3.166.2232-6.236 1.2013-8.959 2.8546-3.29 1.8563-6.398 4.0288-9.279 6.4875l-3.839 3.7628s-.96 1.2975-.832 1.7517z" fill="url(#k)"/></svg>