<svg fill="none" height="97" viewBox="0 0 84 97" width="84" xmlns="http://www.w3.org/2000/svg" xmlns:xlink="http://www.w3.org/1999/xlink"><linearGradient id="a" gradientUnits="userSpaceOnUse" x1="26.1765" x2="63.1739" y1="52" y2="46.3969"><stop offset="0" stop-color="#54917a"/><stop offset="1" stop-color="#6ec0da"/></linearGradient><path d="m55.2222 18h-30.2222v18.8889c0 4.1744 3.3811 7.5555 7.5556 7.5555h11.3333c4.1744 0 7.5555-3.3811 7.5555-7.5555v-5.6667h3.7778c2.0967 0 3.7778-1.7 3.7778-3.7778v-5.6666c0-2.0967-1.6811-3.7778-3.7778-3.7778zm0 9.4444h-3.7778v-5.6666h3.7778zm-30.2222 20.7778h30.2222v3.7778h-30.2222z" fill="url(#a)"/><path d="m3.096 68.972c-.48.996-1.476 2.376-2.268 3.132l1.032.696c.66-.72 1.776-2.268 2.304-3.312zm6.72-1.272c.3 0 .708 0 1.056.024v-1.236c-.312.036-.756.06-1.068.06h-3.012v-1.104c0-.276.06-.78.096-.948h-1.416c.048.192.096.66.096.936v1.116h-3.216c-.372 0-.732-.024-1.08-.072v1.26c.336-.024.72-.036 1.092-.036h3.204v.048c0 .576 0 4.536-.012 5.1 0 .324-.132.456-.444.456s-.852-.048-1.368-.144l.108 1.188c.54.06 1.248.084 1.812.084.78 0 1.128-.36 1.128-1.02v-5.712zm-1.608 1.824c.612.744 1.488 2.22 1.98 3.204l1.116-.612c-.48-.876-1.428-2.388-2.064-3.156zm9.708-2.532-1.128.372c.276.576.816 2.076.96 2.64l1.128-.408c-.156-.528-.744-2.1-.96-2.604zm3.06.348c-.168 1.512-.768 3.072-1.596 4.104-.996 1.236-2.58 2.148-3.936 2.532l.996 1.02c1.356-.528 2.844-1.488 3.948-2.904.84-1.068 1.356-2.34 1.68-3.612.048-.204.12-.42.228-.72zm-5.856.276-1.128.408c.264.468.888 2.1 1.092 2.736l1.14-.42c-.228-.648-.828-2.172-1.104-2.724zm19.164 2.136c-1.2-.588-3.492-1.44-5.076-1.92v-1.872c0-.42.048-.948.084-1.344h-1.476c.072.408.108.96.108 1.344v6.936c0 .468-.036 1.116-.096 1.536h1.476c-.06-.432-.096-1.164-.096-1.536v-3.708c1.32.432 3.264 1.188 4.536 1.872zm12.348-3.36c-.276-.552-.792-1.332-1.116-1.776l-.804.372c.42.564.756 1.116 1.104 1.8zm-1.536.66c-.264-.564-.768-1.344-1.092-1.812l-.804.348c.408.576.744 1.152 1.056 1.836zm-4.272-.924c0-.432.06-.948.096-1.344h-1.476c.072.396.108.96.108 1.344v6.936c0 .456-.036 1.116-.096 1.536h1.464c-.048-.444-.084-1.164-.084-1.536l-.012-3.708c1.32.432 3.276 1.188 4.548 1.86l.528-1.296c-1.188-.588-3.492-1.452-5.076-1.92zm9.696-1.224c.024.252.048.672.048.888v4.02c0 .348-.048.768-.06.972h1.404c-.024-.24-.048-.66-.048-.972v-4.02c0-.336.024-.636.048-.888zm5.532-.096c.036.312.072.672.072 1.104v2.064c0 2.1-.156 3.036-.996 3.984-.732.828-1.764 1.284-2.904 1.572l.996 1.044c.876-.3 2.088-.84 2.868-1.752.888-1.008 1.32-2.028 1.32-4.776v-2.136c0-.432.024-.792.048-1.104zm6.744.252-.876.936c.888.612 2.376 1.908 3 2.544l.948-.972c-.672-.696-2.22-1.944-3.072-2.508zm-1.236 8.028.804 1.236c1.86-.336 3.384-1.044 4.596-1.788 1.872-1.152 3.348-2.796 4.212-4.344l-.732-1.308c-.732 1.536-2.232 3.336-4.164 4.524-1.152.708-2.712 1.38-4.716 1.68zm20.064-7.176c-.228.084-.564.12-.9.12h-2.88c.06-.096.12-.204.168-.3.132-.24.384-.708.624-1.068l-1.392-.456c-.096.348-.3.84-.444 1.08-.564 1.056-1.68 2.724-3.768 3.972l1.056.78c1.26-.84 2.28-1.896 3.048-2.928h3.744c-.216 1.008-.936 2.52-1.824 3.54-1.068 1.236-2.496 2.304-4.812 3l1.116.996c2.244-.864 3.696-1.968 4.8-3.324 1.08-1.32 1.788-2.928 2.112-4.08.084-.24.216-.54.336-.732z" fill="#222"/></svg>