<svg fill="none" height="97" viewBox="0 0 80 97" width="80" xmlns="http://www.w3.org/2000/svg" xmlns:xlink="http://www.w3.org/1999/xlink"><linearGradient id="a" gradientUnits="userSpaceOnUse" x1="24.1535" x2="60.8829" y1="61" y2="57.2917"><stop offset="0" stop-color="#54917a"/><stop offset="1" stop-color="#6ec0da"/></linearGradient><path d="m37.0278 56.8333h5.2778v-5.6944l9.8611-10.8333v-13.2639h-25v13.2639l9.8611 10.8333zm-4.1667 4.1667v-8.1944l-9.8611-10.8334v-14.9305c0-1.1111.4167-2.0834 1.25-2.9167s1.8056-1.25 2.9167-1.25h2.9166v-11.875h4.1667v11.875h10.8333v-11.875h4.1667v11.875h2.9167c1.1111 0 2.0833.4167 2.9166 1.25.8334.8333 1.25 1.8056 1.25 2.9167v14.9305l-9.8611 10.8334v8.1944z" fill="url(#a)"/><path d="m9.952 73.964c1.056 1.476 3.12 3.204 4.968 4.26.204-.348.468-.72.756-1.008-1.896-.888-3.936-2.568-5.196-4.368h-1.176c-.9 1.524-2.88 3.408-4.956 4.512.252.228.576.636.72.9 2.004-1.14 3.9-2.856 4.884-4.296zm-4.068 5.976v.996h8.196v-.996zm.576-2.676v1.008h7.116v-1.008zm-1.548 5.424v1.02h10.236v-1.02zm4.452-4.992v5.556h1.188v-5.556zm13.08 1.104v5.232h1.116v-5.232zm-3.612-2.52v.924h8.532v-.924zm1.704-.996v3.876h4.932v-3.876h-1.104v2.964h-2.784v-2.964zm-1.164 4.716v3.636h1.104v-2.664h5.664v-.972zm6.252 0v2.436c0 .132-.048.18-.204.18-.156.012-.672.012-1.236-.012.144.288.276.672.312.984.828 0 1.392-.012 1.764-.168.384-.156.48-.444.48-.96v-2.46zm-3.852-7.128v1.716h1.176v-1.716zm-3.828 1.176v1.02h9.516v-1.02zm-.552 0v3.432c0 1.752-.084 4.224-1.08 5.94.264.12.744.432.936.624 1.068-1.836 1.236-4.656 1.236-6.564v-3.432zm13.056 6.072v.72h7.02v-.72zm.012-1.488v.792h6.552v2.112h-6.552v.792h7.668v-3.696zm2.892.42v3.504c0 1.104.42 1.392 1.896 1.392h2.676c1.212 0 1.548-.384 1.692-1.848-.3-.06-.732-.204-.972-.372-.06 1.128-.18 1.332-.804 1.332-.456 0-2.16 0-2.508 0-.744 0-.888-.084-.888-.504v-3.504zm-3.468-.42v4.284h1.092v-4.284zm-.312-5.28v.864h8.832v-.864zm.828 2.808v.66h2.472v-.66zm-.24 1.212v.66h2.712v-.66zm4.908 0v.66h2.772v-.66zm0-1.212v.66h2.484v-.66zm-1.668-2.472v4.572h1.116v-4.572zm-4.584 1.128v2.4h1.02v-1.608h8.292v1.608h1.056v-2.4zm15.552-1.332v1.02h7.08v-1.02zm-.36 0v3.3c0 1.968-.12 4.704-1.476 6.6.264.12.744.42.948.612 1.428-2.016 1.632-5.1 1.632-7.212v-3.3zm2.7 4.704h3.276v.888h-3.276zm0-1.668h3.276v.876h-3.276zm-1.02-.84v4.248h5.352v-4.248zm.336 4.824c-.3.84-.804 1.692-1.38 2.28.24.132.672.408.888.588.564-.648 1.152-1.644 1.5-2.628zm3.396.276c.516.756 1.056 1.788 1.26 2.436l1.032-.456c-.228-.66-.804-1.644-1.32-2.376zm-1.644-6.504c-.048.516-.192 1.26-.312 1.752l1.008.228c.168-.444.36-1.116.552-1.764zm-.036 5.316v3.276c0 .132-.048.168-.192.18-.144 0-.66 0-1.164-.012.132.276.264.684.3.972.78.012 1.32 0 1.68-.156.372-.156.456-.444.456-.96v-3.3zm-6.768-5.796c.708.348 1.572.912 1.98 1.332l.684-.9c-.432-.42-1.308-.936-2.016-1.26zm-.576 3.24c.708.312 1.584.852 1.992 1.248l.672-.912c-.444-.396-1.32-.888-2.028-1.176zm.204 6.192 1.032.624c.552-1.152 1.176-2.592 1.656-3.876l-.924-.624c-.528 1.38-1.248 2.94-1.764 3.876zm14.184-6.9v1.032h6.396v-1.032zm-2.136 2.184v1.068h10.692v-1.068zm3.048.804c-.192 1.824-.624 3.084-3.348 3.732.252.24.552.696.672.996 3.024-.828 3.66-2.436 3.9-4.728zm3.06-.144v3.204c0 1.104.312 1.44 1.548 1.44h1.716c1.044 0 1.356-.432 1.476-2.124-.3-.084-.792-.264-1.02-.444-.048 1.332-.12 1.536-.552 1.536-.276 0-1.26 0-1.476 0-.468 0-.552-.06-.552-.432v-3.18zm-1.392-6.288v2.028h1.2v-2.028zm-4.464 1.224v2.676h1.152v-1.596h7.824v1.596h1.212v-2.676zm16.68-1.14v2.856h1.056v-2.856zm3.096 0v2.856h1.08v-2.856zm-.78 5.304v5.688h.912v-5.688zm-4.164-4.344v.984h7.788v-.984zm2.352 5.748v.768h4.548v-.768zm0 1.644v.768h4.548v-.768zm-1.728-5.124v.984h7.224v-.984zm-.48 0v2.604c0 1.356-.084 3.204-.948 4.536.228.12.672.492.84.696.984-1.464 1.152-3.684 1.152-5.22v-2.616zm1.644 1.752v6.06h.96v-5.22h4.284v-.84zm4.788 0v5.028c0 .132-.036.168-.168.168-.12.012-.492.012-.924 0 .12.252.228.624.264.876.672 0 1.116-.012 1.428-.156.3-.156.372-.408.372-.876v-5.04zm-7.644-5.028c-.552 1.812-1.476 3.624-2.484 4.788.18.3.468.924.564 1.2 1.2-1.416 2.292-3.6 2.976-5.688zm-.96 3.096v7.992h1.08v-9.012l-.024-.024z" fill="#222"/></svg>