<svg width="91" height="62" viewBox="0 0 91 62" fill="none" xmlns="http://www.w3.org/2000/svg">
<path d="M36 0H54L58 22H32L36 0Z" fill="url(#paint0_linear_432_1027)"/>
<rect x="44" y="23" width="3" height="11" fill="url(#paint1_linear_432_1027)"/>
<rect x="39" y="34" width="13" height="3" fill="url(#paint2_linear_432_1027)"/>
<path d="M2.43013 50.108V51.344C2.76613 51.32 3.21013 51.308 3.61813 51.308C4.32613 51.308 6.97813 51.308 7.66213 51.308C8.03413 51.308 8.47813 51.32 8.85013 51.344V50.108C8.47813 50.156 8.03413 50.192 7.66213 50.192C6.97813 50.192 4.32613 50.192 3.60612 50.192C3.21013 50.192 2.79013 50.156 2.43013 50.108ZM1.02613 53.144V54.392C1.35013 54.368 1.75813 54.356 2.10613 54.356C2.82613 54.356 9.29413 54.356 9.96613 54.356C10.2781 54.356 10.6981 54.368 10.9741 54.392V53.144C10.6741 53.192 10.2181 53.216 9.96613 53.216C9.29413 53.216 2.82613 53.216 2.10613 53.216C1.73413 53.216 1.36213 53.192 1.02613 53.144ZM6.88213 53.78L5.58613 53.792C5.58613 55.1 5.46613 56.264 4.86613 57.188C4.38613 57.932 3.53413 58.616 2.63413 58.976L3.75013 59.792C4.79413 59.264 5.70613 58.376 6.13812 57.56C6.65413 56.552 6.88213 55.316 6.88213 53.78ZM9.52213 49.196L8.74213 49.52C9.06613 49.976 9.46213 50.696 9.70213 51.188L10.4821 50.84C10.2541 50.372 9.82213 49.628 9.52213 49.196ZM10.8781 48.692L10.1101 49.016C10.4461 49.472 10.8301 50.156 11.0941 50.672L11.8741 50.324C11.6461 49.892 11.1901 49.136 10.8781 48.692ZM21.8461 50.936L21.0781 50.348C20.8621 50.42 20.4781 50.468 20.0341 50.468C19.5421 50.468 16.1101 50.468 15.5701 50.468C15.2101 50.468 14.5021 50.432 14.2741 50.396V51.752C14.4541 51.74 15.1141 51.68 15.5701 51.68C16.0261 51.68 19.5301 51.68 19.9861 51.68C19.6981 52.616 18.8821 53.936 18.0781 54.848C16.8901 56.168 15.0781 57.62 13.1461 58.352L14.1181 59.372C16.0021 58.496 17.7541 57.044 19.0981 55.52C20.1061 54.38 21.0181 52.712 21.4981 51.548C21.5821 51.356 21.7621 51.044 21.8461 50.936ZM19.2541 54.74L18.3781 55.604C19.6621 56.756 21.0301 58.244 21.9061 59.42L22.9741 58.496C22.1701 57.512 20.5261 55.784 19.2541 54.74ZM34.6741 51.524L33.6901 50.912C33.4621 50.996 33.1381 51.044 32.7901 51.044C32.4181 51.044 29.6461 51.044 29.1421 51.044L28.6861 52.124H32.9581C32.7301 53.132 32.0101 54.632 31.1341 55.664C30.0541 56.9 28.6381 57.968 26.3221 58.652L27.4261 59.648C29.6821 58.796 31.1221 57.692 32.2381 56.336C33.3061 55.016 34.0261 53.408 34.3501 52.256C34.4221 52.016 34.5661 51.716 34.6741 51.524ZM30.7021 49.664L29.3101 49.208C29.2261 49.568 29.0101 50.048 28.8661 50.3C28.3141 51.356 27.1861 53.012 25.1101 54.272L26.1661 55.052C28.0021 53.816 29.3341 52.112 30.0901 50.732C30.2101 50.492 30.4741 50.024 30.7021 49.664ZM38.5741 48.968V52.868C38.5741 55.04 38.3821 57.392 36.5461 59.144C36.7981 59.324 37.1821 59.732 37.3501 59.996C39.4381 58.028 39.6661 55.364 39.6661 52.868V48.968H38.5741ZM37.1341 51.356C37.0861 52.328 36.9181 53.588 36.6301 54.344L37.4941 54.68C37.7941 53.804 37.9621 52.472 37.9861 51.464L37.1341 51.356ZM40.5541 51.128C40.3861 51.872 40.0261 52.964 39.7381 53.636L40.4221 53.936C40.7581 53.312 41.1541 52.316 41.5141 51.488L40.5541 51.128ZM39.4141 55.496L38.7061 56.084C39.2101 56.612 40.3021 57.836 40.7581 58.46L41.5141 57.596C41.1781 57.236 39.8341 55.832 39.4141 55.496ZM41.4301 49.796V50.912H47.6581V49.796H41.4301ZM44.4421 50.252V58.448C44.4421 58.664 44.3581 58.736 44.1181 58.748C43.8661 58.748 42.9781 58.76 42.1621 58.712C42.3421 59.048 42.5581 59.6 42.6181 59.936C43.7461 59.936 44.5141 59.924 45.0061 59.72C45.4861 59.528 45.6541 59.168 45.6541 58.46V50.252H44.4421ZM56.2501 54.44C56.2501 56.888 57.2461 58.796 58.6261 60.176L59.5261 59.744C58.2181 58.376 57.3301 56.66 57.3301 54.44C57.3301 52.232 58.2181 50.516 59.5261 49.148L58.6261 48.716C57.2461 50.096 56.2501 52.004 56.2501 54.44ZM60.5941 59H66.3061V57.824H64.0981C63.6661 57.824 63.1021 57.872 62.6461 57.92C64.5181 56.12 65.8861 54.356 65.8861 52.664C65.8861 51.056 64.8421 50.012 63.2221 50.012C62.0701 50.012 61.2901 50.504 60.5221 51.332L61.3141 52.088C61.7821 51.548 62.3581 51.116 63.0541 51.116C64.0381 51.116 64.5421 51.776 64.5421 52.724C64.5421 54.176 63.2101 55.892 60.5941 58.196V59ZM69.5259 58.4V59.504H76.2219V58.4H69.5259ZM69.0099 54.8V60.008H70.1739V55.892H75.6099V59.996H76.8219V54.8H69.0099ZM71.3979 48.812C70.8579 50.12 69.8859 51.872 69.0939 52.94L70.1019 53.36C70.9059 52.316 71.9259 50.672 72.6699 49.244L71.3979 48.812ZM74.2779 50.84C75.4899 51.86 76.8699 53.324 77.4459 54.32L78.4299 53.564C77.8059 52.556 76.3779 51.152 75.1779 50.18L74.2779 50.84ZM67.6539 52.436L67.7259 53.588C70.0539 53.492 73.6659 53.348 77.0139 53.168L77.0739 52.076C73.7139 52.22 70.0059 52.364 67.6539 52.436ZM82.7379 54.44C82.7379 52.004 81.7419 50.096 80.3619 48.716L79.4619 49.148C80.7699 50.516 81.6579 52.232 81.6579 54.44C81.6579 56.66 80.7699 58.376 79.4619 59.744L80.3619 60.176C81.7419 58.796 82.7379 56.888 82.7379 54.44Z" fill="#222222"/>
<defs>
<linearGradient id="paint0_linear_432_1027" x1="32.8997" y1="22" x2="60.9423" y2="16.9809" gradientUnits="userSpaceOnUse">
<stop stop-color="#54917A"/>
<stop offset="1" stop-color="#6EC0DA"/>
</linearGradient>
<linearGradient id="paint1_linear_432_1027" x1="44.1038" y1="34" x2="47.4375" y2="33.8623" gradientUnits="userSpaceOnUse">
<stop stop-color="#54917A"/>
<stop offset="1" stop-color="#6EC0DA"/>
</linearGradient>
<linearGradient id="paint2_linear_432_1027" x1="39.4498" y1="37" x2="49.5642" y2="30.3623" gradientUnits="userSpaceOnUse">
<stop stop-color="#54917A"/>
<stop offset="1" stop-color="#6EC0DA"/>
</linearGradient>
</defs>
</svg>
