<svg fill="none" height="97" viewBox="0 0 84 97" width="84" xmlns="http://www.w3.org/2000/svg" xmlns:xlink="http://www.w3.org/1999/xlink"><linearGradient id="a" gradientUnits="userSpaceOnUse" x1="18.7302" x2="72.5422" y1="55.9091" y2="45.9485"><stop offset="0" stop-color="#54917a"/><stop offset="1" stop-color="#6ec0da"/></linearGradient><path d="m25.6932 55.9091c-.4546 0-.8523-.1705-1.1932-.5114s-.5114-.7386-.5114-1.1932v-2.3863h-.7386c-1.7424 0-3.2197-.6061-4.4318-1.8182s-1.8182-2.6894-1.8182-4.4318v-13.8637c0-1.9318.5871-3.3996 1.7614-4.4034 1.1742-1.0038 2.5568-1.5056 4.1477-1.5056v-4.8864c0-1.7424.5492-3.1629 1.6477-4.2614s2.519-1.6477 4.2614-1.6477h26.4204c1.7425 0 3.1534.5492 4.233 1.6477 1.0795 1.0985 1.6193 2.519 1.6193 4.2614v4.8864c1.5909 0 2.9735.5018 4.1477 1.5056 1.1743 1.0038 1.7614 2.4716 1.7614 4.4034v13.8637c0 1.7424-.6061 3.2197-1.8182 4.4318s-2.6894 1.8182-4.4318 1.8182h-.7386v2.3863c0 .4546-.1705.8523-.5114 1.1932s-.7386.5114-1.1932.5114c-.4545 0-.8523-.1705-1.1932-.5114s-.5113-.7386-.5113-1.1932v-2.3863h-29.2046v2.3863c0 .4546-.1704.8523-.5113 1.1932s-.7387.5114-1.1932.5114zm-2.4432-7.5h37.5c.7576 0 1.4205-.2841 1.9886-.8523.5682-.5682.8523-1.231.8523-1.9886v-13.8637c0-.7575-.2273-1.3636-.6818-1.8181-.4546-.4546-1.0606-.6819-1.8182-.6819s-1.3636.2273-1.8182.6819c-.4545.4545-.6818 1.0606-.6818 1.8181v10h-33.1818v-10c0-.7575-.2273-1.3636-.6818-1.8181-.4546-.4546-1.0606-.6819-1.8182-.6819s-1.3636.2273-1.8182.6819c-.4545.4545-.6818 1.0606-.6818 1.8181v13.8637c0 .7576.2841 1.4204.8523 1.9886.5681.5682 1.231.8523 1.9886.8523zm5.5682-10.1136h26.3636v-6.591c0-1.1742.2652-2.1496.7955-2.9261s1.0985-1.392 1.7045-1.8466v-6.0227c0-.7576-.2273-1.3636-.6818-1.8182-.4545-.4545-1.0606-.6818-1.8182-.6818h-26.3636c-.7576 0-1.3637.2273-1.8182.6818-.4545.4546-.6818 1.0606-.6818 1.8182v6.0227c.606.4546 1.1742 1.0701 1.7045 1.8466s.7955 1.7519.7955 2.9261z" fill="url(#a)"/><path d="m11.0014 70.484-.912-.576c-.26398.048-.59998.072-.92398.072-.756 0-5.544 0-5.976 0-.54 0-1.02-.012-1.368-.036.036.276.048.588.048.888v2.544c0 .276-.012.54-.048.864h1.38c-.024-.324-.036-.684-.036-.864 0-.42 0-1.872 0-2.22h6.252c-.12 1.356-.48 2.808-1.128 3.828-.96 1.524-2.736 2.544-4.44 2.988l1.044 1.056c1.932-.648 3.564-1.86 4.548-3.408.89998-1.392 1.16398-3.12 1.37998-4.464.024-.144.12-.528.18-.672zm2.52 2.664v1.488c.408-.036 1.116-.06 1.788-.06h6.528c.516 0 1.068.048 1.332.06v-1.488c-.288.024-.756.072-1.344.072-.972 0-5.4 0-6.516 0-.66 0-1.392-.036-1.788-.072zm21.432-2.124-.984-.612c-.228.084-.552.132-.9.132-.372 0-3.144 0-3.648 0l-.456 1.08h4.272c-.228 1.008-.948 2.508-1.824 3.54-1.08 1.236-2.496 2.304-4.812 2.988l1.104.996c2.256-.852 3.696-1.956 4.812-3.312 1.068-1.32 1.788-2.928 2.112-4.08.072-.24.216-.54.324-.732zm-3.972-1.86-1.392-.456c-.084.36-.3.84-.444 1.092-.552 1.056-1.68 2.712-3.756 3.972l1.056.78c1.836-1.236 3.168-2.94 3.924-4.32.12-.24.384-.708.612-1.068zm7.296.876.3 1.116c1.056-.024 2.76-.072 4.116-.252.948-.132 1.992-.324 2.712-.504.18-.048.456-.12.78-.204l-.792-1.044c-.588.264-1.92.552-3.06.708-1.308.18-3.144.216-4.056.18zm.6 8.22 1.2.828c2.28-1.344 3.096-3.228 3.096-5.724 0 0 0-1.764 0-2.748l-1.224.156v2.616c0 2.376-.996 3.912-3.072 4.872zm-1.524-5.352v1.236c.3-.024.72-.048 1.104-.048h7.932c.312 0 .696.024.984.048v-1.236c-.252.024-.744.06-1.008.06-.768 0-7.164 0-7.932 0-.372 0-.78-.036-1.08-.06zm13.404-.732v1.2c.264-.024.672-.048.888-.048h5.508c.276 0 .612.024.888.048v-1.2c-.264.024-.588.048-.888.048h-5.508c-.228 0-.624-.012-.888-.048zm2.952 5.964h1.224v-5.304h-1.224zm-3.54-.696v1.248c.3-.036.636-.048.912-.048h6.636c.192 0 .6.012.852.048v-1.248c-.252.024-.552.06-.852.06h-6.636c-.288 0-.624-.024-.912-.06zm21.48-7.056-.744-.708c-.204.06-.732.096-1.008.096-.684 0-6.06 0-6.708 0-.468 0-.972-.048-1.404-.12v1.344c.504-.048.936-.072 1.404-.072h6.588c-.36.672-1.404 1.872-2.448 2.484l.996.792c1.284-.9 2.424-2.436 2.94-3.3.096-.156.276-.384.384-.516zm-4.836 1.596h-1.368c.048.348.06.636.06.96 0 1.992-.264 3.504-1.98 4.608-.384.276-.804.48-1.164.6l1.116.9c3.144-1.632 3.336-3.936 3.336-7.068zm5.9932 1.164v1.488c.408-.036 1.116-.06 1.788-.06h6.528c.516 0 1.068.048 1.332.06v-1.488c-.288.024-.756.072-1.344.072-.972 0-5.4 0-6.516 0-.66 0-1.392-.036-1.788-.072z" fill="#222"/></svg>