<svg fill="none" height="97" viewBox="0 0 80 97" width="80" xmlns="http://www.w3.org/2000/svg" xmlns:xlink="http://www.w3.org/1999/xlink"><linearGradient id="a" gradientUnits="userSpaceOnUse" x1="12.0762" x2="74.8629" y1="55" y2="39.1521"><stop offset="0" stop-color="#54917a"/><stop offset="1" stop-color="#6ec0da"/></linearGradient><path d="m10 55v-36h60v36h-4.5v-7.5h-14.25v7.5h-4.5v-31.5h-32.25v31.5zm41.25-24h14.25v-7.5h-14.25zm0 12h14.25v-7.5h-14.25z" fill="url(#a)"/><path d="m2.02 75h5.052v-1.14h-1.728v-7.452h-1.044c-.516.312-1.092.528-1.932.684v.876h1.596v5.892h-1.944zm7.61175.168c.51605 0 .92405-.408.92405-.972 0-.576-.408-.972-.92405-.972-.528 0-.924.396-.924.972 0 .564.396.972.924.972zm2.80625-.168h5.052v-1.14h-1.728v-7.452h-1.044c-.516.312-1.092.528-1.932.684v.876h1.596v5.892h-1.944zm6.8557 0h1.392v-4.68c.528-.6 1.032-.888 1.476-.888.756 0 1.104.444 1.104 1.596v3.972h1.38v-4.68c.552-.6 1.032-.888 1.488-.888.744 0 1.092.444 1.092 1.596v3.972h1.38v-4.152c0-1.668-.636-2.616-2.016-2.616-.828 0-1.5.528-2.16 1.212-.276-.756-.828-1.212-1.812-1.212-.816 0-1.476.492-2.04 1.092h-.036l-.12-.924h-1.128zm12.5563-10.116v11.124h.972v-11.124zm-1.572 2.244v6.408h.852v-5.4h2.88v-1.008zm3.3 0v5.196c0 .096-.024.12-.096.12-.084 0-.288 0-.54 0 .132.264.264.696.276.96.408 0 .684-.024.924-.192.228-.18.276-.48.276-.864v-5.22zm1.212-1.68v.936h6.216v-.936zm1.536 2.544h3.108v1.176h-3.108zm-.972-.864v2.892h5.088v-2.892zm-.048 5.64v.888h5.22v-.888zm-.012 1.956v.9h5.244v-.9zm-.468-3.912v5.196h1.02v-4.296h4.008v4.272h1.044v-5.172zm2.472.468v4.068h.972v-4.068zm6.636-5.172v1.236c.336-.024.78-.036 1.188-.036h4.044c.372 0 .816.012 1.188.036v-1.236c-.372.048-.816.084-1.188.084-.684 0-3.336 0-4.056 0-.396 0-.816-.036-1.176-.084zm-1.404 3.036v1.248c.324-.024.732-.036 1.08-.036h7.86c.312 0 .732.012 1.008.036v-1.248c-.3.048-.756.072-1.008.072-.672 0-7.14 0-7.86 0-.372 0-.744-.024-1.08-.072zm5.856.636-1.296.012c0 1.308-.12 2.472-.72 3.396-.48.744-1.332 1.428-2.232 1.788l1.116.816c1.044-.528 1.956-1.416 2.388-2.232.516-1.008.744-2.244.744-3.78zm2.64-4.584-.78.324c.324.456.72 1.176.96 1.668l.78-.348c-.228-.468-.66-1.212-.96-1.644zm1.356-.504-.768.324c.336.456.72 1.14.984 1.656l.78-.348c-.228-.432-.684-1.188-.996-1.632zm10.968 2.244-.768-.588c-.216.072-.6.12-1.044.12-.492 0-3.924 0-4.464 0-.36 0-1.068-.036-1.296-.072v1.356c.18-.012.84-.072 1.296-.072h4.416c-.288.936-1.104 2.256-1.908 3.168-1.188 1.32-3 2.772-4.932 3.504l.972 1.02c1.884-.876 3.636-2.328 4.98-3.852 1.008-1.14 1.92-2.808 2.4-3.972.084-.192.264-.504.348-.612zm-2.592 3.804-.876.864c1.284 1.152 2.652 2.64 3.528 3.816l1.068-.924c-.804-.984-2.448-2.712-3.72-3.756zm15.42-3.216-.984-.612c-.228.084-.552.132-.9.132-.372 0-3.144 0-3.648 0l-.456 1.08h4.272c-.228 1.008-.948 2.508-1.824 3.54-1.08 1.236-2.496 2.304-4.812 2.988l1.104.996c2.256-.852 3.696-1.956 4.812-3.312 1.068-1.32 1.788-2.928 2.112-4.08.072-.24.216-.54.324-.732zm-3.972-1.86-1.392-.456c-.084.36-.3.84-.444 1.092-.552 1.056-1.68 2.712-3.756 3.972l1.056.78c1.836-1.236 3.168-2.94 3.924-4.32.12-.24.384-.708.612-1.068z" fill="#222"/></svg>