<svg width="80" height="97" viewBox="0 0 80 97" fill="none" xmlns="http://www.w3.org/2000/svg">
<path d="M31 17H49L53 39H27L31 17Z" fill="url(#paint0_linear_371_1021)"/>
<path d="M39 40H42V51H39V40Z" fill="url(#paint1_linear_371_1021)"/>
<path d="M34 51H47V54H34V51Z" fill="url(#paint2_linear_371_1021)"/>
<g clip-path="url(#clip0_371_1021)">
<path d="M55.7201 66.11L56.6301 66.54C55.3201 67.91 54.4201 69.63 54.4201 71.84C54.4201 74.05 55.3201 75.77 56.6301 77.14L55.7201 77.57C54.3501 76.19 53.3501 74.27 53.3501 71.84C53.3501 69.41 54.3601 67.49 55.7201 66.11V66.11Z" fill="#222222"/>
<path d="M57.28 75.6C59.74 73.19 61.23 71.65 61.23 70.31C61.23 69.37 60.73 68.75 59.73 68.75C59.03 68.75 58.46 69.19 57.99 69.73L57.21 68.96C57.96 68.14 58.75 67.64 59.9 67.64C61.52 67.64 62.56 68.67 62.56 70.23C62.56 71.79 61.13 73.38 59.3 75.3C59.74 75.25 60.31 75.22 60.74 75.22H62.98V76.4H57.28V75.6Z" fill="#222222"/>
<path d="M71.8199 67.64C73.0099 68.6 74.4199 69.98 75.0499 70.99L74.0699 71.73C73.8799 71.39 73.5999 71.01 73.2699 70.61C70.0699 70.77 66.6899 70.9 64.4799 70.99L64.3999 69.86L66.2099 69.8C66.9099 68.75 67.6499 67.35 68.0999 66.26L69.3499 66.69C68.8199 67.7 68.1599 68.81 67.5399 69.75C69.0399 69.69 70.6899 69.63 72.3399 69.56C71.8799 69.1 71.4199 68.66 70.9599 68.28L71.8399 67.63L71.8199 67.64ZM65.7399 72.2H73.4499V77.33H72.2499V76.84H66.8799V77.34H65.7399V72.19V72.2ZM66.8799 73.27V75.77H72.2499V73.27H66.8799V73.27Z" fill="#222222"/>
<path d="M76.6102 77.58L75.7002 77.15C77.0102 75.78 77.9102 74.06 77.9102 71.85C77.9102 69.64 77.0102 67.92 75.7002 66.55L76.6102 66.12C77.9802 67.5 78.9902 69.42 78.9902 71.85C78.9902 74.28 77.9802 76.2 76.6102 77.58V77.58Z" fill="#222222"/>
<path d="M21.4999 72.28C22.3299 71.19 23.0599 69.85 23.4699 68.86C23.5499 68.67 23.7299 68.36 23.8199 68.25L23.0499 67.66C22.8299 67.73 22.4499 67.78 22.0099 67.78H17.5499C17.1899 67.78 16.4799 67.74 16.2499 67.71V69.07C16.4299 69.06 17.0899 69 17.5499 69H21.9699C21.6799 69.94 20.8699 71.26 20.0599 72.17C18.8699 73.49 17.0599 74.94 15.1299 75.67L16.0999 76.69C17.8199 75.89 19.4099 74.61 20.6899 73.24C21.8699 74.34 23.0799 75.67 23.8799 76.74L24.9499 75.82C24.1999 74.9 22.7299 73.35 21.4999 72.3V72.28Z" fill="#222222"/>
<path d="M34.7601 68.35H31.8701C31.9301 68.25 32.0101 68.14 32.0601 68.04C32.1801 67.8 32.4401 67.33 32.6701 66.97L31.2801 66.51C31.2001 66.87 30.9801 67.35 30.8401 67.6C30.2901 68.66 29.1601 70.31 27.0801 71.57L28.1401 72.35C29.3901 71.51 30.3901 70.45 31.1501 69.42H34.9301C34.7001 70.43 33.9801 71.93 33.1101 72.96C32.0301 74.2 30.6101 75.26 28.3001 75.95L29.4001 76.95C31.6601 76.1 33.1001 74.99 34.2101 73.64C35.2801 72.32 36.0001 70.71 36.3201 69.56C36.3901 69.32 36.5401 69.02 36.6401 68.83L35.6601 68.22C35.4301 68.3 35.1101 68.35 34.7601 68.35V68.35Z" fill="#222222"/>
<path d="M9.6399 68.62C10.0099 68.62 10.4599 68.63 10.8299 68.66V67.42C10.4599 67.47 10.0099 67.5 9.6399 67.5H5.5799C5.1799 67.5 4.7599 67.46 4.3999 67.42V68.66C4.7399 68.64 5.1799 68.62 5.5899 68.62H9.6399Z" fill="#222222"/>
<path d="M12.4602 68.15C12.2302 67.68 11.8002 66.94 11.5002 66.51L10.7202 66.83C11.0402 67.29 11.4402 68.01 11.6802 68.5L12.4602 68.15V68.15Z" fill="#222222"/>
<path d="M39.9599 68.77L39.1099 68.66C39.0599 69.63 38.8899 70.89 38.6099 71.65L39.4699 71.99C39.7699 71.11 39.9399 69.78 39.9599 68.77Z" fill="#222222"/>
<path d="M4.08 70.52C3.71 70.52 3.34 70.5 3 70.45V71.7C3.32 71.68 3.73 71.66 4.08 71.66H7.54C7.5 72.74 7.35 73.7 6.84 74.49C6.36 75.23 5.51 75.92 4.61 76.28L5.73 77.1C6.77 76.57 7.69 75.68 8.12 74.87C8.57 73.99 8.79 72.93 8.84 71.67H11.95C12.26 71.67 12.68 71.68 12.96 71.71V70.46C12.66 70.51 12.2 70.53 11.95 70.53H4.08V70.52Z" fill="#222222"/>
<path d="M41.47 72.88C41.6 71.98 41.64 71.07 41.64 70.18V66.28H40.55V70.18C40.55 72.35 40.36 74.7 38.52 76.46C38.77 76.64 39.16 77.05 39.32 77.31C40.35 76.34 40.92 75.21 41.24 74.01C41.77 74.59 42.41 75.33 42.73 75.77L43.49 74.91C43.17 74.57 41.96 73.31 41.48 72.88H41.47Z" fill="#222222"/>
<path d="M12.0798 66.32C12.4198 66.78 12.7998 67.46 13.0598 67.98L13.8398 67.63C13.6098 67.2 13.1598 66.44 12.8398 66L12.0698 66.32H12.0798Z" fill="#222222"/>
<path d="M43.3999 68.22H46.4099V75.76C46.4099 75.98 46.3299 76.05 46.0899 76.06C45.8399 76.06 44.9499 76.07 44.1299 76.02C44.3099 76.36 44.5299 76.91 44.5899 77.24C45.7199 77.24 46.4899 77.23 46.9799 77.02C47.4599 76.83 47.6299 76.47 47.6299 75.76V68.22H49.6299V67.1H43.3999V68.22V68.22Z" fill="#222222"/>
<path d="M41.7102 70.94L42.3902 71.24C42.7302 70.62 43.1202 69.62 43.4802 68.79L42.5202 68.43C42.3502 69.17 41.9902 70.27 41.7002 70.94H41.7102Z" fill="#222222"/>
</g>
<defs>
<linearGradient id="paint0_linear_371_1021" x1="27.8997" y1="39" x2="55.9423" y2="33.9809" gradientUnits="userSpaceOnUse">
<stop stop-color="#54917A"/>
<stop offset="1" stop-color="#6EC0DA"/>
</linearGradient>
<linearGradient id="paint1_linear_371_1021" x1="39.1038" y1="51" x2="42.4375" y2="50.8623" gradientUnits="userSpaceOnUse">
<stop stop-color="#54917A"/>
<stop offset="1" stop-color="#6EC0DA"/>
</linearGradient>
<linearGradient id="paint2_linear_371_1021" x1="34.4498" y1="54" x2="44.5642" y2="47.3623" gradientUnits="userSpaceOnUse">
<stop stop-color="#54917A"/>
<stop offset="1" stop-color="#6EC0DA"/>
</linearGradient>
<clipPath id="clip0_371_1021">
<rect width="75.99" height="11.58" fill="white" transform="translate(3 66)"/>
</clipPath>
</defs>
</svg>
