<svg fill="none" height="97" viewBox="0 0 80 97" width="80" xmlns="http://www.w3.org/2000/svg" xmlns:xlink="http://www.w3.org/1999/xlink"><linearGradient id="a" gradientUnits="userSpaceOnUse" x1="17.661" x2="69.6477" y1="56.6364" y2="47.9759"><stop offset="0" stop-color="#54917a"/><stop offset="1" stop-color="#6ec0da"/></linearGradient><path d="m59.6364 13h-39.2728c-2.4 0-4.3636 1.9636-4.3636 4.3636v26.1819c0 2.4 1.9636 4.3636 4.3636 4.3636h15.2728v4.3636h-4.3637v4.3637h17.4546v-4.3637h-4.3637v-4.3636h15.2728c2.4 0 4.3636-1.9636 4.3636-4.3636v-26.1819c0-2.4-1.9636-4.3636-4.3636-4.3636zm0 30.5455h-39.2728v-26.1819h39.2728z" fill="url(#a)"/><path d="m8.3005 74.98h3.888c.264 0 .744 0 1.056.024l-.012-1.224c-.288.024-.816.048-1.068.048h-3.864v-2.316h2.988c.432 0 .732.024 1.032.036v-1.2c-.276.036-.636.048-1.032.048h-5.736c-.42 0-.78-.024-1.116-.048v1.2c.336-.024.696-.036 1.116-.036h1.476v2.316h-2.172c-.348 0-.876-.024-1.212-.06v1.26c.348-.024.888-.048 1.212-.048h2.172v2.532c0 1.08.552 1.764 2.532 1.764 1.14 0 2.376-.036 3.252-.096l.072-1.284c-.996.12-2.016.168-3.12.168-1.044 0-1.464-.3-1.464-.936zm7.092 3.42c.42-.036.912-.06 1.356-.06h7.056c.336 0 .804.024 1.2.06v-1.452c-.384.048-.816.072-1.2.072h-7.056c-.444 0-.924-.036-1.356-.072zm1.02-5.988c.384-.024.852-.048 1.284-.048h5.052c.408 0 .912.024 1.248.048v-1.368c-.324.036-.792.06-1.248.06h-5.064c-.396 0-.876-.024-1.272-.06zm19.536-1.692c-.228.084-.564.132-.9.132h-2.916l.144-.264c.12-.24.384-.696.612-1.056l-1.368-.432c-.084.348-.3.84-.456 1.08-.564 1.068-1.752 2.808-3.84 4.092l1.032.78c1.284-.876 2.364-2.028 3.156-3.12h3.816c-.216.84-.756 1.968-1.416 2.916-.876-.528-1.8-1.056-2.472-1.404l-.792.9c.648.36 1.572.924 2.46 1.5-1.044 1.116-2.508 2.208-4.62 2.844l1.092.96c2.04-.78 3.504-1.896 4.572-3.108.456.312.852.6 1.14.84l.84-1.104c-.3-.216-.708-.48-1.152-.768.816-1.176 1.404-2.448 1.704-3.444.084-.24.228-.54.336-.744zm3.54 4.404c.396-.024 1.104-.048 1.776-.048h6.528c.528 0 1.068.036 1.332.048v-1.476c-.288.024-.756.072-1.344.072h-6.516c-.648 0-1.392-.036-1.776-.072zm13.668 6.264.864-.384c-1.032-1.716-1.512-3.744-1.512-5.76 0-2.004.48-4.032 1.512-5.76l-.864-.372c-1.116 1.812-1.776 3.768-1.776 6.132 0 2.388.66 4.32 1.776 6.144zm2.4536-2.388h5.04v-1.14h-1.728v-7.692h-1.044c-.504.312-1.092.516-1.92.672v.876h1.584v6.144h-1.932zm14.4758-3.144v2.496h-5.376v-2.496zm-6.516 4.08h1.14v-.504h5.376v.492h1.2v-5.136h-7.716zm5.208-9.06c.456.384.924.828 1.38 1.284-1.644.072-3.3.132-4.8.192.624-.936 1.284-2.052 1.812-3.06l-1.248-.432c-.456 1.092-1.2 2.484-1.896 3.54l-1.812.06.084 1.128c2.208-.096 5.592-.228 8.796-.384.336.396.612.78.804 1.116l.984-.744c-.624-1.008-2.04-2.388-3.228-3.348zm6.06 10.512c1.128-1.824 1.788-3.756 1.788-6.144 0-2.364-.66-4.32-1.788-6.132l-.864.372c1.032 1.728 1.512 3.756 1.512 5.76 0 2.016-.48 4.044-1.512 5.76z" fill="#222"/></svg>