<svg fill="none" height="97" viewBox="0 0 80 97" width="80" xmlns="http://www.w3.org/2000/svg" xmlns:xlink="http://www.w3.org/1999/xlink"><linearGradient id="a"><stop offset="0" stop-color="#54917a"/><stop offset="1" stop-color="#6ec0da"/></linearGradient><linearGradient id="b" gradientUnits="userSpaceOnUse" x1="27.8997" x2="55.9423" xlink:href="#a" y1="39" y2="33.9809"/><linearGradient id="c" gradientUnits="userSpaceOnUse" x1="39.1038" x2="42.4375" xlink:href="#a" y1="51" y2="50.8623"/><linearGradient id="d" gradientUnits="userSpaceOnUse" x1="34.4498" x2="44.5642" xlink:href="#a" y1="54" y2="47.3623"/><path d="m31 17h18l4 22h-26z" fill="url(#b)"/><path d="m39 40h3v11h-3z" fill="url(#c)"/><path d="m34 51h13v3h-13z" fill="url(#d)"/><path d="m12.7285 67.84c-.24-.468-.672-1.212-.972-1.644l-.768.324c.324.456.708 1.176.948 1.656zm-2.832.456c.384 0 .816.024 1.2.048v-1.236c-.372.048-.828.072-1.2.072h-4.056c-.384 0-.804-.024-1.164-.072v1.236c.324-.024.768-.048 1.176-.048zm-5.544 1.908c-.372 0-.744-.024-1.092-.06v1.248c.336-.024.732-.036 1.092-.036h3.468c-.036 1.068-.204 2.028-.72 2.832-.468.732-1.332 1.428-2.22 1.788l1.116.816c1.032-.54 1.944-1.428 2.376-2.244.456-.864.696-1.92.744-3.192h3.084c.312 0 .732.012 1.008.024v-1.236c-.3.048-.756.06-1.008.06zm7.992-4.188c.336.444.732 1.128.984 1.644l.78-.336c-.216-.444-.672-1.188-.996-1.632zm10.968 1.332c-.204.072-.6.12-1.044.12h-4.452c-.372 0-1.068-.048-1.308-.084v1.356c.192-.012.84-.072 1.308-.072h4.404c-.288.936-1.092 2.256-1.908 3.168-1.188 1.332-2.988 2.772-4.932 3.516l.972 1.008c1.728-.792 3.336-2.076 4.62-3.444 1.188 1.104 2.388 2.424 3.168 3.504l1.068-.936c-.744-.912-2.196-2.46-3.432-3.516.84-1.08 1.548-2.436 1.968-3.42.084-.204.264-.504.348-.624zm12.624.564c-.228.084-.564.12-.9.12h-2.88c.06-.096.12-.204.168-.3.132-.24.384-.708.624-1.068l-1.392-.456c-.096.348-.3.84-.444 1.08-.564 1.056-1.68 2.724-3.768 3.972l1.056.78c1.26-.84 2.28-1.896 3.048-2.928h3.744c-.216 1.008-.936 2.52-1.824 3.54-1.068 1.236-2.496 2.304-4.812 3l1.116.996c2.244-.864 3.696-1.968 4.8-3.324 1.08-1.32 1.788-2.928 2.112-4.08.084-.24.216-.54.336-.732zm13.8 4.296v-.948h-4.86v-.912h3.744v-.924h-3.744v-.72h-.072c.24-.276.468-.564.684-.9h.66c.324.444.66.996.804 1.344l.96-.396c-.12-.276-.336-.612-.564-.948h2.292v-.924h-3.624c.12-.252.228-.492.324-.756l-1.08-.252c-.228.684-.624 1.344-1.08 1.896v-.888h-2.904c.12-.24.24-.48.336-.732l-1.068-.276c-.396 1.02-1.092 2.064-1.848 2.724.264.144.72.456.924.636.384-.384.78-.888 1.128-1.428h.336c.216.444.432.972.528 1.308l.96-.372c-.072-.252-.228-.6-.384-.936h1.956c-.18.228-.384.42-.6.6.132.072.3.18.468.3h-.288v.72h-3.612v.924h3.612v.912h-4.8v.948h7.188v.9h-6.792v.96h2.316l-.648.492c.72.528 1.548 1.284 1.908 1.836l.864-.708c-.348-.504-1.092-1.152-1.764-1.62h4.116v1.632c0 .168-.048.204-.264.216-.204.012-.912.012-1.632-.012.156.276.348.732.408 1.044.948 0 1.608-.012 2.052-.18.444-.156.588-.456.588-1.044v-1.656h2.136v-.96h-2.136v-.9zm3.42 6.18.864-.384c-1.032-1.716-1.512-3.744-1.512-5.76 0-2.004.48-4.032 1.512-5.76l-.864-.372c-1.116 1.812-1.776 3.768-1.776 6.132 0 2.388.66 4.32 1.776 6.144zm1.9496-2.388h5.7v-1.176h-2.208c-.432 0-.984.036-1.44.084 1.872-1.788 3.228-3.552 3.228-5.256 0-1.596-1.044-2.652-2.664-2.652-1.152 0-1.932.504-2.688 1.32l.78.768c.468-.54 1.044-.984 1.74-.984.984 0 1.5.66 1.5 1.62 0 1.452-1.344 3.168-3.948 5.472zm14.9798-3.144v2.496h-5.376v-2.496zm-6.516 4.08h1.14v-.504h5.376v.492h1.2v-5.136h-7.716zm5.208-9.06c.456.384.924.828 1.38 1.284-1.644.072-3.3.132-4.8.192.624-.936 1.284-2.052 1.812-3.06l-1.248-.432c-.456 1.092-1.2 2.484-1.896 3.54l-1.812.06.084 1.128c2.208-.096 5.592-.228 8.796-.384.336.396.612.78.804 1.116l.984-.744c-.624-1.008-2.04-2.388-3.228-3.348zm6.06 10.512c1.128-1.824 1.788-3.756 1.788-6.144 0-2.364-.66-4.32-1.788-6.132l-.864.372c1.032 1.728 1.512 3.756 1.512 5.76 0 2.016-.48 4.044-1.512 5.76z" fill="#222"/></svg>