<svg fill="none" height="97" viewBox="0 0 80 97" width="80" xmlns="http://www.w3.org/2000/svg" xmlns:xlink="http://www.w3.org/1999/xlink"><linearGradient id="a" gradientUnits="userSpaceOnUse" x1="21.3842" x2="65.2646" y1="53" y2="47.6836"><stop offset="0" stop-color="#54917a"/><stop offset="1" stop-color="#6ec0da"/></linearGradient><path d="m40 53c-5.2917 0-9.9479-1.8437-13.9688-5.5312-4.0208-3.6875-6.0312-8.6771-6.0312-14.9688 0-4.1667 1.6563-8.6979 4.9688-13.5937 3.3125-4.8959 8.3229-10.19797 15.0312-15.9063 6.7083 5.70833 11.7188 11.0104 15.0313 15.9063 3.3125 4.8958 4.9687 9.427 4.9687 13.5937 0 6.2917-2.0104 11.2813-6.0313 14.9688-4.0208 3.6875-8.677 5.5312-13.9687 5.5312zm0-3.75c4.5833 0 8.4375-1.5833 11.5625-4.75s4.6875-7.1667 4.6875-12c0-3.2917-1.3854-7.0313-4.1563-11.2188-2.7708-4.1874-6.802-8.6145-12.0937-13.2812-5.2917 4.6667-9.3229 9.0938-12.0938 13.2812-2.7708 4.1875-4.1562 7.9271-4.1562 11.2188 0 4.8333 1.5625 8.8333 4.6875 12s6.9792 4.75 11.5625 4.75zm-.0625-4.25c.6667 0 1.1771-.1146 1.5312-.3437.3542-.2292.5313-.573.5313-1.0313s-.1771-.8125-.5313-1.0625c-.3541-.25-.8854-.375-1.5937-.375-1.75 0-3.5312-.5521-5.3438-1.6562-1.8125-1.1042-2.9687-3.0521-3.4687-5.8438-.0833-.375-.2708-.6771-.5625-.9063-.2917-.2291-.6042-.3437-.9375-.3437-.4583 0-.8125.1771-1.0625.5312-.25.3542-.3333.7188-.25 1.0938.625 3.5 2.1042 6.0312 4.4375 7.5937s4.75 2.3438 7.25 2.3438z" fill="url(#a)"/><path d="m16.648 64.816h-1.452c.06.432.072.696.072.984v1.656h1.308c0-.432 0-1.356 0-1.656 0-.288.012-.552.072-.984zm4.068 2.412-.816-.504c-.18.06-.432.108-.9.108h-6.348c-.432 0-.792-.012-1.164-.048.048.264.048.708.048.96v2.1c0 .276-.012.624-.048.876h1.308c-.024-.216-.036-.552-.036-.792 0-.372 0-1.512 0-1.98h6.372c-.12 1.044-.468 2.364-1.104 3.324-.708 1.056-1.908 1.872-3.024 2.256-.432.168-.972.312-1.44.396l.984 1.128c2.172-.576 3.888-1.824 4.812-3.48.636-1.128.972-2.472 1.152-3.516.048-.24.132-.612.204-.828zm9.204-.12h-1.248c.048.3.084.636.084.9.06 1.284.108 4.536.108 5.928 0 .228-.096.36-.324.36-.336 0-.936-.036-1.428-.108l.072 1.092c.504.024 1.272.06 1.788.06.612 0 1.032-.36 1.02-.924-.024-1.8-.084-5.124-.12-6.408 0-.3.012-.624.048-.9zm-5.568 1.704v1.188c.312-.024.672-.048 1.008-.048h6.168c.24 0 .6.012.84.024v-1.164c-.192.024-.612.06-.888.06-.48 0-5.568 0-6.144 0-.3 0-.696-.024-.984-.06zm-.396 4.62.828.936c1.764-.924 3.72-2.688 4.356-3.84l-.024-.912-.612-.012c-.684 1.224-2.616 2.916-4.548 3.828zm11.208-4.284v1.488c.408-.036 1.116-.06 1.788-.06h6.528c.516 0 1.068.048 1.332.06v-1.488c-.288.024-.756.072-1.344.072-.972 0-5.4 0-6.516 0-.66 0-1.392-.036-1.788-.072zm15.888-.192-.84.852c1.452.9 3.6 2.46 4.68 3.468l.9-1.068c-1.152-.936-3.228-2.376-4.74-3.252zm5.556-2.124-.984-.6c-.228.072-.552.12-.9.12h-3.636l-.456 1.08h4.272c-.252 1.032-.996 2.496-1.872 3.528-1.068 1.248-2.616 2.52-4.968 3.24l1.092.948c2.28-.852 3.84-2.16 4.944-3.528 1.068-1.32 1.812-2.88 2.172-4.056.084-.24.216-.54.336-.732zm-4.008-1.788-1.38-.432c-.084.36-.3.84-.456 1.08-.576 1.08-1.752 2.808-3.828 4.104l1.008.78c1.836-1.26 3.264-3.084 4.02-4.464.132-.24.384-.708.636-1.068zm6.564 4.104v1.488c.408-.036 1.116-.06 1.788-.06h6.528c.516 0 1.068.048 1.332.06v-1.488c-.288.024-.756.072-1.344.072-.972 0-5.4 0-6.516 0-.66 0-1.392-.036-1.788-.072zm-34.3214 16.94v-2.976c0-.468.048-.864.072-1.032h-1.368c.036.168.072.564.072 1.032v3.036c0 3.192-1.056 4.224-3.3 5.04l1.008.96c2.808-1.248 3.516-2.964 3.516-6.06zm-4.332-3.924h-1.344c.036.312.06.672.06.96v4.356c0 .492-.036.996-.06 1.164h1.332c-.012-.168-.048-.684-.048-1.164v-4.356c0-.432.036-.792.06-.96zm-3.696 2.256v1.296c.192-.012.684-.048 1.236-.048h7.92c.576 0 1.008.024 1.2.036v-1.26c-.24.036-.624.072-1.2.072h-7.92c-.54 0-1.092-.072-1.236-.096zm12.408 1.728v1.488c.408-.036 1.116-.06 1.788-.06h6.528c.516 0 1.068.048 1.332.06v-1.488c-.288.024-.756.072-1.344.072-.972 0-5.4 0-6.516 0-.66 0-1.392-.036-1.788-.072zm19.9708-4.092-.768.324c.324.456.708 1.176.948 1.668l.792-.348c-.24-.468-.672-1.212-.972-1.644zm1.368-.504-.78.324c.336.444.732 1.14.984 1.644l.78-.336c-.216-.432-.672-1.188-.984-1.632zm-8.148 6.288c-.408 1.032-1.104 2.304-1.86 3.3l1.308.552c.66-.936 1.332-2.232 1.776-3.36.468-1.176.888-2.904 1.056-3.696.048-.252.156-.708.252-1.008l-1.368-.288c-.156 1.452-.636 3.216-1.164 4.5zm5.916-.36c.492 1.284.996 2.856 1.308 4.164l1.38-.444c-.324-1.128-.96-3-1.416-4.14-.492-1.224-1.284-2.964-1.764-3.852l-1.248.408c.516.9 1.272 2.616 1.74 3.864zm4.776-1.332v1.488c.408-.036 1.116-.06 1.788-.06h6.528c.516 0 1.068.048 1.332.06v-1.488c-.288.024-.756.072-1.344.072-.972 0-5.4 0-6.516 0-.66 0-1.392-.036-1.788-.072z" fill="#222"/></svg>