<svg fill="none" height="97" viewBox="0 0 84 97" width="84" xmlns="http://www.w3.org/2000/svg" xmlns:xlink="http://www.w3.org/1999/xlink"><linearGradient id="a"><stop offset="0" stop-color="#54917a"/><stop offset="1" stop-color="#6ec0da"/></linearGradient><linearGradient id="b" gradientUnits="userSpaceOnUse" x1="28.4062" x2="41.0211" xlink:href="#a" y1="26.4784" y2="24.0903"/><linearGradient id="c" gradientUnits="userSpaceOnUse" x1="32.3339" x2="57.5637" xlink:href="#a" y1="49.9565" y2="45.1803"/><linearGradient id="d" gradientUnits="userSpaceOnUse" x1="41.4005" x2="57.0486" xlink:href="#a" y1="49.9565" y2="49.2456"/><g stroke-width="2.34783"><path d="m39.7391 26.4784h-8.2174l-3.5217-9.3913" stroke="url(#b)"/><path d="m54.9997 31.1739h-23.4782v18.7826" stroke="url(#c)"/><path d="m44.4348 35.8696v12.913h-2.3478v-29.3478-3.5218h11.7391v3.5218 29.3478h-2.3478v-12.913-1.174h-1.1739-4.6957-1.1739zm3.5218-31.6957c1.9342 0 3.5217 1.58746 3.5217 3.52174 0 1.93427-1.5875 3.52176-3.5217 3.52176-1.9343 0-3.5218-1.58749-3.5218-3.52176 0-1.93428 1.5875-3.52174 3.5218-3.52174z" fill="url(#d)" stroke="url(#d)"/></g><path d="m9.42188 63.348c-.204.072-.6.12-1.044.12h-4.452c-.372 0-1.068-.048-1.308-.084v1.356c.192-.012.84-.072 1.308-.072h4.404c-.288.936-1.092 2.256-1.908 3.168-1.188 1.332-2.988 2.772-4.932 3.516l.972 1.008c1.728-.792 3.336-2.076 4.62-3.444 1.188 1.104 2.388 2.424 3.16802 3.504l1.068-.936c-.744-.912-2.19602-2.46-3.43202-3.516.84-1.08 1.548-2.436 1.968-3.42.084-.204.26402-.504.34802-.624zm12.63602.372c-.228.084-.564.132-.9.132h-2.916l.144-.264c.12-.24.384-.696.612-1.056l-1.368-.432c-.084.348-.3.84-.456 1.08-.564 1.068-1.752 2.808-3.84 4.092l1.032.78c1.284-.876 2.364-2.028 3.156-3.12h3.816c-.216.84-.756 1.968-1.416 2.916-.876-.528-1.8-1.056-2.472-1.404l-.792.9c.648.36 1.572.924 2.46 1.5-1.044 1.116-2.508 2.208-4.62 2.844l1.092.96c2.04-.78 3.504-1.896 4.572-3.108.456.312.852.6 1.14.84l.84-1.104c-.3-.216-.708-.48-1.152-.768.816-1.176 1.404-2.448 1.704-3.444.084-.24.228-.54.336-.744zm5.16-.66-.876.936c.888.612 2.376 1.908 3 2.544l.948-.972c-.672-.696-2.22-1.944-3.072-2.508zm-1.236 8.028.804 1.236c1.86-.336 3.384-1.044 4.596-1.788 1.872-1.152 3.348-2.796 4.212-4.344l-.732-1.308c-.732 1.536-2.232 3.336-4.164 4.524-1.152.708-2.712 1.38-4.716 1.68zm20.856-7.248c-.24-.468-.672-1.212-.972-1.644l-.768.324c.324.456.708 1.176.948 1.656zm-2.832.456c.384 0 .816.024 1.2.048v-1.236c-.372.048-.828.072-1.2.072h-4.056c-.384 0-.804-.024-1.164-.072v1.236c.324-.024.768-.048 1.176-.048zm-5.544 1.908c-.372 0-.744-.024-1.092-.06v1.248c.336-.024.732-.036 1.092-.036h3.468c-.036 1.068-.204 2.028-.72 2.832-.468.732-1.332 1.428-2.22 1.788l1.116.816c1.032-.54 1.944-1.428 2.376-2.244.456-.864.696-1.92.744-3.192h3.084c.312 0 .732.012 1.008.024v-1.236c-.3.048-.756.06-1.008.06zm7.992-4.188c.336.444.732 1.128.984 1.644l.78-.336c-.216-.444-.672-1.188-.996-1.632zm9.7402 2.628c-.6.768-1.884 1.776-3.084 2.472-.984.576-2.664 1.308-4.2 1.632l.636 1.104c1.176-.312 2.58-.9 3.612-1.428v3.408c0 .384-.036.948-.06 1.152h1.392c-.048-.204-.06-.768-.06-1.152v-4.14c1.08-.696 2.148-1.548 2.712-2.172zm6.18-1.584-.876.936c.888.612 2.376 1.908 3 2.544l.948-.972c-.672-.696-2.22-1.944-3.072-2.508zm-1.236 8.028.804 1.236c1.86-.336 3.384-1.044 4.596-1.788 1.872-1.152 3.348-2.796 4.212-4.344l-.732-1.308c-.732 1.536-2.232 3.336-4.164 4.524-1.152.708-2.712 1.38-4.716 1.68zm15.84-6.768c.072-.108.12-.204.18-.312.132-.24.384-.696.624-1.056l-1.392-.456c-.096.348-.3.828-.444 1.08-.564 1.056-1.68 2.712-3.768 3.972l1.056.78c1.248-.84 2.28-1.896 3.036-2.928h3.756c-.216 1.008-.936 2.508-1.824 3.54-1.068 1.236-2.496 2.304-4.812 2.988l1.116.996c2.244-.852 3.696-1.956 4.8-3.312 1.08-1.32 1.788-2.928 2.112-4.08.084-.24.216-.54.336-.732l-.984-.6c-.228.084-.564.12-.9.12zm3.084-1.692c.324.456.708 1.176.948 1.656l.792-.336c-.24-.468-.672-1.212-.972-1.644zm1.356-.516c.336.456.732 1.14.984 1.656l.78-.348c-.216-.432-.672-1.188-.996-1.632zm-47.0021 19.728c-.24-.468-.672-1.212-.972-1.644l-.768.324c.324.456.708 1.176.948 1.656zm-2.832.456c.384 0 .816.024 1.2.048v-1.236c-.372.048-.828.072-1.2.072h-4.056c-.384 0-.804-.024-1.164-.072v1.236c.324-.024.768-.048 1.176-.048zm-5.544 1.908c-.372 0-.744-.024-1.092-.06v1.248c.336-.024.732-.036 1.092-.036h3.468c-.036 1.068-.204 2.028-.72 2.832-.468.732-1.332 1.428-2.22 1.788l1.116.816c1.032-.54 1.944-1.428 2.376-2.244.456-.864.696-1.92.744-3.192h3.084c.312 0 .732.012 1.008.024v-1.236c-.3.048-.756.06-1.008.06zm7.992-4.188c.336.444.732 1.128.984 1.644l.78-.336c-.216-.444-.672-1.188-.996-1.632zm10.968 1.332c-.204.072-.6.12-1.044.12h-4.452c-.372 0-1.068-.048-1.308-.084v1.356c.192-.012.84-.072 1.308-.072h4.404c-.288.936-1.092 2.256-1.908 3.168-1.188 1.332-2.988 2.772-4.932 3.516l.972 1.008c1.728-.792 3.336-2.076 4.62-3.444 1.188 1.104 2.388 2.424 3.168 3.504l1.068-.936c-.744-.912-2.196-2.46-3.432-3.516.84-1.08 1.548-2.436 1.968-3.42.084-.204.264-.504.348-.624zm12.624.564c-.228.084-.564.12-.9.12h-2.88c.06-.096.12-.204.168-.3.132-.24.384-.708.624-1.068l-1.392-.456c-.096.348-.3.84-.444 1.08-.564 1.056-1.68 2.724-3.768 3.972l1.056.78c1.26-.84 2.28-1.896 3.048-2.928h3.744c-.216 1.008-.936 2.52-1.824 3.54-1.068 1.236-2.496 2.304-4.812 3l1.116.996c2.244-.864 3.696-1.968 4.8-3.324 1.08-1.32 1.788-2.928 2.112-4.08.084-.24.216-.54.336-.732z" fill="#222"/></svg>