<svg fill="none" height="97" viewBox="0 0 80 97" width="80" xmlns="http://www.w3.org/2000/svg" xmlns:xlink="http://www.w3.org/1999/xlink"><linearGradient id="a" gradientUnits="userSpaceOnUse" x1="19.4934" x2="66.3425" y1="56" y2="48.5315"><stop offset="0" stop-color="#54917a"/><stop offset="1" stop-color="#6ec0da"/></linearGradient><path clip-rule="evenodd" d="m43.8947 23.6316v-4.3158h-8.6315v4.3158zm-21.5789 4.3158v23.7368h34.5263v-23.7368zm34.5263-4.3158c2.3953 0 4.3158 1.9205 4.3158 4.3158v23.7368c0 2.3953-1.9205 4.3158-4.3158 4.3158h-34.5263c-2.3953 0-4.3158-1.9205-4.3158-4.3158l.0216-23.7368c0-2.3953 1.8989-4.3158 4.2942-4.3158h8.6316v-4.3158c0-2.3953 1.9205-4.3158 4.3158-4.3158h8.6315c2.3953 0 4.3158 1.9205 4.3158 4.3158v4.3158z" fill="url(#a)" fill-rule="evenodd"/><path d="m20.236 71.304v1.056h7.188v-1.056zm4.98.516v5.844c0 .18-.072.24-.3.252-.216 0-.984 0-1.752-.024.156.3.336.756.396 1.056 1.032 0 1.728-.012 2.184-.18.444-.156.588-.468.588-1.092v-5.856zm-6.204-1.092c-.6 1.356-1.632 2.64-2.7 3.48.216.252.588.792.708 1.032 1.176-.996 2.352-2.58 3.084-4.152zm1.86 2.604v.936h2.292v1.584h-2.292v.936h3.336v-3.456zm-.564 0v4.164h1.056v-4.164zm-3.6-4.572v1.032h10.644v-1.032zm2.628-.888v2.928h1.116v-2.928zm4.188 0v2.928h1.128v-2.928zm-5.508 5.436v5.7h1.104v-6.792-.012zm16.296-5.436c-.384 1.8-1.08 3.528-2.064 4.596.24.144.684.468.864.648.996-1.2 1.788-3.06 2.232-5.04zm4.092 1.956v.252c-.228 5.196-.48 7.092-.852 7.524-.144.168-.252.216-.444.216-.228 0-.684-.012-1.176-.06.18.312.288.792.312 1.116.528.036 1.044.036 1.368-.012.384-.06.624-.18.888-.54.468-.6.708-2.52.96-7.956.012-.144.024-.54.024-.54zm-3.984 0-.504 1.056h4.956v-1.056zm1.056.336c-.48 2.064-1.584 4.356-2.988 5.46.3.168.66.432.888.648 1.332-1.2 2.436-3.588 2.94-5.688zm1.692.096c-.564 3.144-1.86 6.348-3.948 7.848.312.156.72.444.936.672 2.004-1.632 3.312-4.92 3.912-8.1zm-8.796 4.224.288 1.092c1.236-.372 2.868-.876 4.38-1.356l-.144-.996c-1.644.48-3.372.984-4.524 1.26zm2.208-6.6v11.124h1.044v-11.124zm-1.536.684c-.12 1.452-.348 2.964-.768 3.96.228.108.66.372.828.504.444-1.068.744-2.712.912-4.308zm.192 1.704-.204 1.092h3.732v-1.092zm13.5-1.692v1.152h3.396v-1.152zm2.832 0c0 2.34.456 7.56 5.148 10.392.204-.276.66-.768.924-.972-4.608-2.724-4.908-7.212-4.908-9.42zm-.42 2.472c-.696 3.3-2.172 5.688-4.764 7.02.3.216.828.684 1.032.924 2.592-1.536 4.176-4.092 5.028-7.704zm18.54 6.168-.168-1.32c-.588.6-1.188.936-1.704.936-.372 0-.552-.288-.552-.648 0-1.224.42-3.156.42-4.38 0-.984-.564-1.68-1.764-1.68-1.524 0-3.516 1.764-4.26 2.556v1.476c1.056-1.308 2.82-2.916 3.936-2.916.564 0 .9.3.9.948 0 1.14-.444 3.012-.444 4.332 0 1.068.564 1.644 1.404 1.644.888 0 1.632-.36 2.232-.948zm-8.16-5.736-.096.288-.036.48c-.528.864-2.064 2.928-2.82 3.864l.756 1.032c.696-.972 1.788-2.58 2.328-3.396l.516-1.908c.204-.324.54-.876.756-1.176l-.408-.504c-.552.18-2.064.384-2.76.42-.348.024-.6.024-.9.012l.132 1.236c.84-.132 2.076-.288 2.532-.348zm-.132-2.124c0 .468-.276 4.068-.3 5.136-.024 1.392-.036 2.088-.048 3.252 0 .192-.012.54-.036.78h1.308c-.024-.24-.06-.6-.072-.816-.06-1.092-.06-1.944-.06-2.988 0-2.124.372-5.436.564-6.288l-1.404-.048c.06.336.048.672.048.972z" fill="#222"/></svg>