<svg fill="none" height="97" viewBox="0 0 80 97" width="80" xmlns="http://www.w3.org/2000/svg" xmlns:xlink="http://www.w3.org/1999/xlink"><linearGradient id="a" gradientUnits="userSpaceOnUse" x1="12.0762" x2="76.0318" y1="57.1875" y2="43.7311"><stop offset="0" stop-color="#54917a"/><stop offset="1" stop-color="#6ec0da"/></linearGradient><path d="m18.756 70.952v.984h10.476v-.984zm4.584-1.092v1.572h1.164v-1.572zm-4.08 5.856v5.304h1.104v-4.356h7.752v-.948zm8.412 0v4.008c0 .156-.048.204-.252.216-.18.012-.828.012-1.512-.012.156.3.324.756.36 1.068.948 0 1.584-.012 2.004-.18.42-.18.54-.504.54-1.068v-4.032zm-5.976 1.632v3.192h.996v-3.192zm.516 0v.792h3.072v1.02h-3.072v.792h4.08v-2.604zm-.396-4.044h4.296v.972h-4.296zm-1.08-.792v2.556h6.528v-2.556zm12.48 2.076h-2.664v1.056h1.56v3.264h1.104zm0 3.828h-1.032c-.588.48-1.272.96-1.836 1.32l.576 1.176c.648-.528 1.236-1.02 1.788-1.512.78.936 1.824 1.332 3.348 1.392 1.38.048 3.828.024 5.208-.036.048-.336.24-.888.36-1.152-1.5.108-4.212.144-5.556.084-1.332-.048-2.328-.432-2.856-1.272zm-2.58-7.572c.756.54 1.632 1.344 2.004 1.92l.9-.756c-.42-.576-1.308-1.344-2.064-1.848zm4.692 2.892h4.428v1.308h-4.428zm-1.056-.9v3.096h6.588v-3.096zm-.444-1.8v.96h7.512v-.96zm3.12-1.152v9.42h1.092v-9.42zm-.336 5.736c-.636 1.02-1.884 2.04-3.048 2.532.228.204.564.6.72.864 1.212-.624 2.46-1.836 3.156-3.096zm1.62-.012-.792.348c.756 1.164 2.088 2.4 3.252 3.024.168-.276.516-.672.768-.888-1.176-.492-2.52-1.5-3.228-2.484zm5.868 4.392h1.596l.816-3.24c.156-.624.276-1.236.408-1.932h.06c.144.696.264 1.296.42 1.92l.84 3.252h1.656l1.716-6.6h-1.308l-.84 3.576c-.144.636-.252 1.248-.384 1.872h-.048c-.156-.624-.288-1.236-.444-1.872l-.948-3.576h-1.284l-.924 3.576c-.168.624-.3 1.248-.432 1.872h-.06c-.12-.624-.228-1.236-.348-1.872l-.876-3.576h-1.392zm8.8812 0h1.392v-6.6h-1.392zm.696-7.836c.504 0 .864-.324.864-.828 0-.492-.36-.816-.864-.816-.516 0-.852.324-.852.816 0 .504.336.828.852.828zm2.9891 7.836h1.38v-7.428c0-.804.3-1.188.876-1.188.24 0 .492.048.732.168l.276-1.056c-.3-.12-.72-.216-1.176-.216-1.464 0-2.088.948-2.088 2.292zm-.9-5.496h3.624v-1.104h-2.652l-.972.072zm4.812 5.496h1.392v-6.6h-1.392zm.696-7.836c.504 0 .876-.324.876-.828 0-.492-.372-.816-.876-.816s-.852.324-.852.816c0 .504.348.828.852.828z" fill="#222"/><path d="m24.5 41.6875-3.9375-3.9375c2.9167-2.9167 5.9687-5.1042 9.1562-6.5625s6.6146-2.1875 10.2813-2.1875 7.0937.7292 10.2812 2.1875 6.2396 3.6458 9.1563 6.5625l-3.9375 3.9375c-2.5417-2.5417-5.1042-4.3542-7.6875-5.4375s-5.1875-1.625-7.8125-1.625-5.2292.5417-7.8125 1.625-5.1458 2.8958-7.6875 5.4375zm-10.5625-10.5625-3.9375-3.9375c3.875-3.9583 8.3854-7.1458 13.5312-9.5625 5.1459-2.4167 10.6355-3.625 16.4688-3.625s11.3229 1.2083 16.4687 3.625c5.1459 2.4167 9.6563 5.6042 13.5313 9.5625l-3.9375 3.9375c-3.6667-3.5-7.6771-6.2917-12.0313-8.375-4.3541-2.0833-9.0312-3.125-14.0312-3.125s-9.6771 1.0417-14.0313 3.125c-4.3541 2.0833-8.3645 4.875-12.0312 8.375zm26.0625 26.0625 9.25-9.3125c-1.2083-1.2083-2.5937-2.1562-4.1562-2.8437s-3.2605-1.0313-5.0938-1.0313-3.5313.3438-5.0938 1.0313-2.9479 1.6354-4.1562 2.8437z" fill="url(#a)"/></svg>