<svg fill="none" height="97" viewBox="0 0 80 97" width="80" xmlns="http://www.w3.org/2000/svg" xmlns:xlink="http://www.w3.org/1999/xlink"><linearGradient id="a" gradientUnits="userSpaceOnUse" x1="21.3841" x2="64.9076" y1="54.9975" y2="48.4061"><stop offset="0" stop-color="#54917a"/><stop offset="1" stop-color="#6ec0da"/></linearGradient><path d="m20 46.6658v8.3317h8.3317l24.5728-24.5728-8.3317-8.3317zm39.3476-22.6843c.8665-.8665.8665-2.2662 0-3.1327l-5.1989-5.1989c-.8665-.8665-2.2662-.8665-3.1327 0l-4.0659 4.0658 8.3317 8.3317z" fill="url(#a)"/><path d="m30.328 69.98c-.564 1.536-1.332 2.808-2.34 3.84-1.044-1.068-1.836-2.364-2.388-3.84zm3.096 0v-1.08h-4.86v-1.968h-1.14v1.968h-4.788v1.08h1.74c.66 1.836 1.536 3.396 2.7 4.668-1.236.996-2.772 1.728-4.62 2.232.228.276.588.804.708 1.092 1.884-.6 3.456-1.404 4.764-2.496 1.296 1.128 2.88 1.956 4.848 2.472.18-.324.54-.84.804-1.104-1.884-.432-3.456-1.188-4.716-2.232 1.176-1.224 2.088-2.748 2.772-4.632zm4.092.048h5.016v.948h-5.016zm0 1.764h5.016v.96h-5.016zm0-3.528h5.016v.948h-5.016zm-1.092-.864v6.228h7.26v-6.228zm-1.692 6.912v1.044h10.56v-1.044zm6.108 2.04c1.308.48 2.688 1.116 3.492 1.584l1.104-.756c-.912-.468-2.412-1.104-3.768-1.584zm-2.64-.828c-.804.54-2.352 1.2-3.576 1.56.264.228.6.612.78.852 1.212-.384 2.76-1.032 3.792-1.668zm17.808-4.332h-2.856v-.972h2.856zm0 1.776h-2.856v-.984h2.856zm0 1.788h-2.856v-.996h2.856zm-3.864-5.376v6.216h4.92v-6.216h-2.292c.108-.3.228-.636.348-.972h2.304v-.96h-5.652v.96h2.16c-.072.312-.156.66-.24.972zm-1.452-2.22c-.144.42-.408 1.056-.624 1.452l.732.264c.252-.372.54-.912.828-1.452zm-2.448 1.392c-.084-.372-.36-.924-.66-1.344l-.756.276c.264.432.528 1.02.612 1.404zm.432 3.792h.972v-1.476c.552.408 1.224.936 1.536 1.224l.6-.78c-.324-.24-1.668-1.08-2.136-1.332v-.084h2.028v-.888h-2.028v-1.944h-.972v1.944h-2.016v.888h1.692c-.492.708-1.236 1.416-1.932 1.776.216.18.516.516.66.732.552-.36 1.128-.936 1.596-1.584zm2.976 4.068c-.48-.42-1.368-1.08-2.088-1.548.024-.132.048-.252.06-.384h2.124v-.972h-2.1v-.924h-1.008v.924h-1.98v.972h1.932c-.12.852-.588 1.764-2.184 2.448.18.192.48.588.588.84 1.248-.54 1.908-1.236 2.268-1.968.636.468 1.32.996 1.68 1.368zm1.56-.672c-.468.516-1.428 1.128-2.28 1.464.24.204.564.528.744.744.852-.372 1.86-1.02 2.46-1.644zm1.668.612c.684.468 1.548 1.152 1.968 1.584l.852-.612c-.456-.444-1.332-1.092-2.016-1.524z" fill="#222"/></svg>