<svg fill="none" height="179" viewBox="0 0 176 179" width="176" xmlns="http://www.w3.org/2000/svg"><path d="m89.466 141.398c1.5223 0 2.7811-.498 3.7765-1.493.9953-.996 1.493-2.254 1.493-3.777 0-1.522-.4977-2.781-1.493-3.776-.9954-.996-2.2542-1.493-3.7765-1.493s-2.7811.497-3.7765 1.493c-.9953.995-1.493 2.254-1.493 3.776 0 1.523.4977 2.781 1.493 3.777.9954.995 2.2542 1.493 3.7765 1.493zm-38.6429-23.713h77.2859v-91.3376h-77.2859zm0 36.886c-2.8103 0-5.2694-1.053-7.3772-3.161s-3.1617-4.567-3.1617-7.378v-133.493c0-2.81043 1.0539-5.26952 3.1617-7.37731s4.5669-3.16169 7.3772-3.16169h77.2859c2.81 0 5.269 1.0539 7.377 3.16169s3.162 4.56688 3.162 7.37731v133.493c0 2.811-1.054 5.27-3.162 7.378s-4.567 3.161-7.377 3.161zm0-138.7626h77.2859v-5.2694h-77.2859zm0-5.2694v5.2694zm0 117.685v15.808h77.2859v-15.808zm0 15.808v-15.808z" fill="#fff" opacity=".05"/><g stroke="#fff" stroke-width="6.92702"><path d="m140.401 88.6658h23.552l-18.703-17.6638" opacity=".05"/><path d="m125.854 89.3585h-13.854" opacity=".05"/></g></svg>