<svg fill="none" height="150" viewBox="0 0 150 150" width="150" xmlns="http://www.w3.org/2000/svg"><rect fill="#fff" height="150" rx="75" width="150"/><g fill="#00bfa6"><path d="m74.6268 131.775c5.8356 0 10.5663-.811 10.5663-1.812 0-1-4.7307-1.811-10.5663-1.811s-10.5663.811-10.5663 1.811c0 1.001 4.7307 1.812 10.5663 1.812z"/><path d="m66.7723 51.3826c.0005-3.289 1.1283-6.4784 3.1954-9.0366s4.9486-4.3306 8.1641-5.0218c-2.0966-.4499-4.2672-.4252-6.353.0723s-4.0339 1.4553-5.7017 2.8031-3.013 3.0516-3.9371 4.9865c-.9241 1.935-1.4037 4.0522-1.4037 6.1965s.4796 4.2615 1.4037 6.1964c.9241 1.935 2.2693 3.6388 3.9371 4.9866s3.6159 2.3056 5.7017 2.8031 4.2564.5222 6.353.0722c-3.2155-.6911-6.097-2.4635-8.1641-5.0217s-3.1949-5.7477-3.1954-9.0366z"/><path d="m51.1227 51.3827c.0005-7.8444 2.8695-15.4179 8.0665-21.2937 5.197-5.8759 12.3633-9.6486 20.1489-10.6074-4.5177-.5538-9.1015-.1422-13.4483 1.2077-4.3467 1.35-8.3573 3.6074-11.7665 6.623s-6.1393 6.7207-8.0096 10.8701c-1.8704 4.1495-2.8385 8.6488-2.8403 13.2003 0 14.4171 21.2023 55.0723 29.1655 69.8343.2892.537.7184.986 1.2421 1.298.5237.313 1.1224.478 1.7325.478.61 0 1.2087-.165 1.7324-.478.5237-.312.953-.761 1.2421-1.298.2981-.553.6168-1.146.9501-1.768-8.5726-16.004-28.2154-54.1888-28.2154-68.0663z"/></g><g fill="#3f3d56"><path d="m75.4417 123.354c-.6656.006-1.3198-.172-1.8913-.513-.5714-.342-1.038-.833-1.3487-1.422-8.7803-16.275-29.2017-55.6747-29.2017-69.977 0-8.6041 3.418-16.8559 9.502-22.94 6.0841-6.084 14.3359-9.502 22.94-9.502 8.6042 0 16.8559 3.418 22.94 9.502 6.084 6.0841 9.502 14.3359 9.502 22.94 0 14.3037-20.4217 53.702-29.2019 69.977-.3108.589-.7775 1.081-1.349 1.422-.5714.341-1.2258.519-1.8914.513zm.0003-103.7502c-8.4411.0095-16.5337 3.3669-22.5025 9.3357s-9.3262 14.0614-9.3357 22.5025c0 14.1648 20.371 53.455 29.1291 69.69.2634.49.6543.898 1.1312 1.183.477.285 1.0222.436 1.5778.436.5555 0 1.1007-.151 1.5777-.436.4769-.285.8679-.693 1.1312-1.183 8.7584-16.234 29.1292-55.5239 29.1292-69.69-.009-8.4411-3.367-16.5337-9.3355-22.5025-5.9688-5.9688-14.0614-9.3262-22.5025-9.3357z"/><path d="m75.4423 66.1222c-2.9035 0-5.7418-.8609-8.156-2.474s-4.2959-3.9058-5.407-6.5883c-1.1112-2.6825-1.4019-5.6342-.8355-8.482.5664-2.8477 1.9646-5.4635 4.0177-7.5166 2.053-2.0531 4.6688-3.4513 7.5166-4.0177 2.8477-.5665 5.7994-.2758 8.4819.8354 2.6825 1.1111 4.9753 2.9927 6.5884 5.4069s2.4741 5.2525 2.4741 8.156c-.0045 3.8921-1.5525 7.6235-4.3046 10.3756-2.7521 2.7522-6.4835 4.3003-10.3756 4.3047zm0-28.7569c-2.7841-.0001-5.5057.8255-7.8206 2.3722s-4.1192 3.7452-5.1846 6.3173c-1.0655 2.5722-1.3443 5.4025-.8011 8.1331.5431 2.7306 1.8837 5.2388 3.8523 7.2075 1.9687 1.9687 4.4769 3.3093 7.2075 3.8525s5.5609.2644 8.1331-.801c2.5721-1.0654 4.7706-2.8696 6.3174-5.1845 1.5468-2.3148 2.3724-5.0364 2.3724-7.8205-.0042-3.732-1.4886-7.31-4.1275-9.9489-2.6389-2.639-6.2169-4.1235-9.9489-4.1277z"/></g></svg>