<svg fill="none" height="150" viewBox="0 0 150 150" width="150" xmlns="http://www.w3.org/2000/svg"><rect fill="#fff" height="150" rx="75" width="150"/><g stroke="#6562cf" stroke-linecap="round" stroke-miterlimit="10" stroke-width=".476405"><path d="m52.5886 97.053h-13.3794c-.5566-.0004-1.0965-.19-1.531-.5379-.4344-.3479-.7376-.8333-.8596-1.3763l-2.9156-12.9954c-.0803-.3582-.079-.7299.0038-1.0875.0827-.3576.2448-.6921.4743-.9786.2294-.2865.5203-.5178.8512-.6767.3309-.159.6933-.2414 1.0604-.2414"/><path d="m77.2663 97.053h-13.3793c-.5566-.0004-1.0965-.19-1.531-.5379s-.7376-.8333-.8596-1.3763l-2.9156-12.9954c-.0803-.3582-.079-.7299.0037-1.0875.0828-.3576.2448-.6921.4743-.9786.2294-.2865.5204-.5178.8512-.6767.3309-.159.6933-.2414 1.0604-.2414"/><path d="m62.6232 83.7444h-22.7055c-.8263 0-1.6284-.2796-2.2756-.7934-.6472-.5139-1.1014-1.2316-1.2888-2.0364l-3.272-14.0521c-.1066-.458-.1084-.9341-.0052-1.3929.1031-.4588.3086-.8884.601-1.2566.2924-.3683.6642-.6657 1.0877-.8702s.8876-.3106 1.3579-.3106h22.7064c.8263.0001 1.6282.2798 2.2752.7936s1.1011 1.2315 1.2883 2.0363l3.272 14.0549c.1059.4578.1072.9335.0037 1.3919-.1035.4583-.309.8874-.6013 1.2553-.2924.3679-.6639.6651-1.087.8694-.4232.2043-.8869.3106-1.3568.3108z" fill="#fff"/><path d="m77.9542 93.812h-36.4155c-.8951 0-1.6207.7256-1.6207 1.6207s.7256 1.6208 1.6207 1.6208h36.4155c.8951 0 1.6207-.7257 1.6207-1.6208s-.7256-1.6207-1.6207-1.6207z" fill="#eaeeff"/><path d="m37.2109 133.9 4.5211-33.693c.0867-1.7677 1.4797-3.154 3.1691-3.154h7.813c1.6893 0 3.0824 1.3863 3.17 3.154l4.5211 33.693"/><path d="m65.9219 97.053h7.5863c1.6397 0 2.9927 1.3863 3.0775 3.154l4.4735 33.693"/></g><path d="m101.72 63.6659c.492.3249 1.635 2.7451 1.656 3.0366.021.2916-1.292 2.4583-1.292 2.4583s-.521.0114-.62-1.1806c-.121-1.4111-.74-1.9456-1.6377-2.1466-.3754-.0839-1.0652.2019-1.1138.7546-.0486.5526 1.3785.9194 1.6655 1.2548.435.5069.191 1.2215.191 1.2387 0 0-2.2033-.667-2.6264-.7908-.3811-.1134-2.0828-1.6608-3.1442-3.1948-.395.2893-.8088.5519-1.2387.786-2.6679 1.435-11.8149 4.7727-16.5532 4.0161-4.7583-.7622-.9575-15.9119-.9575-15.9119 6.8907.3182 9.7758-.5593 10.3017-.7451l-1.07 7.0032c2.8956-.0858 10.0207 1.0947 10.0245 1.0957 2.0019.263 5.7068 1.8599 6.4148 2.3258z" fill="#f1921b"/><path d="m76.0156 53.98h.041c6.8907.3182 9.7758-.5593 10.3017-.7451l-.2525 1.715s-5.1118 2.4068-10.7972 2.1915z" fill="#eb7200"/><path d="m76.7079 73.1289c1.6369-.12 4.604-19.1686 4.604-19.1686 3.654.0533 8.0722-1.6512 8.0722-1.6512s-3.0214-9.9016-4.0628-11.9435-8.5171-5.572-9.3995-5.8274l-14.5722-3.3348s-12.439 3.0899-16.3617 6.2609c-3.9227 3.1709-6.9879 16.5465-6.9879 16.5465 7.2042 2.9051 14.6733 2.4773 14.6733 2.4773l-2.5393 15.305c-.8222 3.716-3.4491 15.5136 1.1825 21.2419 0 0 3.7264-18.3149 25.3914-19.9061z" fill="#eaeeff"/><path d="m67.1305 36.1039-4.3581 2.6593-5.5263-6.4257 4.1485-2.485c.1209-.072.2549-.1192.3942-.139s.2811-.0118.4173.0237c.1361.0354.2639.0976.3758.1828.112.0852.2058.1919.2762.3137z" fill="#dbdaff"/><path d="m73.7598 36.7136 3.0671 1.8103-.1477-3.6797-.7566-.3059s-1.3472.9033-2.1628 2.1753z" fill="#dbdaff"/><path d="m52.6738 56.4866c.5908-1.9352 1.1815-6.6096 1.1815-6.6096" stroke="#c7bfff" stroke-linejoin="round" stroke-width=".476405"/><path d="m62.7734 38.7632 4.2763-2.4973s4.1028 4.8812 4.2171 5.7349c.1143.8538.3297 9.5596.3297 9.5596h2.1628" stroke="#c7bfff" stroke-linejoin="round" stroke-width=".476405"/><path d="m76.7464 38.5198-2.9052-1.6446s-2.6345 4.1676-2.5725 5.1252" stroke="#c7bfff" stroke-linejoin="round" stroke-width=".476405"/><path d="m53.1375 54.5638s-9.208.2735-14.6199-2.6097" stroke="#c7bfff" stroke-linejoin="round" stroke-width=".476405"/><path d="m80.6867 69.6435c0 .4373-4.4915.2782-5.1242.2782-.6326 0-4.5954.1506-5.5263 0-5.0604.4164-27.6315 2.0571-30.2565-1.5912-3.0385-4.2247-.3239-13.7814-.3239-13.7814 6.8173 2.3677 13.2183 1.937 13.2183 1.937l-.5593 3.6293c5.411.667 15.1754 4.0971 18.495 5.2986.7118-.2278 3.4215-1.0481 4.7936-.7356 1.5874.3573 3.494 1.7865 3.6921 2.1838.1982.3974 1.5912 2.3449 1.5912 2.7813z" fill="#ffd0b6"/><path d="m75.5586 69.9219c.6327 0 5.1242.1591 5.1242-.2773s-1.3901-2.382-1.5883-2.7794c-.1982-.3973-2.1038-1.8265-3.6922-2.1838 0 0 1.96 2.7222.1563 5.2405" fill="#eb7200"/><path d="m39.4516 54.5518s6.9774 2.4544 13.2222 1.9351l-.5593 3.6283s-8.3333-1.3339-12.9583-4.3524z" fill="#dcb39d"/><path d="m99.8197 134.243h-15.4288c-.0153-.236-.021-.461-.0162-.677h15.465c.0169.226.0102.452-.02.677z" fill="#3f4d79"/><path d="m85.9618 127.335c.0553 1.683-1.5712 2.749-1.5712 6.227h15.4279s.2235-2.918-2.8584-3.59c-3.0823-.673-5.8912-1.572-6.1714-2.637z" fill="#00bfa6"/><path d="m90.8965 130.479 1.4082-2.085" stroke="#3f4d79" stroke-linecap="round" stroke-miterlimit="10" stroke-width=".476405"/><path d="m91.9961 130.732 1.3244-1.915" stroke="#3f4d79" stroke-linecap="round" stroke-miterlimit="10" stroke-width=".476405"/><path d="m93.4336 130.817 1.071-1.747" stroke="#3f4d79" stroke-linecap="round" stroke-miterlimit="10" stroke-width=".476405"/><path d="m69.3727 74.4763s23.5478-1.473 29.2703 5.2595c5.723 6.7326-5.3852 30.7432-6.5076 45.3302 0 0-5.635.561-7.9227 0s-4.279-25.4993 1.4855-32.3443c0 0-21.9147 5.0413-30.4604-1.3168-8.5458-6.3581 10.58-16.8085 14.1349-16.9286z" fill="#3c4564"/><path d="m90.7883 127.335c-1.5646.529-3.2595.529-4.8241 0l-.4564-2.081s2.9976.151 5.7359-.111z" fill="#f1921b"/><path d="m134.685 110.88-12.239 9.394c-.173-.212-.33-.419-.469-.621l12.19-9.356c.194.174.368.369.518.583z" fill="#3f4d79"/><path d="m119.393 113.785c1.069 1.302.426 3.138 2.545 5.897l12.238-9.394s-1.598-2.45-4.456-1.106c-2.857 1.344-5.629 2.341-6.501 1.666z" fill="#00bfa6"/><path d="m125.251 113.127-.151-2.429" stroke="#3f4d79" stroke-linecap="round" stroke-miterlimit="10" stroke-width=".476405"/><path d="m126.181 112.535-.152-2.175" stroke="#3f4d79" stroke-linecap="round" stroke-miterlimit="10" stroke-width=".476405"/><path d="m127.112 111.943-.151-1.922" stroke="#3f4d79" stroke-linecap="round" stroke-miterlimit="10" stroke-width=".476405"/><path d="m51.3209 92.0821c.3525 1.8999 20.3901 6.5039 41.7121-6.9555 0 0 1.4016 16.2354 22.946 28.0124 0 0 4.687-1.692 6.794-5.411 0 0-14.054-16.4348-19.465-31.5273-2.271-6.3372-30.8604-3.0195-35.0404-1.7237-4.18 1.2959-18.5179 9.1375-16.9467 17.6051z" fill="#3f4d79"/><path d="m123.223 110.848s-.924 2.843-3.827 2.937l-1.892-1.341c1.711-.875 3.233-2.078 4.478-3.542z" fill="#f1921b"/><path d="m69.7341 25.9668s-.8909 2.342-6.6696 4.5735c0 0 4.0665 5.5663 8.2027 10.7963 0 0 1.6579-4.805 4.6545-6.7955z" fill="#ffd0b6"/><path d="m75.9266 34.5394c-.8833.6031-1.6274 1.4178-2.243 2.2868-1.9056-1.4293-4.0485-3.938-4.683-5.7579-.3135-.9004.5164-3.3348.9976-4.7412z" fill="#eabfa7"/><path d="m69.6145 26.4234c0 .7622-.6622 3.109.1391 4.0503 1.4654 1.7218 5.6635 4.4783 7.7282 4.363 1.4712-.0791 3.555-6.461 3.8656-7.4148s1.6522-4.7783.6993-5.8007c-.9528-1.0224-8.9173-3.2596-10.4999.0352-1.7541 3.6522-1.9323 4.767-1.9323 4.767z" fill="#ffd0b6"/><path d="m85.3269 19.4037c-.7822 5.1175-4.1152 5.7864-10.681 1.9427-3.008-1.7598-.8813 1.3921-2.5726 4.1286l-.5526.2058c.0181-.2754.0572-1.4131-.5088-1.4159-.8337 0-1.09 1.2615-1.1701 2.04l-.3201.1191s-.0343-5.7045.7746-7.5177c2.0009-4.4887 7.7845-2.0638 9.2032-1.3006 4.4763 2.4058 5.8274 1.798 5.8274 1.798z" fill="#2f2e41"/><g stroke-miterlimit="10"><path d="m74.498 20.9556c4.6688 3.6854 8.3371 4.5592 10.1589 2.3925" stroke="#2f2e41" stroke-width=".381124"/><path d="m70.603 22.631-.0092-.0026c-1.1175-.3179-2.2812.3303-2.5991 1.4479l-.2592.9109c-.3179 1.1176.3303 2.2812 1.4479 2.5992l.0091.0026c1.1176.3179 2.2813-.3303 2.5992-1.4479l.2592-.9109c.3179-1.1176-.3303-2.2813-1.4479-2.5992z" fill="#fff" stroke="#3f4d79" stroke-linecap="round" stroke-width=".476405"/><path d="m72.1278 24.9565-.4174 1.4673c-.1319.463-.4423.8546-.8629 1.0888-.4206.2343-.9169.2919-1.38.1603l-.5641-.161c-.0247-.0067-.0485-.0143-.0733-.0229.4553.1103.9356.0398 1.3401-.1967.4044-.2365.7013-.6205.8285-1.0715l.4173-1.4673c.1291-.4501.0787-.9328-.1405-1.3466-.2193-.4137-.5903-.7265-1.0353-.8725l.0744.0191.5612.1581c.2301.0644.4452.1737.6329.3216.1877.1478.3442.3314.4606.5401s.1903.4383.2175.6757.0071.4779-.059.7075z" fill="#fff" stroke="#3f4d79" stroke-linecap="round" stroke-width=".476405"/><path d="m70.3145 22.5503 1.715-6.0217c.0756-.2658.2027-.5141.3743-.7307.1715-.2167.384-.3974.6254-.5319.2413-.1345.5068-.2201.7813-.252.2745-.0318.5525-.0093.8183.0663l6.098 1.7341c.7546.2144 1.0976.8099.8823 1.5655" stroke="#3f4d79" stroke-linecap="round" stroke-width=".476405"/></g><path d="m98.8045 70.1614h-26.7349c-1.2206 0-1.9943-1.2206-1.4054-2.2172l9.0517-15.3088c.787-1.3339 2.2867-2.1591 3.9217-2.1591h26.7354c1.221 0 1.995 1.2206 1.406 2.2172l-9.052 15.3088c-.79 1.332-2.291 2.1591-3.9225 2.1591z" fill="#eaeeff"/><path d="m98.5427 70.6533h-25.6373c-1.1957 0-1.9532-1.1958-1.3758-2.1724l8.8678-14.9982c.7718-1.3054 2.2439-2.1153 3.8427-2.1153h25.6369c1.196 0 1.954 1.1958 1.376 2.1724l-8.868 14.9973c-.771 1.3053-2.243 2.1162-3.8423 2.1162z" fill="#c0c1ff"/><path d="m98.8045 70.1614h-26.7349c-1.2206 0-1.9943-1.2206-1.4054-2.2172l9.0517-15.3088c.787-1.3339 2.2867-2.1591 3.9217-2.1591h26.7354c1.221 0 1.995 1.2206 1.406 2.2172l-9.052 15.3088c-.79 1.332-2.291 2.1591-3.9225 2.1591z" stroke="#6562cf" stroke-miterlimit="10" stroke-width=".476405"/><path d="m99.1651 70.1814h-48.8192c-.5146 0-.9318.4172-.9318.9318v.2059c0 .5146.4172.9318.9318.9318h48.8192c.5146 0 .9319-.4172.9319-.9318v-.2059c0-.5146-.4173-.9318-.9319-.9318z" fill="#d1d1ff" stroke="#6562cf" stroke-miterlimit="10" stroke-width=".571686"/></svg>