<svg fill="none" height="150" viewBox="0 0 150 150" width="150" xmlns="http://www.w3.org/2000/svg"><rect fill="#fff" height="150" rx="75" width="150"/><path d="m61.076 56.2898c1.2454-15.9344 7.6134-23.5264 3.5359-28.2874-3.9058-4.5604-14.9076-3.6183-21.9732.7577-19.0575 11.8034-26.0395 58.8469-1.5154 81.8309 23.3041 21.841 67.4697 14.846 77.2847-3.03 2.29-4.172 4.11-11.4837.758-15.912-8.321-10.9944-38.5767 8.919-52.0285-3.536-7.972-7.3814-6.745-23.0785-6.0615-31.8232z" fill="#3f3d56"/><path d="m75.6411 48.3736c-.4629.2129-.8244.598-1.0077 1.0734-.1832.4754-.1737 1.0036.0265 1.4721.0422.0946.0921.1855.1493.2719l-4.0904 5.4617 2.041 3.0506 4.7946-8.0876c.3397-.2649.5821-.6348.6895-1.052.1073-.4172.0736-.8582-.096-1.2542-.0987-.2244-.2406-.4271-.4177-.5967-.177-.1695-.3857-.3025-.6142-.3914-.2284-.0889-.4721-.1319-.7172-.1266s-.4867.0588-.7111.1575c-.0156.0069-.0312.0139-.0466.0213z" fill="#ffb6b6"/><path d="m75.639 57.7906c.2677.2374-.4748.5304-1.2603.0682-.2248-.1339-.3208-.1895-.346-.1541-.0632.0884.3056.74.2071 2.1872-.0606.8638-1.4952 2.4878-3.1243 4.0714-2.2023 2.1417-4.7633 4.2077-4.7633 4.2077l-.8992-.7198-9.4282-7.5593-1.5912-2.2024c.1457-.8697.3645-1.7255.6542-2.5584.3989-1.153.8731-2.2784 1.4194-3.3693.2929-.5935.5935-1.1592.8814-1.6795l5.0513 5.5665 4.233 4.6624s1.2326-1.9852 2.1872-2.5257c.1218-.0777.2603-.1253.4042-.1389.9648-.0455 1.0229-.5708-.096-1.7149s.2929-.0758 1.2881-.3839c.9951-.3081 0 0 .2096-.7703.2096-.7704 3.0005-2.3161 3.0005-2.3161l.1162.1036 2.1089 1.8614.6036.5329s-.6592 1.8084-.841 2.1898c-.1819.3813-.2804.4015-.0152.6415z" fill="#00bfa6"/><path d="m131.234 92.876.103-2.7859-10.697-1.7222-.152 4.1115z" fill="#ffb6b6"/><path d="m129.291 93.7141-.102-4.4605 1.907.0704 3.079-4.1236c.152-.2037.365-.3534.608-.4274.243-.0739.504-.0682.743.0163.24.0845.447.2435.589.4536.143.2101.216.4605.206.7145l-.195 5.2987-1.92.8437 1.873.4262-.074 1.9979z" fill="#2f2e41"/><path d="m71.0312 93.96 33.8798.8591s14.631.845 18.063-1.3881l3.62-.4569.196-5.3172s-2.213.0163-3.486-.5767c-1.272-.5929-.388-1.3185-1.601-.6051-1.214.7135-1.086.7993-2.024.4714s-43.9588-6.8852-43.9588-6.8852z" fill="#2f2e41"/><path d="m115.674 91.6523 1.97-1.9722-6.67-8.5378-2.908 2.9112z" fill="#ffb6b6"/><path d="m113.682 89.9374 2.959-3.339 1.35 1.3485 5.061-.9292c.25-.046.509-.0108.737.1004.229.1111.416.2925.534.5174.118.225.161.4819.123.7332s-.155.4838-.335.6636l-3.747 3.7515-1.981-.6872 1.083 1.5863-1.413 1.4145z" fill="#2f2e41"/><path d="m57.6641 75.4057.3368 7.8295c.3965 9.217 10.5469 14.7954 18.4179 9.983.145-.0886.2906-.1805.4366-.2756 0 0 2.9839-.8013 2.8933-2.0703-.0906-1.2691.6384-1.8867 1.2835-1.5406s9.0913-11.6409 9.0913-11.6409 17.5485 8.7537 21.4205 10.8143c0 0 3.639-5.6911 3.376-5.6314-.264.0596-21.7103-14.9506-21.7103-14.9506s-3.4938-3.5359-7.8277-1.2013c-.0903.343-.0131.3549-.0131.3549l-14.3165 11.6657-2.0229-3.8418z" fill="#2f2e41"/><path d="m71.1647 65.617c-.0272.3617-.0787.7212-.1541 1.076-.1031.5135-.2694 1.0123-.495 1.485 0 0 0 .5279-1.0103 2.2959-1.0102 1.7679.2526 1.0102 1.0103 2.3236.7577 1.3108 0 .7072-.8411 1.5507-.2421.2455-.4141.5514-.498.8858-.084.3345-.0768.6853.0207 1.016 0 0-10.8502.0076-12.8708-.7501-2.0205-.7577-2.4801-5.026-.6693-5.4478 1.8084-.4218-.548-.8411-1.6113-1.8134-1.0633-.9724 1.0633-2.5636 1.0633-2.5636s-.8764-1.5128-.8032-6.5919c.0103-.4672.0534-.9331.1288-1.3942.1457-.8697.3645-1.7256.6542-2.5585.3989-1.1529.8731-2.2784 1.4194-3.3692.2929-.5935.5935-1.1593.8814-1.6796.0455-.0808.0884-.1591.1339-.2374.5481-.9698 1.0481-1.7629 1.379-2.2705.2551-.394.4092-.6163.4092-.6163l1.8386-3.1975 6.1374 2.8767-.3486 4.7053 1.0583 3.5486.4874 1.6341.3764 1.2603.5809 1.9523s-.1592.0076.0303.2677c.8723 1.1599 1.4379 2.5211 1.6442 3.9577.0727.5483.0888 1.1027.048 1.6543z" fill="#00bfa6"/><path d="m88.8887 66.1243-.1152-.0372-14.6895-4.7303 5.413-17.7583c.1078-.3536.2944-.6782.5459-.9492.2514-.271.5611-.4813.9057-.6153.3446-.1339.7151-.1878 1.0835-.1577.3685.0301.7253.1434 1.0436.3314l9.3872 5.5461c.743.4385 1.3084 1.1242 1.5972 1.9373.2888.813.2827 1.7017-.0172 2.5107z" fill="#2f2e41"/><path d="m88.9483 67.2531-14.8077-4.7683 5.413-17.7584c.1078-.3536.2945-.6781.5459-.9491.2515-.271.5612-.4814.9057-.6153.3446-.1339.7151-.1879 1.0836-.1578.3684.0301.7253.1434 1.0436.3315l9.8353 4.9105c1.4776.8727 1.443 3.1316.757 4.985z" fill="#00bfa6"/><path d="m87.4662 68.5389c-.341.1924-.7183.3117-1.1079.3505-.3896.0387-.783-.004-1.1552-.1254l-9.4647-3.048c-.7261-.2372-1.3308-.749-1.6847-1.426-.3539-.6771-.4291-1.4656-.2094-2.1973l4.7452-15.5674c.0948-.311.2507-.5999.4587-.8499.2079-.2499.4637-.4558.7523-.6056s.6042-.2405.9282-.2667c.3241-.0262.6502.0126.9591.114l9.8083 3.2205c.4674.1534.8992.399 1.2701.7221.3708.3231.6732.7173.8892 1.1592.2159.4419.3411.9227.3682 1.4138.0271.4912-.0445.9827-.2107 1.4457l-5.0735 14.1446c-.2278.6423-.68 1.1806-1.2732 1.5159z" fill="#3f3d56"/><path d="m66.9392 43.8152c3.744 0 6.7791-3.0351 6.7791-6.779 0-3.744-3.0351-6.7791-6.7791-6.7791-3.7439 0-6.779 3.0351-6.779 6.7791 0 3.7439 3.0351 6.779 6.779 6.779z" fill="#ffb6b6"/><path d="m44.0146 43.9165c.622 1.2059 1.6421 2.1595 2.8871 2.699.4968.2263 1.0192.3917 1.5558.4924.1517-.6015.3945-1.1763.72-1.7043-.1084.5952-.1084 1.2051 0 1.8003.8175.0669 1.64-.0352 2.4164-.3.7624-.2593 1.4539-.6927 2.0196-1.2658.5658-.5732.9902-1.2703 1.2395-2.036.5401-1.797-.0416-3.7162-.0874-5.5918-.0472-1.8759.8435-4.1195 2.7057-4.3516 1.4181-.177 1.2428-.0395 2.2618.9623-1.4254 1.5834 2.0495 8.5963 3.914 8.2864 1.0542-.1752 1.83-1.0121 2.0385-.9831 1.0676 2.6146-2.144 6.3229.4033 7.5402l-.189-.2501c-1.3333-2.2026 2.6118-5.9228 1.2785-8.1254-.3717-.6162-.7582-1.3385-.5282-2.0202.2183-.648 1.3237-.8531 1.5569-.2633-.3791-1.352.6792-2.9388 2.0849-3.0768 1.2488-.1232 1.1767.2328 2.3674.5575.1521-.5129.3714-1.0035.652-1.459-.095.5197-.1067 1.0512-.0347 1.5745.4295.0512.8638-.0407 1.2357-.2616 1.0995-.6591 1.1322-2.3606.3769-3.3961-.7567-1.0357-2.0242-1.5471-3.247-1.934-.0112-2.586-6.9695-3.824-8.2493-1.4197-.1316-1.9467-2.3631-3.2581-4.2855-2.9274-1.9223.3307-3.4388 1.8721-4.3634 3.5901-.9244 1.7167-1.3834 3.639-2.0601 5.4675-.6768 1.8286-1.6441 3.6519-3.2647 4.7368-1.6203 1.0836-4.0283 1.182-5.3811-.2224-.3086.5997-.4715 1.2636-.4756 1.938s.1507 1.3402.452 1.9436z" fill="#2f2e41"/><path d="m50.9731 74.9176c.1402-.1122.2924-.2085.4537-.2874 2.5948-1.2914 10.6639-4.6435 16.9733-4.506 12.1398.2647 27.5893 13.6625 23.9937 22.6596-2.7359 6.846-16.3379 10.7412-26.2668 7.6262-13.9097-4.3646-19.4-22.1069-15.1539-25.4924z" fill="#3f3d56"/><path d="m28.3288 124.238c-3.9668-.749-7.4782-18.62.3264-27.4211 2.674-3.0156 6.0094-4.3281 10.4461-5.5495 25.5363-7.0303 45.0132-.3301 47.6306 1.3058 2.6116 1.6322 7.1898 26.2248 1.3354 29.7058-3.294 1.959-9.8228 2.938-13.0576.653-4.7598-3.362 3.2296-12.084-.3265-17.954-4.0353-6.6619-25.2845-8.9058-35.9379-2.285-11.3661 7.063 12.0782 25.789-10.4165 21.545z" fill="#f2f2f2"/><path d="m53.3883 93.0406c.0924.2692.2678.5022.5009.6655.2332.1633.5121.2485.7966.2434l5.5595-.143c.2867-.0056.5639-.1038.7901-.28.2262-.1761.3894-.4208.4651-.6973l.7867-8.4126c.2791.1264.583.1889.8894.1827.5375-.0135 1.0477-.24 1.4182-.6296.3706-.3897.5712-.9106.5577-1.4481-.0135-.5376-.24-1.0478-.6296-1.4183-.3897-.3706-.9106-.5712-1.4481-.5577-.1225-.0004-.2446.0123-.3644.0379-.1302-.1409-.2885-.253-.4647-.329-.1761-.076-.3663-.1143-.5581-.1123l-8.5518.2208c-.0709.0026-.1415.0114-.2109.0262-.1876.0349-.3655.1097-.5217.2191-.1562.1095-.2872.2512-.3841.4155s-.1575.3475-.1776.5372c-.0202.1897.0005.3815.0607.5626zm9.0602-9.1952.5598-2.0047c.0637-.2316.0652-.4759.0043-.7082.0272-.0001.0511-.013.0783-.013.3838-.0079.7551.1368 1.0324.4022s.4381.63.4471 1.0137c.009.3838-.1346.7555-.3992 1.0336s-.6286.44-1.0124.4501c-.2481.0077-.4937-.0523-.7103-.1737z" fill="#ccc"/><path d="m42.9258 80.3897c.1822 1.0417 2.2306 1.7741 4.6936 1.6468 2.2649-.1044 4.1169-.8997 4.4562-1.8422-.1256-.0372-.2562-.0546-.3871-.0516l-8.5518.2208c-.0709.0026-.1415.0114-.2109.0262z" fill="#fff"/><path d="m83.8053 58.0909c-.5091.0186-.991.2351-1.3429.6035-.352.3685-.5463.8597-.5416 1.3691.0026.1036.0137.2067.0333.3084l-5.876 3.4691.7113 3.601 7.5356-5.6225c.4154-.1139.7815-.3622 1.041-.706.2595-.3439.3979-.7639.3935-1.1947-.0048-.2451-.0578-.4868-.1561-.7114-.0982-.2246-.2397-.4276-.4164-.5975s-.3852-.3033-.6134-.3927c-.2283-.0893-.472-.1328-.717-.128-.0171.0004-.0342.0009-.0513.0017z" fill="#ffb6b6"/><path d="m78.9937 66.3612c-.1572-.2105-.2247-.2987-.2605-.2745-.092.0555-.0035.7995-.6506 2.0962-.9111 1.8216-10.4634 4.6116-10.4634 4.6116l-1.1761-2.1531-5.1732-9.4621-1.7831-7.5843c-.0623-.2644-.0926-.5354-.0902-.8071 1.5898-1.1187 3.2781-2.0905 5.044-2.9034.7057.4003 1.2437 1.0412 1.5155 1.8056l3.561 9.9846 1.421 3.9864s2.5066-1.7924 3.4158-1.4634c.9078.3311 1.1658-.1331.5724-1.6191-.5934-1.4859.2973.0437 1.3337.1409 1.0385.0987 0 0 .4906-.6306.4905-.6305 3.662-.9853 3.662-.9853l.0674.1407 1.229 2.5282.3519.7263s-1.303 1.4137-1.6174 1.6955c-.3158.2838-.4134.2641-.2587.5875.1526.3218-.6452.3072-1.1911-.4206z" fill="#00bfa6"/></svg>