<svg fill="none" height="19" viewBox="0 0 21 19" width="21" xmlns="http://www.w3.org/2000/svg"><path d="m9.18611 14.5667-5.85833-5.85837 1.10833-1.10833 4.75 4.75 10.08059-10.08056 1.1083 1.10834zm-7.41528 4.4333c-.43981 0-.813654-.1539-1.121524-.4618-.307871-.3079-.461806-.6817-.461806-1.1215v-15.83337c0-.43981.153935-.813654.461806-1.121524.30787-.307871.681714-.461806 1.121524-.461806h15.83337c.2463 0 .4706.0527779.6729.158333.2023.105556.365.228704.4882.369445l-1.1611 1.161112s0-.01759 0-.05278c0-.03518 0-.05278 0-.05278h-15.83337v15.83337h15.83337v-9.05142l1.5833-1.58334v10.63476c0 .4398-.1539.8136-.4618 1.1215s-.6817.4618-1.1215.4618z" fill="#fff"/></svg>