<svg fill="none" height="150" viewBox="0 0 150 150" width="150" xmlns="http://www.w3.org/2000/svg"><rect fill="#fff" height="150" rx="75" width="150"/><path d="m124.7 74.8502c.006 7.7785-1.811 15.4501-5.305 22.3996-3.494 6.9492-8.568 12.9832-14.815 17.6182-.418.312-.844.617-1.272.913-8.3538 5.807-18.2841 8.919-28.4578 8.919s-20.104-3.112-28.4577-8.919c-.4285-.296-.8542-.601-1.2719-.913-6.2427-4.639-11.3136-10.674-14.8073-17.6222-3.4937-6.9486-5.3133-14.6182-5.3133-22.3956s1.8196-15.447 5.3133-22.3956c3.4937-6.9485 8.5646-12.9834 14.8073-17.622.4177-.3126.8434-.617 1.2719-.9135 8.3537-5.8068 18.284-8.9191 28.4577-8.9191s20.104 3.1123 28.4578 8.9191c.428.2965.854.6009 1.272.9135 6.247 4.6346 11.321 10.6686 14.815 17.618 3.494 6.9495 5.311 14.6211 5.305 22.3996z" fill="#efefef"/><path d="m74.8494 120.389c25.1504 0 45.5386-20.388 45.5386-45.5389 0-25.1504-20.3882-45.5388-45.5386-45.5388s-45.5389 20.3884-45.5389 45.5388c0 25.1509 20.3885 45.5389 45.5389 45.5389z" fill="#00bfa6"/><path d="m74.9681 29.439c-.6903 0-1.3764.018-2.0592.0484 11.5096 1.0114 22.2045 6.3601 29.9181 14.9624 7.713 8.6024 11.868 19.8151 11.623 31.3666-.245 11.5514-4.872 22.5777-12.944 30.8446-8.0711 8.268-18.9833 13.158-30.5255 13.68 1.3143.114 2.6437.176 3.9876.176 12.0777 0 23.6607-4.798 32.2009-13.338 8.54-8.5405 13.338-20.1235 13.338-32.2012 0-12.0776-4.798-23.6606-13.338-32.2008-8.5402-8.5402-20.1232-13.338-32.2009-13.338z" fill="#000" opacity=".2"/><g fill="#fff"><path d="m74.9859 26.0779c-.3928.0007-.7694.157-1.0472.4348-.2777.2778-.4341.6544-.4348 1.0472v6.4671c0 .393.1561.77.4341 1.0479.2779.278.6549.4341 1.0479.4341.3931 0 .7701-.1561 1.048-.4341.2779-.2779.4341-.6549.4341-1.0479v-6.4671c-.0007-.3928-.1571-.7694-.4349-1.0472s-.6543-.4341-1.0472-.4348z"/><path d="m104.579 34.8324c-.417-.3126-.843-.6171-1.271-.9135-.257-.0167-.514.0338-.746.1468-.232.1129-.43.2843-.575.4972l-3.6402 5.3434c-.2211.3248-.3042.7242-.231 1.1103.0733.3861.297.7272.6218.9484s.7241.3043 1.1102.231c.3862-.0733.7272-.2969.9482-.6217l3.641-5.3434c.138-.2027.224-.4369.249-.6811.025-.2443-.012-.4909-.107-.7174z"/><path d="m121.12 59.1969c-.073-.1801-.181-.3441-.317-.4825-.137-.1384-.299-.2486-.479-.3241-.179-.0756-.371-.1151-.566-.1163-.194-.0013-.387.0358-.567.1092l-5.993 2.4332c-.364.1482-.654.4347-.806.7966-.153.362-.155.7697-.008 1.1336.148.3639.434.6542.796.8071.362.153.77.156 1.134.0085l5.993-2.4332c.363-.149.653-.4359.805-.798.153-.3621.156-.7699.008-1.1341z"/><path d="m51.3524 39.9063-3.6404-5.3434c-.1451-.2129-.3432-.3843-.5748-.4972-.2315-.113-.4885-.1635-.7456-.1468-.4284.2964-.8542.6009-1.2719.9135-.0946.2265-.1312.4731-.1062.7174.0249.2442.1105.4784.2491.6811l3.6404 5.3434c.2212.3248.5623.5484.9484.6217s.7854-.0098 1.1103-.231c.3248-.2212.5484-.5623.6217-.9484.0732-.3861-.0099-.7855-.231-1.1103z"/><path d="m36.5029 60.817-5.9928-2.4332c-.3641-.1479-.772-.145-1.134.0078-.362.1529-.6485.4433-.7964.8074s-.1452.772.0076 1.134c.1528.3621.4432.6486.8072.7966l5.9928 2.4332c.3641.1475.7718.1445 1.1336-.0085.3618-.1529.648-.4432.7959-.8071.1478-.3639.1452-.7716-.0075-1.1336-.1526-.3619-.4426-.6484-.8064-.7966z"/><path d="m74.9859 114.192c-.3928 0-.7694.157-1.0472.434-.2777.278-.4341.655-.4348 1.048v6.467c0 .393.1561.77.4341 1.048.2779.278.6549.434 1.0479.434.3931 0 .7701-.156 1.048-.434s.4341-.655.4341-1.048v-6.467c-.0007-.393-.1571-.77-.4349-1.048-.2778-.277-.6543-.434-1.0472-.434z"/><path d="m104.437 113.469-3.641-5.344c-.109-.16-.249-.298-.412-.405-.163-.106-.345-.18-.5362-.216-.1911-.037-.3876-.035-.5781.005-.1905.039-.3713.116-.5321.226-.1609.109-.2986.249-.4052.412-.1067.163-.1803.345-.2166.536s-.0345.388.0051.578c.0396.191.1164.372.2259.532l3.6402 5.344c.145.213.343.384.575.497s.489.164.746.147c.428-.297.854-.601 1.271-.914.095-.226.132-.473.107-.717s-.111-.478-.249-.681z"/><path d="m120.304 88.5707-5.993-2.4333c-.364-.1478-.772-.145-1.134.0079s-.649.4433-.797.8074c-.147.364-.145.7719.008 1.134.153.362.443.6486.807.7965l5.993 2.4333c.364.1475.772.1444 1.134-.0085.361-.153.648-.4433.796-.8072.147-.3639.145-.7716-.008-1.1335-.152-.3619-.443-.6485-.806-.7966z"/><path d="m50.9616 107.735c-.3248-.221-.7241-.304-1.1102-.23-.386.073-.7272.296-.9484.621l-3.6404 5.343c-.1386.203-.2242.437-.2491.682-.025.244.0116.49.1062.717.4177.313.8435.617 1.2719.913.2571.017.5141-.033.7456-.146.2316-.113.4297-.285.5748-.498l3.6404-5.343c.1095-.161.1863-.342.2259-.532.0397-.191.0414-.387.0051-.578s-.1099-.374-.2165-.536c-.1067-.163-.2444-.303-.4053-.413z"/><path d="m37.3157 86.9516c-.0732-.1802-.1812-.3442-.3178-.4826s-.2991-.2485-.4783-.3241c-.1791-.0756-.3714-.1151-.5659-.1163-.1944-.0012-.3872.0359-.5673.1092l-5.9929 2.4332c-.3637.1482-.6538.4347-.8064.7967-.1526.3619-.1553.7696-.0074 1.1335.1478.3639.4341.6542.7959.8072.3618.1529.7695.1559 1.1335.0084l5.9928-2.4332c.3636-.1489.6534-.4358.8059-.798.1525-.3621.1554-.7698.0079-1.134z"/></g><path d="m76.9077 74.1153c.1368.8101-.0533 1.6413-.5286 2.3115-.4753.6701-1.197 1.1243-2.0067 1.263l-26.2989 4.4734c-.4012.0682-.8119.0568-1.2086-.0337-.3968-.0905-.7718-.2582-1.1037-.4936-.332-.2354-.6143-.5339-.8308-.8785-.2166-.3445-.3632-.7283-.4314-1.1295-.0683-.4012-.0568-.8118.0336-1.2086.0905-.3968.2583-.7718.4937-1.1037.2354-.332.5339-.6143.8784-.8308.3446-.2166.7284-.3632 1.1295-.4314l26.2989-4.4734c.8101-.1369 1.6414.0532 2.3115.5285s1.1244 1.197 1.2631 2.0068z" fill="#3f3d56"/><path d="m104.585 103.252c-.378.38-.891.595-1.427.597s-1.05-.208-1.431-.585l-28.3104-28.0888c-.38-.3776-.5944-.8906-.5963-1.4263-.0018-.5356.209-1.0501.5863-1.4304s.8901-.5952 1.4258-.5975c.5356-.0024 1.0503.208 1.4309.5849l28.3107 28.0881c.38.378.594.891.596 1.427s-.208 1.051-.585 1.431z" fill="#3f3d56"/><path d="m74.8526 78.3529c1.9346 0 3.503-1.5683 3.503-3.503 0-1.9346-1.5684-3.503-3.503-3.503s-3.503 1.5684-3.503 3.503c0 1.9347 1.5684 3.503 3.503 3.503z" fill="#ccc"/></svg>