<svg fill="none" height="150" viewBox="0 0 150 150" width="150" xmlns="http://www.w3.org/2000/svg"><rect fill="#fff" height="150" rx="75" width="150"/><path d="m102.708 115.963.928 17.815s-39.2484-37.3551-44.138-48.2848 4.3144-37.9663 4.3144-37.9663l20.4213 11.2173z" fill="#e7bda6"/><g fill="#ffd0b6"><path d="m42.5284 40.0491-6.0401.5752s-3.1639 6.903 6.6154 7.4782z"/><path d="m42.5284 50.6902-6.0401.5752s-3.1639 6.903 6.6154 7.4783z"/><path d="m42.5284 62.1953-6.0401.5753s-3.1639 6.9029 6.6154 7.4782z"/><path d="m44.255 73.7002-6.0401.5752s-3.1639 6.903 6.6153 7.4783z"/></g><path d="m39.5859 42.8218h.4583v-12.5552c0-.9543.188-1.8992.5532-2.7808s.9004-1.6827 1.5752-2.3575c.6747-.6747 1.4758-1.21 2.3574-1.5752.8817-.3651 1.8266-.5531 2.7808-.5531h26.5999c.9543 0 1.8992.188 2.7808.5531.8817.3652 1.6827.9005 2.3575 1.5752.6748.6748 1.21 1.4759 1.5752 2.3575s.5531 1.8265.5531 2.7808v68.8788c0 .9546-.1879 1.8996-.5531 2.7806-.3652.882-.9004 1.683-1.5752 2.358-.6748.674-1.4758 1.21-2.3574 1.575-.8817.365-1.8266.553-2.7809.553h-26.5998c-1.9272 0-3.7755-.766-5.1383-2.128-1.3627-1.363-2.1283-3.211-2.1283-5.1386v-47.3866h-.4584z" fill="#3f3d56"/><path d="m47.0204 24.8909h3.4721c-.1596.3914-.2206.8162-.1774 1.2368.0431.4205.189.8241.4248 1.175.2359.3509.5544.6384.9275.8372s.7894.3028 1.2122.3029h15.2387c.4228-.0001.8391-.1041 1.2122-.3029s.6916-.4863.9275-.8372c.2358-.3509.3817-.7545.4248-1.175.0432-.4206-.0178-.8454-.1775-1.2368h3.2431c1.4392 0 2.8195.5717 3.8371 1.5894 1.0177 1.0177 1.5895 2.398 1.5895 3.8372v68.7777c0 .7126-.1404 1.4178-.4131 2.0768-.2727.658-.6724 1.256-1.1763 1.76s-1.1022.904-1.7606 1.177c-.6584.272-1.364.413-2.0766.413h-26.728c-.7127 0-1.4183-.141-2.0767-.413-.6584-.273-1.2566-.673-1.7605-1.177s-.9037-1.102-1.1764-1.76c-.2727-.659-.413-1.3642-.413-2.0768v-68.7777c0-.7126.1403-1.4183.413-2.0767s.6725-1.2566 1.1764-1.7605 1.1021-.9036 1.7605-1.1764c.6584-.2727 1.364-.413 2.0767-.413z" fill="#fff"/><path d="m66.111 44.1584h-11.4528v2.7637h11.4528z" fill="#00bfa6"/><path d="m66.6547 56.0337h-12.5434v2.7637h12.5434z" fill="#e5e5e5"/><path d="m74.3822 61.9709h-27.9955v2.7637h27.9955z" fill="#e5e5e5"/><path d="m74.3822 67.9072h-27.9955v2.7637h27.9955z" fill="#e5e5e5"/><path d="m129.801 125.242-32.1932-36.7284-1.1505-23.5852-12.0802-20.1337-3.4514-8.6287s-8.0535.8629-1.4382 17.2575l2.7325 8.7725c-2.4631 5.3051-3.7392 11.0836-3.7392 16.9326v20.1022c0 4.7332 22.5572 30.5162 25.1822 34.4552z" fill="#ffd0b6"/><g fill="#000"><path d="m81.8734 46.5004 2.4015-1.1802-.0818-.1667-2.219 1.0906-3.3496-8.7819-.1733.0662z" opacity=".2"/><path d="m36.5212 40.5363-.0642.1741 3.5577 1.3106.0641-.1742z" opacity=".2"/><path d="m36.5212 51.2997-.0642.1742 3.5577 1.3105.0641-.1742z" opacity=".2"/><path d="m36.5212 62.8056-.0642.1741 3.5577 1.3105.0641-.1741z" opacity=".2"/><path d="m38.3869 74.3147-.0803.1672 1.7321.8313.0803-.1672z" opacity=".2"/></g><path d="m60.3974 94.5221c4.4307 0 8.0224-3.5917 8.0224-8.0224s-3.5917-8.0224-8.0224-8.0224c-4.4306 0-8.0224 3.5917-8.0224 8.0224s3.5918 8.0224 8.0224 8.0224z" fill="#00bfa6"/><path d="m59.6314 89.8852-2.4009-3.0874 1.3962-1.086 1.1369 1.4618 3.8408-4.0545 1.2844 1.2169z" fill="#fff"/></svg>