<svg fill="none" height="162" viewBox="0 0 177 162" width="177" xmlns="http://www.w3.org/2000/svg"><path d="m116.086 151.143-33.7971-33.797 9.0266-9.027 24.7705 24.771 51.221-51.221 9.026 9.0266zm-32.5376-93.8347 70.1136-44.7131h-140.2271zm0 12.5953-70.9532-45.5528v94.8842h53.7397l12.5953 12.595h-66.335c-3.35869 0-6.29758-1.259-8.81663-3.778s-3.77857-5.458-3.77857-8.817v-106.6398c0-3.35869 1.25952-6.29758 3.77857-8.81663s5.45794-3.77857 8.81663-3.77857h142.1158c3.359 0 6.298 1.25952 8.817 3.77857s3.779 5.45794 3.779 8.81663v51.2207l-12.596 12.5952v-52.0603z" fill="#000" opacity=".05"/></svg>