<svg fill="none" height="417" viewBox="0 0 402 417" width="402" xmlns="http://www.w3.org/2000/svg" xmlns:xlink="http://www.w3.org/1999/xlink"><mask id="a" height="417" maskUnits="userSpaceOnUse" width="402" x="0" y="0"><ellipse cx="201.498" cy="208.5" fill="#d9d9d9" rx="200.5" ry="208.5"/></mask><circle cx="201.498" cy="216.5" fill="#d9d9d9" r="200.5"/><g mask="url(#a)"><path d="m221.91 399.871s104.725 12.348 146.509 55.922c22.577 23.548-66.271 165.496-70.44 213.173 0 0-32.236-4.242-53.128-20.362 0 0 3.866-131.952 51.36-156.406 0 0-90.388 7.179-129.069-12.537-38.68-19.715 0-73.61 0-73.61s33.644 6.561 54.768-6.18z" fill="#3c4564"/><path d="m105.164 407.884s-19.0092 53.801-12.1501 68.823c12.7681 28.055 114.2521 36.416 189.4701 22.681 0 0-26.271 92.51 4.771 168.324 0 0 20.898 3.606 50.145-.552 0 0-.596-91.339 12.537-188.642 2.612-19.555-109.895-65.465-159.427-70.65-49.532-5.186-85.346.016-85.346.016z" fill="#3f4d79"/><path d="m235.199 185.494c-12.757 6.329-20.478 8.384-16.441 48.759 4.037 40.376 33.39 87.55 33.39 87.55l38.172-37.631s-25.724-74.831-31.114-83.115c-10.499-16.076-19.042-18.026-24.007-15.563z" fill="#6562cf"/><path d="m300.747 296.311s-7.821-17.672-11.675-17.855c-3.855-.182-31.148 20.092-34.981 38.029-1.231 5.788-6.958 15.463 26.018 19.677 10.222 1.304 20.638-39.851 20.638-39.851z" fill="#8382d8"/><path d="m422.795 327.42s-2.441 1.59-9.648-.122c-2.319-.552-5.594-4.628-9.046-6.842-2.794-1.795-8.284-1.486-14.187-.784-3.347.386-6.506-4.037-8.621-6.523-20.986 6.075-79.454 23.085-102.687 21.158-5.899-.486 10.984-37.648 21.206-40.072 7.732-1.828 53.233-.199 82.077 3.484 10.268 1.481 20.402 3.771 30.309 6.848 3.788 2.386 10.597 22.853 10.597 22.853z" fill="#ffc0b7"/><path d="m221.914 399.871s-10.123 8.389-31.396 7.98v-.033c-2.397-40.613-7.389-116.908-12.597-145.245-10.432-56.711-38.874-105.614-39.316-106.371l54.52 2.883s28.253 19.975 34.422 103.538-5.633 137.248-5.633 137.248z" fill="#fff"/><path d="m193.119 159.085c5.169 2.044 38.951 19.153 49.704 25.52 10.752 6.368 17.252 56.187 11.597 96.314-9.548 67.652-8.753 94.111.707 124.751 0 0-21.566-4.512-33.202-5.446 0 0-5.926-46.389 2.209-93.437 16.48-95.43-31.015-147.702-31.015-147.702z" fill="#6562cf"/><path d="m138.594 156.213s-53.9006 17.827-71.6392 37.554c-7.1794 7.958 33.8312 106.261 30.2473 134.912-3.5842 28.651-20.2956 91.913-20.2956 91.913s25.5805 33.428 115.0805 13.519c0 0-6.832-132.128-14.077-171.527-10.51-57.148-39.316-106.371-39.316-106.371z" fill="#6562cf"/><path d="m252.569 247.486c-2.468 17.468-4.81 58.539-3.391 71.948" stroke="#8382d8" stroke-linecap="round" stroke-miterlimit="10" stroke-width="3.31357"/><path d="m78.8098 183.86c-11.857 9.885-22.2008 9.09-17.8214 52.868 4.3794 43.777 36.2117 94.928 36.2117 94.928l41.3919-40.807s-21.356-79.299-25.47-89.146c-6.053-14.519-22.4551-27.707-34.3122-17.843z" fill="#6562cf"/><path d="m139.168 290.849s-13.16-63.687-22.035-77.09" stroke="#8382d8" stroke-linecap="round" stroke-miterlimit="10" stroke-width="3.31357"/><path d="m154.647 299.227s-13.254-14.403-17.446-14.574c-4.191-.171-32.583 20.163-38.6579 40.978-1.7948 6.163-11.7079 16.606 27.4859 26.663 21.798 5.605 28.618-53.067 28.618-53.067z" fill="#8382d8"/><path d="m323.435 325.868s-2.032 2.839-4.998.889c-1.85-1.215-5.202-4.418-7.732-6.003 2.264 3.574 4.345 7.261 6.235 11.045-3.273 1.449-6.794 2.255-10.371 2.375-2.96.127-7.505-4.97-12.061-7.268-3.684-1.85-10.411-.751-17.623.884-7.213 1.635-14.983-9.041-14.983-9.041v-.06c-13.685 4.611-101.583 29.27-134.299 27.546-7.339-.386 12.222-44.059 24.819-47.45 10.636-2.866 80.266-2.132 113.887 2.64 12.973 1.463 32.716 6.771 36.416 7.61 3.375.459 11.145 5.992 13.304 7.782 2.253 1.872 7.406 9.051 7.406 9.051z" fill="#ffcfc9"/><path d="m313.19 331.904s-9.146-13.127-11.664-14.027c-4.418-1.591-10.212-3.695-10.212-3.695" stroke="#f7b3af" stroke-linecap="round" stroke-miterlimit="10" stroke-width="2.20904"/><path d="m308.812 333.141s-8.284-10.946-10.769-11.846c-4.418-1.59-10.217-3.694-10.217-3.694" stroke="#f7b3af" stroke-linecap="round" stroke-miterlimit="10" stroke-width="2.20904"/><path d="m194.047 151.955-12.487 35.113s-33.953 3.739-42.828-30.982l11.962-34.24z" fill="#ffcfc9"/><path d="m194.053 151.955-5.644 15.861c-7.511 3.419-17.12 3.314-26.509-9.162-8.51-11.332-10.344-27.961-11.951-34.129l.724-2.657z" fill="#ffc0b7"/><path d="m150.694 121.868s10.416 23.919 23.145 27.779c12.15 3.678 27.011 2.701 28.552 0s14.149-34.583 10.802-55.6458c-2.314-14.5742-8.488-16.5678-20.063-15.4357-11.576 1.1321-15.646 2.4079-29.795-1.9274-3.97-1.215 2.85 21.0633-9.106 29.5519 0 0-8.969-3.016-10.902.071-1.933 3.088 7.367 15.607 7.367 15.607z" fill="#ffcfc9"/><path d="m149.067 126.281s-30.567-18.678-29.087-43.9601c.646-10.8243 23.57-39.9284 37.614-41.1324 14.044-1.2039 35.715 6.0197 42.524 12.0393 6.81 6.0197 16.132 12.4922 13.702 35.5435-.137 1.2597-.438 2.4961-.895 3.6781-2.507-13.1659-8.643-14.9994-19.793-13.8839-11.597 1.1598-15.651 2.4024-29.822-1.9273-3.971-1.2205 2.855 21.0632-9.107 29.5518 0 0-8.968-3.016-10.896.066-1.927 3.082 7.362 15.607 7.362 15.607z" fill="#3f4d79"/><path d="m146.716 45.949s2.855-22.4052-11.995-21.6155-23.88 14.8503-25.277 24.0344c-1.789 11.8018 19.633 15.2811 19.633 15.2811z" fill="#3f4d79"/><g stroke-miterlimit="10"><g stroke="#3f4d79" stroke-width="2.20904"><path d="m114.514 63.4668c5.031 5.9423 14.563.1822 14.563.1822"/><path d="m150.814 45.082s3.275-24.8849-13.763-24.062c-17.037.8228-28.126 21.2013-25.823 27.5136 2.303 6.3124 19.329 15.1154 19.329 15.1154z"/><path d="m204.653 78.4551c-3.021-1.204-6.936 1.6568-11.526 2.7613-14.911 3.5897-25.15 1.6568-30.678-5.4619"/></g><path d="m179.83 121.266c6.421 0 11.625-5.204 11.625-11.625 0-6.42-5.204-11.6248-11.625-11.6248-6.42 0-11.625 5.2048-11.625 11.6248 0 6.421 5.205 11.625 11.625 11.625z" stroke="#ffb000" stroke-width="2.7613"/><path d="m209.825 121.266c6.011 0 10.885-5.204 10.885-11.625 0-6.42-4.874-11.6248-10.885-11.6248-6.012 0-10.886 5.2048-10.886 11.6248 0 6.421 4.874 11.625 10.886 11.625z" stroke="#ffb000" stroke-width="2.7613"/><path d="m191.371 108.84h7.108" stroke="#ffb000" stroke-width="2.7613"/></g><g stroke="#6562cf" stroke-width="3.31357"><path d="m529.093 340.409h-24.851l-3.866-5.456c-3.783-5.363-10.786-8.665-18.368-8.665h-36.488c-7.583 0-14.586 3.313-18.368 8.665l-3.866 5.456h-23.886l9.549-12.006c4.269-5.368 12.15-8.671 20.699-8.671h69.193c8.543 0 16.44 3.314 20.704 8.671z" fill="#d1d0ff" stroke-linejoin="round"/><path d="m529.552 340.409h-10.078l-3.866-5.456c-3.789-5.363-10.791-8.665-18.368-8.665h-51.245c-7.577 0-14.579 3.313-18.368 8.665l-3.866 5.456h-23.902l9.549-12.006c4.269-5.368 12.15-8.671 20.704-8.671h69.193c8.543 0 16.435 3.314 20.699 8.671z" fill="#fff" stroke-miterlimit="10"/><path d="m543.502 285.912h-233.96c-6.213 0-10.692-6.174-8.969-12.365l34.898-125.165c.861-3.278 2.776-6.181 5.449-8.265 2.673-2.083 5.957-3.231 9.346-3.266h233.959c6.213 0 10.698 6.174 8.969 12.36l-34.897 125.17c-.866 3.275-2.782 6.176-5.454 8.259s-5.953 3.232-9.341 3.272z" fill="#fff" stroke-miterlimit="10"/></g><path d="m407.296 247.822-5.903 36.207h20.433l-9.04-36.267c-.199-.812-5.357-.762-5.49.06z" fill="#e2e2ff"/><path d="m346.124 330.523-77.079 4.424v5.462h77.079z" fill="#fff" stroke="#6562cf" stroke-linejoin="round" stroke-width="3.31357"/><path d="m394.326 330.523h-48.201v9.676h48.201z" fill="#d1d0ff" stroke="#6562cf" stroke-linejoin="round" stroke-width="3.31357"/><path d="m185.984 356.618h353.873v-16.209h-354.673z" fill="#fff" stroke="#6562cf" stroke-linejoin="round" stroke-width="3.31357"/></g></svg>