<svg fill="none" height="64" viewBox="0 0 457 64" width="457" xmlns="http://www.w3.org/2000/svg"><g fill="#fff"><path d="m230.616 36.4972c-.528 0-1.779 0-3.059 0s-2.521 0-3.068 0c-.635 0-.977-.342-.977-.8013.022-.3302.16-.6418.391-.8795 1.319-1.5341 3.439-3.4396 5.052-5.3647.668-.7184 1.062-1.6489 1.114-2.6286.004-.3081-.057-.6137-.179-.8966-.122-.283-.302-.537-.529-.7455s-.495-.3667-.788-.4643c-.292-.0976-.602-.1324-.908-.1021-.575-.0344-1.146.1196-1.626.4388-.479.3192-.842.7861-1.032 1.3299-.029.1242-.098.235-.198.3148-.099.0798-.222.1238-.349.125-.075.0026-.149-.0099-.218-.0368s-.133-.0677-.186-.1198-.095-.1145-.123-.1834c-.028-.0688-.042-.1427-.04-.217.228-.8111.731-1.5176 1.423-1.9989.691-.4812 1.528-.7073 2.368-.6395.441-.0403.885.0103 1.305.1486.421.1383.808.3613 1.139.6553s.597.6528.784 1.054c.186.4013.288.8365.3 1.2788-.06 1.185-.526 2.3133-1.319 3.1954-1.515 1.8958-3.459 3.43-5.082 5.2964-.004.0225-.004.0458 0 .0684 0 .0879.108.1466.235.1466 1.739 0 4.231-.088 5.628-.088.44 0 .655.2639.655.5472-.004.0792-.023.1569-.057.2284-.034.0716-.082.1356-.141.1884s-.129.0932-.204.119c-.075.0257-.154.0363-.233.031z"/><path d="m240.222 36.156c.003.0692-.009.1382-.035.2026-.025.0643-.064.1224-.114.1705-.05.048-.11.0849-.175.1082s-.135.0324-.204.0268c-.071.0041-.142-.0067-.209-.0315s-.128-.0632-.18-.1128c-.051-.0495-.092-.1091-.119-.1751s-.04-.1369-.039-.2083c0-.6351 0-1.3485 0-2.5309h-4.163c-.909 0-1.368-.4202-1.368-1.0456.02-.4015.164-.7871.411-1.1042 1.055-1.5439 4.026-5.7263 5.316-7.5243.049-.0763.117-.1387.198-.1814.08-.0428.17-.0644.261-.0629.147-.0001.288.0569.394.159s.167.2413.173.3882c-.012.1479-.07.2883-.167.4007-.772.9771-4.25 5.7947-5.257 7.192-.115.1307-.183.2955-.195.4691 0 .342.195.3518 1.27.3518h3.147v-1.3779c0-.9771 0-1.71 0-2.2084-.006-.073.004-.1463.028-.2154s.062-.1326.111-.1866c.05-.054.109-.0973.176-.1273s.139-.0461.212-.0472c.075.0007.149.0173.216.0486.068.0313.128.0766.177.1329.049.0564.086.1224.107.1939.022.0714.028.1466.018.2206v3.5472h1.661c.107.0304.2.0945.267.1826.066.0882.102.1956.102.306 0 .1105-.036.2179-.102.306-.067.0882-.16.1523-.267.1826h-1.622v2.5407z"/><path d="m251.498 34.8662h-.84c-.374-.0227-.725-.1908-.976-.4683-.252-.2775-.386-.6425-.372-1.017 0-1.0945 0-2.5993 0-4.0651s0-2.9316 0-3.9088c0-1.4071 1.289-1.4267 2.247-1.4267h.811c.364-.0056.715.1297.981.3774s.426.5887.446.9516c0 .9772.058 2.3648.058 3.7426 0 1.5733 0 3.1563-.058 4.2899-.03 1.4364-1.056 1.5244-2.297 1.5244zm1.466-6.1172c0-1.2019 0-2.355 0-3.1661 0-.811-.528-.811-1.378-.811s-1.338 0-1.377.8306c-.04.8306 0 1.8859 0 3.1465zm-2.824.7915v3.6742c0 .8697.332.8307 1.358.8307.831 0 1.378-.0587 1.398-.8502 0-.9772 0-2.2964 0-3.6547zm4.739-.8697c-.053.0054-.107-.0003-.159-.0169-.051-.0166-.099-.0437-.139-.0795s-.073-.0795-.096-.1285c-.022-.049-.034-.1022-.035-.1562-.002-.056.008-.1116.03-.1634.021-.0518.053-.0986.093-.1372.041-.0387.089-.0685.142-.0874s.109-.0265.164-.0224h3.645v-2.2377h-2.736c-.053.0054-.108-.0004-.159-.017s-.099-.0436-.139-.0794c-.041-.0358-.073-.0796-.096-.1286-.022-.049-.035-.1022-.036-.1561 0-.0556.011-.1106.033-.1618.022-.0511.054-.0972.094-.1356.041-.0384.088-.0682.14-.0876.052-.0195.108-.0281.163-.0255h2.736v-1.9543c.017-.1116.072-.2135.158-.2872.085-.0738.194-.1144.307-.1144.112 0 .221.0406.306.1144.086.0737.141.1756.158.2872v1.9543h3.019c.057-.009.116-.0055.172.0103.055.0157.107.0433.151.0809.044.0377.079.0844.103.1369.025.0526.037.1098.037.1677s-.012.1151-.037.1677c-.024.0525-.059.0992-.103.1369-.044.0376-.096.0652-.151.0809-.056.0158-.115.0193-.172.0103h-3.029v2.2573h4.026c.094.0148.18.0628.242.1354s.096.1649.096.2603c0 .0955-.034.1878-.096.2603-.062.0726-.148.1206-.242.1355zm5.502 3.0391h-5.502c-.053.0041-.106-.003-.157-.0209-.05-.0179-.096-.0462-.135-.0831s-.069-.0815-.089-.1309c-.021-.0494-.03-.1026-.029-.156-.003-.0551.006-.1101.026-.1617.019-.0515.049-.0985.088-.1379.038-.0395.084-.0705.135-.0913.052-.0207.106-.0307.161-.0293h5.482v-1.1824c.002-.0578.015-.1147.039-.1673.024-.0525.059-.0995.102-.1381.043-.0385.093-.0677.148-.0858.055-.018.113-.0246.171-.0192.056-.004.113.0036.166.0224s.102.0484.143.0869c.041.0386.074.0852.097.137.022.0518.034.1077.033.1641v1.2215h2.277c.052-.0017.104.0077.151.0277.048.0199.091.0499.126.0879.036.038.062.0831.079.1323.016.0492.021.1013.016.1528.004.0516-.003.1035-.02.1525-.016.0491-.043.0941-.078.1325-.034.0385-.077.0694-.124.0909-.047.0216-.098.0333-.15.0345h-2.277v2.228l.059 1.7589v.1075c0 .8306-.371 1.8175-2.296 1.8175-1.72 0-1.749-.3713-1.749-.596-.003-.0594.006-.1187.027-.1743.021-.0557.053-.1065.094-.1494s.091-.0771.145-.1004c.055-.0233.114-.0353.173-.0352h.088c.448.0889.902.1412 1.359.1563.742 0 1.201-.2638 1.201-1.114zm-2.404 3.2345c-.568-.6399-1.259-1.1584-2.032-1.5244-.058-.0235-.107-.0625-.143-.1125-.037-.0501-.058-.1093-.063-.1709.01-.1149.063-.222.148-.2998s.196-.1208.312-.1204c.42 0 2.57 1.241 2.57 1.9544.008.1254-.034.249-.116.3441s-.199.154-.324.164c-.073-.0096-.142-.0357-.203-.0763-.061-.0407-.112-.0948-.149-.1582z"/><path d="m266.929 37.3285c.127-3.2834.107-8.9706.127-12.7816 0-1.5244 1.182-1.5244 2.746-1.5244h1.553c.352-.0301.702.0789.974.3036.272.2248.445.5473.482.8983v1.6808 1.1628c0 1.4267-1.123 1.4267-3.332 1.4267-.508 0-1.055 0-1.514 0v1.798c0 2.0424 0 4.5049-.079 7.0456-.001.0616-.015.1224-.04.1784-.026.0561-.063.1064-.108.1476-.046.0413-.1.0726-.158.0922-.059.0195-.121.0269-.182.0215-.059.0053-.118-.0011-.174-.019s-.108-.0468-.152-.0851c-.045-.0382-.081-.085-.108-.1377-.026-.0526-.041-.1099-.045-.1686zm5.062-11.9217c0-1.5537 0-1.6221-1.955-1.6221-1.954 0-2.023.0879-2.023 1.6221zm-4.017.7036v1.6319h1.906c2.062 0 2.101 0 2.101-1.6612zm7.114 9.5764c-.518 0-.977 0-1.466 0-.488 0-.83 0-1.27 0-.977-.0782-1.642-.6547-1.661-1.4364v-.7525c0-.8208 0-1.7491.049-2.4723.03-.3913.211-.7558.504-1.0165.294-.2606.677-.3972 1.069-.3808h1.446 1.359c.371-.0124.735.1153 1.017.3577.282.2425.463.5821.507.9517 0 .6645.068 1.4755.068 2.2377v1.0554c-.01.2024-.06.4009-.147.5839s-.209.3469-.36.4823-.327.2395-.518.3064c-.192.0669-.394.0953-.597.0834zm.743-4.4853c0-.8501-.87-.8697-1.954-.8697-.45 0-.919 0-1.349 0-.236-.0026-.464.08-.644.2326-.179.1526-.298.365-.333.598v1.0261h4.319zm-4.31 1.7101v.8306c0 .9772.264 1.202 2.189 1.202 1.114 0 2.121 0 2.15-.8991v-1.1335zm6.636-4.3973c-.763 0-1.486 0-1.886 0-1.134 0-1.535-.645-1.554-1.3876 0-.342 0-.7232 0-1.1336 0-.5863 0-1.1824 0-1.71 0-.5277.508-1.1629 1.407-1.202h1.622 1.222c1.29.0489 1.661.7622 1.661 1.4267v8.9217 2.2182c0 1.0749-.371 2.0521-2.345 2.0521-1.417 0-1.554-.1759-1.554-.5277-.004-.058.004-.1163.023-.1712.019-.055.049-.1055.089-.1484.039-.0429.087-.0775.14-.1015s.11-.037.168-.0381h.068c.388.0641.78.1 1.173.1075.85 0 1.251-.303 1.27-1.2802 0-.2247 0-.5374 0-5.9315v-1.1335c-.39.0391-.957.0391-1.504.0391zm1.553-3.1075c0-1.6221-.176-1.6221-2.052-1.6221-2.091 0-2.091 0-2.091 1.6221zm-4.143.7036c0 1.6417 0 1.6612 2.189 1.6612h1.954c0-.6058 0-1.1531 0-1.6319z"/><path d="m297.162 27.3606c0-.6938-.332-1.026-1.182-1.026-1.3 0-2.932 0-4.603 0s-3.234 0-4.465 0c-.978 0-1.183.3518-1.202.9772v1.4658c-.003.0613-.018.1216-.044.1768-.027.0552-.065.1042-.112.1438-.047.0395-.102.0689-.161.086-.059.0172-.121.0218-.182.0135-.488 0-.488-.2638-.488-1.2703 0-.3127 0-.6449 0-.9186 0-.7035.547-1.456 1.847-1.4755h5.032 2.062c.613-.8235 1.134-1.7115 1.554-2.6482.034-.0944.096-.176.178-.2337.083-.0577.18-.0887.281-.0887.138.001.272.052.376.1435s.172.2175.191.3548c-.433.8917-.971 1.7283-1.603 2.4918h1.671c1.114 0 1.827.6548 1.837 1.4658v.8795.8501c-.004.0651-.02.1288-.049.1874-.029.0585-.069.1107-.118.1535s-.106.0753-.168.0957c-.062.0203-.128.028-.192.0227-.06.004-.12-.0041-.177-.0237s-.109-.0503-.154-.0904c-.044-.04-.08-.0886-.106-.1429-.025-.0542-.04-.113-.042-.1729zm-5.384 4.3192c-.127.4928-.297.9735-.508 1.4365h3.762c1.671 0 1.671 1.026 1.671 1.9543 0 1.202 0 2.1401-1.651 2.1889-1.114 0-2.268.0489-3.391.0489-1.29 0-2.541 0-3.694-.0489-1.73 0-1.73-.9772-1.73-2.0618 0-1.0847.069-2.0717 1.71-2.0912h2.473c.161-.4813.298-.9705.41-1.4658h-1.202c-1.69 0-2.345-.0879-2.345-1.9544 0-.9771.068-1.7882 1.642-1.8371h2.482 2.579c1.593 0 1.613.8599 1.613 1.671 0 1.2606-.059 2.013-1.632 2.0716h-2.189zm-3.635-6.6351c-.395-.6317-.918-1.1742-1.534-1.5928-.062-.0515-.101-.1253-.108-.2052.015-.1209.074-.232.166-.3115s.211-.1218.333-.1185c.488 0 1.954 1.5049 1.954 1.8762-.009.1339-.064.2604-.157.357-.094.0966-.218.1571-.351.1707-.062-.0048-.121-.0242-.174-.0564-.053-.0323-.097-.0766-.129-.1293zm7.632 10.0846c0-1.1336-.303-1.2606-1.095-1.2704-1.065 0-2.189 0-3.283 0-1.095 0-2.179 0-3.147 0-.967 0-1.094.3811-1.094 1.3192v.5472c.049.8307.264.8307 3.987.8307h3.547c.919-.0782 1.085-.3421 1.085-1.4365zm-1.095-5.355c0-.7524 0-1.1238-.977-1.1433-.694 0-1.446 0-2.228 0s-1.554 0-2.277 0c-.977 0-.977.4397-.977 1.1628v.4788c.049.6743.381.6743 3.205.6743 3.039 0 3.235 0 3.254-.6743.011-.1692.011-.3389 0-.5081zm-2.931-4.7296c-.07.0071-.139-.0107-.196-.0501-.057-.0393-.099-.0978-.117-.1649-.278-.6865-.69-1.3109-1.212-1.8371-.039-.0472-.063-.1051-.068-.1661.021-.1138.081-.2166.171-.2899.089-.0734.202-.1126.317-.1108.606 0 1.73 1.7981 1.73 2.101-.012.1461-.082.2814-.194.3765-.111.0952-.256.1425-.402.1316z"/><path d="m310.012 33.02c1.849 1.5121 3.982 2.6384 6.274 3.3126.129.0194.246.0896.324.1949.078.1054.11.2374.091.367s-.09.2461-.195.324-.237.1107-.367.0913c-2.421-.791-4.66-2.0567-6.586-3.7231l.059 3.7915c0 .0612-.013.1218-.037.1778-.025.0561-.061.1064-.106.1478s-.098.0729-.156.0926c-.058.0196-.119.027-.18.0215-.059.0055-.118-.0013-.173-.02-.056-.0187-.107-.0487-.15-.0883s-.078-.0878-.101-.1415c-.024-.0537-.036-.1117-.036-.1704v-3.811c-1.909 1.6907-4.139 2.9801-6.556 3.7915-.062.004-.123-.0043-.181-.0244s-.111-.0516-.156-.0925c-.046-.041-.083-.0907-.109-.1461s-.041-.1155-.043-.1767c.007-.107.047-.209.116-.2915.068-.0825.161-.1412.265-.1678 2.273-.7038 4.373-1.8755 6.166-3.4397l-5.756.0684c-.053.0001-.105-.0107-.154-.0315-.049-.0209-.093-.0514-.129-.0898-.037-.0384-.065-.0838-.083-.1335-.019-.0497-.027-.1027-.024-.1556 0-.0509.01-.1013.029-.1482.02-.0468.049-.0893.086-.1248.036-.0355.079-.0634.127-.082.047-.0185.098-.0274.148-.0261h6.254v-1.2801h-4.456c-.049.0028-.099-.0049-.145-.0225-.046-.0177-.088-.0449-.123-.08s-.063-.0771-.08-.1235c-.018-.0463-.026-.0959-.023-.1454-.001-.0491.007-.098.026-.1436.018-.0457.045-.0872.08-.1219.035-.0348.076-.0621.122-.0803.045-.0182.094-.0268.143-.0255h4.437v-1.2899h-5.296c-.051.0027-.101-.005-.149-.0224-.047-.0175-.09-.0444-.127-.0792-.036-.0347-.065-.0766-.085-.1229-.02-.0464-.03-.0964-.03-.1468-.003-.0521.005-.1042.024-.1529.018-.0487.047-.0929.084-.1298.037-.0368.081-.0655.13-.0842.048-.0186.1-.0268.153-.024h3.605c-.194-.4147-.426-.8106-.693-1.1824-.044-.0482-.069-.1108-.069-.1759.017-.1063.074-.202.16-.2675.085-.0655.192-.0956.299-.0843.548 0 1.075 1.1433 1.202 1.5049.005.0455.005.0913 0 .1368v.1661h2.463c.239-.4663.426-.958.557-1.4657.03-.0883.089-.164.166-.2153.078-.0513.171-.0753.264-.0681.127-.0084.253.0326.352.1144.098.0819.161.1983.176.3253-.138.4604-.335.9006-.587 1.3094h3.547c.05-.0013.098.0074.144.0256.046.0181.087.0454.122.0802.035.0347.062.0762.08.1219.018.0456.027.0945.026.1437.004.0507-.003.1017-.02.1497s-.043.0919-.079.1288c-.035.0369-.077.0659-.124.0853s-.098.0286-.149.027h-5.237v1.1922h4.358c.049-.0013.098.0073.144.0255.045.0182.087.0455.121.0803.035.0347.063.0762.081.1219.018.0456.027.0945.025.1436.003.0495-.005.0991-.022.1454-.018.0464-.045.0884-.08.1235s-.077.0623-.124.08c-.046.0176-.096.0253-.145.0225h-4.378v1.2899h6.283c.053-.003.106.0054.156.0246.049.0192.094.0488.131.0868s.065.0834.083.1333.026.103.021.1559c.004.0507-.002.1017-.019.1497s-.044.0919-.079.1288-.077.066-.124.0853c-.048.0194-.098.0286-.149.0271zm-7.69-6.6351c-.055.0013-.109-.0084-.159-.0285-.05-.0202-.096-.0504-.134-.0888-.039-.0383-.069-.0841-.089-.1345s-.03-.1044-.029-.1587c-.001-.0538.009-.1073.029-.1572s.05-.0951.089-.1327.084-.0669.135-.0859c.05-.0191.104-.0275.158-.0248h3.049c-.347-.6033-.767-1.1613-1.251-1.6612-.022-.0196-.04-.0438-.051-.0707-.012-.027-.018-.0562-.018-.0857.023-.1224.089-.2327.186-.3114.096-.0787.217-.1207.342-.1185.459 0 1.691 1.798 1.691 2.2475h1.241v-2.7752c-.001-.0565.011-.1123.033-.1641.023-.0519.056-.0985.097-.137s.09-.0681.143-.0869.11-.0265.166-.0224c.057-.0056.114.0009.168.0192.054.0182.103.0478.145.0866s.074.0861.096.1386.033.1091.031.166v2.7752h1.505v-2.7948c-.002-.0568.009-.1134.031-.1659.022-.0526.054-.0998.096-.1386.042-.0389.091-.0684.145-.0866.054-.0183.111-.0248.168-.0193.055-.0042.111.0034.163.0224s.1.0489.14.0877c.039.0389.07.0858.091.1375.02.0518.029.1073.026.1628v2.7753h1.143c.473-.6255.876-1.3005 1.202-2.013.034-.0945.097-.1761.179-.2338s.18-.0887.28-.0887c.125-.0002.245.0472.336.1326s.145.2022.153.3267c-.305.6815-.71 1.3139-1.202 1.8762h3.166c.055-.0042.11.0032.161.0216.052.0184.099.0475.138.0852.04.0378.071.0835.092.1341s.031.105.029.1597c.002.0551-.008.1099-.029.161s-.052.0973-.091.1359c-.04.0385-.087.0685-.138.088-.052.0195-.107.0282-.162.0255z"/><path d="m327.523 26.8534c0 1.6416-2.326 8.2865-4.7 8.2865-.919 0-2.287-1.2019-2.287-3.2833.084-1.7186.84-3.3354 2.105-4.5017s2.938-1.7887 4.657-1.7328c3.03 0 5.697 1.9544 5.697 5.0423 0 4.3485-4.817 5.7556-5.433 5.7556-.072.0095-.145.0043-.215-.0154-.071-.0197-.136-.0534-.192-.0991-.057-.0457-.104-.1024-.138-.1667s-.055-.1348-.061-.2074c0-.215.157-.4397.528-.5179 2.384-.5081 4.505-2.1498 4.505-4.8175 0-2.4723-2.189-4.2019-4.71-4.2019.079.0466.143.1142.187.1952.043.0811.063.1724.057.2641zm-6.068 4.8859c0 1.2019.723 2.2964 1.426 2.2964 1.202 0 3.391-4.2312 3.636-7.2019-.003-.0814.012-.1624.042-.2381.03-.0756.076-.1442.133-.2016-1.369.1205-2.65.7316-3.605 1.7209s-1.521 2.2902-1.593 3.6634z"/><path d="m341.038 36.5278c0-.2247.156-.4397.547-.5276 1.85-.4113 3.513-1.4213 4.73-2.8736s1.921-3.2657 2.003-5.1589c0-1.2899-.645-1.3094-3.215-1.3094-1.309 0-2.755 0-3.342.0586-1.29 0-1.299.7915-1.299 1.6221 0 .6743 0 1.6808.048 2.1401v.0488c-.001.0706-.016.1402-.044.205-.028.0647-.069.1232-.12.1722s-.111.0875-.176.1134c-.066.0258-.136.0384-.207.0371-.527 0-.527-.3322-.527-2.2378 0-.5179 0-.9771 0-1.2214.068-.9772.703-1.671 2.188-1.7297.978 0 2.766-.0684 4.232-.0684 2.169 0 3.527 0 3.527 2.0326v.3713c-.537 6.9869-7.309 8.7947-7.768 8.7947-.138.0087-.274-.0347-.38-.1216-.107-.087-.177-.2111-.197-.3475z"/><path d="m356.506 30.5074c-.066.0069-.133-.0003-.197-.0214-.063-.021-.121-.0554-.17-.1007s-.088-.1006-.114-.1621c-.026-.0616-.038-.1279-.037-.1947-.001-.0679.012-.1354.037-.1983.026-.063.064-.12.113-.1676.048-.0475.106-.0847.169-.1092.064-.0244.131-.0357.199-.033h11.228c.113.0227.215.0838.288.1728.073.0891.112.2007.112.3158s-.039.2267-.112.3158c-.073.089-.175.1501-.288.1728z"/><path d="m374.682 31.2707c-.062.0039-.124-.0047-.182-.0254-.059-.0206-.113-.053-.158-.095-.046-.042-.083-.0928-.108-.1494-.026-.0566-.039-.1177-.041-.1797.008-.106.043-.2082.101-.2971s.138-.1616.232-.2111c2.029-1.6301 3.736-3.6252 5.032-5.8826.043-.0783.107-.1429.185-.1861.077-.0433.166-.0635.255-.0582.067-.0067.135.0002.199.0204s.124.0532.175.0971c.051.0438.093.0976.123.158.029.0604.047.1262.05.1935 0 .1955-.088.3909-.684 1.241 1.075-.0879 3.029-.1954 3.244-.1954.978 0 1.486.4984 1.486 1.1335-.009.2139-.062.4235-.157.6157-1.837 3.7621-4.739 7.6611-9.508 9.5471-.119.0547-.249.0846-.381.0879-.065.0068-.131 0-.193-.0198-.063-.0198-.121-.0522-.17-.0953-.05-.0431-.09-.0958-.118-.155s-.044-.1236-.046-.1892c.011-.134.064-.2611.152-.3629.087-.1019.205-.1732.336-.2038 5.492-1.886 8.883-8.2377 8.883-9.0683 0-.2834-.196-.4397-.567-.4397s-2.277.1563-3.655.2833c-.85 1.1336-3.654 4.4365-4.485 4.4365z"/><path d="m392.672 28.9243c-.066.0027-.131-.0077-.193-.0303-.061-.0227-.117-.0572-.165-.1017-.049-.0445-.087-.098-.115-.1575-.027-.0595-.043-.1238-.045-.1893 0-.067.016-.133.044-.1937s.069-.1146.12-.1581.111-.0756.175-.0942c.064-.0185.132-.023.198-.0133 1.955 0 4.319-.0684 6.479-.0684h1.358c1.144 0 1.779.5277 1.779 1.3779-.009.3374-.086.6696-.225.9772-.758 1.6341-1.873 3.077-3.263 4.2221s-3.02 1.963-4.769 2.3934c-.372 0-.587-.2247-.587-.4788.012-.1326.069-.2571.162-.353.092-.0959.214-.1575.346-.1747 5.404-1.4658 7.212-5.7165 7.212-6.4983 0-.5765-.498-.5765-1.632-.5765-1.954 0-5.169 0-6.84.1075zm7.71-3.4299h-4.183c-.742 0-1.485 0-2.14 0-.351 0-.527-.2052-.527-.4202.006-.0703.026-.1387.059-.2011s.078-.1176.133-.1622c.054-.0446.117-.0779.185-.0977s.139-.0259.209-.0178h3.107 3.157c.066-.0081.134-.0025.198.0166.064.019.124.0511.175.0941.051.0431.093.0963.123.1562.03.06.047.1255.051.1924 0 .2345-.176.4397-.547.4397z"/><path d="m411.132 31.0546c-.002.0702-.017.1394-.045.2036-.029.0642-.069.1221-.12.1703s-.111.0858-.177.1105c-.066.0248-.136.0362-.206.0336-.064.0068-.129.0001-.19-.0199-.062-.02-.119-.0527-.167-.0961-.047-.0433-.086-.0963-.112-.1555s-.039-.1232-.039-.1878v-1.1726c0-.4886 0-.9772 0-1.4658.01-.2294.066-.4546.164-.6621s.237-.3933.408-.5463c.172-.153.372-.2702.589-.3446s.447-.1046.676-.0887h2.668c0-.7524 0-2.0325 0-2.4918-.001-.0669.013-.1331.04-.1942.028-.0611.067-.1157.117-.1601s.109-.0776.173-.0974.131-.0257.198-.0174c.062-.0067.126-.0005.186.0183s.116.0498.163.0911c.048.0412.087.0918.114.1487.027.0568.043.1187.045.1817v2.5211h2.707c1.202 0 1.837.7427 1.837 1.6221v.1075c-.411 7.0944-7.466 8.6188-7.818 8.6188-.138.0053-.273-.0439-.375-.1372-.103-.0932-.164-.2229-.172-.3612.006-.1226.056-.2391.14-.3286s.197-.1462.319-.16c5.707-1.3973 6.782-5.6872 6.782-7.5438 0-.6743-.371-.9186-.977-.9772s-1.788 0-2.883 0c-1.094 0-2.453 0-3.019 0-.831.0586-1.036.5374-1.036.9772 0 .4397 0 1.8273.049 2.3745z"/><path d="m430.636 28.8854c-.856-.7147-1.856-1.2378-2.931-1.5342-.091-.0267-.17-.0842-.224-.1626-.053-.0784-.078-.1729-.069-.2674 0-.1366.053-.2679.147-.3663.095-.0985.224-.1563.361-.1613 1.244.3126 2.422.8454 3.479 1.5732.07.0536.128.1231.167.2029s.059.1676.057.2564c.001.1588-.058.312-.164.4296-.107.1176-.254.1909-.412.2056-.077.0012-.153-.0139-.224-.0442s-.134-.0752-.187-.1317zm-1.954 7.4168c-.078.0053-.156-.0053-.23-.0313s-.142-.0667-.2-.1197c-.057-.0531-.103-.1173-.135-.1887-.032-.0715-.049-.1488-.051-.227.007-.147.065-.287.165-.3945.101-.1076.236-.1756.383-.1919 3.83-.9771 7.592-4.4266 9.303-8.2279.057-.1042.146-.187.255-.2357s.23-.0607.346-.0342.22.0901.297.1811c.076.091.121.2046.128.3234.001.1228-.03.2439-.088.3517-3.186 6.6058-9.44 8.7947-10.144 8.7947z"/><path d="m447.883 30.2925c.088.0462.162.1148.215.1988.054.0841.084.1807.088.28.005.0987-.018.1968-.067.2828-.049.0859-.121.1562-.208.2024s-.186.0665-.285.0584c-.098-.008-.192-.044-.271-.1038-.786-.4947-1.663-.8269-2.58-.9772-.094-.0121-.18-.0589-.241-.1312-.062-.0723-.094-.1649-.091-.2597-.001-.0671.011-.1338.036-.196.025-.0623.062-.1188.11-.1663.047-.0474.104-.0848.166-.1099.062-.025.129-.0373.196-.0359 1.018.1773 2.005.4998 2.932.9576zm-1.31 6.4885c-.148.0027-.292-.0532-.4-.1556-.108-.1023-.171-.243-.176-.3916 0-.1243.045-.2444.125-.3391.081-.0948.192-.1581.315-.1788 3.908-1.0554 7.68-4.4657 9.586-8.5406.056-.0946.14-.1692.241-.2134s.213-.0558.321-.0332c.107.0226.205.0783.28.1593.074.081.121.1833.135.2925-.008.1303-.044.2572-.108.3713-1.013 2.1293-2.451 4.0287-4.226 5.5815-1.774 1.5528-3.848 2.7261-6.093 3.4477zm2.932-8.7067c-.665-.6674-1.451-1.2015-2.316-1.5733-.077-.0278-.143-.0782-.19-.1445s-.073-.1454-.074-.2268c0-.065.013-.1293.038-.1893.025-.0599.062-.1142.109-.1597.046-.0455.101-.0813.162-.1052.06-.024.125-.0357.189-.0344.245 0 3 1.2997 3 2.0619.01.1105-.016.2213-.074.3159-.058.0947-.144.1682-.247.2098s-.217.0491-.324.0213c-.108-.0278-.203-.0894-.273-.1757zm5.013-2.1205c-.483-.5249-1.064-.9499-1.71-1.2508-.067-.0188-.125-.0583-.167-.1129-.043-.0545-.066-.1211-.068-.19.013-.1063.065-.2038.147-.2728.081-.069.186-.1042.293-.0986.391 0 2.248.9772 2.248 1.6417 0 .115-.045.2254-.126.3076-.08.0821-.189.1296-.304.1322-.058-.003-.114-.0185-.164-.0455-.051-.027-.095-.0649-.13-.1109zm1.466-1.2899c-.496-.509-1.082-.9201-1.73-1.2117-.068-.0244-.127-.0678-.17-.125-.043-.0573-.069-.1259-.074-.1975.012-.1062.064-.2037.146-.2727s.187-.1043.293-.0986c.313 0 2.297.9772 2.297 1.6319 0 .1175-.046.2304-.128.3144-.083.0841-.194.1326-.312.1351-.061-.0037-.12-.0216-.172-.0521-.053-.0305-.097-.0729-.131-.1238z"/></g><path d="m205.903 6.84033v46.90487" stroke="#fff" stroke-miterlimit="10" stroke-width="1.2477"/><g fill="#fff"><path d="m0 16.4463h13.5536v.7915h-4.67098l6.30288 17.5894 5.8631-13.8859-1.4072-3.6546h-2.3745v-.7916h11.1887v.7916h-3.7719l6.5276 17.433 7.026-17.433h-5.2866v-.7916h9.166v.7916h-2.9804l-10.065 25.143-7.6416-20.4135-8.5504 20.4135-9.0585-25.1919h-3.8208z"/><path d="m43.2988 39.791h4.329v-38.979936h-4.329v-.811064h9.166v22.1333h.1173c.2704-.6403.5974-1.2551.9772-1.8372.4975-.7815 1.114-1.4804 1.8273-2.0716.8422-.7097 1.7922-1.2804 2.8143-1.6905 1.2586-.4977 2.6046-.737 3.9576-.7036 2.15-.1051 4.273.5143 6.0292 1.7589 1.557 1.2052 2.3355 3.1173 2.3355 5.7361v16.4656h4.329v.7817h-13.495v-.7817h4.329v-18.1659c.0561-1.284-.3113-2.551-1.0456-3.6058-.3842-.4797-.8796-.8586-1.4432-1.1038s-1.1784-.3493-1.7913-.3033c-1.1886-.0004-2.3617.2703-3.4299.7915-1.0927.5327-2.0665 1.2805-2.8632 2.1986-.855.9708-1.5182 2.0949-1.9544 3.3127-.4785 1.3352-.7167 2.7446-.7035 4.1628v12.7034h4.3289v.7818h-13.4852z"/><path d="m78.7902 28.5435c-.0095-1.7684.4026-3.5136 1.202-5.0911 1.5523-3.0547 4.1495-5.4507 7.3191-6.7523 1.4453-.6318 3.0056-.9579 4.583-.9579s3.1377.3261 4.583.9579c3.1646 1.3058 5.7577 3.701 7.3097 6.7523.807 1.5856 1.222 3.3414 1.211 5.1205.007 1.7227-.38 3.4242-1.133 4.9738-1.465 3.0735-4.0015 5.5061-7.1336 6.8403-1.5246.6702-3.1717 1.0163-4.8371 1.0163-1.6653 0-3.3125-.3461-4.8371-1.0163-1.5512-.6598-2.9712-1.5932-4.1921-2.7556-1.2183-1.1675-2.2119-2.5487-2.9315-4.0749-.7624-1.5605-1.1537-3.2762-1.1434-5.013zm5.6189 0c-.0548 2.1345.1519 4.2676.6156 6.3517.2929 1.3065.8481 2.5399 1.6319 3.6254.5961.7864 1.4228 1.3672 2.3648 1.6612 1.8767.5196 3.8593.5196 5.7361 0 .9419-.294 1.7687-.8748 2.3647-1.6612.7838-1.0855 1.339-2.3189 1.6319-3.6254.4637-2.0841.6705-4.2172.6157-6.3517.0315-1.896-.119-3.7906-.4495-5.6579-.2253-1.3124-.6925-2.5715-1.3779-3.7133-.5606-.898-1.3727-1.6116-2.3354-2.0521-2.1355-.821-4.4996-.821-6.6351 0-.9612.4429-1.7726 1.156-2.3355 2.0521-.6853 1.1418-1.1525 2.4009-1.3778 3.7133-.3256 1.8679-.4761 3.7621-.4495 5.6579z"/><path d="m67.514 49.9252c-.0195-.4503-.1468-.8893-.3713-1.2801-.0587 0-.0587-.0586-.0587-.0879s.1466-.0587.1759-.0587c.13.0459.252.1118.3616.1955.3584.3879.5543.8986.5472 1.4267v.4202c.0055.2455-.0625.4872-.1954.6938-.4607.6533-.9703 1.2707-1.5244 1.8468l-1.3192 1.2801c-.4687.5726-1.0425 1.0502-1.6906 1.4072-.1954.127-.4592.3029-.7231.4593-.3399.1783-.6967.3223-1.0651.4299-.1808.0182-.3603.0476-.5375.088-.1864.0739-.3887.0983-.5873.0709s-.3868-.1057-.5462-.2273c0 0-.0586 0-.0586-.0586-.2171-.2531-.3689-.5556-.4422-.881-.0732-.3253-.0657-.6637.022-.9854l.0879-.4788v-.088h-.0684s-.127 0-.1466.088c-.452.4956-.9316.9654-1.4364 1.4071-.253.3689-.5592.6982-.9088.9772-.2345.4984-.7818.6058-1.1335.9772-.0449.0357-.0966.0618-.152.0768-.0554.0149-.1132.0184-.17.0102-.0567-.0083-.1112-.028-.16-.0581-.0489-.0301-.091-.0699-.1239-.1169-.1191-.1515-.194-.333-.2164-.5244s.0085-.3853.0894-.5602c.0833-.2229.1846-.4386.3029-.645.4984-.9772 1.0456-1.9544 1.5244-2.9315.1328-.1627.2414-.3437.3225-.5375.0065-.0678.0364-.1312.0845-.1793.0481-.0482.1115-.078.1793-.0845.1214-.0265.2472-.0244.3676.0061.1205.0306.2321.0887.3262.1698.0389.0485.06.1088.06.171 0 .0621-.0211.1224-.06.171-.1652.2275-.2969.4776-.3909.7426-.1215.4237-.3202.8212-.5863 1.1727-.1013.2364-.2256.4622-.3713.6742-.127.2345-.2834.43-.3909.645v.1563c.1402-.0474.2606-.1403.342-.2638.5277-.4495.9772-.9772 1.4854-1.4072.2559-.3243.5628-.6048.9087-.8306.4789-.43.9772-.8208 1.4267-1.2312.2277-.1846.4401-.3872.6352-.6059.1165-.1127.2684-.1818.43-.1954.2443-.088.3908 0 .5863.1661v.2443c0 .0488-.2248.1759-.3323.3029-.1358.1499-.2599.31-.3713.4788-.0879 0-.1075.088-.1954.1466-.2235.1842-.3952.4233-.4984.6938l-.6449 1.3094c-.1581.3017-.2418.6367-.2443.9772 0 .2443.0879.2834.2638.2834.4292.0053.8539-.0883 1.241-.2736.2556-.158.5199-.3015.7916-.43.1003-.0429.1928-.1024.2736-.1759.7915-.4858 1.5401-1.0383 2.2377-1.6514.1137-.1444.2528-.2669.4104-.3616.1173-.0684.1955-.1563.3714-.1172-.0587.1172-.1466.1563-.215.2247s-.3225.1955-.3518.43h.1564c.1269-.1142.2446-.2384.3517-.3713.1955-.1271.303-.3225.5375-.3909.0246-.0696.0246-.1454 0-.215h-.1759c-.0033-.0525.0129-.1043.0453-.1458.0324-.0414.0789-.0695.1306-.0789v.2247c.0282.0114.0597.0114.0879 0 .4886-.4658.9365-.9726 1.3388-1.5146-.0352.0095-.0723.0095-.1075 0-.1466.1563-.2834.3322-.43.4983-.1597.2038-.3434.3875-.5472.5473.0108-.0516.0108-.1048 0-.1564.0782-.1466.2345-.2541.3225-.3909.0252-.0615.0617-.1178.1075-.1661v-.0879.0879c.1473-.137.2524-.3133.3029-.5081h-.1075c0-.0782 0-.1955.1075-.1955v.0587c.1075 0 .1075-.1075.1075-.215h-.1075c0-.0586 0-.1759.1075-.215v.215c.1075-.0586.1075-.1466 0-.215v-.2638c.0488-.0571.0854-.1236.1075-.1955v.1955c-.0079.0288-.0079.0591 0 .0879.0781 0 .0781-.0879.0781-.1075.0186-.025.0301-.0544.0336-.0853.0034-.0309-.0014-.0621-.014-.0906zm-3.7915 4.798c-.0413-.008-.0841-.0017-.1214.0178-.0373.0196-.0668.0512-.0838.0897.1173-.0195.2052.0489.2052-.1075zm.4691-.3225c-.1075 0-.1955 0-.2346.1075.1271-.0195.1955.0196.2346-.127zm.8892-.7622h-.1466c-.2787.2218-.5282.4779-.7426.7622h.0684c.3192-.208.5974-.473.8208-.7817z"/><path d="m78.1752 53.9697c-.3502.0548-.6962.1332-1.0358.2345-.0244.0486-.0622.0892-.109.117-.0468.0277-.1005.0414-.1549.0394-.2779.0007-.5554.0203-.8306.0586-.3904.0256-.7822.0256-1.1726 0-.645 0-.6254-.088-.9772.4788l-.7622.8013c0 .0586 0 .088-.0879.127-.6254.3909-1.1434.8893-1.7981 1.2411-.4319.2363-.9149.3637-1.4071.3713-.3734.0027-.733-.1411-1.0015-.4005-.2686-.2595-.4248-.6138-.435-.9871.0018-.2021.045-.4016.1271-.5863.1649-.7805.5246-1.5066 1.0455-2.1107.2346-.2737.43-.5864.6938-.8697.0908-.0723.1636-.1646.2128-.2697.0491-.1051.0733-.2202.0706-.3362-.0178-.1056-.014-.2138.0112-.318.0252-.1041.0712-.202.1354-.2878.1448-.1678.3051-.3216.4788-.4593.2828-.1371.5731-.2578.8697-.3616.1226-.0757.2676-.1068.4104-.0879.199-.0489.4069-.0489.6059 0 .1627.0132.3263-.0102.4788-.0684.3029-.1075.5472.0684.8013.1563.1075 0 .1075.1955 0 .2541s-.127 0-.0586.0684c.0825.1555.1842.3.3029.43.2053.2261.3455.5035.4057.8029s.0382.6095-.0637.8974c-.0776.26-.1723.5146-.2834.7622.3508.078.7144.078 1.0652 0 .5277-.088 1.0456-.2052 1.5928-.3127.3029-.1075.6058-.1466.9772-.2346.1744-.0439.3334-.1353.4592-.2638.1771-.0563.3615-.0859.5473-.0879.0586-.0587.1954.3126.1954.3322zm-5.2768.342s-.088 0-.1075-.0879c-.7331-.1466-1.3888-.5525-1.8469-1.1434-.1075-.1172-.1954-.1172-.215 0-.2065.2825-.3741.5915-.4983.9186-.1955.4104-.3909.8013-.6254 1.2117-.2346.4104-.2834.7818-.4593 1.1042-.0684.1368.0684.2443.1954.2834h.342c.2131.0166.4265-.0275.6157-.127.7725-.382 1.4865-.8723 2.1205-1.456.1732-.182.3559-.3549.5472-.5179 0 0-.0196-.1857-.088-.1857zm.8892-3.3224c-.0441-.0603-.1008-.1103-.1661-.1466 0 0-.1075 0-.1368 0-.3002.1456-.5823.326-.8404.5374-.2999.1887-.5842.4011-.8501.6352l-.4789.43c-.0247.012-.0456.0307-.0603.0541-.0146.0233-.0224.0503-.0224.0778s.0078.0545.0224.0778c.0147.0234.0356.0421.0603.0541.0574.0608.1097.1261.1564.1955.2062.1916.4588.3264.7329.3908.3723.1381.7592.2331 1.1531.2834.081.019.166.0123.243-.0193.0771-.0315.1424-.0862.1869-.1566.2487-.37.4-.7969.4397-1.241.0372-.2187.0141-.4435-.0668-.6501s-.2166-.3872-.3924-.5225z"/><path d="m89.706 52.6207c-.0354.1227-.0916.2384-.1662.342-.1759.2834-1.7003 1.2606-1.8664 1.544-.1257.1498-.2881.2645-.4713.333-.1833.0685-.3811.0884-.5743.0578-.0654.0085-.1318-.004-.1898-.0356-.0579-.0316-.1043-.0807-.1326-.1403 0-.127-.088-.1954-.1173-.3029-.1151-.1491-.1928-.3236-.2268-.5089-.034-.1852-.0233-.3759.0314-.5562 0-.0587-.1075-.1271-.1662-.1075-.2247.1075-.4592.1759-.6547.2834-.9333.542-1.825 1.1528-2.6677 1.8273-.125.0925-.2556.1774-.3909.2541-.1233.1247-.2539.2422-.3908.3518-.2895.2249-.5404.4956-.7427.8013-.3536.4046-.68.8323-.9772 1.2801-.1075.2443-.3029.3518-.3909.5472-.0879.1954-.1563.1759-.2834.1075-.127-.0684-.1758-.0684-.1758-.0684-.1075-.1661-.2346-.2834-.3225-.43-.0245-.1652-.0245-.3331 0-.4983.0447-.1085.1038-.2104.1759-.303.342-.6351.6938-1.241 1.0651-1.9543.3713-.7134.8404-1.544 1.2313-2.3257.1989-.3388.3658-.6954.4983-1.0652.0305-.0605.0733-.1141.1256-.1572s.113-.0749.1783-.0932c.0653-.0184.1336-.023.2008-.0135.0671.0094.1315.0328.1891.0685l.3518.1954c.0684.1075.127.2639 0 .3323-.2108.3073-.3908.6346-.5374.9772l-.5863 1.0651v.1075h.0586c.8785-.7274 1.8317-1.3596 2.8436-1.886.5472-.2638 1.0944-.4593 1.6124-.7231.1797-.082.3814-.1024.5739-.0583.1925.0442.3651.1505.4912.3026l.342.3713c.0468.0692.0666.1531.0558.2359s-.0515.1588-.1144.2136c-.1245.0896-.2224.2111-.2834.3518-.0684.2638-.3029.43-.3518.6743.9325-.4836 1.8392-1.0152 2.7166-1.5928 0 0 .0391.1758.0391.1954z"/><path d="m101.256 45.4775c-.059 0-.059.0879 0 .127s-.059.2834-.235.2443c-.107.127-.127.2834-.234.342-.217.2634-.452.5116-.704.7427-.045.049-.1017.0861-.1647.1083-.063.0221-.1304.0285-.1965.0187.0012.0371-.0061.074-.0214.1079-.0152.0338-.038.0638-.0665.0875-.0654.0473-.138.0836-.215.1075.0586 0 .0586.088.0879.1075.0294.0196 0 .0684 0 .088v.0684c-.2677.2014-.5164.4271-.7426.6742 0 .088-.1075.1271-.1466.215-.2997.1699-.5492.416-.7231.7133 0 .088 0 .1075-.088.1075-.2149.088-.3029.2834-.4983.4202-.1955.1368-.2346.2541-.3909.3616-.23.1924-.4486.3979-.6547.6156-.6429.5412-1.3149 1.0468-2.013 1.5147-.4697.3819-1.0216.6495-1.6124.7817-.1075 0-.1954.1075-.2736.127-.0471.0569-.0995.1093-.1563.1564 0 .2834-.1955.4299-.303.6254-.1075.1954-.2833.3909-.4299.5667-.1198.1468-.1885.3286-.1955.518.1213-.0391.2364-.095.3421-.1662.5188-.4517 1.0637-.8726 1.6319-1.2605.2428-.1815.505-.3355.7817-.4593.0751-.0853.1737-.1465.2834-.1759.0782-.0782.1661-.2345.3615-.1466.0831-.0989.1711-.1935.2639-.2834.1271-.0264.247-.0797.3518-.1563.3557-.0735.6899-.2272.9772-.4495.2051-.1837.4675-.2908.7426-.3029.0684-.0369.1404-.0664.215-.088.2841-.1424.602-.2032.9186-.1759.1986.0032.3921.064.5569.175s.2938.2675.3714.4504c.0363.0436.0538.0998.0488.1564-.0638.2842-.1762.5553-.3322.8013-.0813.2846-.2485.5371-.4788.7231-.3181.2919-.6652.5505-1.0358.7719l-.8307.5864c-.0586.0879-.0879.1172-.1465.1172-.4398 0-.7427.4104-1.1531.5179-.3941.1996-.8213.3254-1.2606.3714-.127 0-.1954.0586-.2638.1954-.0382.1276-.0644.2584-.0782.3909.0231.4101.0231.8211 0 1.2312 0 .088 0 .1075.088.1759.0108.0378.0341.0709.066.0939s.0705.0347.1098.0332c.5935.084 1.1985.0168 1.759-.1955.7076-.2663 1.3909-.5933 2.0423-.9772.3029-.127.557-.254.8599-.4104.3029-.1563.7818-.4104 1.1336-.6449.3736-.259.7734-.4784 1.1924-.6547.498-.2639.977-.5473 1.417-.8307.166-.0586.322-.2149.537-.3224.097-.0298.187-.0797.264-.1466.363-.2647.757-.4845 1.173-.6547.188-.063.363-.159.517-.2834.079-.0694.177-.1147.281-.1303s.21-.0009.306.0424c.107 0 .215-.0001.234.0879.02.0879.333.2345.333.4788v.088s0 0-.088 0c-.422.049-.821.2149-1.153.4788-.114.0184-.229.0184-.342 0-.049 0-.137 0-.137 0-.088.2638-.235.3029-.45.3518v-.088c-.088 0-.225 0-.244.088-.088 0-.088.0684 0 .0879.088.0196 0 .1759 0 .1759-.303.0782-.498.3909-.762.5179-.303.1148-.6.2453-.89.3909-.186.0807-.355.1969-.498.342-.283.1759-.547.3518-.85.5081-.303.1564-.7134.4105-1.0652.645-.0586.0879-.1466.1075-.1661.1563-.4398.215-.8111.43-1.2215.645-.3856.2515-.7987.458-1.2313.6156-.3595.1985-.7489.3371-1.153.4104-.412.1176-.8486.1176-1.2606 0-.243-.0372-.4745-.1286-.6775-.2672-.2029-.1387-.3721-.3212-.4951-.5341-.3233-.5579-.4473-1.2091-.3518-1.8468.0752-.2255.1276-.4579.1563-.6938.0684 0 .0684-.1759.0684-.2639-.0333-.0597-.0509-.127-.0509-.1954s.0176-.1357.0509-.1955c0 0-.0684 0-.0879-.0586-.0196-.0586 0 0 0 0-.3268.2169-.6312.4656-.9088.7427-.4593.3615-.8892.8013-1.3485 1.1921-.088.0587-.215.215-.3225.2541s-.127.088-.127.2248c.0086.0236.0109.049.0068.0738-.004.0248-.0144.0481-.0301.0678-.0157.0196-.0362.0348-.0595.0443-.0233.0094-.0486.0127-.0736.0095-.1954 0-.2345.1075-.2833.2541-.0489.1465-.1466.1075-.2346.0879-.0685-.0344-.1285-.0835-.1757-.1439-.0473-.0604-.0805-.1305-.0973-.2053s-.0168-.1524 0-.2272.0499-.1449.0971-.2053c.0688-.1324.0993-.2813.088-.43.0142-.2361.0955-.4633.2345-.6547.0825-.2452.1838-.4837.3029-.7134.0684-.0879.088-.2443.2443-.3322.0838-.2791.2387-.5317.4495-.7329 0 0 0 .088.088 0-.0137-.0069-.0287-.0104-.044-.0104s-.0303.0035-.044.0104c0-.1759.1173-.2638.2443-.3518.1271-.0879 0-.342.215-.4299.0351-.1435.1221-.2689.2443-.3518.0042-.1145.0379-.2259.0978-.3235s.1441-.178.2442-.2335v.215c.1075-.088.1075-.1075 0-.215.088-.1564.088-.3518.2346-.4593.1368.1075.1368.1075.2052 0v-.0684h-.0684c0-.0918.0295-.1811.084-.255.0545-.0738.1312-.1283.2189-.1554v.0586c0 .0586 0 0 0-.0586h-.0684c-.01-.072.0063-.1451.0457-.2061.0395-.061.0995-.1058.1693-.1262 0 .0684 0 .0684.127 0s.0684-.127.0879-.2638h.0684c0-.0586-.0684-.0586-.0684-.0586s0-.1759.088-.1955c.0879-.0195.0684.0782.1368 0h-.1954c0-.1172 0-.1563.1368-.1563-.0684-.1271.0586-.1955.2149-.3029.0685.1074.088.1074.088 0h-.088c-.0081-.1022.0196-.204.0785-.2878.0589-.0839.1452-.1445.244-.1715h.1075-.0586c-.0144-.015-.0245-.0335-.0293-.0537-.0049-.0202-.0043-.0413.0016-.0611.006-.0199.0171-.0378.0323-.052.0151-.0142.0338-.0241.054-.0287v.2541c.0357-.0177.0652-.0459.0844-.0809.0192-.0349.0273-.0749.0231-.1145 0 0 .0879-.1075.1563-.1271h-.1563c.0659-.1811.1895-.3356.3518-.4397v.2638c.0879-.0684.0879-.1563.0879-.2638h-.0879c.0879-.215.1954-.4495.4299-.5179 0 .0684.0684.0684.1369 0h-.1369c0-.127 0-.215.1369-.2639v.2639c.0688-.0725.1132-.1648.127-.2639h-.127c0-.0879.0586-.1661.127-.1954.5179-.6938 1.0847-1.2996 1.6026-1.9544.6218-.7605 1.3301-1.4459 2.1107-2.0423.5076-.4802 1.0839-.882 1.7102-1.1921.465-.289.973-.5033 1.505-.6352.088-.0616.197-.0862.303-.0684.129.0557.27.0791.41.0684.17-.0124.34.0147.498.0791s.298.1644.411.2922c.048.0635.078.1388.086.218.009.0792-.004.1592-.037.2315-.133.1683-.244.352-.333.5472-.325.2836-.608.6127-.84.9772-.072.1316-.176.2426-.303.3225-.17.1197-.325.261-.459.4202s-.088.0489-.176.1173zm-10.5243 9.3516c-.1759 0-.1954.1564-.1954.2834v.1564h.0782c-.0025-.0446.004-.0892.0191-.1311.0151-.042.0385-.0805.0688-.1132.0263-.0616.0364-.1289.0293-.1955zm.2834-.3909c.0879-.1074.1075-.3224.3225-.2149l-.1075-.1759c0-.088-.088 0-.1368 0-.2101.2227-.3525.5006-.4104.8013h.1954c.0257-.1427.0718-.2809.1368-.4105zm-.0879.4202c-.0685 0-.0685 0-.088 0s.0391.088.088 0zm.4592-1.114c.088-.0879.1661-.1074.1955-.1954.0293-.0879.0586-.0879.127-.1075v-.1954c-.2345.0195-.2638.215-.3225.4983zm1.3388-2.0814h.1075v-.2638c-.1075-.0195-.1075.1368-.1075.2248zm.7231 3.0586c.229.0203.4435.1206.6058.2834.088.1075.088.2639.1955.2639s.2345-.088.3029-.1271.2345-.1563.3713-.1954c.2461-.0631.4803-.1654.6938-.3029.5965-.3994 1.1617-.8437 1.6906-1.329.3957-.2915.6869-.7027.8306-1.1726 0 0 0-.0684 0-.1564h-.1173c-.3955.1744-.8.3277-1.2117.4593-.0901.0709-.1929.124-.3029.1563-.4788.2834-.8893.557-1.3681.8209-.2873.1499-.5618.3231-.8208.5179-.2834.1759-.5668.3909-.8306.5472-.11.0454-.2001.1285-.2541.2345zm-.1075-4.1432c-.088 0-.0684.1563-.0684.2638.0684-.0879.1466-.1075.0684-.2638zm2.228-2.1498c-.0046.0517-.02.102-.0453.1474-.0252.0455-.0598.0851-.1013.1164-.215.2345-.4984.3713-.5668.7329-.0457.0959-.1049.1847-.1759.2638-.166.136-.2911.3152-.3615.5179-.1299.1892-.2771.3658-.4398.5277v.1075c-.09.2105-.231.3952-.4104.5375-.0147.0304-.0223.0638-.0223.0977 0 .0338.0076.0672.0223.0977h.1466c.1722-.1084.3386-.2258.4984-.3518 1.2019-.8697 2.4136-1.8469 3.5178-2.7947.6938-.5668 1.3095-1.1336 1.9544-1.7394.088-.0684-.1759-.0684-.0684-.1759s.3518-.303.4984-.4593l.195-.1954.978-.9772c.003.0292.003.0587 0 .0879 0 0 0 0 .058-.0879h-.078s0-.1075.078-.1075.117-.088.157-.088v.088s.088 0 .088-.088h-.088c0-.0684 0-.1075.107-.1465.108-.0391 0 0 .068 0 0-.2639.215-.3714.372-.518v.2541l.146-.1075v-.1954c-.068 0-.088-.088-.146-.088-.059 0 .078-.1759.215-.1954s.058-.0684.127-.1368c.068-.0684 0-.1466.107-.1954.095-.1721.213-.33.352-.4691 0-.1563 0-.2638-.068-.3322-.083-.0666-.187-.1029-.293-.1029-.107 0-.21.0363-.294.1029-.15.1426-.325.2553-.518.3322-.244.1466-.566.3029-.869.4495-.499.2044-.9567.4992-1.3487.8697-.1349.1563-.306.2771-.4984.3518-.1381.1412-.2923.2658-.4593.3713-.3881.3344-.7182.7306-.9772 1.1727 0 0-.1465.0586-.1759.1074-.0701.0659-.149.1218-.2345.1662-.0072.0877-.0375.172-.0879.2443-.0808.1519-.1756.2958-.2834.4299-.1847.2275-.3873.4399-.6059.6352-.196.2201-.3545.471-.469.7427zm-1.8664 1.6905c.047 0 .0935-.0094.1369-.0277.0433-.0183.0825-.0451.1153-.0788s.0585-.0736.0756-.1174c.0171-.0439.0252-.0907.0239-.1377-.0837.0269-.1596.0739-.2209.137-.0613.063-.1063.1401-.1308.2246zm1.1335-1.5342c.215 0 .215 0 .215-.1954-.0474.0159-.091.0415-.128.0751-.037.0337-.0666.0746-.087.1203zm2.8631.127c-.2082.0926-.3776.2551-.4788.4593.2121-.0941.3873-.2555.4984-.4593zm.4789-.3224c-.1271 0-.1955 0-.215.127-.0196.127.1759 0 .215-.127zm6.7521 5.0129h-.195c-.499.2639-.977.4788-1.476.7134-.322.215-.713.3908-1.084.6058-.24.1186-.489.2198-.743.303l-.713.4201c-.157.1271-.372.1955-.518.303-.4792.2834-.9775.557-1.4173.8208-.296.1525-.5664.3503-.8013.5863h.1955c.1954-.127.4104-.1954.5863-.3029.6547-.342 1.3188-.7818 1.9548-1.1238.39-.1759.693-.3908 1.084-.5863.782-.4788 1.583-.9185 2.414-1.329.195-.0684.342-.1465.537-.2149.196-.0684.176-.088.176-.1955zm-5.8629-5.7751c-.0629-.0089-.127.0036-.1819.0355s-.0976.0813-.121.1404c.0592.0016.1177-.0142.1681-.0455.0503-.0312.0904-.0766.1153-.1304zm2.3649-2.1498v-.088c.068 0 .068.0196-.02.088zm.977-1.671s0-.088.068-.088v-.0684c0-.127 0-.127-.087-.0879-.088.0391-.069.0684-.088.0684-.02 0 0 .0879-.127.0879.058.1075.127.088.234.088z"/><path d="m127.493 46.2986v-.1955c-.176.088-.459.1759-.518.4593.145.0073.288-.0303.411-.1075 0-.0489.088-.0684.107-.1563v.1758c-.107.1075-.244.3225-.391.3909-.044.0575-.074.1244-.088.1955-.399.3336-.757.7142-1.065 1.1335.003.0193-.001.0391-.012.0554s-.027.0279-.046.0325c-2.201 2.0736-4.646 3.8718-7.28 5.355l-.45.4984c-.088.2443-.283.3029-.44.5081-.08.1187-.146.2466-.195.3811 0 .2443-.215.3323-.284.5473-.059.1489-.131.2927-.214.4299 0 .0684-.108.1564-.128.2248-.019.0684-.263.1465 0 .2833-.121.1773-.173.3928-.146.6059-.006.0961.023.1912.083.2669.059.0758.144.1269.239.1435.417.0723.844.0723 1.261 0 .686-.1638 1.344-.4272 1.954-.7817.782-.4398 1.564-.9186 2.316-1.4169.567-.3714 1.046-.8209 1.564-1.1043.088-.0684.137-.1759.224-.1954.037-.0691.095-.1241.167-.1564.066.017.136.0095.197-.021s.109-.082.135-.1451c.098-.1758.258-.3084.449-.3713.329-.1926.637-.4185.919-.6743.087-.069.188-.1186.296-.1456s.22-.0306.329-.0107c.069 0 .157 0 .157.0684s.166.1759.273.2443c.108.0684.088.1075.049.2541-.039.1465-.127.1074-.195.1758-.046.0446-.099.0809-.157.1075-.131.0044-.26.0351-.379.0905-.12.0555-.226.1344-.314.232-.313.1795-.617.3752-.909.5863l-.85.6156c-.086.0344-.16.092-.215.1662-.056.0515-.13.0801-.206.0801s-.149-.0286-.205-.0801c0 0-.088.0586-.088.127s0 .215-.127.2834c-.235.0692-.441.2134-.586.4104-.141.1232-.303.2193-.479.2834-.091.0595-.174.1319-.244.215-.163.1407-.344.259-.538.3518-.203.1608-.415.3108-.635.4495-.303.2063-.632.3737-.977.4983-.234.1312-.475.2487-.723.3518-.219.1241-.463.1976-.713.215-.264.0555-.532.085-.802.0879-.452.0011-.891-.151-1.246-.4313s-.604-.6725-.708-1.1126c-.039-.2066-.039-.4188 0-.6254.056-.3017.169-.5901.332-.8502.065-.218.168-.423.303-.6058 0 .0684.059.0684.108 0 .036-.0266.065-.0622.084-.1032.019-.0411.027-.0863.023-.1313h-.107c-.049-.1759.087-.2639.195-.3518.107-.088 0-.1564.127-.1759.127-.0196 0-.0587 0-.0587l.068.0587c0 .0684.059.0684.079 0v-.0587.0587c.031-.0339.055-.074.07-.1178.016-.0437.021-.0902.018-.1363h-.108c.105-.3377.293-.6436.547-.8892.069.0586.069.0586.069.0781 0 .0196 0 0 0-.0781h-.108c-.001-.0752.025-.1481.074-.2055.048-.0574.116-.0955.19-.1072h-.068.068v.0684c.016-.004.03-.0127.04-.0249.011-.0123.017-.0275.019-.0435h-.059c0-.088 0-.1564.059-.1759v.1759c.039-.0234.071-.0584.09-.1003.02-.042.025-.0889.017-.1343h-.078c0-.0879 0-.1074.078-.1074v.1074s.088-.0879.137-.1074h-.098c0-.1955.088-.2639.245-.3518 0 .1075.068.0879.107 0h-.107c-.001-.0391.008-.0778.027-.112.019-.0343.047-.0631.08-.0835v.1955c.039-.0159.071-.0431.094-.078s.034-.0759.033-.1175c.068 0 .108-.0586.108-.1465l.068-.088h-.068v-.0879c.153-.4119.417-.7737.762-1.0456.007-.1049.044-.2055.106-.2903.063-.0847.148-.1501.246-.1885.011-.0943.049-.1833.109-.2561.061-.0729.142-.1265.233-.1544v.1564c.014-.0512.014-.1052 0-.1564h-.108c0-.0879 0-.1075.108-.1075v.1075s0-.0879.068-.1075h-.068v-.0879c.125-.2302.307-.4251.527-.5668h.069-.088v-.127c.215-.2345.391-.5375.625-.7818.801-.7622 1.564-1.5635 2.345-2.2768.312-.3701.67-.6986 1.065-.9772.789-.5849 1.622-1.1077 2.492-1.5635.461-.1442.959-.1129 1.398.088.131.0585.248.1452.342.254.043.0637.071.1371.079.2138.009.0767-.002.1543-.03.226-.06.1959-.167.3739-.313.5179l-.381.5472c0 .1759-.284.1759-.352.2834s0 0 0 .1075h.107s.108-.1075.127 0c.02.1075 0 0 0 .0879-.04.0467-.095.0778-.156.088-.176-.088-.283 0-.371.1759v.0879h.068.108.068c-.083.0215-.171.0215-.254 0-.176 0-.176.1075-.195.2736-.02.1661 0 0-.088.088h.263c.019.0434.027.0905.024.1377-.003.0471-.016.0929-.04.1337s-.057.0756-.096.1014c-.04.0258-.085.042-.132.0474zm-10.593 9.6643c-.043-.0267-.089-.0496-.136-.0684h-.059v-.3224c-.088 0-.137.0683-.088.0879v.2345c-.156 0-.127.1368-.127.1955h.078s0 .0684.069.0879c.068.0195.068-.0879.068-.0879.039-.014.075-.0337.108-.0587 0 0 .039-.0684.087-.0684zm.215-.9772v-.1954c-.087 0-.087.1075-.087.215-.176 0-.215.1759-.215.2834.04.0027.08-.0038.117-.0191.037-.0152.071-.0388.098-.0689 0 .0684.068.0684.068.088 0 .0195 0 0 0-.088.166-.0879.166-.1759.019-.215zm.372-.7622c-.176 0-.245.1759-.225.3323.117-.0684.264-.1564.225-.3323zm.977-1.1921c-.009-.0044-.019-.0066-.029-.0066s-.02.0022-.03.0066v-.2639c-.195 0-.244.1466-.215.2541h.049s0-.0586.137-.0586v.0586c.018.01.039.0134.059.0098zm.156-.6059c.062-.0319.128-.055.196-.0684-.021-.0834-.021-.1707 0-.2541-.205.0782-.225.1271-.225.3225zm.303-.5472c-.037.0224-.064.0578-.077.0993-.013.0414-.009.0861.009.1254.088-.0293.088-.1172.039-.2247zm.176-.127c.108 0 .176-.1271.176-.303-.038.0049-.074.0184-.107.0394-.032.021-.059.049-.078.0819-.02.0329-.032.0699-.036.1081-.003.0382.002.0767.016.1126zm9.489-8.4918c-.017-.0379-.043-.071-.076-.096-.033-.0251-.072-.0413-.113-.0472-.041-.0058-.083-.0012-.122.0136s-.073.0392-.1.071c-.248.2388-.527.4426-.83.6058-.403.2152-.788.4602-1.153.7329-.088 0-.108.1564-.196.1564-.358.218-.686.4807-.977.7817-.371.215-.606.6254-.977.9088-.251.3408-.543.6494-.87.9186 0 .0586-.127.1074-.147.1661-.126.1775-.266.3442-.42.4983-.127.1759-.342.3909-.469.5668s-.225.3518-.371.4984c-.147.1466-.176.1954-.225.3029s-.107.1564-.166.2638c-.099.0827-.194.1708-.283.2639-.088.1075-.137.2345-.196.3029-.025.0162-.045.0378-.061.0632-.015.0254-.024.0539-.027.0834 0 .1954-.176.2638-.283.4397-.353.3497-.68.7254-.977 1.1238-.137.1563-.157.3713-.313.4983-.156.1271-.127.1564-.127.3323.195.0586.391-.2443.498-.3323.694-.4495 1.192-.7328 2.082-1.4071.854-.645 1.66-1.3504 2.413-2.1107.694-.772 1.671-1.4951 2.346-2.2769.478-.5374.908-1.1042 1.368-1.6514.179-.2561.33-.5314.449-.8208.133-.1892.244-.3924.332-.6059.02-.0879-.039-.1563-.039-.2443zm-9.372 8.1204c.196 0 .254-.1075.254-.3029-.136.1075-.254.215-.254.3029zm.254-.3029c.083-.0328.154-.0893.204-.1623.051-.073.078-.1594.08-.2481-.073.0426-.134.1023-.178.1738s-.07.1527-.076.2366zm.548-.5179v-.2443c-.038.0275-.068.0646-.087.1075-.019.043-.026.0902-.021.1368zm0-.2443c.176 0 .176 0 .234-.215-.054.0066-.103.0317-.141.0708-.037.0392-.06.0902-.064.1442zm.088 6.8403h.176c.684-.2976 1.339-.6609 1.954-1.0847.482-.2973.945-.6236 1.388-.9772.065-.0053.13-.0053.195 0 0-.0879 0-.127.088-.1661.322-.1954.606-.4397.977-.6547s.391-.3225.606-.4593c.225-.0688.428-.1971.586-.3713 0 0 0-.0586.088-.1466-.146 0-.254.088-.391.1075-.352.2881-.721.5556-1.104.8013-.222.1599-.454.3067-.694.4397-.518.342-1.084.6254-1.544.9772-.459.3518-.977.6449-1.426.9772-.084.0899-.193.1514-.313.1759-.228.0618-.426.2042-.557.4006zm.557-7.5927c-.127 0-.186 0-.186.1759.195.0195.215.0195.215-.1564zm.547-.4398v-.2638c-.147.1075-.323.1759-.323.4299.11-.0651.229-.1144.352-.1465zm.234-.6058c-.107 0-.127.127-.107.2443.137-.0489.186-.0978.137-.2248zm3.636.342-.088-.1075c-.124.0738-.234.1699-.323.2834.038.0207.08.0326.123.0347s.086-.0057.125-.0226c.04-.017.075-.0427.103-.0753s.049-.0711.06-.1127zm.801-.7818c-.055-.0182-.1-.0567-.127-.1075-.088.0587-.215.088-.215.2346 0 .1465.107 0 .107.0684s.215-.0391.215-.1661zm.107-.2443v-.0586s0 0-.078.0586h.078v.1075c.049 0 .088-.0586.108-.1075zm.44-.4495-.088-.0684-.352.1955v-.0684.0684.2149c.049 0 .088.0684.108.1075.118-.1294.222-.2701.312-.4202zm-.244 5.8631c.049.0154.103.013.151-.0066s.088-.0552.113-.1008h-.108c-.068.0195-.176.0684-.176.1758zm.694-6.5569c0 .1075-.079.1075-.196.1075s-.107.0684-.078.1955c.029.127 0 .1074 0 .127 0 .0195.068 0 .156-.1075.077-.1093.192-.1859.323-.215-.069-.0684 0-.215-.127-.215s-.088.0684-.118.1075v-.1075s0 .0684-.058.0684c-.059 0 .058.1075.078.1075z"/><path d="m136.24 53.9692c-.35.0549-.697.1332-1.036.2346-.025.0486-.062.0892-.109.1169s-.101.0414-.155.0394c-.275.0011-.549.0207-.821.0586-.39.0252-.782.0252-1.172 0-.655 0-.636-.0879-1.027.4789l-.752.8013c0 .0586 0 .0879-.088.127-.635.3909-1.153.8892-1.808 1.241-.431.2374-.914.3649-1.407.3713-.37-.0152-.719-.1735-.974-.4415-.256-.2681-.397-.6248-.394-.9949.002-.2021.045-.4017.127-.5863.169-.7791.528-1.5043 1.046-2.1107.234-.2737.43-.5864.694-.8697.09-.0723.163-.1647.212-.2698s.074-.2201.071-.3361c-.032-.2133.021-.4306.147-.6059.147-.1654.307-.319.478-.4592.283-.1371.573-.2578.87-.3616.123-.0743.268-.1052.41-.0879.203-.049.414-.049.616 0 .16.0123.32-.011.469-.0684.313-.1075.547.0684.811.1563.108 0 .108.1954 0 .2541-.107.0586-.137 0-.068.0684.082.1555.184.2999.303.4299.204.2268.344.5037.406.8025s.043.6087-.055.8978c-.087.2346-.156.4984-.283.7622.351.0781.714.0781 1.065 0 .518-.0879 1.036-.2052 1.583-.3126.322-.0952.648-.1735.977-.2346.171-.0456.327-.1368.45-.2638.177-.0563.361-.0859.547-.088.069-.0586.196.3127.196.3323zm-5.267.3421s-.088-.0001-.108-.088c-.744-.1399-1.411-.5464-1.876-1.1433-.108-.1173-.195-.1173-.225 0-.202.285-.37.5934-.498.9186-.196.4104-.391.8012-.626 1.2117-.234.4104-.283.7817-.459 1.1042-.058.1368.069.2443.196.2834h.351c.21.0162.421-.0278.606-.1271.774-.3843 1.491-.8743 2.13-1.456.168-.1845.347-.3575.538-.5179 0 0 .029-.1856-.059-.1856zm.889-3.3225c-.049-.0599-.108-.1097-.176-.1466 0 0-.108 0-.127 0-.303.1457-.589.3261-.85.5375-.298.1911-.583.4034-.85.6352l-.479.4299c-.025.012-.046.0308-.06.0541-.015.0233-.023.0503-.023.0778 0 .0276.008.0546.023.0779.014.0233.035.0421.06.0541 0 .0586.137.127.156.1954.21.1921.466.3267.743.3909.369.1379.752.233 1.143.2834.083.0182.169.0112.247-.0201.079-.0314.146-.0857.193-.1558.241-.3728.389-.7987.43-1.2411.039-.216.02-.4387-.055-.6448-.076-.2062-.205-.3884-.375-.5278z"/><path d="m149.705 52.9631c-.207.239-.447.4464-.714.6156-.302.2429-.63.4526-.977.6254-.287.1586-.556.3487-.801.5668-.196.1466-.391.254-.587.4104-.233.1395-.458.2929-.674.4593-.501.4119-1.1.6878-1.739.8013-.127 0-.235.0684-.391.0684-.148.0634-.314.0695-.465.0171-.152-.0524-.279-.1596-.356-.3005-.01-.0568-.033-.1105-.068-.1564-.112-.0787-.2-.1872-.254-.3133-.053-.1261-.07-.2647-.049-.4v-.2639c-.022-.2568.039-.514.176-.7328.045-.1737.104-.3436.176-.5082h-.049c-.069 0-.088 0-.088 0-.372.3518-.782.6547-1.153.9772l-1.105.8306c-.145.0951-.277.2103-.39.342-.364.3225-.794.5595-1.261.6938-.089.0703-.202.1034-.315.0925s-.217-.0651-.291-.1511c-.176-.1397-.307-.3283-.376-.542-.07-.2138-.075-.4434-.015-.6599.109-.4376.291-.8538.538-1.2313.432-.7564.936-1.4697 1.505-2.1303.215-.2345.342-.2345.566 0 0 0 .088.0587.088.1271s.078.1759 0 .215c-.119.1293-.214.2781-.283.4397-.15.3008-.32.5913-.508.8697-.143.2237-.274.4553-.391.6938-.166.2834-.362.557-.518.8892-.088.1271-.108.303-.195.4104l.107.0684c.136-.0532.267-.1186.391-.1954.655-.5081 1.309-.9772 1.954-1.456l2.648-1.9544c.132-.098.287-.1588.45-.1759h.117c.117 0 .147.0587.215.1271.069.0684.284.1759.196.3713-.012.1096-.035.2177-.069.3225-.195.1759-.264.4593-.43.6058l-.117.0684c-.254.6254-.625 1.2411-.86 1.8665 0 .1563 0 .1758.088.1758.36.0518.726-.0243 1.036-.2149.713-.4202 1.348-.8502 2.003-1.3095.655-.4592 1.358-.8208 2.081-1.3387l.284-.1759c.498-.3518.625-.4104.977 0 .156.1857.02.3518-.107.4593zm-2.932 1.241c-.176 0-.283.0684-.303.2345.071.0084.143-.0115.199-.0554.057-.0438.094-.1081.104-.1791zm.264-.1759h-.088c-.056.039-.1.0933-.127.1564.078.0057.155-.0188.215-.0684zm.713-.1759c-.088 0-.176 0-.195.1564.107 0 .176 0 .195-.1564zm.694-.4104c-.166 0-.283 0-.322.2248.156 0 .234-.088.322-.2248zm-.215-.1954c.017.0161.037.0288.059.0372.021.0084.045.0123.068.0116h.088c.041-.0595.07-.1256.088-.1954-.068 0-.176 0-.195.1075z"/><path d="m166.493 53.5794c-.439.1661-.85.3029-1.309.4495-.125.0909-.276.1389-.43.1368-.147 0-.215 0-.176.1954l-.127.0587-2.345.9772c-.626.2345-1.32.4983-1.886.6938-.31.1634-.638.2881-.977.3713-.343.1154-.711.139-1.066.0684-.088-.0684-.263-.1564-.371-.2248-.133-.1249-.254-.2624-.362-.4104-.086-.1193-.134-.2627-.136-.4104-.052-.7127.031-1.4287.244-2.1107.095-.2065.167-.4228.215-.645.047-.1552.07-.3166.068-.4788 0-.1563 0-.1759-.136-.0684-.518.1759-.978.3713-1.476.5472-.283.1271-.459.2834-.713.4105-.254.127-.714.4592-1.065.7133-.127.1368-.411.1368-.548.3322-.686.4546-1.319.9857-1.886 1.5831-.107.0879-.215.215-.303.3029-.202.3142-.485.5675-.82.7329-.088.0879-.137.1759-.225.2638-.056.0135-.113.0144-.169.0025-.056-.0118-.108-.036-.154-.0709-.176-.3029-.371-.6254-.176-.9771.072-.2088.16-.4114.264-.6059.108-.2638.235-.4593.352-.7133.025-.1093.083-.2082.166-.2834.487-.7354.853-1.5436 1.085-2.3941.107-.2346.264-.303.459-.2346.232.1092.433.2736.586.4789.088.0879 0 .127 0 .1759-.188.1945-.308.4448-.342.7133-.074.0804-.128.1776-.156.2834-.263.414-.504.8413-.723 1.2801-.064.0907-.107.194-.127.3029.041.015.086.015.127 0 .44-.3029.831-.557 1.241-.8892.417-.3771.876-.705 1.368-.9772.281-.1984.578-.3717.889-.5179.304-.2355.632-.4385.977-.6059.224-.0807.434-.1926.626-.3322.202-.1205.414-.2219.635-.3029.187-.0952.398-.1327.606-.1075.055.0272.104.0636.146.1075.118.1563.284.3322.391.4983.03.0921.03.1913 0 .2834-.107.5277-.234 1.0456-.361 1.5831-.127.5374-.176.8306-.264 1.2019-.082.1204-.12.2653-.108.4104 0 .2345.108.3029.372.2541.567-.0544 1.128-.169 1.671-.342.416-.1969.844-.3698 1.28-.5179.371-.1564.694-.3323 1.085-.4593.39-.1271 1.045-.4104 1.514-.5472.469-.1369.899-.3421 1.398-.5375.498-.1954.82-.3029 1.231-.5179.137-.0879.371 0 .567-.0684.009-.0018.019-.0012.028.0016s.017.0078.024.0146c.007.0067.012.015.014.0241.003.0091.004.0187.002.0281-.088.2834.195.5179-.694.8697zm-6.537 2.0325h-.235s0 .0684.088.0684c.029.0043.058.0001.084-.0121s.048-.0317.063-.0563zm.303-.0781s-.235-.0684-.284.0586h.157c.127 0 .127 0 .127-.0586zm1.954-.7036h-.176c-.068 0-.088 0-.156.1368.098.0195.225.0195.332-.1368zm.557-.1857c-.09-.019-.184-.0174-.273.0046-.09.0219-.173.0638-.245.1225.084.0137.171.0095.253-.0124.083-.0219.16-.061.226-.1147zm.332-.1563h-.156c-.043.0017-.084.0182-.116.0467s-.053.0673-.06.1096c.117 0 .244.0196.293-.1563zm3.645-1.2606s-.068-.0879-.068 0c-.247.025-.488.091-.713.1954 0 0-.108.1075-.176.0587-.284-.0587-.499.1172-.782.2052-.088 0 0 .1856-.215.1856-.076.0046-.15.0281-.215.0684-.096.0456-.198.0753-.303.088-.352.127-.694.215-.977.3518-.069 0-.157.0586-.157.127.157.088.284 0 .43 0 .528-.21 1.066-.3926 1.613-.5472 0 0 .058 0 .127-.0684.068-.0684.332-.1075.44-.1857.347-.0823.678-.2245.977-.4202 0 0-.02-.0586-.02-.0586z"/><path d="m172.053 57.4868c-.068 0-.088 0-.127.0586-.039.0587 0 .3518-.244.4105-.033.036-.051.083-.051.1319 0 .0488.018.0959.051.1319v.1075c-.127 0-.254 0-.196.1759-.048.0237-.088.0617-.114.1089-.027.0471-.038.1012-.032.1549 0 .1466-.157 0-.196.0782-.176.3322-.351.6156-.518.899-.151.3047-.36.5769-.615.8013-.166.2345-.303.3616-.479.5863-.176.2248-.147.215-.303.215-.004.08-.025.1582-.062.2291s-.089.1328-.153.1813c-.211.2567-.443.4953-.694.7134-.176.1172-.283.3126-.479.3713-.037.0491-.088.0864-.146.1075-.44.2638-.743.1759-1.065-.2541-.315-.4085-.455-.9248-.391-1.4365.003-.3803.133-.7487.371-1.0455.303-.4502.629-.8841.977-1.2997.235-.1954.43-.4104.675-.6059.652-.5713 1.341-1.1 2.062-1.583.057-.0127.117-.0127.175 0 0 .1466-.175.1661-.263.2541-.235.1759-.43.3029-.606.4592-.04.0303-.072.0686-.096.1124-.023.0438-.038.0921-.041.1417.179-.0992.349-.2136.508-.342.408-.3649.865-.6707 1.358-.9088l.157-.1954c.252-.0603.488-.1735.694-.3323.087-.0879.087-.1075.156-.1465.068-.0391 0-.1368-.069-.1759.069 0 .069-.1271.088-.1759.212-.1598.383-.3675.499-.6059.053-.161.151-.3034.283-.4104.006-.0678.037-.1308.088-.1759.008-.1301.046-.2567.11-.3701.065-.1135.154-.2108.261-.2846-.009.0385-.009.0787 0 .1173-.009.0252-.009.0528 0 .0781v-.0781-.1369h-.088c.093-.3641.238-.713.43-1.0358.176-.4104.372-.7817.548-1.1531 0 0 0-.0684 0-.0879 0 0-.069 0-.108.0684-.043.0276-.08.0643-.107.1075-.332.3579-.695.685-1.085.9772-.283.1954-.498.4397-.782.6058l-.889.7818c-.352.3713-.782.6547-1.094.9772-.371.3267-.785.5997-1.232.811-.194.0705-.377.1658-.547.2834-.172.0628-.355.0894-.537.0782-.181.0151-.362-.0318-.513-.133s-.263-.2507-.318-.424c-.075-.1641-.113-.3424-.113-.5228s.038-.3587.113-.5228c.117-.2742.286-.5231.498-.7329.509-.6106 1.101-1.1468 1.759-1.5928.61-.4173 1.243-.7991 1.896-1.1433.362-.1173.782-.3713 1.143-.4788.086-.0291.179-.0291.264 0 .393.0111.771.152 1.075.4006 0 .0587.108.0587.196 0 .245-.2474.506-.4791.781-.6938.061-.0544.127-.1034.196-.1466.195-.2833.459-.2149.625.088v.1466c-.232.6889-.503 1.3642-.811 2.0227-.108.2495-.239.4883-.391.7134-.185.274-.33.5735-.43.8892 0 .1075 0 .1955-.088.215-.111.1497-.185.324-.215.5082.284 0 .411-.1759.675-.2639.154-.1031.332-.1638.517-.1759-.291.1883-.595.358-.908.5082-.069 0-.176 0-.284 0v-.1075c-.068 0-.068.0879 0 .1075-.049.1661-.195.1661-.244.2833-.049.1173-.078.0587 0 .0782.078.0196 0 .088 0 0 .281-.1095.556-.2368.821-.3811.303-.1563.655-.3127.977-.4397.323-.1271.831-.3909 1.241-.5863 0 0 0 0 0-.0684-.185.0041-.367.0439-.537.1172-.062.0483-.133.0828-.209.1014-.075.0185-.154.0206-.231.0061 0 0 0-.0684.068-.1075.446-.2288.919-.3995 1.407-.5081.386-.1523.79-.2541 1.202-.3029.362-.215.626 0 .86.2833.069.0684.284.1075.284.2834s-.088.2443-.166.2443h-.088c-.206-.0721-.425-.0998-.642-.0813-.217.0186-.428.0829-.619.1888-.057-.0209-.119-.0209-.176 0-.067.0471-.147.0724-.229.0724-.083 0-.163-.0253-.23-.0724 0-.0684.088-.0684.176-.1075s0-.0684.127-.1172c-.191.0051-.38.0448-.557.1172-.049 0-.049.0782-.088.1075h.283v.1661c-.153.0137-.306.0137-.459 0l.088-.0879s0-.0684.107-.1075c-.316.0024-.625.0975-.889.2736-.244 0-.44 0-.547.2345.094.0198.19.0205.284.002.095-.0185.184-.0557.263-.1095-.007.0788-.038.1536-.088.215-.019.0269-.047.0463-.079.0552s-.066.0066-.097-.0063c-.028-.0207-.062-.0318-.097-.0318s-.07.0111-.098.0318c-.127 0-.215 0-.342 0v-.1173c-.088 0-.176 0-.225.1173h.225c.001.0844-.023.1672-.07.2371-.048.0699-.115.1236-.194.1538-.156 0-.283 0-.41 0l.215-.1075c.107 0 .234-.0684.234-.2346-.196.0314-.384.0976-.557.1955-.228.1016-.447.2225-.655.3615 0 0-.107.0684-.107.088.215.0684.371-.0586.518-.088.146-.0293.068-.0879.156-.0879s0 0 0 .0879v.0684c-.146.0798-.296.1516-.449.215-.137.088-.157 0-.284-.0586v-.1368c-.171.0695-.338.1511-.498.2443-.156.127-.088.215-.088.3029h.059-.059c-.07.0726-.153.1321-.244.1759v.0684c-.127.1954-.274.3909-.391.5863-.117.1955-.078.2345-.196.2541.004.0812-.018.1614-.064.2285s-.113.1173-.19.1428c-.088 0-.088.088-.088.1759v.0684s.137.215.137.1759zm-.371.0586v-.2149c-.023.0291-.053.0523-.087.0676s-.071.0222-.109.0203c0 .127 0 .1954-.127.2541-.006-.0463-.002-.0935.013-.1377.016-.0442.041-.0841.075-.1164 0-.1563.088-.2638.235-.2834.042-.1054.077-.2131.107-.3225v-.0879h-.088c-.177.232-.408.4167-.674.5375-.107.0684-.195.1563-.342.2638-.459.3225-.918.6743-1.368.9772-.449.3029-.567.5667-.85.8306-.136.1113-.26.2356-.371.3713-.205.1343-.362.329-.45.557l-.176.2248c-.331.3942-.569.8587-.694 1.3583-.005.0291-.005.0588 0 .0879-.01.0599-.006.1216.013.1795.018.058.051.1104.095.1527.049.0421.109.0698.172.0801.064.0104.13.0029.189-.0214.171-.0164.335-.0734.479-.1661.294-.1965.571-.4154.831-.6548.108-.1502.232-.2879.371-.4104.118-.2789.319-.5144.577-.6742 0 .2833-.235.3713-.411.6058 0 0-.107 0-.127.0684-.019.0684 0 .1759-.127.215-.195.2345-.352.4593-.567.6743-.087 0-.107.1075-.087.2149.214 0 .283-.1759.39-.2638.166-.2407.371-.4521.606-.6254.157-.215.323-.4397.499-.6547.344-.4058.642-.8482.889-1.3192l.049-.2639-.196.1075c0-.1954 0-.2833.196-.3029 0-.127 0-.1954.088-.2345s.088-.1368.146-.1368c.059 0 0-.1661.088-.215s0 .1759-.068.215c-.069.0391 0 .1368-.108.1368-.002.0483-.017.0953-.042.1363-.026.0411-.062.0749-.104.0982v.1954c0-.0879.146-.0879.176-.1074.239-.3013.442-.6292.605-.9772.102-.142.197-.2887.284-.4398zm-3.557 4.6905c-.092.0037-.181.0344-.256.0882-.075.0539-.132.1286-.164.2148.264.0488.371-.1466.42-.303zm-.049-3.4104v.1564c.304-.1927.558-.4537.743-.7622-.013-.0103-.028-.016-.044-.016s-.032.0057-.044.016c-.242.1746-.462.3781-.655.6058zm5.257-7.3777h-.176c.067-.0963.126-.1976.176-.3029 0-.088 0-.1564 0-.2443 0-.088-.176-.0587-.264 0l-.146.1075c-.069.0684-.108.1368-.196.1759-.303.0879-.547.3517-.83.4592-.284.1075-.606.43-.909.5863-.321.1332-.594.3617-.782.6548v.0586c-.609.4216-1.158.9247-1.632 1.4951-.128.1625-.225.3483-.283.5472.222.0103.443-.044.635-.1563.274-.1075.518-.3225.801-.4495l.255-.1564 1.387-.9772c.635-.4983 1.241-.9772 1.827-1.5244.047-.0277.085-.0682.109-.1167s.034-.103.028-.1569zm-4.407 6.6449c.284 0 .411-.1955.538-.4202-.112.0093-.22.0463-.314.1077-.094.0615-.171.1453-.224.2441zm1.192 1.5146c0 .0667-.017.1324-.047.1918-.031.0593-.075.1108-.129.1502-.083.2372-.254.4332-.478.5472.031-.1218.088-.2354.168-.3332.079-.0978.178-.1774.291-.2335-.011-.0682.003-.1379.039-.1969.036-.0589.091-.1034.156-.1256zm.264-.3518c.008.0502-.001.1017-.026.1461-.024.0443-.064.079-.111.0982 0-.127 0-.2345.137-.2834zm1.065-2.9902c-.061-.0181-.127-.0156-.187.0074-.06.0229-.111.065-.145.1197-.127 0-.215.1074-.283.1074v-.1074c.335-.2235.692-.4133 1.065-.5668 0 .1368-.137.1759-.196.215-.053.0091-.104.0306-.149.0628-.044.0322-.08.0743-.105.1228zm-.283 1.798c.001.074-.026.1457-.075.2015-.048.0558-.116.0919-.189.1015-.01-.0404-.011-.0826-.003-.1234s.026-.0792.051-.1122c.026-.0329.058-.0597.096-.0781.037-.0185.078-.0282.12-.0283zm.195-.3517c-.003.0697-.022.1379-.056.1989-.034.0611-.081.1134-.139.1528-.028-.0803-.024-.1686.013-.2455.037-.0768.102-.1361.182-.1649zm.567-.6938c-.079.031-.148.0855-.195.1563v.1759c.166-.0879.195-.1954.195-.3713zm0-.557c.059-.088.127-.1075.166-.215s0 0 0 0c-.076.0633-.167.1069-.264.127 0 0-.019.0489.069.0489zm.156.3615c-.156 0-.127.088-.127.1955 0 .1074.098-.1466.098-.2346zm-.127-1.0358c0-.1075.127-.0879.215-.0879s-.117.0879-.244.0488zm.255.7133c-.069.0587-.088.1271-.088.2737.088 0 .127-.1466.175-.215-.004-.0276-.019-.0527-.04-.0706-.022-.0179-.049-.0275-.077-.0271zm2.931-2.3647c-.088-.0684 0-.1271.088-.1271.089-.0453.185-.0751.283-.0879-.048.0641-.112.1142-.186.1451s-.154.0415-.234.0308zm.479.2345c-.043-.007-.086-.0003-.125.019s-.07.0502-.09.0885c.107 0 .215.0488.254-.1075zm1.231-.3029c0 .0879-.088.1074-.146.1954-.059.0879-.196.1075-.303.0684-.108-.0391-.108-.0684-.196-.0879v-.088h.303c.085-.0674.186-.1112.293-.127zm.137-.6059c-.088 0-.225 0-.244.127-.02.1271.127.0098.195-.1661zm.303-.0879c-.108 0-.264 0-.303.0879h.195c.01-.0391.059-.0586.059-.127zm.322-.0684h-.088c-.037-.0178-.081-.0206-.12-.0079-.04.0126-.074.0399-.095.0763h.245c.014.0013.028-.0032.039-.0123.011-.0092.018-.0224.019-.0366.002-.0143-.003-.0284-.012-.0394s-.022-.0179-.037-.0192zm.89.0684c-.249-.0034-.495.0572-.714.1758.241.0127.477-.0639.665-.2149zm-.411-.2834h.323.049c.048 0-.069 0-.088 0-.103-.0535-.221-.0674-.333-.0391z"/><path d="m189.642 53.7459s-.107.0586-.137.0586c-.36.0771-.708.202-1.035.3713-.548.2346-1.085.4398-1.613.6548-.058 0-.146-.0001-.166.0879-.463.2531-.943.4751-1.436.6645-.479.1954-.977.4202-1.407.6352-.658.3766-1.381.6252-2.131.7328-.127 0-.215 0-.303.1564-.389.1194-.811.0808-1.172-.1075-.214-.0572-.409-.1682-.567-.3225-.228-.1926-.389-.4526-.459-.7426-.093-.3192-.093-.658 0-.9772l.156-.2834c.336-.7666.856-1.4381 1.515-1.9544.585-.5686 1.242-1.0581 1.954-1.456.23-.1722.498-.2862.782-.3322.195-.0782.449-.1075.645-.1955.104-.0974.238-.1563.38-.167.142-.0106.284.0276.402.1084 0 .0586.107 0 .195.0586.088.0587.215 0 .244.088.135.1438.25.3048.342.4788.096.1209.148.2707.148.4251 0 .1543-.052.3041-.148.4251-.283.342-.459.7329-.889.9087l-.313.1955c-.586.4443-1.282.7212-2.013.8013-.204.066-.421.0893-.635.0684-.273 0-.625-.0684-.977-.0684-.037-.0028-.075.0038-.109.0192-.034.0153-.064.039-.086.0687-.392.4626-.721.9752-.978 1.5244-.017.0377-.027.0785-.028.12s.007.0828.022.1213c.016.0385.039.0734.069.1025.029.0291.065.0518.103.0666.245.0685.528.1955.743.0685.472-.0318.938-.1203 1.388-.2639.376-.1147.744-.2518 1.104-.4104.42-.1954.743-.3713 1.114-.5668.107.1271.107.1271.215 0 .158-.1583.353-.2757.567-.342 0-.0879.146-.0879.283-.1368.713-.3029 1.446-.6743 2.121-.9772.204-.0968.416-.1753.635-.2345.189-.0749.369-.1699.537-.2834.108-.0576.235-.0714.353-.0387s.219.1095.282.2146c.054.0578.121.1014.196.127.146.1857.234.43.107.5082zm-8.491 0c.068.0684.195 0 .263 0 .094-.0204.19-.0204.284 0l.625-.1075c.25-.079.495-.1737.733-.2834.554-.1607 1.071-.426 1.524-.7817.247-.1559.438-.3848.548-.6548.058-.0586.058-.1954.058-.3029s0-.1466-.107-.2345c-.108-.088-.147 0-.176.0879-.029.088-.127.1075-.254.1075-.484.0336-.952.181-1.368.43-.503.2796-.977.6068-1.417.9772l-.586.5667s-.147.1955-.127.2639z"/></g></svg>