<svg fill="none" height="200" viewBox="0 0 300 200" width="300" xmlns="http://www.w3.org/2000/svg"><path d="m0 0h300v200h-300z" fill="#fff"/><path d="m184.999 167.441 1.641 31.514s-69.425-66.078-78.074-85.411c-8.6496-19.3338 7.631-67.1587 7.631-67.1587l36.123 19.8422z" fill="#e7bda6"/><g fill="#ffd0b6"><path d="m78.548 33.1572-10.6842 1.0176s-5.5966 12.2106 11.7018 13.2282z"/><path d="m78.548 51.9819-10.6842 1.0176s-5.5966 12.2106 11.7018 13.2282z"/><path d="m78.548 72.333-10.6842 1.0176s-5.5966 12.2106 11.7018 13.2281z"/><path d="m81.6008 92.6841-10.6843 1.0175s-5.5966 12.2104 11.7018 13.2284z"/></g><path d="m73.3467 38.0626h.8107v-22.2087c0-1.688.3325-3.3595.9784-4.919.646-1.5595 1.5928-2.9765 2.7864-4.17009s2.6105-2.1404 4.17-2.78636c1.5595-.64597 3.231-.97845 4.919-.97845h47.0528c1.688 0 3.359.33247 4.918.97843 1.56.64596 2.977 1.59277 4.171 2.78636 1.193 1.19358 2.14 2.61057 2.786 4.17011.646 1.5595.978 3.2309.978 4.9189v121.8392c0 1.688-.332 3.359-.978 4.919-.646 1.559-1.593 2.976-2.786 4.17-1.194 1.194-2.611 2.14-4.17 2.786-1.56.646-3.231.979-4.919.979h-47.0527c-3.4091 0-6.6785-1.354-9.0891-3.765s-3.7648-5.68-3.7648-9.089v-83.8218h-.8107z" fill="#3f3d56"/><path d="m86.4922 6.34425h6.1419c-.2825.69247-.3903 1.44378-.314 2.18774.0763.74395.3344 1.45773.7516 2.07841.4171.6207.9805 1.1293 1.6405 1.481s1.3964.5357 2.1443.5357h26.9555c.748 0 1.484-.184 2.144-.5357s1.224-.8603 1.641-1.481c.417-.62068.675-1.33446.752-2.07841.076-.74396-.032-1.49528-.314-2.18775h5.736c2.546 0 4.987 1.01132 6.788 2.8115 1.8 1.80016 2.811 4.24176 2.811 6.78756v121.6607c0 1.26-.248 2.508-.73 3.673-.483 1.165-1.19 2.223-2.081 3.114-.892.892-1.95 1.599-3.114 2.081-1.165.483-2.413.731-3.674.731h-47.2788c-1.2606 0-2.5088-.248-3.6734-.731-1.1647-.482-2.2229-1.189-3.1142-2.081-.8914-.891-1.5984-1.949-2.0808-3.114s-.7307-2.413-.7307-3.673v-121.6607c0-1.2605.2483-2.5088.7307-3.6734s1.1894-2.2228 2.0808-3.11415c.8913-.89136 1.9495-1.59842 3.1142-2.08082 1.1646-.4824 2.4128-.73068 3.6734-.73068z" fill="#fff"/><path d="m120.261 40.4272h-20.259v4.8887h20.259z" fill="#00bfa6"/><path d="m121.226 61.4336h-22.1879v4.8886h22.1879z" fill="#e5e5e5"/><path d="m134.893 71.9351h-49.5214v4.8886h49.5214z" fill="#e5e5e5"/><path d="m134.893 82.436h-49.5214v4.8887h49.5214z" fill="#e5e5e5"/><path d="m232.925 183.855-56.947-64.969-2.035-41.7198-21.368-35.6144-6.106-15.2632s-14.245 1.5263-2.544 30.5265l4.834 15.5177c-4.357 9.3841-6.614 19.6057-6.614 29.9522v35.558c0 8.373 39.9 53.981 44.544 60.947z" fill="#ffd0b6"/><g fill="#000"><path d="m148.144 44.5697 4.248-2.0877-.144-.2948-3.925 1.9292-5.926-15.5344-.306.1172z" opacity=".2"/><path d="m67.9206 34.0201-.1135.308 6.2931 2.3182.1135-.3081z" opacity=".2"/><path d="m67.9206 53.0596-.1135.3081 6.2931 2.3181.1135-.308z" opacity=".2"/><path d="m67.9206 73.4117-.1135.308 6.2931 2.3182.1135-.3081z" opacity=".2"/><path d="m71.2182 93.77-.142.2959 3.0638 1.4705.142-.2959z" opacity=".2"/></g><path d="m110.157 129.514c7.837 0 14.191-6.354 14.191-14.191s-6.354-14.191-14.191-14.191-14.1907 6.354-14.1907 14.191 6.3537 14.191 14.1907 14.191z" fill="#00bfa6"/><path d="m108.805 121.314-4.247-5.462 2.469-1.921 2.011 2.586 6.794-7.172 2.272 2.153z" fill="#fff"/></svg>