<svg fill="none" height="200" viewBox="0 0 300 200" width="300" xmlns="http://www.w3.org/2000/svg"><path d="m140.413 67.9218c2.292-27.4242 14.011-40.4905 6.507-48.6846-7.188-7.8488-27.435-6.2275-40.438 1.3041-35.0727 20.3144-47.9219 101.2797-2.789 140.8377 42.888 37.59 124.168 25.55 142.231-5.217 4.215-7.178 7.563-19.763 1.395-27.385-15.315-18.922-70.995 15.351-95.751-6.085-14.671-12.704-12.413-39.7199-11.155-54.7702z" fill="#3f3d56"/><path d="m167.223 54.2977c-.852.3665-1.517 1.0293-1.855 1.8475-.337.8182-.319 1.7272.049 2.5336.078.1628.17.3193.275.4679l-7.528 9.4 3.756 5.2504 8.824-13.9195c.625-.4559 1.071-1.0925 1.269-1.8105s.135-1.477-.177-2.1585c-.181-.3862-.443-.7352-.768-1.027-.326-.2918-.71-.5207-1.131-.6737-.42-.153-.869-.227-1.32-.2179s-.895.1012-1.308.2711c-.029.0118-.058.024-.086.0366z" fill="#ffb6b6"/><path d="m167.217 70.5043c.492.4086-.874.9129-2.32.1174-.413-.2304-.59-.326-.636-.2652-.117.1522.562 1.2737.381 3.7644-.112 1.4866-2.752 4.2816-5.75 7.0071-4.053 3.6861-8.766 7.2418-8.766 7.2418l-1.655-1.2389-17.351-13.01-2.929-3.7904c.269-1.4969.671-2.9699 1.204-4.4034.734-1.9842 1.607-3.9213 2.613-5.7987.539-1.0215 1.092-1.9952 1.622-2.8906l9.296 9.5804 7.79 8.0243s2.268-3.4166 4.025-4.3469c.224-.1338.479-.2157.744-.239 1.776-.0783 1.883-.9824-.177-2.9515-2.059-1.9691.54-.1304 2.371-.6607 1.831-.5304 0 0 .386-1.3258s5.522-3.9861 5.522-3.9861l.213.1782 3.882 3.2037 1.111.9172s-1.214 3.1123-1.548 3.7686c-.335.6564-.516.6912-.028 1.1041z" fill="#54917a"/><path d="m269.529 130.889.189-4.795-19.685-2.964-.28 7.076z" fill="#ffb6b6"/><path d="m265.956 132.332-.187-7.677 3.509.121 5.666-7.097c.28-.35.672-.608 1.119-.735.448-.128.927-.118 1.368.028.441.145.821.419 1.084.78.263.362.396.793.379 1.23l-.36 9.12-3.533 1.452 3.447.733-.136 3.439z" fill="#2f2e41"/><path d="m158.737 132.755 62.351 1.479s26.925 1.454 33.243-2.389l6.662-.787.361-9.151s-4.074.028-6.416-.992c-2.342-1.021-.715-2.27-2.948-1.042s-1.997 1.376-3.723.811c-1.727-.564-80.9-11.85-80.9-11.85z" fill="#2f2e41"/><path d="m240.899 128.784 3.626-3.394-12.275-14.694-5.352 5.01z" fill="#ffb6b6"/><path d="m237.229 125.831 5.447-5.747 2.484 2.321 9.315-1.599c.46-.079.935-.018 1.356.173.42.191.765.503.982.89.218.388.297.83.227 1.262-.07.433-.286.833-.617 1.142l-6.896 6.457-3.646-1.183 1.994 2.73-2.601 2.435z" fill="#2f2e41"/><path d="m134.138 100.821.62 13.475c.729 15.863 19.41 25.464 33.895 17.182.267-.153.535-.311.803-.475 0 0 5.492-1.379 5.325-3.563s1.175-3.247 2.362-2.651c1.187.595 16.732-20.035 16.732-20.035s32.295 15.066 39.42 18.612c0 0 6.698-9.795 6.213-9.692-.486.103-39.954-25.7309-39.954-25.7309s-6.43-6.0856-14.406-2.0675c-.166.5902-.024.6107-.024.6107l-26.347 20.0777-3.723-6.6121z" fill="#2f2e41"/><path d="m158.98 83.9749c-.05.6225-.145 1.2412-.284 1.8518-.189.8838-.495 1.7423-.911 2.5559 0 0 0 .9085-1.859 3.9513s.465 1.7387 1.859 3.9991c1.395 2.256 0 1.2171-1.547 2.6689-.446.4225-.763.949-.917 1.5241-.155.576-.141 1.18.038 1.749 0 0-19.968.013-23.687-1.291-3.718-1.3039-4.564-8.6501-1.231-9.376 3.328-.7259-1.009-1.4475-2.966-3.121-1.957-1.6736 1.957-4.4121 1.957-4.4121s-1.613-2.6037-1.478-11.3452c.019-.804.098-1.6058.237-2.3995.268-1.4968.671-2.9698 1.204-4.4033.734-1.9843 1.607-3.9213 2.612-5.7987.539-1.0215 1.092-1.9952 1.622-2.8906.084-.1391.163-.2739.247-.4086 1.008-1.6692 1.929-3.0341 2.537-3.9078.47-.6781.753-1.0607.753-1.0607l3.384-5.5031 11.295 4.9511-.641 8.0981 1.947 6.1073.897 2.8124.693 2.1691 1.069 3.3601s-.293.013.056.4607c1.605 1.9962 2.646 4.3391 3.026 6.8115.133.9437.163 1.8978.088 2.8472z" fill="#54917a"/><path d="m191.598 84.8477-.212-.0641-27.033-8.1412 9.961-30.5633c.199-.6086.542-1.1672 1.005-1.6336s1.033-.8285 1.667-1.0589c.634-.2305 1.316-.3234 1.994-.2716s1.335.2469 1.92.5705l17.276 9.5452c1.368.7547 2.408 1.9349 2.94 3.3342.531 1.3993.52 2.9288-.032 4.3211z" fill="#2f2e41"/><path d="m191.708 86.791-27.251-8.2066 9.961-30.5634c.199-.6086.542-1.1672 1.005-1.6336s1.033-.8285 1.667-1.0589c.634-.2305 1.316-.3234 1.994-.2716s1.335.2468 1.92.5705l18.101 8.4513c2.719 1.5021 2.656 5.3898 1.393 8.5797z" fill="#54917a"/><path d="m188.98 89.0023c-.627.3311-1.322.5365-2.039.6032s-1.441-.0068-2.126-.2158l-17.418-5.2457c-1.336-.4083-2.449-1.2892-3.101-2.4544-.651-1.1651-.789-2.5223-.385-3.7816l8.733-26.7926c.174-.5353.461-1.0326.844-1.4627.383-.4302.853-.7846 1.385-1.0424.531-.2578 1.111-.4138 1.708-.4589.596-.0451 1.196.0216 1.765.1962l18.051 5.5427c.86.2641 1.654.6866 2.337 1.2427.682.5562 1.239 1.2345 1.636 1.9951.398.7606.628 1.588.678 2.4333s-.082 1.6913-.388 2.4882l-9.337 24.3438c-.419 1.1054-1.251 2.0319-2.343 2.6089z" fill="#3f3d56"/><path d="m151.206 46.4518c6.891 0 12.476-5.2237 12.476-11.6673 0-6.4437-5.585-11.6673-12.476-11.6673-6.89 0-12.476 5.2236-12.476 11.6673 0 6.4436 5.586 11.6673 12.476 11.6673z" fill="#ffb6b6"/><path d="m109.019 46.6272c1.145 2.0754 3.022 3.7166 5.313 4.6452.915.3895 1.876.6741 2.864.8474.279-1.0352.726-2.0244 1.325-2.9332-.2 1.0243-.2 2.074 0 3.0984 1.504.1151 3.018-.0606 4.447-.5162 1.403-.4463 2.675-1.1922 3.716-2.1787 1.042-.9864 1.823-2.1861 2.282-3.504.993-3.0927-.077-6.3958-.161-9.6239-.087-3.2285 1.552-7.0899 4.979-7.4893 2.61-.3047 2.287-.0681 4.163 1.6561-2.624 2.7251 3.771 14.7948 7.203 14.2615 1.94-.3015 3.368-1.742 3.751-1.692 1.965 4.5-3.945 10.8821.742 12.9772l-.347-.4304c-2.454-3.7909 4.806-10.1935 2.353-13.9844-.684-1.0605-1.396-2.3037-.972-3.4769.401-1.1153 2.435-1.4683 2.865-.4532-.698-2.3268 1.25-5.0579 3.837-5.2953 2.298-.2121 2.165.4005 4.356.9595.28-.8828.684-1.7271 1.2-2.5111-.174.8944-.196 1.8091-.063 2.7098.79.0882 1.589-.0701 2.274-.4502 2.023-1.1344 2.083-4.0627.693-5.8449-1.392-1.7826-3.725-2.6627-5.975-3.3287-.021-4.4507-12.827-6.5813-15.182-2.4434-.242-3.3504-4.349-5.6073-7.887-5.0382-3.537.5692-6.328 3.222-8.03 6.1789-1.701 2.9546-2.546 6.2629-3.791 9.41-1.246 3.147-3.026 6.2851-6.008 8.1524-2.982 1.8648-7.414 2.0342-9.904-.3829-.567 1.0321-.867 2.1747-.875 3.3354-.007 1.1607.278 2.3067.832 3.3451z" fill="#2f2e41"/><path d="m121.82 99.9809c.258-.193.539-.3589.835-.4946 4.776-2.2226 19.626-7.9918 31.237-7.7551 22.342.4555 50.774 23.5138 44.157 38.9988-5.035 11.782-30.067 18.486-48.34 13.124-25.599-7.511-35.703-38.046-27.889-43.8731z" fill="#3f3d56"/><path d="m29.0714 184.865c-7.3003-1.288-13.7624-32.045.6008-47.193 4.921-5.19 11.0593-7.449 19.2244-9.551 46.9957-12.1 82.8404-.569 87.6574 2.247 4.806 2.809 13.231 45.135 2.457 51.126-6.062 3.371-18.077 5.057-24.03 1.124-8.76-5.787 5.943-20.797-.601-30.901-7.426-11.465-46.5326-15.327-66.1386-3.932-20.9176 12.156 22.2283 44.384-19.17 37.08z" fill="#f2f2f2"/><g fill="#ccc"><path d="m77.8799 132.571h-27.8898c-6.8848-6.171-11.8075-12.118-7.8663-17.054 0-1.419.6027-2.78 1.6756-3.783s2.5281-1.567 4.0454-1.567h32.1805c1.5173 0 2.9724.564 4.0453 1.567s1.6756 2.364 1.6756 3.783c1.5006 5.625-1.1802 11.31-7.8663 17.054z"/><path d="m72.8712 103.432c-.2646.011-.5266-.054-.7504-.186-.2238-.133-.3987-.326-.5009-.555s-.1268-.481-.0704-.723c.0563-.242.1908-.462.3854-.63l.0885-.329c-.0117-.027-.0234-.053-.0352-.079-.2666-.589-.7133-1.0914-1.284-1.4436s-1.24-.5389-1.9238-.5365-1.3516.1937-1.9195.5498c-.5679.3562-1.0106.8613-1.2725 1.4523-1.0467 2.357-2.3794 4.719-2.7075 7.212-.1445 1.102-.0836 2.219.1802 3.301-2.4585-5.015-3.7351-10.466-3.7433-15.9834-.0005-1.3844.0817-2.7678.2463-4.1437.1361-1.1279.3249-2.2478.5663-3.3597 1.3177-6.0328 4.1468-11.6874 8.2551-16.4991 1.9883-1.0146 3.5964-2.5749 4.6074-4.4704.3662-.6814.6251-1.4088.7685-2.1596-.2243.0275-.8458-3.1671-.6766-3.3631-.3126-.4436-.8721-.6641-1.2134-1.0969-1.6979-2.1528-4.0371-1.7769-5.2583 1.1485-2.6087 1.2313-2.6339 3.2733-1.0332 5.2372 1.0183 1.2495 1.1583 2.9402 2.0518 4.2778-.092.1101-.1876.2167-.2795.3267-1.6804 2.0208-3.1451 4.1907-4.3729 6.4787.2986-2.5632-.0577-5.156-1.0397-7.5653-.9953-2.2453-2.8608-4.1364-4.5035-6.0775-1.9732-2.3315-6.0195-1.314-6.3672 1.6416-.0033.0286-.0066.0573-.0098.0858.244.1288.4828.2654.7165.41.2936.1834.5211.4455.6527.7519s.1612.6429.0848.9653c-.0764.3223-.2551.6156-.5128.8414s-.5822.3735-.9312.4238l-.0357.0051c.0869.8225.2405 1.6375.4596 2.4381-2.1075 7.6219 2.4424 10.3979 8.939 10.5226.1434.0688.2831.1376.4265.2029-1.2336 3.2693-2.0073 6.6747-2.3018 10.1306-.1668 2.0389-.1569 4.087.0294 6.1244l-.0111-.0722c-.4707-2.2655-1.763-4.3097-3.6587-5.7874-2.8155-2.163-6.7934-2.9595-9.8309-4.6981-.3228-.1938-.6982-.2973-1.0818-.2982-.3836-.0008-.7595.1009-1.0833.2932-.3238.1924-.5821.4673-.7443.7924s-.2217.6869-.1713 1.0425c.0041.0253.0082.0506.0125.0759.4528.1725.8936.3712 1.32.5949.244.1288.4829.2654.7166.4099.2936.1835.521.4456.6526.752s.1612.6428.0848.9652-.2551.6157-.5128.8415c-.2576.2257-.5822.3735-.9312.4238l-.0357.0051c-.0258.0034-.0478.0069-.0735.0103.7736 1.7276 1.8595 3.3177 3.21 4.7008 1.3178 6.6537 6.9775 7.2847 13.0316 5.3477h.0037c.6642 2.699 1.6267 5.327 2.8718 7.84h10.259c.0368-.107.0699-.217.103-.323-.9496.055-1.9029.002-2.8387-.158.7611-.874 1.5223-1.754 2.2835-2.628.0169-.016.0329-.033.0478-.051.3861-.447.7758-.891 1.1619-1.338h.0002c.0206-1.371-.1475-2.738-.5003-4.068z"/><path d="m107.863 131.173c.171.464.493.865.922 1.146s.943.428 1.466.419l10.232-.247c.527-.009 1.037-.178 1.454-.481.416-.303.716-.725.856-1.201l1.447-14.478c.514.217 1.073.325 1.637.314.99-.023 1.928-.413 2.61-1.083.682-.671 1.052-1.567 1.027-2.493-.025-.925-.442-1.803-1.159-2.441-.717-.637-1.676-.983-2.665-.959-.225-.001-.45.021-.671.065-.239-.243-.531-.436-.855-.566-.324-.131-.674-.197-1.027-.194l-15.738.38c-.131.005-.261.02-.388.045-.346.061-.673.189-.961.378-.287.188-.528.432-.706.715-.179.282-.29.598-.327.924-.037.327.001.657.111.968zm16.674-15.825 1.031-3.451c.117-.398.12-.818.008-1.218.05 0 .094-.023.144-.023.706-.013 1.389.236 1.9.692.51.457.806 1.085.822 1.745.017.661-.247 1.3-.734 1.779s-1.157.757-1.863.775c-.457.013-.909-.09-1.308-.299z"/></g><path d="m107.01 109.399c.336 1.793 4.105 3.054 8.638 2.835 4.168-.18 7.577-1.549 8.201-3.171-.231-.064-.471-.094-.712-.089l-15.739.38c-.13.005-.26.02-.388.045z" fill="#fff"/><path d="m182.247 71.0211c-.937.032-1.824.4047-2.471 1.0387-.648.6341-1.006 1.4795-.997 2.3563.005.1782.025.3558.061.5308l-10.814 5.9706 1.309 6.1975 13.868-9.6768c.765-.196 1.439-.6233 1.916-1.2151.478-.5917.733-1.3147.725-2.0561-.009-.4218-.107-.8378-.288-1.2243-.181-.3866-.441-.736-.766-1.0284s-.709-.522-1.129-.6758c-.42-.1537-.869-.2286-1.32-.2203-.031.0006-.062.0016-.094.0029z" fill="#ffb6b6"/><path d="m173.388 85.2546c-.289-.3625-.413-.5142-.479-.4725-.169.0955-.006 1.376-1.197 3.6076-1.677 3.1352-19.257 7.937-19.257 7.937l-2.164-3.7057-9.52-16.285-3.282-13.053c-.115-.4551-.17-.9215-.166-1.3891 2.926-1.9254 6.033-3.598 9.283-4.9969 1.298.6889 2.288 1.7919 2.789 3.1074l6.553 17.1843 2.615 6.8609s4.613-3.0848 6.287-2.5186c1.67.5698 2.145-.2291 1.053-2.7865-1.092-2.5575.547.075 2.455.2423 1.911.1699 0 0 .902-1.0852.903-1.0852 6.74-1.6958 6.74-1.6958l.124.2421 2.262 4.3512.647 1.2501s-2.398 2.4331-2.976 2.918c-.582.4885-.761.4547-.476 1.0111.28.554-1.188.5288-2.193-.7237z" fill="#54917a"/></svg>