<svg fill="none" height="435" viewBox="0 0 407 435" width="407" xmlns="http://www.w3.org/2000/svg" xmlns:xlink="http://www.w3.org/1999/xlink"><mask id="a" height="435" maskUnits="userSpaceOnUse" width="407" x="0" y="0"><ellipse cx="203.998" cy="217.5" fill="#d9d9d9" rx="203" ry="217.5"/></mask><circle cx="206.498" cy="232.5" fill="#d9d9d9" r="200.5"/><g mask="url(#a)"><path d="m73.586 453.522h-69.3842c-2.88641-.002-5.68636-.985-7.93948-2.79-2.25311-1.804-3.82527-4.321-4.45797-7.137l-15.12005-67.393c-.4163-1.857-.4096-3.785.0195-5.639.4291-1.855 1.2697-3.589 2.4596-5.075s2.6986-2.686 4.4145-3.51c1.716-.824 3.5953-1.252 5.4989-1.252" stroke="#6562cf" stroke-linecap="round" stroke-miterlimit="10" stroke-width="2.4706"/><path d="m201.563 453.522h-69.385c-2.886-.002-5.686-.985-7.939-2.79-2.253-1.804-3.825-4.321-4.458-7.137l-15.12-67.393c-.416-1.857-.41-3.785.019-5.639.429-1.855 1.27-3.589 2.46-5.075s2.699-2.686 4.414-3.51c1.716-.824 3.596-1.252 5.499-1.252" stroke="#6562cf" stroke-linecap="round" stroke-miterlimit="10" stroke-width="2.4706"/><path d="m125.621 384.503h-117.74821c-4.28545 0-8.444795-1.45-11.80113-4.114-3.35633-2.665-5.71208-6.387-6.68386-10.561l-16.9681-72.873c-.5529-2.375-.5622-4.844-.0272-7.223s1.6005-4.607 3.1169-6.517c1.5165-1.91 3.4447-3.452 5.6407-4.513 2.1961-1.06 4.6033-1.61 7.0419-1.61h117.754c4.284 0 8.443 1.45 11.799 4.115 3.355 2.665 5.71 6.387 6.681 10.56l16.968 72.888c.549 2.374.556 4.841.019 7.218s-1.603 4.602-3.118 6.51c-1.516 1.908-3.443 3.449-5.638 4.509-2.194 1.059-4.599 1.61-7.036 1.611z" fill="#fff" stroke="#6562cf" stroke-linecap="round" stroke-miterlimit="10" stroke-width="2.4706"/><path d="m328.382 280.378c2.554 1.685 8.479 14.235 8.588 15.747.108 1.512-6.696 12.749-6.696 12.749s-2.703.059-3.216-6.123c-.628-7.317-3.84-10.089-8.494-11.132-1.947-.435-5.525 1.048-5.777 3.913-.252 2.866 7.15 4.769 8.638 6.508 2.258 2.629.988 6.335.988 6.423 0 0-11.424-3.458-13.618-4.101-1.977-.588-10.802-8.612-16.306-16.568-2.048 1.501-4.194 2.863-6.424 4.077-13.835 7.441-61.27 24.75-85.843 20.827-24.676-3.953-4.966-82.518-4.966-82.518 35.735 1.651 50.697-2.9 53.424-3.864l-5.549 36.318c15.017-.445 51.967 5.677 51.987 5.682 10.381 1.364 29.592 9.646 33.264 12.062z" fill="#f1921b"/><path d="m195.082 230.145h.213c35.735 1.651 50.696-2.9 53.424-3.864l-1.309 8.895s-26.51 12.481-55.994 11.364z" fill="#eb7200"/><path d="m198.666 329.454c8.489-.623 23.875-99.407 23.875-99.407 18.95.276 41.862-8.563 41.862-8.563s-15.668-51.349-21.069-61.938-44.169-28.896-48.745-30.221l-75.57-17.294s-64.5077 16.025-84.8506 32.469-36.23871 85.809-36.23871 85.809c37.36031 15.065 76.09431 12.847 76.09431 12.847l-13.1682 79.37c-4.2643 19.271-17.8871 80.453 6.132 110.159 0 0 19.325-94.98 131.6782-103.231z" fill="#eaeeff"/><path d="m149 137.444-22.601 13.791-28.6588-33.324 21.5138-12.886c.627-.374 1.322-.619 2.044-.722.723-.102 1.458-.061 2.164.123s1.369.507 1.949.949c.581.442 1.068.994 1.433 1.626z" fill="#dbdaff"/><path d="m183.373 140.606 15.906 9.388-.766-19.082-3.923-1.587s-6.987 4.685-11.217 11.281z" fill="#dbdaff"/><g stroke="#c7bfff" stroke-linejoin="round" stroke-width="2.4706"><path d="m74.0254 243.146c3.0635-10.036 6.1271-34.277 6.1271-34.277"/><path d="m126.402 151.235 22.176-12.951s21.277 25.314 21.87 29.741 1.71 49.575 1.71 49.575h11.216"/><path d="m198.86 149.975-15.066-8.529s-13.662 21.613-13.341 26.579"/><path d="m76.4309 233.175s-47.7516 1.418-75.817619-13.534"/></g><path d="m219.297 311.374c0 2.268-23.293 1.442-26.574 1.442s-23.831.781-28.659 0c-26.243 2.16-143.2945 10.668-156.90747-8.251-15.75746-21.91-1.68001-71.47-1.68001-71.47 35.35428 12.279 68.54918 10.046 68.54918 10.046l-2.9005 18.821c28.061 3.459 78.6988 21.247 95.9138 27.478 3.691-1.181 17.744-5.436 24.859-3.815 8.232 1.853 18.119 9.265 19.147 11.325 1.028 2.061 8.252 12.161 8.252 14.424z" fill="#efbe80"/><path d="m192.709 312.816c3.281 0 26.574.826 26.574-1.437s-7.21-12.353-8.237-14.414c-1.028-2.06-10.911-9.472-19.148-11.325 0 0 10.164 14.117.811 27.176" fill="#efbe80"/><path d="m5.45755 233.11s36.18435 12.729 68.56895 10.036l-2.9005 18.816s-43.2157-6.918-67.20022-22.572z" fill="#ddb077"/><path d="m160.599 336.445s122.117-7.639 151.794 27.276c29.677 34.914-27.928 159.432-33.749 235.077 0 0-29.222 2.91-41.086 0-11.863-2.91-22.19-132.236 7.704-167.734 0 0-113.648 26.144-157.9652-6.829-44.3175-32.972 54.8672-87.167 73.3022-87.79z" fill="#3c4564"/><path d="m66.9842 427.744c1.8282 9.852 105.7418 33.728 216.3158-36.071 0 0 7.268 84.198 118.993 145.271 0 0 24.311-8.776 35.236-28.061 0 0-72.883-85.231-100.944-163.499-11.779-32.864-160.04-15.659-181.717-8.939s-96.0319 47.386-87.8838 91.299z" fill="#3f4d79"/><path d="m162.473 84.8694s-4.62 12.1454-34.588 23.7176c0 0 21.089 28.867 42.538 55.989 0 0 8.598-24.919 24.138-35.241z" fill="#efbe80"/><path d="m194.591 129.325c-4.58 3.128-8.439 7.353-11.631 11.859-9.883-7.412-20.995-20.422-24.286-29.86-1.626-4.669 2.678-17.2937 5.173-24.5869z" fill="#ddb077"/><path d="m161.87 87.2413c0 3.9529-3.434 16.1227.722 21.0047 7.599 8.929 29.37 23.224 40.078 22.626 7.629-.41 18.435-33.5062 20.046-38.4523 1.611-4.9462 8.568-24.7801 3.627-30.082s-46.245-16.9038-54.452.1828c-9.097 18.9396-10.021 24.7208-10.021 24.7208z" fill="#efbe80"/><path d="m243.337 50.8345c-4.057 26.5392-21.341 30.0079-55.391 10.0751-15.599-9.1263-4.571 7.2191-13.341 21.4102l-2.866 1.0673c.094-1.428.296-7.3278-2.639-7.3426-4.323 0-5.653 6.5422-6.068 10.5791l-1.66.6177s-.178-29.583 4.017-38.9861c10.377-23.2779 40.37-10.7026 47.727-6.7447 23.214 12.4765 30.221 9.324 30.221 9.324z" fill="#43320c"/><path d="m187.18 58.8789c24.212 19.1125 43.235 23.6436 52.683 12.4073z" fill="#43320c"/><g stroke-miterlimit="10"><path d="m187.18 58.8789c24.212 19.1125 43.235 23.6436 52.683 12.4073" stroke="#43320c" stroke-width="1.97648"/><path d="m166.985 67.5723-.048-.0135c-5.795-1.6488-11.83 1.7129-13.479 7.5085l-1.344 4.7241c-1.649 5.7955 1.713 11.8303 7.509 13.479l.047.0136c5.796 1.6487 11.831-1.713 13.479-7.5086l1.344-4.7241c1.649-5.7955-1.713-11.8303-7.508-13.479z" fill="#fff" stroke="#3f4d79" stroke-linecap="round" stroke-width="2.4706"/><path d="m174.894 79.6318-2.164 7.6094c-.684 2.401-2.294 4.4319-4.475 5.6466s-4.755 1.5137-7.156.8313l-2.926-.835c-.128-.0346-.252-.0741-.38-.1186 2.361.5719 4.852.2063 6.949-1.0202 2.098-1.2265 3.638-3.2182 4.297-5.5565l2.164-7.6095c.67-2.3344.409-4.8373-.728-6.9832-1.137-2.1458-3.062-3.7676-5.369-4.5248l.385.0988 2.911.8203c1.193.3337 2.309.9003 3.282 1.6673.973.7669 1.785 1.7189 2.389 2.8011.603 1.0822.987 2.2733 1.128 3.5044s.037 2.4779-.307 3.6686z" fill="#fff" stroke="#3f4d79" stroke-linecap="round" stroke-width="2.4706"/><path d="m165.49 67.1553 8.894-31.2283c.392-1.3784 1.052-2.666 1.941-3.7894.89-1.1234 1.992-2.0606 3.243-2.758 1.252-.6975 2.629-1.1415 4.052-1.3068 1.424-.1653 2.866-.0485 4.244.3435l31.624 8.993c3.913 1.1118 5.692 4.2 4.575 8.1184" stroke="#3f4d79" stroke-linecap="round" stroke-width="2.4706"/></g><path d="m313.237 314.062h-138.645c-6.33 0-10.342-6.33-7.288-11.498l46.941-79.39c4.081-6.918 11.859-11.197 20.338-11.197h138.65c6.329 0 10.342 6.329 7.288 11.498l-46.941 79.39c-4.097 6.908-11.884 11.197-20.343 11.197z" fill="#eaeeff"/><path d="m311.88 316.612h-132.953c-6.201 0-10.129-6.202-7.135-11.266l45.988-77.78c4.002-6.769 11.636-10.969 19.928-10.969h132.952c6.201 0 10.13 6.201 7.135 11.266l-45.987 77.774c-4.003 6.77-11.637 10.975-19.928 10.975z" fill="#c0c1ff"/><path d="m313.237 314.062h-138.645c-6.33 0-10.342-6.33-7.288-11.498l46.941-79.39c4.081-6.918 11.859-11.197 20.338-11.197h138.65c6.329 0 10.342 6.329 7.288 11.498l-46.941 79.39c-4.097 6.908-11.884 11.197-20.343 11.197z" stroke="#6562cf" stroke-miterlimit="10" stroke-width="2.4706"/><path d="m315.106 314.166h-253.172c-2.6689 0-4.8324 2.163-4.8324 4.832v1.067c0 2.669 2.1635 4.833 4.8324 4.833h253.172c2.669 0 4.832-2.164 4.832-4.833v-1.067c0-2.669-2.163-4.832-4.832-4.832z" fill="#d1d1ff" stroke="#6562cf" stroke-miterlimit="10" stroke-width="2.96472"/></g></svg>