<svg fill="none" height="200" viewBox="0 0 300 200" width="300" xmlns="http://www.w3.org/2000/svg"><path d="m0 0h300v200h-300z" fill="#fff"/><g fill="#00bfa6"><path d="m148.244 198c10.194 0 18.457-1.417 18.457-3.164 0-1.748-8.263-3.165-18.457-3.165s-18.458 1.417-18.458 3.165c0 1.747 8.264 3.164 18.458 3.164z"/><path d="m134.525 57.5675c.001-5.7453 1.971-11.3167 5.582-15.7855 3.611-4.4687 8.645-7.5648 14.262-8.7722-3.663-.7859-7.455-.7428-11.098.1263-3.644.869-7.047 2.542-9.96 4.8965-2.913 2.3544-5.263 5.3306-6.877 8.7107-1.615 3.3801-2.453 7.0785-2.453 10.8242 0 3.7458.838 7.4441 2.453 10.8242 1.614 3.3801 3.964 6.3563 6.877 8.7108 2.913 2.3544 6.316 4.0274 9.96 4.8965 3.643.869 7.435.9122 11.098.1262-5.617-1.2073-10.651-4.3034-14.262-8.7722s-5.581-10.0402-5.582-15.7855z"/><path d="m107.19 57.5673c.001-13.7029 5.013-26.9325 14.091-37.1967s21.597-16.85452 35.197-18.52942c-7.892-.96746-15.899-.24836-23.492 2.10974s-14.599 6.30148-20.554 11.56918c-5.956 5.2678-10.725 11.74-13.9921 18.9884-3.2673 7.2485-4.9583 15.108-4.9614 23.0588 0 25.1844 37.0365 96.2037 50.9475 121.9887.505.938 1.255 1.722 2.17 2.269.915.546 1.96.835 3.026.835s2.111-.289 3.026-.835c.915-.547 1.665-1.331 2.17-2.269.521-.965 1.077-2.001 1.66-3.088-14.975-27.956-49.288-94.6589-49.288-118.9007z"/></g><g fill="#3f3d56"><path d="m149.67 183.291c-1.163.009-2.306-.301-3.304-.898-.998-.596-1.813-1.455-2.356-2.483-15.338-28.431-51.011-97.2551-51.011-122.239 0-15.0301 5.9707-29.4446 16.599-40.0725 10.627-10.62783 25.042-16.5985 40.072-16.5985s29.445 5.97067 40.072 16.5985c10.628 10.6279 16.599 25.0424 16.599 40.0725 0 24.9862-35.673 93.809-51.011 122.239-.543 1.028-1.358 1.887-2.356 2.483-.999.597-2.142.907-3.304.898zm0-181.23628c-14.745.01663-28.882 5.88153-39.308 16.30798-10.4267 10.4265-16.2916 24.5631-16.3083 39.3083 0 24.7437 35.5853 93.378 50.8843 121.738.46.855 1.143 1.569 1.976 2.066.833.498 1.785.761 2.756.761.97 0 1.923-.263 2.756-.761.833-.497 1.516-1.211 1.976-2.066 15.299-28.359 50.884-96.992 50.884-121.738-.016-14.7452-5.881-28.8818-16.308-39.3083-10.426-10.42645-24.563-16.29135-39.308-16.30798z"/><path d="m149.67 83.3154c-5.072 0-10.03-1.5039-14.247-4.3217s-7.504-6.8229-9.445-11.5087c-1.941-4.6859-2.449-9.8421-1.46-14.8166.99-4.9746 3.432-9.544 7.018-13.1304 3.587-3.5865 8.156-6.0289 13.131-7.0184 4.974-.9895 10.13-.4816 14.816 1.4593 4.686 1.941 8.691 5.2279 11.509 9.4451s4.322 9.1753 4.322 14.2472c-.008 6.7989-2.712 13.3171-7.52 18.1246-4.807 4.8075-11.325 7.5118-18.124 7.5196zm0-50.2338c-4.863-.0001-9.618 1.442-13.661 4.1439-4.044 2.7019-7.196 6.5422-9.057 11.0353-1.861 4.4932-2.348 9.4373-1.399 14.2072.948 4.7699 3.29 9.1514 6.729 12.5904 3.439 3.4389 7.82 5.7809 12.59 6.7297 4.77.9489 9.714.4619 14.207-1.3992 4.494-1.861 8.334-5.0127 11.036-9.0564 2.702-4.0438 4.144-8.7979 4.144-13.6613-.007-6.5192-2.6-12.7693-7.21-17.3792-4.61-4.6098-10.86-7.2029-17.379-7.2104z"/></g></svg>