<svg fill="none" height="200" viewBox="0 0 300 200" width="300" xmlns="http://www.w3.org/2000/svg"><path d="m0 0h300v200h-300z" fill="#fff"/><path d="m248.586 99.793c.012 15.415-3.589 30.619-10.514 44.391-6.925 13.773-16.981 25.731-29.361 34.916-.828.619-1.671 1.223-2.521 1.81-16.555 11.508-36.235 17.676-56.397 17.676s-39.842-6.168-56.3975-17.676c-.8491-.587-1.6928-1.191-2.5205-1.81-12.3718-9.193-22.4214-21.153-29.3452-34.924-6.9238-13.77-10.5298-28.97-10.5298-44.383 0-15.4133 3.606-30.6128 10.5298-44.3835 6.9238-13.7706 16.9734-25.7304 29.3452-34.9233.8277-.6194 1.6714-1.2228 2.5205-1.8103 16.5555-11.50793 36.2355-17.6759 56.3975-17.6759s39.842 6.16797 56.397 17.6759c.85.5875 1.693 1.1909 2.521 1.8103 12.38 9.1848 22.436 21.1429 29.361 34.9154s10.526 28.976 10.514 44.3914z" fill="#efefef"/><path d="m149.793 190.042c49.843 0 90.249-40.406 90.249-90.2488 0-49.843-40.406-90.24877-90.249-90.24877-49.8428 0-90.2486 40.40577-90.2486 90.24877 0 49.8428 40.4058 90.2488 90.2486 90.2488z" fill="#00bfa6"/><path d="m150.029 9.79688c-1.368 0-2.728.03578-4.081.09602 22.81 2.0044 44.005 12.6044 59.291 29.6525s23.52 39.2694 23.034 62.1616c-.485 22.893-9.655 44.745-25.651 61.129s-37.622 26.075-60.496 27.11c2.605.226 5.239.348 7.903.348 23.935 0 46.89-9.508 63.815-26.433s26.433-39.88 26.433-63.815c0-23.9358-9.508-46.8909-26.433-63.8159-16.925-16.9249-39.88-26.43321-63.815-26.43321z" fill="#000" opacity=".2"/><g fill="#fff"><path d="m150.06 3.13623c-.778.00137-1.525.31125-2.075.86176-.551.55052-.861 1.29679-.862 2.07533v12.81638c0 .779.309 1.526.86 2.0768.551.5509 1.298.8603 2.077.8603s1.526-.3094 2.077-.8603c.551-.5508.86-1.2978.86-2.0768v-12.81638c-.001-.77854-.311-1.52481-.862-2.07533-.55-.55051-1.296-.86039-2.075-.86176z"/><path d="m208.711 20.4865c-.828-.6195-1.672-1.2229-2.521-1.8104-.509-.0332-1.019.0671-1.478.2909-.458.2238-.851.5635-1.139.9854l-7.214 10.5896c-.438.6437-.603 1.4352-.458 2.2003s.589 1.4412 1.232 1.8796c.644.4383 1.435.603 2.201.4578.765-.1452 1.441-.5884 1.879-1.2322l7.215-10.5895c.274-.4017.444-.8658.493-1.3498.05-.4841-.023-.9728-.21-1.4217z"/><path d="m241.489 68.7721c-.145-.357-.359-.682-.63-.9563-.27-.2743-.593-.4926-.948-.6424-.355-.1497-.736-.2281-1.121-.2305-.386-.0024-.768.0711-1.125.2165l-11.876 4.8221c-.721.2937-1.296.8615-1.598 1.5788-.303.7173-.308 1.5253-.015 2.2464.293.7212.86 1.2966 1.577 1.5997s1.525.3091 2.247.0167l11.876-4.8221c.721-.2952 1.295-.8638 1.597-1.5814.303-.7176.308-1.5258.016-2.2475z"/><path d="m103.226 30.542-7.2146-10.5896c-.2875-.4219-.6801-.7616-1.139-.9854s-.9682-.3241-1.4777-.2909c-.8491.5875-1.6928 1.1909-2.5206 1.8104-.1876.4489-.26.9376-.2106 1.4217.0495.484.2192.9481.4937 1.3498l7.2145 10.5895c.4384.6437 1.1145 1.087 1.8793 1.2322.765.1452 1.557-.0195 2.201-.4578.643-.4384 1.087-1.1145 1.232-1.8796s-.02-1.5566-.458-2.2003z"/><path d="m73.7966 71.9818-11.8765-4.8222c-.7216-.293-1.53-.2874-2.2474.0156s-1.2852.8785-1.5783 1.6-.2877 1.5299.0152 2.2474c.3028.7175.8782 1.2854 1.5997 1.5786l11.8765 4.8222c.7214.2923 1.5294.2863 2.2464-.0168s1.2843-.8785 1.5773-1.5996c.293-.7212.2877-1.5292-.0147-2.2465-.3024-.7172-.8773-1.2851-1.5982-1.5787z"/><path d="m150.06 177.759c-.778.002-1.525.312-2.075.862-.551.551-.861 1.297-.862 2.075v12.817c0 .779.309 1.526.86 2.077.551.55 1.298.86 2.077.86s1.526-.31 2.077-.86c.551-.551.86-1.298.86-2.077v-12.817c-.001-.778-.311-1.524-.862-2.075-.55-.55-1.296-.86-2.075-.862z"/><path d="m208.428 176.328-7.215-10.589c-.217-.319-.495-.592-.817-.803-.323-.212-.684-.358-1.062-.429-.379-.072-.769-.069-1.146.01-.378.078-.736.23-1.055.447-.318.217-.591.495-.803.818-.211.322-.357.683-.429 1.062s-.068.768.01 1.146c.079.377.231.736.448 1.054l7.214 10.59c.288.422.681.761 1.139.985.459.224.969.324 1.478.291.849-.587 1.693-1.191 2.521-1.81.187-.449.26-.938.21-1.422-.049-.484-.219-.948-.493-1.35z"/><path d="m239.876 126.985-11.877-4.822c-.721-.293-1.53-.287-2.247.016-.718.303-1.285.878-1.578 1.6-.294.721-.288 1.53.015 2.247.302.718.878 1.285 1.599 1.579l11.877 4.822c.721.292 1.529.286 2.246-.017s1.285-.878 1.578-1.6c.293-.721.287-1.529-.015-2.246-.303-.717-.877-1.285-1.598-1.579z"/><path d="m102.453 164.965c-.644-.439-1.435-.603-2.2-.458-.7653.145-1.4413.588-1.8798 1.232l-7.2146 10.589c-.2745.402-.4442.866-.4936 1.35s.023.973.2106 1.422c.8277.619 1.6715 1.223 2.5206 1.81.5095.034 1.0188-.067 1.4777-.291.4589-.223.8515-.563 1.1389-.985l7.2142-10.589c.217-.319.37-.678.448-1.055.079-.378.082-.767.01-1.146s-.217-.74-.429-1.062c-.211-.323-.484-.6-.803-.817z"/><path d="m75.4098 123.776c-.145-.357-.359-.682-.6297-.956-.2707-.275-.5928-.493-.9479-.643-.3551-.149-.7362-.228-1.1215-.23-.3854-.003-.7675.071-1.1244.216l-11.8766 4.822c-.7209.294-1.2957.862-1.5981 1.579-.3025.717-.3078 1.525-.0148 2.247.293.721.8604 1.296 1.5774 1.599.7169.303 1.5249.309 2.2464.017l11.8765-4.822c.7206-.295 1.2948-.864 1.5971-1.581.3023-.718.3079-1.526.0156-2.248z"/></g><path d="m153.871 98.3359c.271 1.6055-.105 3.2531-1.047 4.5811s-2.373 2.228-3.977 2.503l-52.1194 8.865c-.795.136-1.6089.113-2.3952-.066-.7863-.18-1.5295-.512-2.1874-.979-.6578-.466-1.2173-1.058-1.6465-1.741-.4291-.682-.7197-1.443-.8549-2.238s-.1125-1.609.0668-2.395c.1793-.787.5117-1.53.9783-2.188.4665-.658 1.0581-1.217 1.7408-1.646.6828-.429 1.4435-.72 2.2385-.855l52.119-8.8655c1.605-.2712 3.253.1055 4.581 1.0474 1.328.942 2.228 2.3722 2.503 3.977z" fill="#3f3d56"/><path d="m208.724 156.08c-.748.753-1.765 1.178-2.827 1.182s-2.082-.413-2.837-1.16l-56.105-55.665c-.753-.7489-1.178-1.7655-1.182-2.8271-.003-1.0616.415-2.0812 1.162-2.8348.748-.7536 1.764-1.1796 2.826-1.1842 1.062-.0047 2.082.4123 2.836 1.1593l56.105 55.6648c.753.749 1.178 1.766 1.183 2.828.004 1.062-.413 2.082-1.161 2.837z" fill="#3f3d56"/><path d="m149.793 106.735c3.834 0 6.942-3.108 6.942-6.9422 0-3.8341-3.108-6.9422-6.942-6.9422s-6.942 3.1081-6.942 6.9422c0 3.8342 3.108 6.9422 6.942 6.9422z" fill="#ccc"/></svg>