<svg fill="none" height="430" viewBox="0 0 402 430" width="402" xmlns="http://www.w3.org/2000/svg" xmlns:xlink="http://www.w3.org/1999/xlink"><mask id="a" height="430" maskUnits="userSpaceOnUse" width="402" x="0" y="0"><ellipse cx="201.498" cy="215" fill="#d9d9d9" rx="200.5" ry="215"/></mask><circle cx="201.498" cy="229.5" fill="#d9d9d9" r="200.5"/><g mask="url(#a)"><path d="m357.77 444.433c0 11.216-56.095 20.309-125.296 20.309s-125.302-9.099-125.302-20.309c0-1.924 1.644-3.782 4.723-5.541 14.883-8.522 63.235-14.768 120.579-14.768s105.689 6.228 120.573 14.768c3.079 1.759 4.723 3.617 4.723 5.541z" fill="#dbdaff"/><path d="m353.047 438.892c-13.252 9.911-62.207 17.263-120.574 17.263-58.366 0-107.333-7.352-120.578-17.263 14.883-8.522 63.234-14.768 120.578-14.768 57.345 0 105.69 6.228 120.574 14.768z" fill="#fff"/><path d="m232.468 464.742c69.199 0 125.296-9.093 125.296-20.309 0-11.217-56.097-20.309-125.296-20.309s-125.296 9.092-125.296 20.309c0 11.216 56.097 20.309 125.296 20.309z" stroke="#6562cf" stroke-miterlimit="10" stroke-width="2.90468"/><path d="m203.41 136.66s-2.87 70.238-8.848 83.131c-5.978 12.892-41.363 72.249-55.305 70.873-26.386-2.647-64.1644-127.819-68.7828-143.452-2.2599-3.735-4.6475-6.147-8.5456-7.976-18.8513-8.934-22.151-16.257-26.0956-22.779l-2.835-19.2509c8.6095-5.1111 15.5865 9.1809 17.9045 12.5689 6.1579 8.999 13.9889 6.835 16.7832 6.47 4.113-.553-2.0623-5.546-4.4267-10.069-3.4101-6.5231 1.0166-10.2815 1.0166-10.2815.8482 3.4349 15.1043 19.1095 19.653 24.4965 4.1828 4.947 3.7877 15.251 3.6948 16.916 5.6931 8.775 49.6406 84.989 49.6406 84.989s24.783-60.18 34.856-71.367c7.32-8.093 24.313-11.975 31.29-14.269z" fill="#ffd1cb"/><path d="m45.058 116.615s-1.2142-6.81-5.1065-10.481c0 0-1.2664-7.5574-6.3089-8.822" stroke="#eeb9af" stroke-linecap="round" stroke-miterlimit="10" stroke-width="1.74281"/><path d="m48.9449 115.027s-1.5395-6.716-5.606-10.216c0 0-4.1827-10.381-9.6377-7.5284" stroke="#eeb9af" stroke-linecap="round" stroke-miterlimit="10" stroke-width="1.74281"/><path d="m72.9251 394.792c-11.305 1.558-28.8667 22.073-15.0288 62.533 13.8378 40.46 65.0997 196.346 64.5887 208.062-.68 15.651-16.621 35.642-16.621 35.642s16.969 8.999 27.13-5.499c10.16-14.498 8.783-29.673 8.783-29.673s4.096-126.948-11.037-206.715c-6.954-36.542-37.4938-67.156-57.8149-64.35z" fill="#ffd1cb"/><path d="m130.118 395.615c-9.144 6.899-18.433 22.427-4.601 62.886 13.832 40.46 50.443 195.193 49.519 206.886s-16.621 35.642-16.621 35.642 16.97 8.999 27.13-5.499c10.161-14.498 8.784-29.672 8.784-29.672s25.369-116.35 10.98-193.747c-7.872-42.494-49.787-95.67-75.191-76.496z" fill="#ffd1cb"/><path d="m46.7959 463.148s-9.2079-53.135 26.8159-76.632c36.0242-23.497 141.2192-42.841 136.6422-66.738l92.148-2.106s20.838 30.755 24.213 63.38c3.915 37.766-4.52 66.31-80.75 66.151-40.91-.088-35.263 25.555-35.263 25.555s-40.241 10.776-88.819 9.017c-48.5778-1.759-74.9871-18.627-74.9871-18.627z" fill="#424d76"/><path d="m221.221 129.72c-5.484 1.258-17.811 6.934-17.811 6.934s-16.848 64.698-20.914 73.397c-4.067 8.698-6.721 22.697 10.457 35.183l17.428 75.667h92.049s7.099-79.072 11.961-106.692c4.863-27.62-1.214-80.455-1.214-80.455l-34.089-4.034z" fill="#98db78"/><path d="m379.909 301.733c-4.066 24.65-143.845 19.692-152.878 19.345-2.162 2.264-9.778 9.598-16.267 8.163-7.656-1.705-14.14-6.328-18.851-4.081-4.711 2.246-10.114 6.928-13.286 6.705-3.774-.228-7.488-1.061-11.003-2.471 2.235-3.248 4.644-6.37 7.215-9.351-2.777 1.258-6.535 3.934-8.574 4.922-.867.465-1.862.622-2.827.446-.964-.176-1.843-.675-2.495-1.416 0 0 6.972-6.346 9.504-7.876 2.4-1.47 9.876-5.069 13.513-5.334 4.392-.647 30.464-5.882 42.466-4.641v.112c5.264-1.429 101.606-27.514 108.391-28.99 0 0-23.917-79.449-27.153-92.559-3.235-13.11-4.328-51.894 5.513-50.953 6.391.618 20.914 2.012 29.378 21.709 6.03 13.999 42.409 115.845 37.354 146.27z" fill="#ffd1cb"/><path d="m171.615 329.647s10.457-11.063 13.182-11.763c4.827-1.212 11.13-2.817 11.13-2.817" stroke="#eeb9af" stroke-linecap="round" stroke-miterlimit="10" stroke-width="1.74281"/><path d="m176.617 330.324s9.028-8.629 11.77-9.317c4.828-1.212 11.131-2.811 11.131-2.811" stroke="#eeb9af" stroke-linecap="round" stroke-miterlimit="10" stroke-width="1.74281"/><path d="m232.928 91.3833c0 2.7703 5.729 20.9327-11.705 38.3367 0 0 24.161 9.081 57.843 0 0 0-9.719-38.0014-9.486-49.3294z" fill="#ffd1cb"/><path d="m266.089 88.8424c-1.743 18.2326-20.693 32.6846-38.702 33.3726 9.748-14.798 5.542-28.4555 5.542-30.8317l32.567-9.8811c.331 2.8585.749 5.7169.593 7.3402z" fill="#f3c2b9"/><path d="m212.109 56.3759c-2.08-2.4703-3.358-18.4329 5.258-25.979 16.37-14.3512 46.62-20.43863 64.751-10.1517 17.486 9.8987 24.451 22.9971 21.639 48.3468-2.683 24.2499-8.475 29.1551 6.391 47.088 13.361 16.122 17.503 38.872 9.393 57.958-19.78 46.552 18.59 45.564 18.59 69.073h-59.452s-41.52-36.401-21.234-81.66c18.155-40.489 21.315-54.37 8.325-76.461-6.826-11.6338-53.661-28.2141-53.661-28.2141z" fill="#424d76"/><path d="m277.348 18.7512c15.296 5.0406 34.763 23.003 31.951 48.3468-2.684 24.2499-8.476 29.161 6.361 47.088 13.362 16.122 17.504 38.878 9.394 57.958-19.752 46.558 18.59 45.57 18.59 69.073" stroke="#424d76" stroke-miterlimit="10" stroke-width="1.74281"/><path d="m265.631 72.7091s9.295-1.2116 9.905 2.2057c1.22 6.9461-9.034 9.6575-9.034 9.6575s-1.859 5.0641-4.153 10.1517c-1.354 3.0055-21.884 12.875-31.173 11.887-9.29-.988-18.201-25.45-18.311-47.259-.093-15.8392 5.007-24.1146 15.76-24.1146 14.988 0 21.995 11.2457 32.26 8.0343-.018-.0059-6.739 15.8274 4.746 29.4374z" fill="#ffd1cb"/><g stroke="#ffb000" stroke-miterlimit="10" stroke-width="2.32374"><path d="m215.089 79.7258c6.036 0 10.928-4.9532 10.928-11.0633 0-6.11-4.892-11.0633-10.928-11.0633-6.035 0-10.927 4.9533-10.927 11.0633 0 6.1101 4.892 11.0633 10.927 11.0633z"/><path d="m242.341 79.7258c6.035 0 10.928-4.9532 10.928-11.0633 0-6.11-4.893-11.0633-10.928-11.0633s-10.927 4.9533-10.927 11.0633c0 6.1101 4.892 11.0633 10.927 11.0633z"/><path d="m226.01 68.6625h5.402"/><path d="m253.268 68.6625h22.848"/></g></g></svg>