<svg fill="none" height="200" viewBox="0 0 300 200" width="300" xmlns="http://www.w3.org/2000/svg"><path d="m0 0h300v200h-300z" fill="#fff"/><g stroke="#6562cf" stroke-linecap="round" stroke-miterlimit="10" stroke-width=".767083"><path d="m97.5414 135.118h-21.5428c-.8962 0-1.7656-.306-2.4651-.866-.6996-.56-1.1877-1.341-1.3841-2.216l-4.6946-20.924c-.1292-.577-.1272-1.176.0061-1.751.1332-.576.3942-1.115.7636-1.576.3695-.461.8379-.834 1.3707-1.09s1.1162-.388 1.7073-.388"/><path d="m137.277 135.118h-21.543c-.896 0-1.766-.306-2.465-.866-.7-.56-1.188-1.341-1.384-2.216l-4.695-20.924c-.129-.577-.127-1.176.006-1.751.133-.576.394-1.115.764-1.576.369-.461.838-.834 1.371-1.09.532-.256 1.116-.388 1.707-.388"/><path d="m113.698 113.69h-36.5594c-1.3306 0-2.622-.451-3.6641-1.278s-1.7735-1.983-2.0752-3.279l-5.2684-22.6258c-.1716-.7374-.1745-1.5041-.0084-2.2428.1661-.7388.4969-1.4304.9677-2.0234.4709-.5929 1.0695-1.0719 1.7514-1.4011.6818-.3292 1.4292-.5001 2.1864-.5001h36.561c1.33.0001 2.621.4504 3.663 1.2778 1.042.8273 1.773 1.9829 2.075 3.2787l5.268 22.6307c.17.737.172 1.503.006 2.241-.167.738-.498 1.429-.968 2.021-.471.593-1.069 1.071-1.751 1.4-.681.329-1.428.5-2.184.501z" fill="#fff"/><path d="m138.381 129.899h-58.6342c-1.4412 0-2.6096 1.169-2.6096 2.61s1.1684 2.61 2.6096 2.61h58.6342c1.441 0 2.61-1.169 2.61-2.61s-1.169-2.61-2.61-2.61z" fill="#eaeeff"/><path d="m72.7769 194.448 7.2796-54.251c.1396-2.846 2.3825-5.078 5.1026-5.078h12.5802c2.7197 0 4.9627 2.232 5.1037 5.078l7.28 54.251"/><path d="m119.011 135.119h12.215c2.64 0 4.819 2.232 4.955 5.078l7.203 54.251"/></g><path d="m176.653 81.3591c.793.5231 2.633 4.4199 2.667 4.8893.033.4695-2.079 3.9582-2.079 3.9582s-.839.0184-.999-1.9008c-.195-2.2721-1.192-3.1328-2.637-3.4565-.605-.135-1.715.3252-1.794 1.215-.078.8899 2.22 1.4805 2.682 2.0205.701.8162.307 1.9668.307 1.9945 0 0-3.547-1.074-4.228-1.2734-.614-.1826-3.354-2.674-5.063-5.1441-.636.4658-1.302.8887-1.994 1.2657-4.296 2.3105-19.024 7.6847-26.653 6.4665-7.662-1.2273-1.542-25.6205-1.542-25.6205 11.095.5124 15.74-.9006 16.587-1.1998l-1.723 11.2762c4.663-.1381 16.135 1.7627 16.141 1.7642 3.223.4235 9.188 2.9947 10.328 3.745z" fill="#f1921b"/><path d="m135.266 65.7627h.066c11.095.5124 15.741-.9005 16.588-1.1997l-.407 2.7615s-8.231 3.8753-17.385 3.5286z" fill="#eb7200"/><path d="m136.377 96.5972c2.636-.1933 7.413-30.8643 7.413-30.8643 5.884.0859 12.998-2.6587 12.998-2.6587s-4.865-15.9431-6.542-19.2308-13.714-8.9718-15.134-9.383l-23.464-5.3696s-20.0285 4.9753-26.3447 10.081c-6.3161 5.1057-11.2515 26.6424-11.2515 26.6424 11.5998 4.6777 23.6261 3.9888 23.6261 3.9888l-4.0885 24.6433c-1.324 5.9837-5.5537 24.9797 1.9039 34.2027 0 0 5.9997-29.4897 40.8837-32.0518z" fill="#eaeeff"/><path d="m120.957 36.981-7.017 4.2818-8.898-10.3464 6.68-4.0011c.194-.1159.41-.1921.634-.2239.225-.0319.453-.019.672.0381.22.0571.425.1572.605.2944.181.1373.332.3089.445.5051z" fill="#dbdaff"/><path d="m131.629 37.9625 4.939 2.9149-.238-5.925-1.218-.4924s-2.169 1.4543-3.483 3.5025z" fill="#dbdaff"/><path d="m97.6787 69.8002c.9512-3.1159 1.9024-10.6425 1.9024-10.6425" stroke="#c7bfff" stroke-linejoin="round" stroke-width=".767083"/><path d="m113.941 41.2632 6.885-4.021s6.606 7.8595 6.79 9.2341c.185 1.3747.531 15.3923.531 15.3923h3.483" stroke="#c7bfff" stroke-linejoin="round" stroke-width=".767083"/><path d="m136.438 40.8716-4.678-2.648s-4.242 6.7105-4.142 8.2523" stroke="#c7bfff" stroke-linejoin="round" stroke-width=".767083"/><path d="m98.4255 66.704s-14.8262.4403-23.5402-4.202" stroke="#c7bfff" stroke-linejoin="round" stroke-width=".767083"/><path d="m142.782 90.9835c0 .7042-7.232.448-8.25.448-1.019 0-7.4.2423-8.898 0-8.148.6704-44.4913 3.3122-48.7179-2.5621-4.8925-6.8025-.5216-22.1902-.5216-22.1902 10.9769 3.8124 21.2835 3.119 21.2835 3.119l-.9006 5.8436c8.7126 1.0739 24.4346 6.5969 29.7796 8.5315 1.146-.3667 5.509-1.6876 7.719-1.1844 2.555.5753 5.625 2.8766 5.944 3.5163.32.6398 2.562 3.7756 2.562 4.4783z" fill="#ffd0b6"/><path d="m134.527 91.4321c1.019 0 8.251.2562 8.251-.4465 0-.7026-2.239-3.8354-2.558-4.4751-.319-.6398-3.387-2.941-5.945-3.5164 0 0 3.156 4.3832.252 8.438" fill="#eb7200"/><path d="m76.3882 66.6841s11.2347 3.952 21.2896 3.1159l-.9005 5.8421s-13.4179-2.1478-20.8647-7.0081z" fill="#dcb39d"/><path d="m173.586 195h-24.843c-.024-.379-.034-.741-.026-1.089h24.901c.027.363.016.728-.032 1.089z" fill="#3f4d79"/><path d="m151.274 183.877c.089 2.71-2.529 4.427-2.529 10.026h24.841s.36-4.697-4.603-5.781c-4.963-1.083-9.485-2.529-9.936-4.245z" fill="#00bfa6"/><path d="m159.217 188.939 2.267-3.357" stroke="#3f4d79" stroke-linecap="round" stroke-miterlimit="10" stroke-width=".767083"/><path d="m160.986 189.347 2.133-3.084" stroke="#3f4d79" stroke-linecap="round" stroke-miterlimit="10" stroke-width=".767083"/><path d="m163.299 189.483 1.724-2.812" stroke="#3f4d79" stroke-linecap="round" stroke-miterlimit="10" stroke-width=".767083"/><path d="m124.558 98.7681s37.915-2.3718 47.13 8.4689c9.214 10.84-8.671 49.501-10.479 72.988 0 0-9.073.903-12.756 0-3.684-.904-6.89-41.058 2.391-52.079 0 0-35.285 8.117-49.045-2.12-13.7603-10.238 17.035-27.0646 22.759-27.2579z" fill="#3c4564"/><path d="m159.044 183.877c-2.519.852-5.248.852-7.767 0l-.735-3.35s4.826.244 9.236-.178z" fill="#f1921b"/><path d="m229.725 157.383-19.706 15.125c-.28-.34-.532-.673-.757-.999l19.628-15.065c.313.28.593.595.835.939z" fill="#3f4d79"/><path d="m205.104 162.06c1.722 2.096.688 5.052 4.098 9.495l19.707-15.126s-2.575-3.945-7.176-1.781c-4.601 2.165-9.064 3.77-10.467 2.682z" fill="#00bfa6"/><path d="m214.538 161-.244-3.911" stroke="#3f4d79" stroke-linecap="round" stroke-miterlimit="10" stroke-width=".767083"/><path d="m216.035 160.047-.243-3.502" stroke="#3f4d79" stroke-linecap="round" stroke-miterlimit="10" stroke-width=".767083"/><path d="m217.533 159.094-.244-3.094" stroke="#3f4d79" stroke-linecap="round" stroke-miterlimit="10" stroke-width=".767083"/><path d="m95.4931 127.115c.5676 3.059 32.8309 10.472 67.1629-11.2 0 0 2.257 26.143 36.946 45.105 0 0 7.548-2.725 10.94-8.713 0 0-22.629-26.462-31.342-50.764-3.657-10.2034-49.69-4.8614-56.42-2.775-6.731 2.087-29.8168 14.713-27.2869 28.347z" fill="#3f4d79"/><path d="m211.266 157.331s-1.486 4.577-6.161 4.729l-3.047-2.16c2.755-1.408 5.205-3.346 7.211-5.702z" fill="#f1921b"/><path d="m125.14 20.6572s-1.435 3.771-10.74 7.364c0 0 6.548 8.9626 13.208 17.3837 0 0 2.669-7.7368 7.494-10.9417z" fill="#ffd0b6"/><path d="m135.112 34.4603c-1.422.9711-2.62 2.2828-3.611 3.682-3.069-2.3013-6.519-6.3407-7.541-9.271-.505-1.4498.832-5.3696 1.606-7.634z" fill="#eabfa7"/><path d="m124.952 21.3936c0 1.2273-1.066 5.006.224 6.5217 2.36 2.7723 9.119 7.2106 12.444 7.025 2.368-.1273 5.724-10.4032 6.224-11.9389s2.66-7.6938 1.126-9.34-14.358-5.24838-16.907.0568c-2.824 5.8804-3.111 7.6754-3.111 7.6754z" fill="#ffd0b6"/><path d="m150.247 10.0901c-1.26 8.24-6.626 9.317-17.198 3.1282-4.843-2.8336-1.419 2.2414-4.142 6.6475l-.89.3314c.029-.4434.092-2.2752-.819-2.2798-1.343 0-1.755 2.0313-1.884 3.2847l-.516.1917s-.055-9.185 1.247-12.10453c3.222-7.22746 12.535-3.32301 14.819-2.09414 7.208 3.87377 9.383 2.89497 9.383 2.89497z" fill="#2f2e41"/><g stroke-miterlimit="10"><path d="m132.812 12.5879c7.517 5.9341 13.423 7.341 16.357 3.8523" stroke="#2f2e41" stroke-width=".613667"/><path d="m126.54 15.287-.015-.0042c-1.8-.5119-3.673.5319-4.185 2.3313l-.418 1.4668c-.511 1.7994.532 3.6731 2.332 4.185l.014.0042c1.8.5119 3.674-.5318 4.186-2.3312l.417-1.4668c.512-1.7994-.532-3.6732-2.331-4.1851z" fill="#fff" stroke="#3f4d79" stroke-linecap="round" stroke-width=".767083"/><path d="m128.996 19.0307-.672 2.3626c-.212.7455-.712 1.3761-1.389 1.7532-.677.3772-1.477.47-2.222.2581l-.908-.2593c-.04-.0107-.079-.023-.118-.0368.733.1776 1.506.0641 2.157-.3167s1.13-.9992 1.334-1.7252l.672-2.3627c.208-.7248.127-1.5019-.226-2.1681-.353-.6663-.95-1.1699-1.667-1.4049l.12.0306.903.2547c.371.1036.717.2796 1.019.5177.303.2381.555.5337.742.8697.188.336.307.7058.35 1.0881.044.3822.012.7693-.095 1.139z" fill="#fff" stroke="#3f4d79" stroke-linecap="round" stroke-width=".767083"/><path d="m126.076 15.1571 2.761-9.6959c.122-.42794.327-.82773.603-1.17653.276-.34881.618-.63979 1.007-.85634.388-.21654.816-.35441 1.258-.40572.442-.05132.889-.01507 1.317.10666l9.819 2.79218c1.215.34519 1.767 1.30404 1.421 2.52064" stroke="#3f4d79" stroke-linecap="round" stroke-width=".767083"/></g><path d="m171.952 91.8185h-43.048c-1.965 0-3.211-1.9653-2.263-3.5701l14.575-24.6494c1.267-2.1479 3.682-3.4764 6.315-3.4764h43.048c1.966 0 3.211 1.9652 2.263 3.57l-14.574 24.6494c-1.272 2.1448-3.69 3.4765-6.316 3.4765z" fill="#eaeeff"/><path d="m171.53 92.6097h-41.28c-1.926 0-3.145-1.9254-2.216-3.4979l14.279-24.1493c1.243-2.1018 3.613-3.4059 6.187-3.4059h41.28c1.925 0 3.145 1.9254 2.215 3.4979l-14.278 24.1478c-1.243 2.1018-3.613 3.4074-6.187 3.4074z" fill="#c0c1ff"/><path d="m171.952 91.8185h-43.048c-1.965 0-3.211-1.9653-2.263-3.5701l14.575-24.6494c1.267-2.1479 3.682-3.4764 6.315-3.4764h43.048c1.966 0 3.211 1.9652 2.263 3.57l-14.574 24.6494c-1.272 2.1448-3.69 3.4765-6.316 3.4765z" stroke="#6562cf" stroke-miterlimit="10" stroke-width=".767083"/><path d="m172.532 91.8506h-78.6063c-.8286 0-1.5004.6717-1.5004 1.5004v.3314c0 .8286.6718 1.5004 1.5004 1.5004h78.6063c.828 0 1.5-.6718 1.5-1.5004v-.3314c0-.8287-.672-1.5004-1.5-1.5004z" fill="#d1d1ff" stroke="#6562cf" stroke-miterlimit="10" stroke-width=".9205"/></svg>