<svg fill="none" height="435" viewBox="0 0 407 435" width="407" xmlns="http://www.w3.org/2000/svg" xmlns:xlink="http://www.w3.org/1999/xlink"><mask id="a" height="435" maskUnits="userSpaceOnUse" width="407" x="0" y="0"><ellipse cx="203.998" cy="217.5" fill="#d9d9d9" rx="203" ry="217.5"/></mask><circle cx="206.498" cy="232.5" fill="#d9d9d9" r="200.5"/><g mask="url(#a)"><path d="m251.628 418.79s113.766-4.111 162.096 25.671c21.248 13.097-71.487 282.922-71.487 282.922s-30.205.505-46.309-7.553c0 0-21.73-148.587 32.149-207.359 0 0-124.567 17.326-180.073-22.194z" fill="#d2aa92"/><path d="m99.7992 128.075c-5.2446-5.585-27.521-40.3886-15.9511-66.8525s37.2059-30.8217 53.0509-24.8841c0 0 14.307-5.6792 35.491 14.295 20.374 19.2166 31.849 43.1316 22.317 57.7616-12.004 18.441-15.945 17.865-21.683 25.412-5.086 6.678-17.918 24.397-34.933 15.364-18.711-9.96-38.2918-21.096-38.2918-21.096z" fill="#45391d"/><path d="m105.618 120.288c-11.7989 21.289-23.8563 35.026-23.8563 35.026l48.6753 22.477s8.041-24.285 11.905-32.302c2.69-5.603-18.371-20.891-25.254-35.238-3.87-8.064-7.506-9.521-9.162-8.669-9.2676 4.716-2.308 18.706-2.308 18.706z" fill="#ffcfc9"/><path d="m114.45 120.581c-.435 1.891-1.709 12.11 4.293 16.885 3.741 2.978 12.645 8.516 21.525 12.674-2.009 4.787-4.417 11.623-6.337 16.738-7.894-4.933-17.678-13.284-20.403-25.765-2.854-13.096.922-20.532.922-20.532z" fill="#fab6ad"/><path d="m114.459 120.581c-.441 1.891-1.715 12.11 4.287 16.885s25.313 16.145 36.466 17.86 23.809-30.886 24.666-43.543c.858-12.6559 4.564-45.0457-21.231-45.0457-11.352 0-42.045 44.6177-44.188 53.8437z" fill="#ffcfc9"/><path d="m242.091 437.167s8.052-8.809 9.567-18.377c0 0-70.964-54.12-104.464-218.477l-3.553-.311s-5.033 132.578 98.45 237.165z" fill="#f0e1d4"/><path d="m147.1 200.037c24.273 13.039 67.276 97.681 67.276 97.681l-38.598 41.322c26.206 52.03 66.313 98.127 66.313 98.127-34.769 46.814-110.654 61.538-110.654 61.538s-96.2768-77.777-96.2768-212.945c0-71.845 23.9267-96.946 29.9524-105.256z" fill="#3f4d90"/><path d="m60.8066 179.67s44.3234 17.366 86.3334 20.638c0 0-.499-17.114-4.405-20.638-3.905-3.524-52.293-27.157-61.8602-25.519-9.5672 1.639-20.0682 25.519-20.0682 25.519z" fill="#475ca9"/><g stroke-miterlimit="10"><path d="m128.291 301.999 47.489 37.041" stroke="#475ca9" stroke-width="2.34921"/><g fill="#fff" stroke="#ffb000" stroke-width="2.93652"><path d="m392.102 329.949c5.044-.41 9.856-2.295 13.836-5.421s6.952-7.354 8.546-12.157l32.249-97.04c3.266-9.82 12.034-17.261 22.318-18.101l-51.871 4.241c-10.307.839-19.076 8.281-22.318 18.1l-32.243 97.04c-3.265 9.82-9.984 16.568-20.297 17.408z"/><path d="m393.723 333.632c5.06-.051 9.993-1.588 14.186-4.421s7.46-6.837 9.394-11.513l39.108-94.485c1.94-4.674 5.209-8.675 9.402-11.507 4.193-2.833 9.125-4.372 14.184-4.427l-52.04.523c-5.06.05-9.994 1.586-14.188 4.418-4.193 2.832-7.462 6.835-9.399 11.509l-39.108 94.515c-1.935 4.676-5.202 8.679-9.395 11.511-4.192 2.832-9.126 4.368-14.185 4.417z"/></g></g><path d="m197.598 352.601s11.017 13.279 37.493 13.215c12.698 0 115.164-76.843 115.164-76.843s26.887-3.001 34.393-8.152c7.506-5.15 20.714-32.818 19.639-36.894-2.248.13-4.412.899-6.239 2.216-1.826 1.317-3.24 3.127-4.074 5.219-2.748 6.408-13.173 6.866-13.173 6.866l2.244-7.806s-9.773 1.38-17.208 1.668c-7.436.288-17.619 18.307-19.452 19.017-1.832.711-110.166 41.47-116.339 45.622-6.172 4.152-32.448 35.872-32.448 35.872z" fill="#ffcfc9"/><path d="m232.063 313.411c1.61-2.015-12.985-15.775-17.683-15.693-4.699.082-42.539 38.087-39.35 45.134 3.189 7.048 15.018 16.85 20.638 12.498 5.621-4.352 36.395-41.939 36.395-41.939z" fill="#475ca9"/><g stroke="#ffb000" stroke-linecap="round" stroke-miterlimit="10" stroke-width="3.52382"><path d="m5.99805 292.937s18.59405 170.189 122.79895 221.267c63.006 30.88 132.631 34.956 177.842 33.347"/><path d="m30.2402 389.619h57.1094c28.4294-.001 55.9374 10.084 77.6294 28.461 21.691 18.377 36.159 43.854 40.83 71.897l8.569 51.442"/></g></g></svg>