<svg fill="none" height="435" viewBox="0 0 407 435" width="407" xmlns="http://www.w3.org/2000/svg" xmlns:xlink="http://www.w3.org/1999/xlink"><mask id="a" height="435" maskUnits="userSpaceOnUse" width="407" x="0" y="0"><ellipse cx="203.998" cy="217.5" fill="#d9d9d9" rx="203" ry="217.5"/></mask><circle cx="206.498" cy="232.5" fill="#d9d9d9" r="200.5"/><g mask="url(#a)"><path d="m346.299 466.761h22.381c19.792 0 40.882-25.35 47.107-56.628l14.203-71.366c6.225-31.279-4.77-56.628-24.574-56.628h-22.369c-19.786 0-40.875 25.349-47.101 56.628l-14.209 71.366c-6.225 31.272 4.77 56.628 24.562 56.628z" fill="#d1d1ff" stroke="#6562cf" stroke-miterlimit="10" stroke-width="3.15054"/><path d="m333.065 466.761h22.381c19.792 0 40.881-25.35 47.107-56.628l14.202-71.366c6.226-31.279-4.769-56.628-24.574-56.628h-22.369c-19.785 0-40.875 25.349-47.1 56.628l-14.209 71.366c-6.225 31.272 4.77 56.628 24.562 56.628z" fill="#fff" stroke="#6562cf" stroke-miterlimit="10" stroke-width="3.15054"/><path d="m358.825 463.289c-32.136 45.538-160.854 17.687-160.854 17.687-.851-17.694.441-64.12-30.957-90.597l72.594 1.89c57.34 5.363 99.809-6.099 113.023-12.009 11.342 16.496 28.878 50.874 6.194 83.029z" fill="#6562cf"/><path d="m147.923 393.183s-88.8451 5.413-96.4505 24.379c-23.7677 59.129 68.4045 245.408 74.2145 291.198 4.864 38.525-26.9754 59.129-26.9754 59.129s14.3284 9.849 34.4354 4.411c4.304-1.166 8.292-6.572 16.326-13.094 5.973-4.845 20.686-13.566 20.434-20.926-.415-12.123-18.084-21.48-17.586-29.048.498-7.567 15.192-108.668 10.082-152.139-5.671-48.518-42.217-75.033-42.217-75.033l78.07-.945s-12.218-63.723-50.333-87.932z" fill="#b65a18"/><path d="m199.486 481.02s6.691-61.335-34.026-91.863c-3.22-2.414-12.205.535-17.372 1.556-1.891.378-2.388 2.52-1.261 4.115 26.988 38.795 27.536 72.065 25.677 91.724z" fill="#8382d8"/><path d="m377.73 482.822c-13.654 39.495-125.952 34.284-145.095 32.892.004-.027.004-.055 0-.082-.85-17.693-6.03-73.521-37.428-99.998l41.675-10.082 4.676-13.1c56.023 4.896 97.49-6.2 110.829-12.073 9.2 12.237 40.554 58.424 25.343 102.443z" fill="#8382d8"/><path d="m167.457 421.538s-92.2163 17.769-96.1923 44.738c-3.976 26.968 54.4223 235.679 48.1213 273.989-6.301 38.311-47.7684 64.801-47.7684 64.801s34.3154 6.546 52.7084 0c4.197-1.5 11.815-11.594 18.847-15.614 6.679-3.819 20.686-10.416 20.434-17.776-.416-12.123-18.084-22.11-17.586-29.678.497-7.567 28.424-116.23 23.314-159.701-5.671-48.518-23.314-68.732-23.314-68.732l51.605-.945s9.666-54.75-30.169-91.082z" fill="#c36f0b"/><path d="m201.97 518.612 25.425 2.521c.71.001 1.413-.143 2.067-.423.653-.279 1.242-.689 1.732-1.203.49-.515.87-1.124 1.117-1.79s.356-1.376.32-2.085c-.857-17.813-6.1-74.296-38.084-100.553-1.302-1.063-2.835-1.806-4.477-2.17-1.641-.363-3.345-.336-4.974.078l-21.424 5.514s43.301 29.577 33.125 94.018c-.122.75-.079 1.518.125 2.249.204.732.565 1.411 1.056 1.99.492.58 1.104 1.045 1.793 1.365s1.439.487 2.199.489z" fill="#e5e6ff"/><path d="m302.276 144.952c8.702 4.581 29.338 15.01 42.274 37.24s-15.419 103.085-15.041 127.206c.379 24.12 23.245 65.896 27.227 67.787 3.983 1.89-46.754 22.684-121.61 14.662 0 0 5.923-33.736 1.6-48.398-4.322-14.663-24.347-57.195-24.347-57.195s-22.753-17.303-17.902-31.027c3.233-9.142 37.322-65.606 37.322-65.606z" fill="#ffb000"/><path d="m377.91 265.605s-23.144 27.259-65.361 27.259c0 0-33.806-108.845 4.877-122.588 38.682-13.742 60.484 95.329 60.484 95.329z" fill="#ffc033"/><path d="m380.627 337.223c-1.972 18.21-150.079 42.784-150.079 42.784l-.044-.088c-2.691 1.38-12.558 5.955-19.206 2.571-7.756-3.963-14.612-5.671-19.357-4.631-5.86 1.26-12.533 5.784-15.872 4.782-4.049-1.176-7.833-3.121-11.147-5.727 3.257-3.761 6.702-7.355 10.321-10.769-3.333 1.046-8.096 3.781-10.56 4.606-3.951 1.361-5.451-2.47-5.451-2.47s9.49-6.692 12.073-8.191c4.512-2.558 14.657-5.041 17.442-5.041 4.87.126 30.969 3.421 43.887 5.759 21.215-11.083 75.146-38.89 96.078-45.998l-7.12-22.961s30.044-2.93 51.159-22.054c0 .057 9.911 48.594 7.876 67.428z" fill="#f3d2ab"/><path d="m169.168 378.155s14.253-12.319 17.385-12.602c5.519-.53 12.728-1.261 12.728-1.261" stroke="#a55f2b" stroke-linecap="round" stroke-miterlimit="10" stroke-width="2.52043"/><path d="m173.809 380.839s12.602-10.082 15.752-10.39c5.52-.53 12.728-1.261 12.728-1.261" stroke="#a55f2b" stroke-linecap="round" stroke-miterlimit="10" stroke-width="2.52043"/><path d="m376.095 288.106c-9.295 5.457-26.106 12.709-52.425 10.554l-2.086-6.735s30.05-2.924 51.158-22.054c0-.019 1.588 7.706 3.353 18.235z" fill="#d8bb99"/><path d="m328.861 81.1223s-4.864 67.7617-147.288 86.1857c0 0-18.581-15.091-7.561-30.32 11.021-15.23 23.22-20.832 12.81-31.153-10.409-10.321-24.952-31.7132-3.944-51.4292 21.008-19.7161 69.028-45.84663 103.911-26.7607 34.883 19.086-7.895 54.0821 42.072 53.4772z" fill="#3f4d79"/><path d="m174.667 167.346s-18.582-15.091-7.561-30.314c11.021-15.224 22.003-20.832 11.588-31.153-10.416-10.3208-21.166-35.1155 2.558-51.4605 27.548-18.9789 56.502-27.605 90.54-14.4925" stroke="#3f4d79" stroke-miterlimit="10" stroke-width="2.52043"/><path d="m265.574 85.8418s5.791 40.7682 36.597 59.1042c0 0-20.164 40.409-71.593 46.943 0 0 14.682-26.723 14.644-35.236-.038-8.512-6.742-33.137-6.742-33.137z" fill="#f3d2ab"/><path d="m267.161 101.04c.517 19.023-12.804 33.9-24.045 41.745-1.966-9.402-4.637-19.269-4.637-19.269l27.094-37.6742c.424 2.6342.985 5.2443 1.683 7.8196-.133 2.2432-.171 4.7132-.095 7.3786z" fill="#d8bb99"/><path d="m262.42 69.0433c-10.485-11.9721-26.307-20.4407-40.711-15.8157-22.148 7.1202-25.091 43.7988 3.346 77.0934 3.371 3.945 36.099-8.405 39.413-34.6179 1.733-13.6922-2.048-26.6598-2.048-26.6598z" fill="#f3d2ab"/><g fill="#fff" stroke="#6562cf" stroke-miterlimit="10" stroke-width="3.78064"><path d="m60.4363 381.91h-9.691c-2.1646.002-4.2825-.628-6.0945-1.812-1.8119-1.184-3.2392-2.871-4.107-4.854l-62.62-143.898c-.7376-1.693-1.0421-3.543-.8859-5.382.1561-1.84.7679-3.613 1.7802-5.157 1.0122-1.544 2.3931-2.812 4.018-3.689 1.6249-.878 3.4426-1.336 5.2891-1.336z"/><path d="m260.026 397.839h-191.609c-2.0916 0-4.1626-.412-6.0949-1.212-1.9322-.801-3.6879-1.974-5.1665-3.454-1.4787-1.479-2.6514-3.235-3.4512-5.168-.7998-1.932-1.2111-4.003-1.2103-6.095h191.6029c4.225 0 8.276 1.678 11.264 4.666 2.987 2.987 4.665 7.039 4.665 11.263z"/></g></g></svg>