<svg fill="none" height="435" viewBox="0 0 407 435" width="407" xmlns="http://www.w3.org/2000/svg" xmlns:xlink="http://www.w3.org/1999/xlink"><mask id="a" height="435" maskUnits="userSpaceOnUse" width="407" x="0" y="0"><ellipse cx="203.998" cy="217.5" fill="#d9d9d9" rx="203" ry="217.5"/></mask><circle cx="203.498" cy="232.5" fill="#d9d9d9" r="200.5"/><g mask="url(#a)"><path d="m226.791 486.169 44.004-129.323h31.463l-44.005 129.323z" fill="#f0e1d4" stroke="#d8baa3" stroke-linecap="round" stroke-miterlimit="10" stroke-width="2.84346"/><path d="m218.154 486.169 44.005-129.323h31.462l-44.004 129.323z" fill="#fff" stroke="#d8baa3" stroke-linecap="round" stroke-miterlimit="10" stroke-width="2.84346"/><path d="m389.648 275.352h-167.954c-4.287 0-8.192 3.004-10.025 7.717l-44.88 131.643c-1.85 4.701 1 10.117 5.281 10.117h165.825c5.553 0 10.648-3.905 13.023-10.037l44.011-129.323c1.826-4.707-1-10.117-5.281-10.117z" fill="#fff" stroke="#d8baa3" stroke-linecap="round" stroke-miterlimit="10" stroke-width="2.84346"/><path d="m38.8025 397.586-27.693 4.319c-3.49176 8.47-11.721339 18.081-13.47953 19.013-1.90625.987-11.81387 6.329-11.81387 6.329s-1.8877-3.257-.2899-6.107c1.0487-1.851 7.53247-5.028 6.78601-7.625s-4.62061-2.295-6.33571-1.53c-4.1086 1.851-11.4868 6.465-10.6972 13.344.6786 5.805-4.6576 6.354-4.6576 6.354s-2.8008-7.403-2.9921-8.803c-.1912-1.401.9501-15.275 4.3184-19.347 2.6897-3.226 15.7991-9.537 23.11563-12.8l37.01457-16.762z" fill="#ffcfc9"/><path d="m158.157 270.306s5.793 81-12.338 101.654-79.4827 32.709-107.6755 26.293l-7.0205-24.523c27.8474-18.821 68.4771-43.479 68.4771-43.479s13.5229-113.493 35.1149-127.645c21.591-14.152 22.714 51.678 23.442 67.7z" fill="#6e9c57"/><path d="m31.3633 374.372c3.7877 7.202 5.9722 15.138 6.4035 23.264" stroke="#fff" stroke-linecap="round" stroke-miterlimit="10" stroke-width="2.27477"/><path d="m33.3438 378.512 15.7065-8.569" stroke="#fff" stroke-linecap="round" stroke-miterlimit="10" stroke-width="2.27477"/><path d="m34.9824 382.904 9.9693-3.134" stroke="#fff" stroke-linecap="round" stroke-miterlimit="10" stroke-width="2.27477"/><path d="m36.6504 389.104 19.9015-3.091" stroke="#fff" stroke-linecap="round" stroke-miterlimit="10" stroke-width="2.27477"/><path d="m37.7676 393.965h9.778" stroke="#fff" stroke-linecap="round" stroke-miterlimit="10" stroke-width="2.27477"/><path d="m268.228 358.042s24.226 48.119 33.425 85.288c10.037 40.568-15.349 67.484-72.179 67.965-45.583.389-36.706 29.729-36.706 29.729s-21.376 11.684-44.418 0c-24.318-12.338-36.632-5.941-54.0347.771-21.9126 8.495-41.6537-7.865-58.6311-8.896-25.4784-1.542-32.40628 16.614-59.0753.778 0 0-9.6176-67.533 30.52471-93.394 40.14229-25.861 169.69339-53.628 164.59139-79.921z" fill="#3f4d90"/><path d="m134.711 202.606c15.515-10.71 53.566-23.64 68.347-38.051l61.334-2.955c19.938 15.515 57.255 36.249 65.75 48.736l-41.364 80.938s-18.1 56.873-20.685 68.323-67.243 13.689-98.274 2.221c0 0-9.253-50.587-12.19-53.554-2.936-2.967-18.84-11.801-15.873-33.615z" fill="#76a85e"/><path d="m170.439 361.201s-10.488-49.97-13.424-52.937c-2.937-2.967-18.205-11.721-15.873-33.615 1.172-11.006 10.228-30.007 10.228-30.007" fill="#76a85e"/><path d="m170.439 361.201s-10.488-49.97-13.424-52.937c-2.937-2.967-18.205-11.721-15.873-33.615 1.172-11.006 10.228-30.007 10.228-30.007" stroke="#fff" stroke-linecap="round" stroke-miterlimit="10" stroke-width="2.27477"/><path d="m184.914 404.422c-.327 1.894-1.9 8.02-8.23 11.061-7.403 3.541-8.599 4.016-15.077 7.576-5.163 2.844-8.735 9.42-11.018 12.165-5.12 6.169-9.106-12.48-7.773-16.305 5.959-9.414 18.396-21.592 28.088-27.446 2.869-1.583 5.841-2.972 8.896-4.158 7.915-3.085 21.752-8.02 37.064-13.406l6.786 23.665z" fill="#ffcfc9"/><path d="m216.816 373.755c27.848-18.822 74.677-37.927 74.677-37.927l-3.609-73.826c-.863-17.601 5.614-34.893 18.23-47.2 11.265-10.987 24.677-15.46 32.172 12.955 0 0 24.812 106.824-.617 144.221-15.423 22.715-85.67 32.697-113.863 26.318z" fill="#6e9c57"/><g stroke-linecap="round"><path d="m216.816 373.755c27.848-18.822 74.677-37.927 74.677-37.927l-2.708-44.554" stroke="#fff" stroke-miterlimit="10" stroke-width="2.27477"/><path d="m216.197 374.372c3.785 7.203 5.969 15.138 6.404 23.264" stroke="#fff" stroke-miterlimit="10" stroke-width="2.27477"/><path d="m218.176 378.512 15.7-8.569" stroke="#fff" stroke-miterlimit="10" stroke-width="2.27477"/><path d="m219.812 382.904 9.976-3.134" stroke="#fff" stroke-miterlimit="10" stroke-width="2.27477"/><path d="m221.484 389.104 19.902-3.091" stroke="#fff" stroke-miterlimit="10" stroke-width="2.27477"/><path d="m222.6 393.965h9.778" stroke="#fff" stroke-miterlimit="10" stroke-width="2.27477"/></g><path d="m306.76 119.237s-81.433 24.639-150.958 21.314c0 0-23.141-28.822-9.359-41.5121 12.449-11.456 29.044-18.2235 22.147-27.3353s-13.535-22.5357 5.923-33.3748c19.457-10.8391 54.423-27.7055 75.731-17.6251 15.726 7.4646 7.021 28.3778 16.49 28.7048 10.963.3763 24.917 7.662 21.191 26.0089-4.805 23.6338 25.732 4.9044 18.835 43.8196z" fill="#722d54"/><path d="m147.167 140.551s-26.953-27.366-7.514-43.9673c12.862-10.9872 29.044-15.7559 22.147-24.8677s-13.535-22.5357 5.922-33.3748 54.88-23.1897 75.738-18.8713" stroke="#722d54" stroke-miterlimit="10" stroke-width="1.70608"/><path d="m249.628 96.5835s-3.326 44.3315 14.805 65.0225c0 0-22.93 34.726-62.092 36.2-39.161 1.475.759-33.245.759-33.245s9.605-12.955 8.119-45.812z" fill="#ffcfc9"/><path d="m249.374 96.7253c-5.46 14.3737-18.68 42.6157-39.112 45.2817 1.033-7.709 1.351-15.497.95-23.264z" fill="#fab6ad"/><path d="m249.628 96.5836s-11.826 30.0434-41.382 30.0434c-5.17 0-24.973-19.784-23.511-51.8203 1.462-32.0362 36.071-32.9245 36.071-32.9245s-2.468 33.4982 26.977 38.1806c0 0 7.502-6.6503 10.488-.7403s-8.643 17.2611-8.643 17.2611z" fill="#ffcfc9"/><g stroke-miterlimit="10"><path d="m220.805 41.2838s-11.105 34.1151 18.34 38.7975" stroke="#722d54" stroke-width="1.70608"/><path d="m257.26 108.897c4.77 0 8.637-3.867 8.637-8.637 0-4.7695-3.867-8.6363-8.637-8.6363s-8.637 3.8668-8.637 8.6363c0 4.77 3.867 8.637 8.637 8.637z" stroke="#fff" stroke-width="2.27477"/><g fill="#fff"><path d="m263.72 158.922c.616-.067 1.992 2.573 1.48 2.918-7.94 5.324-34.294 13.572-51.728 8.131-22.986-7.181-8.106-13.658-6.169-12.566 6.077 3.337 30.537 4.195 56.417 1.517z" stroke="#d8baa3" stroke-linecap="round" stroke-width="2.84346"/><path d="m273.158 156.257s8.637-12.955 20.901-11.197c0 0-6.052 13.394-20.901 11.197z" stroke="#d8baa3" stroke-linecap="round" stroke-width="2.84346"/><path d="m274.066 157.596s22.715-.092 31.265 16.509c0 0-20.981 3.602-31.265-16.509z" stroke="#d8baa3" stroke-linecap="round" stroke-width="2.84346"/><path d="m268.982 162.877c2.556 0 4.627-2.072 4.627-4.627s-2.071-4.627-4.627-4.627c-2.555 0-4.627 2.072-4.627 4.627s2.072 4.627 4.627 4.627z" stroke="#d8baa3" stroke-linecap="round" stroke-width="2.84346"/><path d="m142.837 423.318h-167.9039c-2.0999-.004-4.1558-.603-5.9291-1.727-1.7732-1.125-3.1913-2.729-4.0896-4.627l-51.1048-108.305c-.4204-.889-.6091-1.87-.5485-2.851.0605-.982.3682-1.932.8946-2.762.5264-.831 1.2543-1.515 2.116-1.988.8617-.474 1.8292-.722 2.8125-.721h165.8316c2.7301-.001 5.4041.774 7.71 2.236 2.3059 1.461 4.1486 3.549 5.313 6.018l50.1792 106.398c.42.89.609 1.872.548 2.854s-.369 1.933-.896 2.764-1.256 1.515-2.118 1.989-1.831.722-2.815.722z" stroke="#ffb000" stroke-width="3.41215"/><path d="m237.046 423.318h-267.8069c-3.0596 0-5.5399 2.48-5.5399 5.539v1.222c0 3.06 2.4803 5.54 5.5399 5.54h267.8069c3.059 0 5.54-2.48 5.54-5.54v-1.222c0-3.059-2.481-5.539-5.54-5.539z" stroke="#ffb000" stroke-width="3.41215"/></g></g></g></svg>