<svg fill="none" height="53" viewBox="0 0 320 53" width="320" xmlns="http://www.w3.org/2000/svg"><g fill="#fff"><path d="m0 13.2168h10.7443v.6361h-3.70276l4.99646 14.136 4.6479-11.1596-1.1155-2.9371h-1.8824v-.6361h8.8697v.6361h-2.9901l5.1746 14.0103 5.5697-14.0103h-4.1908v-.6361h7.2662v.6361h-2.3627l-7.9789 20.2066-6.0577-16.4056-6.7782 16.4056-7.18093-20.2459h-3.02887z"/><path d="m34.3242 31.9787h3.4317v-31.326875h-3.4317v-.651825h7.2662v17.7878h.093c.2143-.5146.4735-1.0087.7746-1.4765.3944-.628.8831-1.1898 1.4486-1.6649.6676-.5703 1.4207-1.029 2.231-1.3586.9977-.4 2.0647-.5923 3.1373-.5654 1.7043-.0845 3.3874.4133 4.7796 1.4136 1.2342.9685 1.8514 2.5052 1.8514 4.6099v13.2328h3.4317v.6283h-10.6979v-.6283h3.4317v-14.5993c.0445-1.032-.2468-2.0501-.8289-2.8979-.3046-.3855-.6972-.69-1.144-.8871-.4468-.197-.9342-.2807-1.4201-.2438-.9422-.0002-1.8721.2173-2.719.6362-.8662.4281-1.6382 1.0291-2.2697 1.7669-.6778.7802-1.2035 1.6836-1.5493 2.6623-.3793 1.0731-.5682 2.2057-.5577 3.3455v10.2093h3.4316v.6283h-10.6901z"/><path d="m62.4591 22.9384c-.0075-1.4212.3191-2.8238.9529-4.0916 1.2306-2.4549 3.2894-4.3805 5.8021-5.4266 1.1457-.5077 2.3826-.7698 3.6331-.7698 1.2504 0 2.4873.2621 3.6331.7698 2.5086 1.0494 4.564 2.9744 5.7943 5.4266.6398 1.2743.9691 2.6854.9606 4.1152.0056 1.3845-.3018 2.7519-.8986 3.9973-1.1609 2.47-3.172 4.425-5.6549 5.4973-1.2086.5386-2.5144.8168-3.8345.8168-1.3202 0-2.626-.2782-3.8345-.8168-1.2298-.5303-2.3554-1.2804-3.3233-2.2146-.9658-.9383-1.7535-2.0483-2.3239-3.2748-.6044-1.2542-.9146-2.633-.9064-4.0288zm4.4543 0c-.0435 1.7154.1204 3.4297.488 5.1047.2322 1.0499.6723 2.0411 1.2937 2.9135.4725.6321 1.1279 1.0988 1.8746 1.3351 1.4877.4176 3.0594.4176 4.5472 0 .7467-.2363 1.4021-.703 1.8746-1.3351.6214-.8724 1.0615-1.8636 1.2937-2.9135.3675-1.675.5314-3.3893.488-5.1047.025-1.5237-.0943-3.0464-.3563-4.5471-.1786-1.0547-.549-2.0666-1.0923-2.9842-.4444-.7217-1.0882-1.2952-1.8514-1.6492-1.6929-.6599-3.567-.6599-5.2598 0-.762.3559-1.4052.929-1.8514 1.6492-.5433.9176-.9137 1.9295-1.0923 2.9842-.2581 1.5012-.3774 3.0235-.3563 4.5471z"/><path d="m15.8026 42.3077c-.0155-.3619-.1164-.7147-.2944-1.0288-.0465 0-.0465-.0471-.0465-.0706 0-.0236.1162-.0472.1395-.0472.103.0369.1997.0899.2866.1571.2841.3118.4394.7222.4338 1.1466v.3377c.0044.1973-.0496.3915-.155.5576-.3651.525-.7691 1.0212-1.2084 1.4842l-1.0458 1.0288c-.3715.4601-.8264.844-1.3401 1.1309-.1549.1021-.3641.2435-.5733.3691-.2694.1433-.5523.2591-.8443.3456-.1433.0146-.2856.0382-.4261.0706-.1477.0594-.3081.079-.4656.057-.1574-.022-.30658-.0849-.43296-.1826 0 0-.04648 0-.04648-.0471-.17211-.2035-.29245-.4466-.35051-.708-.05807-.2615-.05209-.5334.01741-.792l.06972-.3848v-.0707h-.05423s-.1007 0-.1162.0707c-.35833.3983-.73851.7759-1.13873 1.1308-.20053.2965-.44331.5611-.72042.7854-.18591.4005-.61972.4869-.89859.7853-.03558.0287-.07658.0497-.12047.0617s-.08975.0148-.13474.0082-.08817-.0225-.12688-.0467c-.03871-.0241-.07212-.0561-.09819-.0939-.0944-.1218-.15376-.2676-.17153-.4214-.01777-.1539.00674-.3097.07083-.4503.06608-.1791.14639-.3524.24014-.5183.39507-.7853.82887-1.5707 1.20845-2.356.10529-.1307.1914-.2762.25563-.4319.00515-.0545.02884-.1055.06701-.1441.03816-.0387.08842-.0628.14214-.068.09621-.0212.19599-.0196.29144.005.09545.0245.18397.0712.25856.1364.0308.039.04759.0875.04759.1374 0 .05-.01679.0984-.04759.1374-.13098.1829-.23534.3839-.30986.5969-.09632.3405-.2539.66-.46478.9424-.0803.19-.1789.3715-.29437.5419-.1007.1885-.22465.3455-.30986.5183v.1256c.11115-.038.20657-.1127.27113-.212.41831-.3612.77465-.7853 1.17746-1.1309.20287-.2606.44618-.486.72042-.6675.37958-.3455.77466-.6597 1.13096-.9895.1805-.1483.3489-.3111.5035-.4869.0924-.0906.2128-.1461.3409-.1571.1937-.0707.3099 0 .4648.1335v.1963c0 .0393-.1782.1414-.2634.2435-.1077.1205-.2061.2491-.2944.3848-.0697 0-.0852.0707-.1549.1178-.1771.148-.3133.3402-.3951.5576l-.5112 1.0523c-.1253.2425-.19169.5117-.19369.7854 0 .1963.06971.2277.20919.2277.3402.0043.6768-.071.9838-.2199.2026-.1269.4121-.2423.6274-.3455.0796-.0345.1529-.0823.2169-.1414.6275-.3904 1.221-.8344 1.774-1.3272.0901-.1161.2004-.2145.3253-.2906.093-.0549.1549-.1256.2944-.0942-.0465.0942-.1162.1257-.1704.1806-.0543.055-.2557.1571-.2789.3456h.1239c.1007-.0918.1939-.1916.2789-.2985.1549-.102.2401-.2591.4261-.3141.0195-.0559.0195-.1169 0-.1728h-.1395c-.0026-.0421.0102-.0838.0359-.1171s.0625-.0559.1036-.0635v.1806c.0223.0092.0473.0092.0697 0 .3873-.3743.7423-.7816 1.0612-1.2172-.0279.0077-.0573.0077-.0852 0-.1162.1256-.2246.267-.3408.4005-.1266.1638-.2723.3114-.4338.4398.0086-.0415.0086-.0842 0-.1257.062-.1178.1859-.2042.2556-.3141.02-.0495.0489-.0947.0852-.1335v-.0707.0707c.1168-.1101.2002-.2518.2402-.4084h-.0852c0-.0628 0-.157.0852-.157v.0471c.0852 0 .0852-.0864.0852-.1728h-.0852c0-.0471 0-.1414.0852-.1728v.1728c.0852-.0471.0852-.1178 0-.1728v-.212c.0387-.0459.0677-.0994.0852-.1571v.1571c-.0063.0231-.0063.0475 0 .0707.062 0 .062-.0707.062-.0864.0146-.0201.0238-.0437.0265-.0686.0027-.0248-.0011-.0499-.011-.0728zm-3.0057 3.856c-.0327-.0064-.0667-.0014-.0962.0143-.0296.0157-.053.0411-.0664.0721.0929-.0157.1626.0393.1626-.0864zm.3719-.2592c-.0852 0-.155 0-.186.0864.1007-.0157.155.0157.186-.1021zm.7049-.6125h-.1162c-.221.1782-.4188.384-.5887.6125h.0542c.2531-.1672.4736-.3801.6507-.6282z"/><path d="m24.2533 45.5591c-.2776.044-.5519.107-.8211.1885-.0193.039-.0493.0717-.0864.0939-.0371.0223-.0797.0333-.1228.0317-.2203.0006-.4402.0163-.6584.0471-.3096.0206-.6201.0206-.9296 0-.5113 0-.4958-.0707-.7746.3848l-.6043.644c0 .0471 0 .0707-.0697.1021-.4958.3141-.9063.7147-1.4253.9974-.3424.1899-.7253.2923-1.1155.2984-.296.0022-.5811-.1134-.794-.3219s-.3367-.4933-.3448-.7933c.0014-.1624.0357-.3228.1007-.4712.1308-.6272.4159-1.2108.8289-1.6963.1859-.2199.3409-.4712.55-.6989.072-.0581.1297-.1323.1686-.2168.039-.0845.0582-.1769.0561-.2701-.0142-.0849-.0112-.1719.0088-.2556s.0565-.1624.1074-.2313c.1148-.1349.2418-.2585.3795-.3691.2242-.1102.4544-.2072.6895-.2906.0972-.0609.2121-.0858.3253-.0707.1578-.0393.3225-.0393.4803 0 .129.0106.2587-.0082.3796-.055.2401-.0864.4338.055.6352.1257.0852 0 .0852.157 0 .2042-.0852.0471-.1007 0-.0465.0549.0654.125.1461.2411.2402.3456.1627.1817.2738.4047.3215.6453.0478.2406.0303.4898-.0504.7212-.0616.2089-.1366.4135-.2247.6125.2781.0627.5663.0627.8444 0 .4183-.0707.8289-.1649 1.2627-.2513.2401-.0864.4802-.1178.7746-.1885.1383-.0353.2643-.1087.3641-.212.1404-.0452.2865-.069.4338-.0707.0465-.0471.1549.2513.1549.267zm-4.1831.2748s-.0697 0-.0852-.0706c-.5812-.1178-1.101-.444-1.4641-.9189-.0852-.0942-.1549-.0942-.1704 0-.1637.2271-.2966.4753-.3951.7382-.1549.3299-.3098.644-.4957.9738-.186.3299-.2247.6283-.3641.8875-.0543.1099.0542.1963.1549.2277h.2711c.1689.0133.3381-.0221.4881-.1021.6123-.307 1.1784-.701 1.6809-1.1701.1374-.1463.2822-.2852.4338-.4163 0 0-.0155-.1492-.0697-.1492zm.7049-2.6701c-.035-.0484-.0799-.0886-.1317-.1178 0 0-.0852 0-.1084 0-.238.117-.4616.262-.6662.4319-.2377.1517-.4631.3224-.6739.5105l-.3796.3456c-.0197.0096-.0362.0247-.0478.0434-.0116.0188-.0178.0404-.0178.0626 0 .0221.0062.0438.0178.0625.0116.0188.0281.0339.0478.0435.0455.0488.0869.1013.1239.1571.1635.154.3637.2623.581.3141.2952.1109.6018.1873.9141.2277.0643.0153.1316.0099.1927-.0154.0611-.0254.1129-.0694.1481-.1259.1972-.2974.3171-.6405.3486-.9974.0295-.1758.0112-.3564-.053-.5224-.0641-.1661-.1717-.3112-.3111-.42z"/><path d="m33.3952 44.4742c-.0281.0986-.0726.1916-.1317.2749-.1395.2277-1.3479 1.0131-1.4796 1.2408-.0997.1204-.2284.2126-.3737.2677-.1452.055-.302.071-.4552.0464-.0518.0068-.1045-.0032-.1504-.0286s-.0828-.0648-.1052-.1127c0-.1021-.0697-.1571-.093-.2435-.0912-.1198-.1528-.26-.1798-.4089-.0269-.1489-.0184-.3022.0249-.4471 0-.0471-.0852-.1021-.1317-.0864-.1782.0864-.3641.1414-.519.2278-.7399.4356-1.4468.9265-2.1148 1.4686-.0991.0743-.2026.1425-.3098.2041-.0978.1003-.2013.1947-.3099.2828-.2295.1807-.4283.3982-.5887.6439-.2803.3253-.5391.6689-.7747 1.0288-.0852.1964-.2401.2827-.3098.4398-.0698.1571-.124.1414-.2247.0864s-.1394-.055-.1394-.055c-.0852-.1335-.1859-.2277-.2557-.3455-.0194-.1328-.0194-.2678 0-.4005.0355-.0872.0824-.1691.1395-.2435.2711-.5105.55-.9974.8443-1.5707.2944-.5733.6662-1.2408.9761-1.8691.1577-.2722.29-.5588.3951-.856.0241-.0486.0581-.0917.0995-.1263.0415-.0347.0896-.0602.1414-.075.0517-.0147.1059-.0184.1591-.0108s.1043.0264.15.0551l.2788.157c.0543.0864.1007.2121 0 .267-.1671.247-.3098.5101-.426.7854l-.4648.856v.0864h.0465c.6964-.5846 1.4521-1.0927 2.2542-1.5157.4338-.2121.8676-.3691 1.2782-.5812.1424-.0658.3023-.0823.4549-.0468.1527.0355.2895.121.3894.2432l.2712.2984c.037.0556.0528.123.0442.1896-.0085.0665-.0408.1276-.0907.1717-.0987.0719-.1763.1696-.2247.2827-.0542.212-.2401.3455-.2788.5418.7392-.3886 1.458-.8158 2.1535-1.28 0 0 .031.1413.031.157z"/><path d="m42.5499 38.734c-.0465 0-.0465.0707 0 .1021s-.0465.2278-.1859.1963c-.0852.1021-.1007.2278-.1859.2749-.1722.2117-.3585.4112-.5578.5969-.036.0393-.0809.0692-.1308.087-.05.0178-.1034.023-.1558.0151.0009.0298-.0049.0594-.017.0867-.012.0272-.0301.0512-.0527.0703-.0518.038-.1094.0672-.1704.0864.0464 0 .0464.0707.0697.0864.0232.0157 0 .055 0 .0707v.055c-.2123.1618-.4094.3432-.5888.5418 0 .0707-.0852.1021-.1162.1728-.2375.1365-.4353.3343-.5732.5733 0 .0707 0 .0864-.0697.0864-.1704.0707-.2402.2277-.3951.3377-.1549.1099-.1859.2042-.3098.2906-.1823.1546-.3556.3198-.5191.4947-.5096.4349-1.0423.8413-1.5957 1.2173-.3723.3069-.8099.522-1.2782.6282-.0852 0-.1549.0864-.2169.1021-.0374.0457-.0788.0878-.1239.1257 0 .2277-.155.3455-.2402.5026s-.2246.3141-.3408.4555c-.095.1179-.1494.2641-.155.4162.0962-.0314.1874-.0763.2712-.1335.4113-.363.8432-.7013 1.2936-1.0131.1926-.1458.4004-.2696.6198-.3691.0595-.0685.1376-.1177.2246-.1413.062-.0629.1317-.1885.2866-.1178.0658-.0795.1356-.1556.2092-.2278.1007-.0212.1958-.064.2788-.1256.282-.0591.547-.1826.7747-.3613.1626-.1476.3706-.2337.5887-.2434.0542-.0297.1113-.0534.1704-.0707.2252-.1144.4773-.1634.7282-.1414.1575.0026.3109.0514.4415.1406.1307.0893.2329.215.2944.362.0288.0351.0427.0803.0388.1257-.0506.2284-.1397.4463-.2634.644-.0645.2287-.197.4317-.3796.5811-.2522.2346-.5273.4425-.8211.6204l-.6585.4712c-.0465.0707-.0697.0943-.1162.0943-.3486 0-.5887.3298-.914.4162-.3124.1603-.6511.2615-.9993.2984-.1007 0-.155.0471-.2092.1571-.0303.1025-.051.2077-.062.3141.0183.3296.0183.6599 0 .9895 0 .0707 0 .0864.0697.1414.0087.0304.0271.0569.0524.0754s.0559.0279.0871.0267c.4704.0676.95.0135 1.3943-.1571.561-.214 1.1027-.4768 1.6191-.7853.2401-.1021.4415-.2042.6816-.3299.2402-.1256.6198-.3298.8986-.5183.2962-.2081.6129-.3845.9451-.5262.3951-.212.7747-.4397 1.1232-.6675.1317-.0471.2557-.1728.4261-.2591.0771-.024.1484-.0641.2092-.1178.2878-.2127.5999-.3894.9295-.5262.1491-.0506.2882-.1277.4106-.2278.0626-.0558.1397-.0921.2221-.1046.0825-.0126.1667-.0008.2427.034.0852 0 .1704 0 .1859.0706.0155.0707.2634.1885.2634.3849v.0706s0 0-.0697 0c-.3342.0394-.6508.1727-.9141.3848-.0898.0148-.1814.0148-.2711 0-.0388 0-.1085 0-.1085 0-.0697.2121-.1859.2435-.3563.2828v-.0707c-.0698 0-.1782 0-.1937.0707-.0697 0-.0697.0549 0 .0706s0 .1414 0 .1414c-.2401.0628-.3951.3141-.6042.4162-.2402.0923-.4755.1972-.705.3142-.1479.0648-.2821.1582-.395.2748-.2247.1414-.4338.2827-.674.4084-.2401.1256-.5655.3298-.8443.5183-.0465.0707-.1162.0864-.1317.1257-.3486.1727-.643.3455-.9683.5183-.3057.2021-.6332.3681-.9761.4947-.285.1596-.5937.271-.9141.3299-.3265.0945-.6727.0945-.9993 0-.1926-.0299-.3761-.1034-.537-.2148-.1609-.1115-.295-.2581-.3925-.4292-.2563-.4484-.3546-.9718-.2789-1.4843.0596-.1811.1011-.3679.1239-.5575.0543 0 .0543-.1414.0543-.2121-.0265-.048-.0404-.1021-.0404-.157 0-.055.0139-.1091.0404-.1571 0 0-.0543 0-.0698-.0471-.0155-.0472 0 0 0 0-.259.1742-.5003.3742-.7204.5968-.3641.2906-.7049.644-1.069.9581-.0697.0471-.1704.1728-.2556.2042s-.1007.0707-.1007.1806c.0068.019.0086.0395.0054.0594s-.0115.0387-.0239.0544c-.0125.0158-.0287.0281-.0472.0356-.0184.0076-.0385.0103-.0583.0077-.1549 0-.1859.0864-.2246.2042-.0388.1178-.1162.0864-.1859.0707-.0544-.0277-.1019-.0672-.1394-.1157-.0374-.0485-.0637-.1049-.0771-.165-.0133-.0601-.0133-.1225 0-.1826s.0396-.1165.077-.165c.0545-.1064.0787-.226.0697-.3455.0113-.1898.0758-.3724.186-.5262.0654-.1971.1457-.3887.2401-.5733.0542-.0707.0697-.1963.1937-.267.0664-.2244.1892-.4273.3563-.589 0 0 0 .0707.0697 0-.0108-.0055-.0227-.0084-.0348-.0084s-.0241.0029-.0349.0084c0-.1414.093-.2121.1937-.2827.1007-.0707 0-.2749.1704-.3456.0278-.1153.0968-.216.1936-.2827.0034-.092.0301-.1815.0776-.26.0475-.0784.1142-.143.1936-.1876v.1727c.0852-.0707.0852-.0864 0-.1727.0697-.1257.0697-.2828.1859-.3692.1084.0864.1084.0864.1627 0v-.0549h-.0543c.0001-.0738.0234-.1456.0666-.2049.0433-.0594.1041-.1032.1736-.125v.0472c0 .0471 0 0 0-.0472h-.0542c-.0079-.0578.0049-.1166.0362-.1656s.0789-.085.1342-.1014c0 .055 0 .055.1007 0 .1007-.0549.0542-.1021.0697-.212h.0542c0-.0471-.0542-.0471-.0542-.0471s0-.1414.0697-.1571.0542.0628.1085 0h-.155c0-.0942 0-.1257.1085-.1257-.0542-.102.0465-.157.1704-.2434.0542.0864.0697.0864.0697 0h-.0697c-.0065-.0821.0155-.1639.0622-.2313s.1151-.1161.1934-.1378h.0853-.0465c-.0114-.0121-.0194-.0269-.0233-.0431-.0038-.0163-.0034-.0332.0014-.0492.0047-.0159.0135-.0304.0255-.0417.012-.0114.0268-.0194.0429-.0231v.2042c.0283-.0142.0516-.0369.0668-.065.0153-.0281.0217-.0602.0184-.0921 0 0 .0697-.0864.1239-.1021h-.1239c.0522-.1456.1502-.2697.2788-.3534v.2121c.0698-.055.0698-.1257.0698-.2121h-.0698c.0698-.1727.155-.3612.3409-.4162 0 .055.0542.055.1084 0h-.1084c0-.1021 0-.1728.1084-.212v.212c.0546-.0583.0898-.1324.1007-.212h-.1007c0-.0707.0465-.1335.1007-.1571.4106-.5576.8599-1.0445 1.2705-1.5706.4929-.6112 1.0544-1.1621 1.6732-1.6414.4024-.3859.8593-.7088 1.3556-.9581.369-.2322.7715-.4045 1.193-.5105.0698-.0495.1561-.0692.2401-.0549.1025.0447.2141.0636.3254.0549.1346-.0099.2697.0119.3947.0636.125.0518.2365.1322.3257.2349.0381.051.0618.1115.0687.1752.0068.0636-.0036.1279-.03.186-.105.1352-.1935.2829-.2633.4398-.2582.2279-.4826.4924-.6662.7853-.057.1058-.1397.195-.2402.2592-.1352.0962-.2575.2097-.3641.3377s-.0697.0393-.1394.0942zm-8.343 7.5156c-.1394 0-.1549.1257-.1549.2278v.1256h.062c-.002-.0357.0032-.0716.0151-.1053.012-.0337.0306-.0647.0546-.091.0209-.0495.0289-.1035.0232-.1571zm.2247-.3141c.0697-.0864.0852-.2591.2556-.1728l-.0852-.1413c0-.0707-.0697 0-.1084 0-.1666.179-.2794.4023-.3254.644h.1549c.0204-.1147.057-.2258.1085-.3299zm-.0697.3377c-.0542 0-.0543 0-.0697 0-.0155 0 .0309.0707.0697 0zm.3641-.8953c.0697-.0706.1316-.0864.1549-.157.0232-.0707.0465-.0707.1007-.0864v-.1571c-.1859.0157-.2092.1728-.2556.4005zm1.0612-1.6727h.0852v-.2121c-.0852-.0157-.0852.11-.0852.1807zm.5733 2.4581c.1815.0162.3516.0969.4802.2277.0698.0864.0698.212.155.212s.1859-.0706.2401-.102c.0542-.0315.1859-.1257.2944-.1571.195-.0507.3807-.1329.55-.2435.4728-.3209.9208-.678 1.3401-1.068.3137-.2343.5446-.5647.6585-.9424 0 0 0-.055 0-.1257h-.093c-.3135.1402-.6342.2634-.9606.3691-.0714.0571-.1529.0997-.2401.1257-.3796.2277-.7049.4476-1.0845.6597-.2278.1204-.4454.2596-.6507.4162-.2247.1414-.4493.3141-.6585.4398-.0871.0364-.1586.1033-.2014.1885zm-.0853-3.3298c-.0697 0-.0542.1256-.0542.212.0542-.0707.1162-.0864.0542-.212zm1.7662-1.7278c-.0036.0416-.0158.082-.0358.1186-.0201.0365-.0474.0683-.0803.0935-.1705.1884-.3951.2984-.4493.589-.0363.077-.0833.1484-.1395.212-.1316.1093-.2308.2533-.2866.4162-.103.152-.2197.294-.3486.4241v.0864c-.0714.1691-.1832.3176-.3253.4319-.0117.0245-.0178.0514-.0178.0786s.0061.054.0178.0785h.1162c.1365-.0871.2684-.1815.395-.2827.9528-.699 1.9134-1.4843 2.7888-2.2461.55-.4555 1.038-.911 1.5492-1.3979.0698-.0549-.1394-.0549-.0542-.1413s.2789-.2435.3951-.3691l.1549-.1571.7747-.7853c.0024.0235.0024.0472 0 .0707 0 0 0 0 .0464-.0707h-.0619s0-.0864.0619-.0864c.062 0 .093-.0707.124-.0707v.0707s.0697 0 .0697-.0707h-.0697c0-.055 0-.0864.0852-.1178s0 0 .0542 0c0-.212.1704-.2984.2944-.4162v.2042l.1162-.0864v-.1571c-.0542 0-.0697-.0707-.1162-.0707s.062-.1413.1704-.157c.1085-.0157.0465-.055.1007-.11s0-.1178.0852-.157c.0752-.1383.169-.2652.2789-.377 0-.1257 0-.212-.0542-.267-.066-.0535-.1479-.0827-.2324-.0827s-.1665.0292-.2324.0827c-.1189.1146-.2583.2052-.4106.267-.1936.1178-.4493.2434-.6894.3612-.3958.1643-.7582.4012-1.069.699-.1069.1256-.2426.2227-.3951.2827-.1095.1135-.2317.2137-.3641.2984-.3076.2688-.5694.5872-.7746.9424 0 0-.1162.0472-.1395.0864-.0556.053-.1181.0979-.1859.1335-.0057.0706-.0297.1383-.0697.1964-.064.122-.1392.2377-.2246.3455-.1465.1829-.3071.3536-.4803.5105-.1554.1769-.281.3785-.3719.5968zm-1.4795 1.3587c.0373 0 .0742-.0076.1085-.0223.0344-.0147.0655-.0362.0915-.0633s.0463-.0592.0599-.0944c.0135-.0352.02-.0728.0189-.1106-.0663.0216-.1265.0594-.1751.11-.0486.0507-.0842.1127-.1037.1806zm.8986-1.233c.1704 0 .1704 0 .1704-.1571-.0376.0128-.0721.0334-.1015.0604-.0293.0271-.0528.06-.0689.0967zm2.2697.1021c-.1651.0744-.2994.2049-.3796.3691.1681-.0757.307-.2054.3951-.3691zm.3796-.2592c-.1007 0-.155 0-.1705.1021s.1395 0 .1705-.1021zm5.3528 4.0288h-.155c-.395.212-.7746.3848-1.1697.5733-.2556.1727-.5655.3141-.8598.4869-.1903.0952-.3871.1766-.5888.2434l-.5655.3377c-.1239.1021-.2943.1571-.4105.2435-.3796.2277-.7747.4476-1.1233.6596-.2346.1226-.449.2816-.6352.4712h.155c.1549-.1021.3253-.157.4647-.2434.5191-.2749 1.0458-.6283 1.5493-.9031.3099-.1414.55-.3142.8599-.4712.6197-.3849 1.2549-.7383 1.9134-1.0681.1549-.055.2711-.1178.426-.1728.155-.0549.1395-.0706.1395-.157zm-4.6479-4.6413c-.0499-.0072-.1007.0029-.1442.0285-.0436.0257-.0774.0654-.096.1128.047.0013.0934-.0114.1333-.0365s.0717-.0616.0914-.1048zm1.8746-1.7278v-.0707c.0543 0 .0543.0158-.0155.0707zm.7747-1.3429s0-.0707.0542-.0707v-.0549c0-.1021 0-.1021-.0697-.0707s-.0542.055-.0697.055 0 .0706-.1007.0706c.0464.0864.1007.0707.1859.0707z"/><path d="m63.3504 39.3929v-.1571c-.1395.0707-.3641.1414-.4106.3691.1147.0058.2283-.0243.3254-.0864 0-.0392.0697-.055.0852-.1256v.1413c-.0852.0864-.1937.2592-.3099.3142-.0349.0462-.0587.0999-.0697.157-.3166.2682-.6001.574-.8444.911.0024.0156-.001.0314-.0096.0445s-.0218.0225-.0368.0262c-1.7445 1.6664-3.6825 3.1116-5.7712 4.3036l-.3563.4005c-.0697.1964-.2247.2435-.3486.4084-.0637.0954-.1157.1982-.1549.3063 0 .1963-.1704.267-.2247.4398-.0474.1197-.1044.2353-.1704.3455 0 .055-.0852.1257-.1007.1806-.0155.055-.2092.1178 0 .2278-.0961.1425-.1374.3157-.1162.4869-.005.0772.0184.1536.0656.2145.0471.0609.1148.102.19.1153.3307.0581.6687.0581.9993 0 .5439-.1317 1.0659-.3433 1.5493-.6282.6197-.3534 1.2395-.7382 1.8359-1.1388.4493-.2984.8289-.6596 1.2395-.8874.0697-.055.1084-.1413.1781-.1571.029-.0555.0753-.0997.1317-.1256.0524.0136.1079.0076.1563-.0169s.0864-.0659.1071-.1166c.0776-.1413.2048-.2479.3564-.2984.2604-.1548.5044-.3364.7281-.5419.0691-.0555.149-.0954.2345-.1171.0855-.0216.1746-.0246.2613-.0086.0542 0 .1239 0 .1239.055s.1317.1414.2169.1963c.0852.055.0698.0864.0388.2042s-.1007.0864-.155.1414c-.0361.0357-.078.065-.1239.0864-.1042.0034-.2066.0282-.3011.0727s-.1791.1079-.2489.1864c-.2481.1443-.4885.3016-.7204.4712l-.674.4948c-.0679.0276-.1269.0738-.1704.1335-.0443.0414-.1024.0644-.1627.0644-.0602 0-.1183-.023-.1626-.0644 0 0-.0698.0471-.0698.1021s0 .1728-.1007.2277c-.1862.0557-.3494.1715-.4647.3299-.1116.099-.2403.1762-.3796.2277-.0724.0479-.1377.1061-.1937.1728-.129.1131-.2722.2081-.426.2827-.1615.1293-.3296.2499-.5036.3613-.2406.1658-.5009.3004-.7746.4005-.1855.1054-.3769.1998-.5733.2827-.1733.0998-.3666.1588-.5654.1728-.209.0446-.4217.0683-.6353.0707-.3584.0008-.7066-.1214-.9879-.3467s-.4792-.5404-.5614-.8942c-.031-.166-.031-.3365 0-.5026.0449-.2424.1342-.4742.2634-.6832.0515-.1753.1328-.34.2402-.4869 0 .0549.0464.0549.0852 0 .0289-.0214.0519-.05.0669-.083.0149-.033.0212-.0693.0183-.1055h-.0852c-.0388-.1414.0697-.212.1549-.2827s0-.1257.1007-.1414 0-.0471 0-.0471l.0542.0471c0 .055.0465.055.062 0v-.0471.0471c.025-.0272.0441-.0594.0562-.0946.012-.0352.0166-.0725.0135-.1096h-.0852c.083-.2714.2322-.5172.4338-.7146.0542.0471.0542.0471.0542.0628s0 0 0-.0628h-.0852c-.0007-.0604.02-.119.0584-.1652.0385-.0461.092-.0767.1508-.0861h-.0542.0542v.0549c.0124-.0031.0235-.0101.0318-.02.0083-.0098.0135-.022.0147-.0349h-.0465c0-.0707 0-.1257.0465-.1414v.1414c.0315-.0188.0567-.0469.0719-.0806.0152-.0338.0199-.0714.0133-.1079h-.062c0-.0707 0-.0864.062-.0864v.0864s.0697-.0707.1084-.0864h-.0774c0-.1571.0697-.212.1936-.2827 0 .0864.0543.0707.0852 0h-.0852c-.0005-.0315.0071-.0625.0221-.09.0149-.0276.0367-.0507.0631-.0671v.1571c.0306-.0128.0565-.0346.0745-.0626.018-.0281.0272-.061.0262-.0945.0543 0 .0853-.0471.0853-.1178l.0542-.0707h-.0542v-.0706c.1215-.3311.3305-.6218.6042-.8403.0059-.0843.0352-.1652.0846-.2333.0493-.0681.1167-.1206.1943-.1516.0087-.0757.039-.1472.0871-.2058.0482-.0585.1121-.1016.184-.124v.1257c.0112-.0412.0112-.0846 0-.1257h-.0852c0-.0707 0-.0864.0852-.0864v.0864s0-.0707.0542-.0864h-.0542v-.0707c.0995-.185.2434-.3416.4183-.4555h.0542-.0697v-.1021c.1704-.1884.3099-.4319.4958-.6282.6352-.6126 1.2394-1.2565 1.8591-1.8298.247-.2975.5308-.5615.8444-.7854.6253-.4701 1.2858-.8902 1.9753-1.2565.3652-.1159.7598-.0908 1.1078.0707.1041.047.1967.1167.2711.2042.0347.0511.0563.1101.0631.1717.0067.0617-.0016.1241-.0244.1817-.0472.1574-.1323.3005-.2478.4162l-.3022.4398c0 .1413-.2246.1413-.2788.2277s0 0 0 .0864h.0852s.0852-.0864.1007 0 0 0 0 .0707c-.0319.0375-.0758.0625-.124.0707-.1394-.0707-.2246 0-.2943.1413v.0707h.0542.0852.0542c-.066.0173-.1353.0173-.2014 0-.1394 0-.1394.0864-.1549.2199s0 0-.0697.0707h.2091c.0148.0349.0213.0728.019.1106-.0023.0379-.0133.0747-.0321.1075s-.045.0607-.0763.0815c-.0313.0207-.067.0338-.1042.0381zm-8.3972 7.7669c-.0345-.0214-.0708-.0398-.1085-.055h-.0464v-.2591c-.0697 0-.1085.0549-.0698.0706v.1885c-.1239 0-.1007.11-.1007.1571h.062s0 .055.0542.0707c.0543.0157.0543-.0707.0543-.0707.0306-.0112.0593-.0271.0852-.0471 0 0 .031-.055.0697-.055zm.1704-.7853v-.1571c-.0697 0-.0697.0864-.0697.1728-.1394 0-.1704.1413-.1704.2277.0318.0022.0637-.003.0933-.0153.0295-.0122.0559-.0312.0771-.0554 0 .055.0542.055.0542.0707s0 0 0-.0707c.1317-.0706.1317-.1413.0155-.1727zm.2944-.6126c-.1394 0-.1937.1414-.1782.267.093-.0549.2092-.1256.1782-.267zm.7746-.9581c-.0072-.0035-.0152-.0053-.0232-.0053s-.016.0018-.0232.0053v-.212c-.155 0-.1937.1178-.1705.2042h.0388s0-.0472.1084-.0472v.0472c.0141.008.0306.0107.0465.0078zm.124-.4869c.0488-.0257.101-.0442.1549-.055-.0167-.067-.0167-.1372 0-.2042-.1627.0629-.1782.1021-.1782.2592zm.2401-.4398c-.0294.0181-.0512.0465-.0612.0798s-.0075.0693.007.1008c.0697-.0235.0697-.0942.031-.1806zm.1395-.1021c.0852 0 .1394-.1021.1394-.2434-.0302.0039-.0591.0147-.0846.0316-.0254.0169-.0468.0394-.0624.0658-.0157.0265-.0252.0562-.0279.0869-.0028.0307.0014.0617.0122.0905zm7.5218-6.8245c-.0133-.0305-.034-.0571-.0602-.0772s-.057-.0332-.0896-.0379c-.0325-.0047-.0657-.0009-.0965.011-.0307.0118-.0579.0315-.0791.057-.1966.1919-.4181.3557-.6584.4869-.3188.1729-.6243.3698-.9141.589-.0697 0-.0852.1256-.1549.1256-.2835.1753-.5438.3864-.7747.6283-.2943.1728-.4803.5026-.7746.7304-.199.2739-.4305.5218-.6895.7382 0 .0471-.1007.0864-.1162.1335-.0998.1426-.2112.2766-.3331.4005-.1007.1413-.2711.3141-.3718.4555-.1007.1413-.1782.2827-.2944.4005s-.1394.1571-.1781.2435c-.0388.0863-.0852.1256-.1317.212-.0787.0664-.1537.1372-.2247.212-.0697.0864-.1084.1885-.1549.2435-.0197.013-.0362.0303-.0482.0507-.0121.0205-.0195.0434-.0215.0671 0 .157-.1395.212-.2247.3534-.28.281-.539.5829-.7746.9031-.1085.1257-.124.2984-.2479.4005s-.1007.1257-.1007.267c.1549.0472.3099-.1963.3951-.267.55-.3612.945-.589 1.65-1.1308.6769-.5184 1.3163-1.0853 1.9134-1.6964.55-.6204 1.3246-1.2015 1.8591-1.8298.3796-.4319.7204-.8874 1.0845-1.3272.1425-.2058.262-.4271.3563-.6597.1052-.152.1935-.3153.2634-.4869.0155-.0707-.031-.1256-.031-.1963zm-7.4289 6.5261c.1549 0 .2014-.0864.2014-.2435-.1084.0864-.2014.1728-.2014.2435zm.2014-.2435c.0654-.0263.1216-.0717.1616-.1304s.0619-.1281.0631-.1994c-.0575.0343-.1059.0822-.141.1397-.035.0574-.0558.1227-.0604.1901zm.4338-.4162v-.1963c-.0301.0221-.0539.0519-.0689.0864s-.0206.0725-.0163.1099zm0-.1963c.1395 0 .1395 0 .1859-.1728-.0426.0053-.0821.0254-.1117.0569-.0297.0315-.0477.0725-.0509.1159zm.0697 5.4973h.1395c.5429-.2392 1.0618-.5311 1.5493-.8717.382-.2389.7494-.5012 1.1-.7853.0515-.0043.1033-.0043.1549 0 0-.0707 0-.1021.0697-.1336.2557-.157.4803-.3533.7747-.5261.2943-.1728.3098-.2592.4802-.3691.1786-.0553.3392-.1584.4648-.2985 0 0 0-.0471.0698-.1178-.1162 0-.2014.0707-.3099.0864-.2793.2316-.5716.4466-.8754.644-.1764.1285-.36.2465-.55.3534-.4105.2749-.8598.5026-1.2239.7853-.3641.2828-.7746.5184-1.131.7854-.066.0722-.1527.1216-.2479.1413-.1807.0497-.3376.1641-.4415.322zm.4416-6.102c-.1007 0-.1472 0-.1472.1413.1549.0157.1704.0157.1704-.1256zm.4338-.3534v-.2121c-.1162.0864-.2556.1414-.2556.3456.087-.0524.1809-.092.2788-.1178zm.1859-.4869c-.0852 0-.1007.1021-.0852.1963.1084-.0393.1472-.0785.1084-.1806zm2.8817.2748-.0697-.0863c-.0983.0593-.185.1365-.2557.2277.0299.0167.0632.0262.0973.0279s.0681-.0045.0994-.0182c.0314-.0136.0593-.0343.0816-.0605.0223-.0261.0384-.0571.0471-.0906zm.6352-.6282c-.0432-.0147-.0793-.0456-.1007-.0864-.0697.0471-.1704.0707-.1704.1885s.0852 0 .0852.0549c0 .055.1704-.0314.1704-.1335zm.0852-.1964v-.0471s0 0-.0619.0471h.0619v.0864c.0387 0 .0697-.0471.0852-.0864zm.3486-.3612-.0697-.055-.2789.1571v-.055.055.1728c.0387 0 .0697.0549.0852.0863.0934-.104.1765-.2171.2479-.3377zm-.1936 4.712c.0393.0123.0816.0104.1198-.0053.0381-.0158.0697-.0444.0893-.0811h-.0852c-.0542.0157-.1394.055-.1394.1414zm.5499-5.2696c0 .0864-.0619.0864-.1549.0864-.0929 0-.0852.055-.062.1571.0233.102 0 .0863 0 .1021 0 .0157.0543 0 .124-.0864.061-.0879.1522-.1495.2556-.1728-.0542-.055 0-.1728-.1007-.1728s-.0697.055-.0929.0864v-.0864s0 .055-.0465.055.0465.0864.062.0864z"/><path d="m70.2828 45.5583c-.2775.0441-.5519.107-.8211.1885-.0193.0391-.0493.0717-.0864.094-.037.0223-.0797.0332-.1227.0316-.2177.0009-.4351.0167-.6507.0472-.3096.0202-.6201.0202-.9296 0-.519 0-.5035-.0707-.8134.3848l-.5965.6439c0 .0472 0 .0707-.0697.1021-.5035.3142-.9141.7147-1.4331.9974-.342.1908-.7251.2933-1.1155.2984-.2932-.0122-.5702-.1394-.7725-.3548-.2024-.2155-.3143-.5022-.312-.7996.0014-.1624.0357-.3228.1007-.4712.1339-.6262.4187-1.2089.8289-1.6963.1859-.2199.3408-.4712.55-.699.0719-.0581.1296-.1323.1686-.2167.039-.0845.0581-.1769.056-.2702-.0251-.1714.0166-.346.1162-.4869.1168-.133.2437-.2564.3796-.3691.2241-.1102.4543-.2072.6894-.2906.0977-.0596.2122-.0845.3254-.0706.1604-.0394.3276-.0394.488 0 .1264.0099.2535-.0089.3719-.055.2478-.0864.4337.055.6429.1256.0852 0 .0852.1571 0 .2042s-.1084 0-.0542.055c.0654.125.146.2411.2401.3455.1619.1823.273.4049.322.645s.0342.4891-.0431.7215c-.0697.1885-.1239.4005-.2247.6126.2781.0627.5664.0627.8444 0 .4106-.0707.8211-.1649 1.2549-.2513.2548-.0765.5134-.1394.7747-.1885.1355-.0367.2587-.11.3563-.212.1404-.0452.2866-.0691.4338-.0707.0542-.0471.155.2513.155.267zm-4.1753.2749s-.0697 0-.0852-.0707c-.5896-.1125-1.1185-.4392-1.4873-.9189-.0853-.0942-.155-.0942-.1782 0-.1606.2291-.2932.477-.3951.7383-.1549.3298-.3098.6439-.4958.9738-.1859.3298-.2246.6282-.364.8874-.0465.1099.0542.1963.1549.2277h.2789c.1664.0131.333-.0223.4802-.1021.6137-.3088 1.182-.7027 1.6888-1.1701.1326-.1483.2749-.2873.426-.4162 0 0 .0233-.1492-.0465-.1492zm.7049-2.6702c-.0384-.0481-.0858-.0882-.1394-.1178 0 0-.0852 0-.1007 0-.2404.1171-.4666.2621-.674.432-.2364.1536-.4616.3241-.6739.5104l-.3796.3456c-.0196.0096-.0362.0247-.0478.0434-.0116.0188-.0177.0405-.0177.0626s.0061.0438.0177.0626c.0116.0187.0282.0338.0478.0434 0 .0471.1085.1021.124.1571.1662.1543.369.2626.5887.3141.2925.1109.5966.1873.9063.2278.0654.0147.1337.009.1958-.0162.0622-.0252.1155-.0688.1528-.1252.1915-.2996.3085-.6418.3409-.9974.0312-.1736.0161-.3525-.0438-.5182-.06-.1657-.1625-.3122-.2971-.4242z"/><path d="m80.9585 44.7486c-.1636.1921-.3541.3588-.5655.4947-.2397.1953-.4994.3638-.7746.5027-.2278.1275-.4408.2802-.6352.4555-.155.1178-.3099.2041-.4648.3298-.1853.1121-.3638.2354-.5345.3691-.3975.331-.8724.5528-1.3789.644-.1007 0-.1859.0549-.3099.0549-.1169.051-.2484.056-.3688.0138-.1203-.0421-.2208-.1282-.2819-.2415-.0079-.0457-.0265-.0888-.0542-.1257-.0889-.0632-.1585-.1505-.2009-.2518-.0425-.1013-.056-.2127-.0392-.3214v-.2121c-.0176-.2064.0313-.4131.1394-.589.036-.1396.0826-.2761.1394-.4084h-.0387c-.0542 0-.0697 0-.0697 0-.2944.2828-.6197.5262-.9141.7854l-.8753.6675c-.1155.0765-.2198.169-.3099.2749-.2879.2591-.6293.4496-.9993.5576-.0706.0564-.16.083-.2495.0743-.0895-.0088-.1722-.0523-.2308-.1215-.1396-.1123-.2434-.2638-.2985-.4356s-.0591-.3563-.0113-.5303c.0865-.3517.2305-.6861.426-.9895.343-.6079.7424-1.1812 1.193-1.7121.1704-.1884.2711-.1884.4493 0 0 0 .0697.0472.0697.1021 0 .055.062.1414 0 .1728-.0942.104-.1701.2235-.2247.3534-.1189.2417-.2535.4752-.4028.699-.1135.1797-.217.3659-.3098.5575-.1317.2278-.2867.4477-.4106.7147-.0697.1021-.0852.2434-.1549.3298l.0852.055c.1077-.0428.2114-.0954.3098-.1571.5191-.4083 1.0381-.7853 1.5493-1.1701l2.0993-1.5707c.1041-.0788.2272-.1276.3564-.1413h.0929c.093 0 .1162.0471.1705.1021.0542.0549.2246.1413.1549.2984-.009.0881-.0272.1749-.0542.2591-.155.1414-.2092.3691-.3409.4869l-.0929.055c-.2015.5026-.4958.9974-.6817 1.5 0 .1257 0 .1414.0697.1414.2852.0415.5758-.0196.8211-.1728.5655-.3377 1.069-.6832 1.588-1.0524.519-.3691 1.0768-.6596 1.65-1.0759l.2247-.1413c.395-.2827.4958-.3299.7746 0 .124.1492.0155.2827-.0852.3691zm-2.3239.9974c-.1395 0-.2247.0549-.2402.1884.0564.0067.1132-.0092.1581-.0445.0449-.0352.0743-.0869.0821-.1439zm.2091-.1414h-.0697c-.0446.0314-.0795.0749-.1007.1257.0617.0046.1227-.0151.1704-.055zm.5655-.1414c-.0697 0-.1394 0-.1549.1257.0852 0 .1394 0 .1549-.1257zm.55-.3298c-.1317 0-.2246 0-.2556.1806.1239 0 .1859-.0707.2556-.1806zm-.1704-.1571c.0134.013.0292.0232.0465.0299.0172.0068.0357.01.0542.0094h.0697c.0321-.0478.0557-.101.0697-.1571-.0542 0-.1394 0-.1549.0864z"/><path d="m94.2667 45.2442c-.3486.1335-.6739.2434-1.038.3612-.0989.0731-.2185.1117-.3408.11-.1162 0-.1705 0-.1395.1571l-.1007.0471-1.8591.7853c-.4958.1885-1.0458.4005-1.4951.5576-.2452.1313-.5053.2316-.7747.2984-.2718.0928-.563.1118-.8443.055-.0697-.055-.2092-.1257-.2944-.1806-.1057-.1005-.2017-.2109-.2866-.3299-.069-.0959-.1069-.2111-.1085-.3298-.0409-.5728.0248-1.1482.1937-1.6963.0753-.166.1324-.3398.1704-.5183.0372-.1248.0555-.2545.0543-.3849 0-.1256 0-.1413-.1085-.0549-.4106.1413-.7746.2984-1.1697.4398-.2247.102-.3641.2277-.5655.3298s-.5655.3691-.8444.5733c-.1007.1099-.3253.1099-.4338.267-.5442.3653-1.0458.7921-1.495 1.2722-.0852.0707-.1705.1728-.2402.2435-.1602.2525-.3851.456-.6507.589-.0697.0707-.1084.1413-.1782.212-.0439.0108-.0897.0115-.1339.002-.0443-.0095-.0858-.029-.1217-.0569-.1394-.2435-.2943-.5027-.1394-.7854.0565-.1678.1265-.3306.2091-.4869.0852-.212.186-.3691.2789-.5733.0199-.0878.0658-.1673.1317-.2277.3855-.591.6758-1.2405.8599-1.9241.0852-.1885.2091-.2434.364-.1885.1837.0878.3433.2199.4648.3848.0697.0707 0 .1021 0 .1414-.1492.1563-.2443.3575-.2711.5733-.0589.0646-.1015.1428-.1239.2277-.2084.3328-.3997.6762-.5733 1.0288-.0504.0729-.0847.1559-.1007.2435.0325.012.0682.012.1007 0 .3486-.2435.6585-.4477.9838-.7147.3306-.3031.6945-.5666 1.0845-.7853.2225-.1594.4584-.2987.7049-.4162.2408-.1893.5004-.3525.7747-.4869.1768-.0649.3437-.1548.4958-.267.16-.0969.3286-.1784.5035-.2435.1481-.0765.3153-.1066.4803-.0864.0433.0219.0826.0511.1162.0864.0929.1257.2246.267.3098.4005.0237.074.0237.1538 0 .2278-.0852.424-.1859.8403-.2866 1.2722s-.1394.6675-.2091.966c-.0649.0968-.095.2132-.0853.3298 0 .1885.0853.2435.2944.2042.4499-.0437.894-.1359 1.3247-.2749.3301-.1582.6689-.2972 1.0147-.4162.2944-.1257.55-.267.8599-.3691s.8289-.3299 1.2007-.4398.7127-.2749 1.1077-.4319c.3951-.1571.6507-.2435.9761-.4163.1085-.0706.2944 0 .4493-.0549.0074-.0014.0151-.001.0223.0013.0072.0022.0137.0063.0191.0117.0053.0054.0093.012.0115.0194.0023.0073.0027.015.0013.0225-.0697.2278.155.4163-.55.699zm-5.1824 1.6335h-.1859s0 .055.0697.055c.0226.0034.0456 0 .0663-.0098s.038-.0255.0499-.0452zm.2402-.0628s-.1859-.055-.2247.0471h.124c.1007 0 .1007 0 .1007-.0471zm1.5493-.5655h-.1395c-.0542 0-.0697 0-.1239.11.0775.0157.1782.0157.2634-.11zm.4415-.1492c-.0716-.0153-.1457-.014-.2167.0036-.0711.0177-.1373.0514-.1939.0985.0668.0111.1352.0077.2006-.0099s.1264-.049.179-.0922zm.2634-.1256h-.1239c-.034.0013-.0665.0146-.0919.0375s-.0422.0541-.0476.0881c.093 0 .1937.0157.2324-.1256zm2.8894-1.0131s-.0542-.0707-.0542 0c-.1958.02-.3869.0731-.5655.157 0 0-.0852.0864-.1394.0472-.2247-.0472-.3951.0942-.6197.1649-.0698 0 0 .1492-.1705.1492-.0604.0037-.119.0226-.1704.055-.0757.0366-.1568.0604-.2401.0706-.2789.1021-.55.1728-.7747.2828-.0542 0-.1239.0471-.1239.1021.1239.0706.2246 0 .3408 0 .4183-.1688.845-.3156 1.2782-.4398 0 0 .0465 0 .1007-.055s.2634-.0864.3486-.1492c.2756-.0662.5377-.1804.7746-.3377 0 0-.0155-.0471-.0155-.0471z"/><path d="m98.674 48.3848c-.0542 0-.0697 0-.1007.0472-.031.0471 0 .2827-.1937.3298-.0261.029-.0406.0668-.0406.106 0 .0393.0145.0771.0406.106v.0864c-.1007 0-.2014 0-.1549.1414-.0384.019-.0702.0496-.091.0875s-.0296.0814-.0252.1245c0 .1178-.124 0-.1549.0629-.1395.267-.2789.4947-.4106.7225-.1197.2448-.2855.4636-.488.6439-.1317.1885-.2402.2906-.3796.4712-.1394.1807-.1162.1728-.2401.1728-.0029.0643-.0197.1271-.0491.1841-.0295.057-.0709.1067-.1214.1457-.1672.2063-.3512.3981-.55.5733-.1394.0943-.2246.2513-.3795.2985-.0298.0395-.0701.0694-.1162.0863-.3486.2121-.5888.1414-.8444-.2041-.2495-.3283-.3608-.7433-.3099-1.1545.0021-.3057.1058-.6017.2944-.8403.2398-.3618.4984-.7104.7747-1.0445.1859-.157.3408-.3298.5345-.4869.5173-.4591 1.0633-.8841 1.6345-1.2722.0459-.0102.0935-.0102.1394 0 0 .1178-.1394.1335-.2092.2042-.1859.1413-.3408.2434-.4802.3691-.0313.0243-.0572.0551-.0759.0903s-.0298.074-.0326.1139c.1418-.0797.2766-.1717.4028-.2749.3236-.2932.686-.5391 1.0768-.7304l.1239-.157c.2-.0485.3875-.1395.55-.267.0697-.0707.0697-.0864.124-.1178.0542-.0315 0-.11-.0543-.1414.0543 0 .0543-.1021.0698-.1414.1677-.1284.3031-.2952.395-.4869.0423-.1294.1203-.2438.2247-.3298.0044-.0545.0294-.1051.0697-.1414.0065-.1046.0364-.2063.0874-.2974.051-.0912.1217-.1694.207-.2287-.0076.0309-.0076.0633 0 .0942-.0071.0203-.0071.0425 0 .0628v-.0628-.1099h-.0698c.0736-.2927.1886-.5731.3406-.8325.14-.3298.295-.6283.434-.9267 0 0 0-.055 0-.0707 0 0-.054 0-.085.055-.034.0222-.063.0516-.085.0864-.263.2876-.5507.5505-.8602.7853-.2246.1571-.3951.3534-.6197.4869l-.7049.6283c-.2789.2984-.6198.5262-.8676.7853-.2936.2626-.6222.482-.9761.6519-.1537.0566-.2995.1332-.4338.2277-.1362.0505-.2813.0718-.426.0628-.1436.0122-.287-.0255-.4066-.1069-.1197-.0813-.2085-.2015-.2519-.3407-.0593-.1319-.09-.2752-.09-.4202 0-.1449.0307-.2882.09-.4201.0929-.2204.2271-.4204.3951-.589.4034-.4908.8727-.9217 1.3943-1.2801.4831-.3354.9849-.6422 1.5029-.9188.2866-.0943.6197-.2985.9063-.3849.0678-.0233.1413-.0233.2091 0 .3114.009.611.1222.8521.322 0 .0471.085.0471.155 0 .195-.1988.402-.3851.62-.5576.048-.0437.1-.0831.155-.1178.155-.2277.364-.1727.495.0707v.1178c-.184.5537-.398 1.0964-.643 1.6257-.085.2004-.189.3924-.309.5733-.148.2201-.262.4609-.341.7146 0 .0864 0 .1571-.07.1728-.088.1203-.147.2603-.17.4084.224 0 .325-.1414.534-.2121.122-.0829.264-.1316.411-.1414-.232.1513-.472.2877-.721.4084-.054 0-.139 0-.224 0v-.0864c-.055 0-.055.0707 0 .0864-.039.1335-.1553.1335-.1941.2278-.0387.0942-.0619.0471 0 .0628.062.0157 0 .0707 0 0 .2231-.088.4401-.1903.6511-.3063.24-.1256.519-.2513.774-.3534.256-.1021.659-.3141.984-.4712 0 0 0 0 0-.055-.147.0033-.291.0353-.426.0943-.049.0388-.105.0665-.165.0814s-.123.0166-.184.005c0 0 0-.055.055-.0864.353-.1839.728-.3211 1.115-.4084.306-.1224.626-.2042.953-.2434.287-.1728.496 0 .682.2277.054.055.224.0864.224.2277 0 .1414-.069.1964-.131.1964h-.07c-.163-.058-.337-.0802-.509-.0654-.172.0149-.339.0666-.49.1518-.045-.0169-.095-.0169-.14 0-.053.0378-.117.0581-.182.0581s-.129-.0203-.182-.0581c0-.055.07-.055.14-.0864.069-.0314 0-.055.1-.0943-.151.0042-.301.0361-.441.0943-.039 0-.039.0628-.07.0864h.225v.1335c-.122.011-.243.011-.364 0l.069-.0707s0-.055.085-.0864c-.251.002-.496.0784-.704.2199-.194 0-.349 0-.434.1885.074.0159.151.0164.225.0015.075-.0148.146-.0447.209-.0879-.006.0633-.031.1234-.07.1728-.016.0215-.038.0372-.063.0443s-.052.0053-.077-.0051c-.022-.0166-.049-.0255-.077-.0255s-.055.0089-.078.0255c-.1 0-.17 0-.271 0v-.0942c-.069 0-.139 0-.178.0942h.178c.002.0678-.018.1344-.055.1906-.038.0562-.091.0994-.154.1236-.124 0-.224 0-.325 0l.17-.0864c.085 0 .186-.055.186-.1885-.155.0252-.305.0784-.441.1571-.181.0816-.355.1788-.519.2905 0 0-.086.055-.086.0707.171.055.295-.0471.411-.0707.116-.0235.054-.0706.124-.0706s0 0 0 .0706v.055c-.116.0641-.235.1218-.356.1728-.109.0707-.124 0-.2251-.0471v-.11c-.1361.0559-.2681.1215-.3951.1964-.1239.102-.0697.1727-.0697.2434h.0465-.0465c-.0558.0583-.1214.1062-.1937.1414v.0549c-.1007.1571-.2169.3142-.3098.4712-.093.1571-.062.1885-.1549.2042.0032.0653-.0147.1298-.0511.1837s-.0892.0942-.1503.1148c-.0698 0-.0698.0706-.0698.1413v.055s.1085.1728.1085.1413zm-.2944.0472v-.1728c-.0184.0234-.0421.042-.069.0543-.027.0123-.0564.0179-.0859.0164 0 .1021 0 .157-.1007.2042-.0053-.0373-.0017-.0752.0104-.1107s.0325-.0676.0593-.0935c0-.1257.0697-.2121.1859-.2278.0331-.0847.0616-.1712.0852-.2591v-.0707h-.0697c-.1403.1865-.3239.3348-.5345.4319-.0852.055-.1549.1257-.2711.2121-.3641.2591-.7282.5418-1.0845.7853-.3564.2434-.4493.4555-.674.6675-.1075.0894-.2061.1894-.2943.2984-.1619.108-.2865.2645-.3564.4477l-.1394.1806c-.2627.3168-.4508.6901-.55 1.0916-.0039.0234-.0039.0473 0 .0707-.0085.0482-.0051.0977.0097.1443.0149.0466.0408.0887.0755.1227.0389.0338.0862.0561.1368.0644.0505.0083.1024.0023.1498-.0173.1352-.0132.2654-.0589.3796-.1335.2326-.1579.4527-.3338.6585-.5261.0856-.1208.1843-.2315.2943-.3299.0935-.2241.2532-.4134.4571-.5419 0 .2278-.186.2985-.3254.4869 0 0-.0852 0-.1007.055s0 .1414-.1007.1728c-.1549.1885-.2789.3691-.4493.5419-.0697 0-.0852.0864-.0697.1727.1704 0 .2246-.1413.3098-.212.1315-.1934.2938-.3633.4803-.5026.124-.1728.2557-.3534.3951-.5262.2727-.3261.5091-.6816.7049-1.0602l.0388-.212-.155.0864c0-.1571 0-.2278.155-.2435 0-.1021 0-.1571.0697-.1885s.0697-.1099.1162-.1099c.0464 0 0-.1335.0697-.1728s0 .1414-.0542.1728c-.0543.0314 0 .1099-.0852.1099-.0019.0389-.0136.0766-.0339.1096-.0204.033-.0487.0602-.0823.0789v.1571c0-.0707.1161-.0707.1394-.0864.1894-.2421.3506-.5057.4803-.7853.0804-.1141.1554-.232.2246-.3534zm-2.8197 3.7696c-.073.0029-.1435.0275-.2027.0708s-.1046.1034-.1304.1726c.2092.0393.2944-.1178.3331-.2434zm-.0387-2.7409v.1257c.2406-.1549.4422-.3646.5887-.6126-.0098-.0083-.0221-.0128-.0349-.0128-.0127 0-.025.0045-.0348.0128-.1919.1404-.3662.3039-.519.4869zm4.1676-5.9292h-.1395c.0526-.0774.0993-.1588.1395-.2435 0-.0706 0-.1256 0-.1963s-.1395-.0471-.2092 0l-.1162.0864c-.0542.055-.0852.1099-.1549.1414-.2402.0706-.4338.2827-.6585.3691-.2246.0863-.4802.3455-.7204.4712-.2548.1069-.4711.2906-.6197.5261v.0472c-.4832.3388-.9185.7431-1.2937 1.2015-.102.1306-.1783.2799-.2246.4398.1763.0083.3512-.0354.5035-.1257.2169-.0863.4106-.2591.6352-.3612l.2014-.1257 1.1-.7853c.5035-.4005.9838-.7853 1.4486-1.2251.037-.0223.0668-.0549.086-.0938.0192-.039.027-.0828.0225-.1261zm-3.4937 5.3402c.2247 0 .3254-.157.4261-.3376-.0886.0074-.174.0372-.2484.0866-.0744.0493-.1355.1167-.1777.1961zm.9451 1.2173c-.0006.0537-.0135.1064-.0377.1541s-.0591.0891-.1017.1208c-.0661.1906-.202.3481-.3796.4398.025-.0979.0704-.1893.1332-.2679.0628-.0785.1416-.1425.2309-.1876-.0084-.0548.0025-.1108.0309-.1582.0283-.0474.0722-.0832.124-.101zm.2091-.2827c.0065.0403-.0007.0817-.0204.1174-.0196.0356-.0507.0635-.088.0789 0-.1021 0-.1885.1084-.2277zm.8444-2.4031c-.0489-.0146-.1011-.0125-.1487.0059s-.0879.0522-.1147.0962c-.1007 0-.1704.0864-.2246.0864v-.0864c.266-.1796.5488-.3322.8443-.4555 0 .1099-.1084.1413-.1549.1728-.0427.0073-.0831.0246-.1181.0505-.0349.0259-.0635.0597-.0833.0987zm-.2246 1.445c.0004.0595-.0206.1171-.0591.1619-.0385.0449-.0919.0739-.1501.0815-.0083-.0324-.0091-.0663-.0025-.0991.0067-.0328.0206-.0636.0408-.0901.0201-.0266.046-.0481.0756-.0629.0297-.0148.0622-.0226.0953-.0227zm.1549-.2827c-.0024.0561-.0176.1108-.0445.1599s-.0647.0911-.1104.1228c-.0224-.0646-.0187-.1355.0103-.1973.0291-.0618.081-.1095.1446-.1326zm.4493-.5576c-.0631.0249-.1171.0688-.1549.1256v.1414c.1316-.0707.1549-.1571.1549-.2984zm0-.4477c.0465-.0706.1007-.0863.1317-.1727s0 0 0 0c-.0605.0508-.1323.0859-.2092.1021 0 0-.0155.0392.0542.0392zm.1239.2906c-.1239 0-.1007.0707-.1007.1571s.0775-.1178.0775-.1885zm-.1007-.8324c0-.0864.1007-.0707.1704-.0707.0698 0-.0929.0707-.1936.0393zm.2014.5733c-.0542.0471-.0697.1021-.0697.2199.0697 0 .1007-.1179.1394-.1728-.0036-.0222-.0151-.0423-.0321-.0567-.0171-.0144-.0386-.0222-.0608-.0219zm2.3241-1.9005c-.07-.055 0-.1021.07-.1021.07-.0365.146-.0604.224-.0707-.038.0515-.089.0918-.147.1166-.059.0249-.123.0334-.186.0247zm.379.1884c-.033-.0056-.068-.0002-.099.0153-.03.0155-.055.0404-.071.0711.085 0 .17.0393.201-.0864zm.976-.2434c0 .0707-.069.0864-.116.157-.046.0707-.155.0864-.24.055s-.085-.0549-.155-.0707v-.0706h.24c.068-.0542.148-.0894.233-.1021zm.109-.4869c-.07 0-.178 0-.194.1021-.015.1021.101.0078.155-.1335zm.24-.0707c-.085 0-.209 0-.24.0707h.155c.008-.0314.046-.0471.046-.1021zm.256-.055h-.07c-.03-.0142-.064-.0165-.096-.0063-.031.0102-.058.0321-.074.0613h.193c.012.001.023-.0025.031-.0099.009-.0073.015-.0179.016-.0294.001-.0114-.003-.0228-.01-.0317-.007-.0088-.018-.0143-.029-.0154zm.705.055c-.198-.0027-.392.046-.566.1414.191.0101.378-.0514.527-.1728zm-.326-.2277h.256.039c.038 0-.055 0-.07 0-.081-.043-.175-.0542-.263-.0315z"/><path d="m112.617 45.3787s-.085.0471-.108.0471c-.286.0619-.562.1623-.821.2984-.434.1885-.86.3534-1.278.5262-.047 0-.117 0-.132.0707-.368.2034-.748.3818-1.139.534-.379.1571-.775.3377-1.115.5105-.522.3026-1.095.5025-1.689.589-.101 0-.171 0-.24.1256-.309.096-.643.065-.93-.0864-.169-.0459-.324-.1352-.449-.2591-.181-.1548-.308-.3638-.364-.5969-.073-.2565-.073-.5288 0-.7853l.124-.2278c.266-.6161.678-1.1558 1.2-1.5706.464-.457.985-.8504 1.55-1.1702.182-.1384.395-.23.619-.267.155-.0628.357-.0864.512-.1571.082-.0782.189-.1256.301-.1342.113-.0085.225.0222.318.0871 0 .0471.086 0 .155.0471.07.0472.171 0 .194.0707.107.1156.198.245.271.3848.076.0972.118.2176.118.3417 0 .124-.042.2444-.118.3416-.225.2748-.364.589-.705.7303l-.248.1571c-.464.3571-1.016.5796-1.595.644-.163.053-.334.0717-.504.0549-.217 0-.496-.0549-.775-.0549-.029-.0023-.059.003-.086.0154-.027.0123-.051.0313-.069.0553-.31.3717-.571.7837-.774 1.2251-.014.0302-.022.0631-.022.0964-.001.0334.005.0666.017.0975s.031.0589.054.0823c.024.0234.052.0416.082.0536.194.055.419.1571.589.055.374-.0255.743-.0967 1.1-.2121.298-.0921.591-.2023.876-.3298.333-.1571.588-.2984.883-.4555.085.1021.085.1021.17 0 .126-.1273.28-.2216.449-.2749 0-.0706.117-.0706.225-.1099.566-.2435 1.147-.5419 1.681-.7853.162-.0778.331-.1409.504-.1885.149-.0602.292-.1365.426-.2278.085-.0462.185-.0574.279-.0311s.174.0881.224.1725c.043.0465.096.0815.155.1021.116.1492.186.3455.085.4084zm-6.731 0c.054.0549.154 0 .209 0 .074-.0164.15-.0164.224 0l.496-.0864c.198-.0635.392-.1396.581-.2278.439-.1291.849-.3424 1.209-.6282.195-.1253.346-.3093.433-.5262.047-.0471.047-.1571.047-.2435 0-.0863 0-.1178-.085-.1884-.086-.0707-.117 0-.14.0706-.023.0707-.1.0864-.201.0864-.383.027-.755.1454-1.085.3456-.398.2247-.774.4877-1.123.7853l-.465.4555s-.116.1571-.1.212z"/><path d="m108.383 29.0059h7.958v-1.9895h-2.567c-.562 0-1.348.0803-1.942.1444 2.166-2.1178 3.963-4.4281 3.963-6.594 0-2.214-1.508-3.6419-3.738-3.6419-1.621 0-2.696.6257-3.786 1.7969l1.299 1.2835c.61-.6738 1.3-1.2354 2.182-1.2354 1.139 0 1.765.738 1.765 1.9253 0 1.829-1.893 4.0591-5.134 6.963zm14.18 0h2.198v-11.8724h-2.84l-4.412 7.1876v1.6204h8.664v-1.8129h-6.37l1.829-2.9521c.337-.6418.658-1.2995.963-1.9413h.064c-.032.7059-.096 1.7809-.096 2.4707zm10.939-11.9206v1.6686h8.199v-1.6686zm-.545 3.0804v1.7007h9.225v-1.7007zm.032 3.0644v1.6846h9.081v-1.6846zm3.61-7.8614v5.888h1.893v-5.888zm2.037 6.4014v6.6101c0 .2246-.08.2727-.337.2727-.24.016-1.123.016-1.909-.016.257.4973.546 1.2674.61 1.7969 1.203 0 2.07-.0321 2.711-.3209.626-.2728.802-.7701.802-1.7007v-6.6421zm-5.005 4.2195c.738.8183 1.54 1.9574 1.845 2.7114l1.652-.9626c-.353-.7861-1.203-1.845-1.957-2.6312zm-5.086-9.6262v1.7167h2.342v7.5405h-2.342v1.7167h4.139v-10.9739zm.096 4.5564v1.6846h3.113v-1.6846zm-.995-4.5564v12.4018h1.781v-12.4018zm20.841 8.808v1.3798h4.396v-1.3798zm-.112-2.3745v1.4119h3.61v3.3371h-3.61v1.4118h5.407v-6.1608zm-.786 0v6.9791h1.733v-6.9791zm-2.696-4.5725v1.2996h4.027v-1.2996zm7.445 0v1.2996h4.059v-1.2996zm3.273-2.23v12.1611c0 .2728-.097.369-.385.369-.289 0-1.268.0161-2.102-.032.257.5134.545 1.4118.626 1.9573 1.379 0 2.31-.0321 2.952-.353.641-.3208.85-.8824.85-1.9252v-12.1772zm-10.557 0v1.3958h3.273v3.0483h-3.273v1.3798h5.07v-5.8239zm11.583 0h-5.422v5.872h5.422v-1.3798h-3.593v-3.0964h3.593zm-12.69 0v14.4554h1.909v-14.4554zm20.408 5.7276h4.765v1.1391h-4.765zm-1.781-1.4119v3.9468h8.423v-3.9468zm3.016 3.3532c-.08.6417-.289 1.5081-.497 2.1498l1.684.2407c.289-.5776.69-1.3958 1.011-2.2622zm-4.364 1.5723v5.2463h1.829v-3.5938h7.541v3.5938h1.925v-5.2463zm1.027 3.0643v1.6525h9.161v-1.6525zm-2.262-10.4124v3.4334h1.748v-1.7969h10.076v1.7969h1.861v-3.4334zm10.765-2.4226c-.337.7701-.963 1.7969-1.476 2.4868l1.556.5936c.578-.6096 1.3-1.5402 1.99-2.4547zm-9.883.8503c.529.6418 1.107 1.5402 1.332 2.1178l1.764-.7701c-.256-.5936-.882-1.4439-1.427-2.0536zm4.027-.4011c.433.6739.931 1.6205 1.123 2.2141l1.781-.6578c-.225-.5936-.77-1.5081-1.219-2.1499zm10.765 9.2894v1.5723h14.311v-1.5723zm.032-7.2037v1.5884h14.215v-1.5884zm.658 2.8719v1.5081h12.948v-1.5081zm.802 2.214v1.3958h11.392v-1.3958zm4.653-1.4439v8.808h1.909v-8.808zm-1.396-6.2731v3.3852h1.797v-3.3852zm2.968 0v3.2729h1.829v-3.2729zm-1.925 10.5407c-1.315 1.2193-3.866 2.2782-6.289 2.7435.417.4011.979 1.1391 1.235 1.6044 2.471-.6418 5.038-2.0055 6.562-3.674zm2.647-.0481-1.492.5936c1.508 1.8129 3.963 3.1767 6.498 3.8184.289-.5294.866-1.3316 1.3-1.7327-2.503-.4171-5.006-1.4119-6.306-2.6793zm2.968-10.3643c-.224.7059-.641 1.6846-1.01 2.3424l1.556.4813c.417-.5936.963-1.46 1.476-2.3424zm-2.117 3.4494c-.161.5936-.498 1.4119-.786 1.9894l1.636.4653c.337-.5134.754-1.2193 1.187-1.9894zm-8.102-2.936c.433.738.946 1.7167 1.123 2.3424l1.748-.6257c-.224-.6257-.754-1.5883-1.219-2.2782zm2.037 3.5938c.241.4653.514 1.1391.61 1.5563l1.957-.337c-.128-.4331-.433-1.0589-.706-1.5081zm21.403-1.5883-2.198-.0642c-.161 1.6846-.514 3.5296-.979 5.0377-.674 2.166-1.284 3.1928-1.973 3.1928-.61 0-1.252-.7862-1.252-2.4066 0-2.0215 1.861-4.7971 5.262-4.7971 2.776 0 4.348 1.7969 4.348 4.3158 0 2.3584-1.604 3.8184-3.642 4.3158-.433.0962-.882.1764-1.508.2567l1.22 1.8931c4.043-.6257 6.112-3.0162 6.112-6.3854 0-3.5136-2.519-6.2731-6.481-6.2731-4.156 0-7.381 3.1766-7.381 6.8667 0 2.7114 1.476 4.6848 3.273 4.6848 1.749 0 3.129-1.9894 4.092-5.2303.561-1.8931.882-3.7703 1.107-5.4067zm21.033.2406-1.556-.9786c-.433.0802-.979.1123-1.524.1123-1.14 0-7.028 0-7.669 0-.738 0-1.46-.0161-1.958-.0482.048.4172.064.8985.064 1.3317v3.3852c0 .4332-.032.8343-.08 1.3156h2.359c-.048-.4974-.048-1.0749-.048-1.3156 0-.6417 0-2.1819 0-2.6633h7.684c-.16 1.7167-.641 3.5136-1.459 4.8132-1.252 2.0054-3.739 3.321-5.889 3.8665l1.781 1.813c2.583-.8985 4.765-2.5029 6.097-4.5886 1.251-1.9412 1.62-4.2836 1.909-5.9522.032-.2246.193-.8503.289-1.091zm3.032 3.3211v2.5349c.61-.0481 1.685-.0963 2.583-.0963h8.632c.674 0 1.492.0803 1.877.0963v-2.5349c-.433.0321-1.139.1123-1.893.1123-1.428 0-6.723 0-8.616 0-.834 0-1.989-.0642-2.583-.1123zm29.007-2.5349-1.652-1.0268c-.353.1283-.899.1925-1.396.1925s-3.867 0-4.572 0l-.738 1.829h5.406c-.256 1.1872-1.187 3.1125-2.278 4.3639-1.412 1.5883-3.193 2.9841-6.466 3.9789l1.894 1.6845c3.016-1.1872 4.941-2.6632 6.465-4.5243 1.46-1.7809 2.375-3.9147 2.808-5.3586.128-.4011.353-.8343.529-1.1391zm-5.23-2.551-2.358-.7701c-.145.5616-.482 1.2996-.722 1.6846-.786 1.3798-2.198 3.4494-5.006 5.1661l1.797 1.3316c2.31-1.5722 4.219-3.8344 5.31-5.7757.177-.3369.594-1.0749.979-1.6365zm10.429.2086v2.0857c.465-.0482 1.139-.0642 1.668-.0642h6.129c.593 0 1.347.0321 1.765.0642v-2.0857c-.434.0642-1.22.0963-1.733.0963-.931 0-5.15 0-6.161 0-.545 0-1.235-.0321-1.668-.0963zm10.925 4.6687-1.428-.8984c-.224.1123-.657.1765-1.187.1765-1.091 0-6.834 0-7.925 0-.514 0-1.188-.0482-1.878-.1124v2.0857c.674-.0481 1.476-.0641 1.878-.0641h7.733c-.273.8824-.786 1.8931-1.637 2.7595-1.235 1.2675-3.144 2.3103-5.567 2.8237l1.604 1.8129c2.054-.5936 4.108-1.6685 5.728-3.4815 1.187-1.3155 1.877-2.8878 2.374-4.4441.049-.1604.193-.4492.305-.6578zm10.718-5.4549h-2.471c.096.6899.112 1.0108.112 1.4761v2.3103h2.246c0-.6097 0-1.8932 0-2.3103 0-.4653.016-.7862.113-1.4761zm5.39 3.3853-1.379-.8503c-.289.0962-.674.1604-1.332.1604h-8.455c-.61 0-1.091-.016-1.637-.0642.065.369.065 1.0108.065 1.3637v2.7917c0 .4331-.017.9465-.065 1.3476h2.214c-.048-.3208-.064-.8342-.064-1.1872 0-.4974 0-1.7969 0-2.3584h7.958c-.193 1.4279-.61 2.952-1.412 4.1393-.914 1.2835-2.326 2.23-3.642 2.7274-.674.2727-1.54.5134-2.278.6417l1.668 1.9253c2.856-.7541 5.279-2.4547 6.546-4.8131.803-1.46 1.22-3.0163 1.508-4.5565.065-.3048.193-.9145.305-1.2674zm5.343-2.4868-1.524 1.6204c1.171.8022 3.192 2.551 4.027 3.4494l1.636-1.6685c-.946-.9787-3.032-2.6472-4.139-3.4013zm-2.022 10.6851 1.364 2.1178c2.246-.385 4.316-1.2674 5.952-2.2461 2.583-1.5563 4.717-3.7703 5.92-5.9522l-1.235-2.2462c-1.027 2.1659-3.112 4.6046-5.856 6.2411-1.556.9144-3.626 1.7327-6.145 2.0856zm25.895-10.7974-1.348.5455c.594.8343.947 1.5241 1.428 2.5349l1.38-.6097c-.353-.738-1.011-1.7969-1.46-2.4707zm2.214-.7862-1.364.5776c.594.8022.979 1.4279 1.492 2.4387l1.38-.6097c-.385-.7059-1.011-1.7648-1.508-2.4066zm-9.177.4653-1.171 1.7648c1.059.5936 2.743 1.6846 3.626 2.3103l1.203-1.7808c-.834-.5776-2.599-1.7167-3.658-2.2943zm-2.968 11.3911 1.203 2.1178c1.412-.2567 3.722-1.0589 5.343-1.9895 2.631-1.5081 4.893-3.5456 6.385-5.7597l-1.235-2.1819c-1.284 2.2942-3.514 4.4922-6.241 6.0164-1.749.9626-3.674 1.4921-5.455 1.7969zm.497-7.7331-1.171 1.7809c1.091.5615 2.744 1.6525 3.658 2.2782l1.171-1.7969c-.818-.5776-2.583-1.6846-3.658-2.2622z"/></g><path d="m97.1797 32.5889v-22.5616" stroke="#fff" stroke-width="2.00547"/></svg>