<svg fill="none" height="45" viewBox="0 0 95 45" width="95" xmlns="http://www.w3.org/2000/svg"><g fill="#55937c"><path d="m0 11.2441h8.98839v.5412h-3.09766l4.17987 12.0262 3.8883-9.494-.9332-2.4988h-1.5747v-.5412h7.4201v.5412h-2.5015l4.329 11.9193 4.6594-11.9193h-3.5059v-.5412h6.0786v.5412h-1.9765l-6.6749 17.1907-5.0677-13.957-5.67037 13.957-6.00737-17.2241h-2.53386z"/><path d="m28.7148 27.2058h2.8709v-26.651261h-2.8709v-.554539h6.0787v15.1329h.0778c.1793-.4378.3961-.8581.648-1.2561.3299-.5343.7388-1.0122 1.2119-1.4164.5585-.4852 1.1885-.8754 1.8663-1.1558.8347-.3403 1.7273-.5039 2.6246-.4811 1.4258-.0718 2.8338.3517 3.9984 1.2026 1.0326.8241 1.5489 2.1313 1.5489 3.9219v11.2578h2.8708v.5345h-8.9495v-.5345h2.8709v-12.4203c.0372-.878-.2065-1.7442-.6935-2.4654-.2547-.328-.5832-.587-.957-.7547-.3738-.1676-.7815-.2388-1.188-.2074-.7882-.0002-1.5662.1849-2.2746.5412-.7246.3642-1.3705.8755-1.8988 1.5033-.567.6637-1.0068 1.4322-1.2961 2.2649-.3173.9129-.4753 1.8765-.4666 2.8462v8.6855h2.8709v.5345h-8.9431z"/><path d="m52.2521 19.5152c-.0063-1.2091.2669-2.4024.7971-3.4809 1.0295-2.0885 2.7518-3.7267 4.8538-4.6167.9585-.4319 1.9933-.6549 3.0394-.6549 1.046 0 2.0808.223 3.0393.6549 2.0987.8928 3.8181 2.5304 4.8474 4.6167.5352 1.0841.8107 2.2846.8036 3.501.0046 1.1778-.2525 2.3412-.7518 3.4007-.9712 2.1014-2.6535 3.7645-4.7307 4.6768-1.011.4582-2.1034.6949-3.2078.6949s-2.1968-.2367-3.2078-.6949c-1.0288-.4511-1.9705-1.0893-2.7802-1.8841-.8079-.7982-1.4669-1.7425-1.9441-2.786-.5056-1.067-.7651-2.24-.7582-3.4275zm3.7262 0c-.0363 1.4593.1008 2.9178.4083 4.3428.1943.8932.5625 1.7365 1.0823 2.4787.3953.5377.9435.9348 1.5682 1.1358 1.2446.3552 2.5595.3552 3.8041 0 .6247-.201 1.1729-.5981 1.5682-1.1358.5198-.7422.888-1.5855 1.0823-2.4787.3074-1.425.4446-2.8835.4082-4.3428.0209-1.2963-.0789-2.5917-.2981-3.8684-.1494-.8973-.4592-1.7582-.9137-2.5389-.3718-.614-.9104-1.1018-1.5488-1.403-1.4163-.5614-2.9841-.5614-4.4003 0-.6374.3028-1.1755.7903-1.5488 1.403-.4545.7807-.7643 1.6416-.9138 2.5389-.2159 1.2771-.3157 2.5722-.2981 3.8684z"/><path d="m13.2201 35.993c-.0129-.3078-.0974-.608-.2463-.8752-.0388 0-.0388-.0401-.0388-.0601 0-.0201.0972-.0401.1166-.0401.0862.0313.1671.0764.2398.1336.2377.2652.3676.6144.3629.9755v.2873c.0037.1679-.0415.3331-.1296.4743-.3055.4467-.6435.8688-1.011 1.2628l-.8748.8752c-.3108.3914-.6914.718-1.1212.9621-.1296.0868-.3045.2071-.4795.314-.22542.1219-.46204.2204-.70638.294-.11989.0124-.23893.0325-.35642.0601-.12361.0505-.25779.0672-.3895.0485-.13172-.0187-.2565-.0723-.36223-.1554 0 0-.03889 0-.03889-.0401-.14397-.1731-.24465-.3799-.29322-.6023-.04858-.2225-.04358-.4538.01456-.6738l.05833-.3274v-.0601h-.04536s-.08425 0-.09721.0601c-.29977.3389-.61781.6601-.95263.9621-.16775.2522-.37086.4774-.60268.6681-.15553.3408-.51843.4143-.75173.6682-.02977.0244-.06407.0422-.10078.0525-.03672.0102-.07508.0126-.11272.0069-.03764-.0056-.07377-.0191-.10615-.0397-.03238-.0205-.06033-.0477-.08214-.0799-.07897-.1036-.12863-.2277-.1435-.3585-.01487-.1309.00564-.2635.05925-.3831.05529-.1523.12247-.2998.2009-.4409.3305-.6682.69341-1.3363 1.01095-2.0044.08809-.1112.16012-.235.21385-.3675.00431-.0463.02413-.0896.05606-.1226.03193-.0329.07397-.0533.11891-.0578.08049-.018.16396-.0166.24381.0043.07985.0208.15391.0606.21631.116.02577.0332.0398.0744.0398.1169s-.01403.0838-.0398.1169c-.10958.1556-.19688.3266-.25922.5078-.08059.2897-.21241.5615-.38883.8018-.06717.1616-.14966.316-.24625.461-.08425.1603-.18794.2939-.25922.4409v.1069c.09298-.0324.1728-.0959.22681-.1804.34995-.3073.64805-.6681.98503-.9621.16971-.2217.37326-.4135.60269-.5679.31754-.2939.64804-.5612.94614-.8418.151-.1262.29187-.2647.42123-.4142.07727-.0771.178-.1243.28514-.1336.16201-.0602.25922-.0001.38883.1135v.1671c0 .0334-.14905.1202-.22034.2071-.09006.1025-.17238.2119-.24625.3274-.05833 0-.07129.0601-.12961.1002-.14818.1259-.26207.2894-.33051.4743l-.42771.8953c-.10479.2063-.16034.4353-.16201.6681 0 .1671.05832.1938.17497.1938.28464.0036.56626-.0604.82302-.1871.16951-.108.34476-.2062.52492-.294.06657-.0293.12791-.07.18145-.1202.52493-.3322 1.02143-.7099 1.48403-1.1291.0754-.0988.1676-.1826.2722-.2472.0777-.0468.1296-.1069.2462-.0802-.0389.0802-.0972.1069-.1425.1537-.0454.0467-.2139.1336-.2333.2939h.1037c.0842-.0781.1622-.163.2332-.2539.1297-.0868.2009-.2204.3565-.2672.0163-.0476.0163-.0994 0-.147h-.1167c-.0021-.0359.0086-.0713.03-.0997.0215-.0283.0524-.0475.0867-.054v.1537c.0187.0078.0396.0078.0583 0 .324-.3185.621-.6649.8878-1.0356-.0233.0066-.0479.0066-.0713 0-.0972.1069-.1879.2272-.2851.3408-.1059.1393-.2278.2649-.3629.3741.0072-.0352.0072-.0716 0-.1069.0518-.1002.1555-.1737.2138-.2672.0168-.0421.041-.0806.0713-.1136v-.0601.0601c.0977-.0937.1675-.2143.2009-.3474h-.0713c0-.0535 0-.1337.0713-.1337v.0401c.0713 0 .0713-.0735.0713-.147h-.0713c0-.0401 0-.1202.0713-.147v.147c.0713-.0401.0713-.1002 0-.147v-.1803c.0324-.0391.0567-.0846.0713-.1337v.1337c-.0052.0196-.0052.0404 0 .0601.0518 0 .0518-.0601.0518-.0735.0123-.0171.02-.0372.0223-.0583.0022-.0212-.001-.0425-.0093-.062zm-2.5144 3.2805c-.0274-.0055-.0558-.0012-.0805.0122-.0248.0133-.0444.035-.0556.0613.0778-.0134.1361.0334.1361-.0735zm.311-.2205c-.0712 0-.1296 0-.1555.0735.0843-.0133.1296.0134.1555-.0868zm.5898-.5211h-.0972c-.1849.1516-.3504.3267-.4926.5211h.0454c.2117-.1422.3962-.3234.5444-.5345z"/><path d="m20.29 38.7579c-.2322.0375-.4617.091-.6869.1603-.0161.0333-.0412.061-.0723.08-.031.0189-.0666.0283-.1027.0269-.1843.0005-.3683.0139-.5508.0401-.259.0175-.5187.0175-.7777 0-.4277 0-.4147-.0601-.648.3274l-.5055.5478c0 .0401 0 .0602-.0583.0869-.4148.2672-.7582.608-1.1924.8485-.2864.1616-.6068.2487-.9332.2539-.2476.0018-.4861-.0965-.6642-.2739-.1781-.1773-.2817-.4196-.2884-.6748.0011-.1382.0298-.2746.0842-.4009.1094-.5337.3479-1.0301.6934-1.4432.1556-.187.2852-.4008.4601-.5946.0602-.0494.1085-.1125.1411-.1844.0326-.0718.0486-.1505.0469-.2298-.0119-.0723-.0094-.1462.0074-.2174.0167-.0712.0472-.1382.0898-.1968.096-.1148.2023-.2199.3175-.3141.1875-.0937.3801-.1762.5768-.2472.0813-.0517.1774-.073.2722-.0601.1319-.0334.2698-.0334.4017 0 .1079.009.2164-.007.3176-.0468.2009-.0735.3629.0468.5314.1069.0713 0 .0713.1337 0 .1737-.0713.0401-.0843 0-.0389.0468.0547.1063.1222.2051.2009.294.1361.1546.2291.3443.269.549.04.2047.0254.4167-.0422.6135-.0515.1778-.1143.3519-.1879.5211.2326.0534.4737.0534.7064 0 .3499-.0601.6934-.1403 1.0563-.2138.2009-.0734.4018-.1002.648-.1603.1157-.0301.2211-.0925.3046-.1804.1174-.0385.2397-.0587.3629-.0601.0389-.0401.1296.2138.1296.2271zm-3.4994.2338s-.0583 0-.0713-.0601c-.4862-.1002-.921-.3777-1.2248-.7817-.0713-.0802-.1296-.0802-.1426 0-.1369.1931-.2481.4044-.3305.628-.1296.2806-.2592.5479-.4147.8285-.1556.2806-.188.5345-.3046.7549-.0454.0936.0453.1671.1296.1938h.2268c.1413.0113.2829-.0188.4083-.0869.5123-.2611.9858-.5963 1.4062-.9954.115-.1245.2361-.2427.3629-.3542 0 0-.0129-.1269-.0583-.1269zm.5897-2.2716c-.0293-.0412-.0669-.0754-.1102-.1002 0 0-.0713 0-.0907 0-.1991.0995-.3861.2229-.5573.3674-.1989.1291-.3874.2743-.5638.4343l-.3176.294c-.0164.0082-.0302.021-.0399.037-.0097.0159-.0149.0344-.0149.0532s.0052.0373.0149.0532c.0097.016.0235.0288.0399.037.0381.0415.0728.0862.1037.1336.1368.1311.3043.2232.4861.2673.2469.0943.5034.1593.7647.1937.0537.013.1101.0084.1612-.0132.0511-.0215.0944-.0589.1239-.107.1649-.2531.2652-.5449.2916-.8486.0247-.1495.0093-.3032-.0443-.4444-.0537-.1413-.1437-.2648-.2603-.3573z"/><path d="m27.9373 37.8359c-.0234.0839-.0607.163-.1101.2339-.1167.1937-1.1276.8618-1.2378 1.0556-.0834.1024-.1911.1809-.3126.2277s-.2527.0605-.3808.0395c-.0434.0058-.0875-.0027-.1259-.0243s-.0692-.0552-.088-.0959c0-.0869-.0583-.1336-.0777-.2071-.0764-.102-.1279-.2213-.1505-.348-.0225-.1266-.0154-.257.0208-.3803 0-.0401-.0712-.0868-.1101-.0735-.1491.0735-.3046.1203-.4342.1938-.619.3706-1.2103.7882-1.7692 1.2494-.0829.0632-.1695.1212-.2592.1737-.0818.0852-.1684.1655-.2592.2405-.192.1538-.3583.3388-.4925.5478-.2345.2767-.451.5691-.6481.8753-.0713.167-.2009.2405-.2592.3741s-.1037.1203-.1879.0735c-.0843-.0468-.1167-.0468-.1167-.0468-.0713-.1135-.1555-.1937-.2138-.2939-.0163-.113-.0163-.2278 0-.3408.0296-.0741.0689-.1438.1166-.2071.2268-.4343.4601-.8485.7064-1.3362s.5573-1.0556.8165-1.5901c.132-.2316.2426-.4755.3305-.7283.0203-.0414.0486-.078.0833-.1075s.075-.0512.1183-.0637c.0432-.0126.0886-.0158.1331-.0093s.0872.0225.1254.0469l.2333.1336c.0454.0735.0843.1804 0 .2272-.1397.2101-.2591.4339-.3564.6681l-.3888.7282v.0735h.0389c.5826-.4973 1.2147-.9296 1.8858-1.2894.3629-.1804.7258-.3141 1.0693-.4944.1191-.0561.2529-.0701.3806-.0399s.2421.1029.3257.2069l.2268.2539c.0311.0473.0442.1046.0371.1612-.0072.0566-.0342.1086-.0759.1461-.0826.0612-.1475.1443-.188.2405-.0453.1804-.2009.294-.2333.461.6184-.3306 1.2198-.6941 1.8016-1.089 0 0 .0259.1203.0259.1336z"/><path d="m35.5972 32.952c-.0389 0-.0389.0601 0 .0869.0388.0267-.0389.1937-.1556.167-.0713.0869-.0842.1938-.1555.2338-.144.1802-.2999.3498-.4666.5078-.0301.0335-.0677.0589-.1094.0741-.0418.0151-.0866.0195-.1304.0128.0008.0253-.0041.0506-.0142.0737-.0101.0232-.0252.0437-.0441.0599-.0433.0323-.0915.0571-.1426.0735.0389 0 .0389.0601.0584.0735.0194.0133 0 .0467 0 .0601v.0468c-.1776.1377-.3425.292-.4926.461 0 .0601-.0712.0868-.0972.147-.1987.1161-.3642.2844-.4795.4877 0 .0601 0 .0735-.0583.0735-.1426.0601-.2009.1937-.3305.2873-.1297.0935-.1556.1737-.2593.2472-.1525.1315-.2974.2721-.4341.4209-.4264.37-.8721.7157-1.335 1.0356-.3115.2611-.6775.4441-1.0693.5345-.0713 0-.1296.0735-.1815.0868-.0312.0389-.0659.0747-.1036.1069 0 .1938-.1296.294-.2009.4276s-.188.2673-.2852.3875c-.0794.1004-.1249.2247-.1296.3541.0804-.0267.1568-.0649.2268-.1135.3441-.3089.7055-.5967 1.0823-.8619.161-.1241.3349-.2294.5184-.314.0498-.0583.1152-.1002.1879-.1203.0519-.0534.1102-.1603.2398-.1002.0551-.0677.1135-.1323.175-.1938.0843-.018.1638-.0545.2333-.1069.2359-.0502.4575-.1553.648-.3073.1361-.1256.3101-.1988.4925-.2071.0454-.0252.0932-.0454.1426-.0601.1884-.0974.3992-.139.6092-.1203.1317.0022.26.0437.3693.1196s.1949.1829.2463.308c.0241.0298.0357.0682.0324.1069-.0423.1943-.1168.3797-.2203.5478-.0539.1946-.1648.3673-.3176.4945-.2109.1995-.4411.3764-.6869.5278l-.5508.4008c-.0389.0602-.0583.0802-.0972.0802-.2916 0-.4925.2806-.7647.3541-.2614.1364-.5447.2225-.836.2539-.0842 0-.1296.0401-.175.1336-.0253.0872-.0427.1767-.0518.2673.0153.2804.0153.5614 0 .8418 0 .0601 0 .0735.0583.1203.0072.0258.0226.0484.0438.0641.0211.0158.0468.0238.0729.0227.3935.0575.7947.0115 1.1664-.1336.4693-.1821.9225-.4056 1.3545-.6681.2008-.0869.3693-.1737.5702-.2806s.5185-.2806.7518-.441c.2477-.1771.5127-.3271.7906-.4476.3305-.1804.648-.3742.9396-.5679.1102-.0401.2139-.147.3565-.2205.0645-.0204.1241-.0545.1749-.1002.2408-.181.5019-.3313.7777-.4477.1247-.043.241-.1086.3435-.1937.0523-.0475.1168-.0784.1858-.0891.0689-.0106.1394-.0006.203.0289.0713 0 .1426 0 .1555.0602.013.0601.2204.1603.2204.3274v.0601s0 0-.0584 0c-.2795.0335-.5443.1469-.7647.3274-.0751.0126-.1517.0126-.2268 0-.0324 0-.0907 0-.0907 0-.0583.1804-.1555.2071-.2981.2405v-.0601c-.0583 0-.1491 0-.162.0601-.0583 0-.0583.0468 0 .0601.0583.0134 0 .1203 0 .1203-.2009.0534-.3305.2672-.5055.3541-.2009.0785-.3978.1677-.5897.2672-.1238.0552-.236.1346-.3305.2339-.1879.1202-.3629.2405-.5638.3474s-.4731.2806-.7064.441c-.0389.0601-.0972.0734-.1102.1068-.2916.147-.5378.294-.81.441-.2557.1719-.5297.3132-.8165.4209-.2385.1357-.4968.2305-.7647.2806-.2732.0804-.5628.0804-.836 0-.1612-.0254-.3147-.0879-.4493-.1827s-.2468-.2196-.3284-.3651c-.2144-.3815-.2966-.8268-.2333-1.2628.0499-.1541.0847-.313.1037-.4743.0454 0 .0454-.1203.0454-.1804-.0222-.0409-.0338-.0869-.0338-.1336 0-.0468.0116-.0928.0338-.1337 0 0-.0454 0-.0583-.0401-.013-.04 0 0 0 0-.2168.1483-.4186.3184-.6027.5078-.3046.2472-.5897.5479-.8943.8151-.0584.0401-.1426.147-.2139.1737-.0713.0268-.0842.0602-.0842.1537.0057.0161.0072.0335.0045.0505-.0027.0169-.0096.0329-.02.0463s-.024.0239-.0394.0303c-.0155.0065-.0323.0087-.0488.0065-.1296 0-.1555.0735-.1879.1737-.0325.1002-.0973.0735-.1556.0602-.0454-.0235-.0852-.0572-.1165-.0984-.0314-.0413-.0534-.0893-.0645-.1404-.0112-.0512-.0112-.1042-.0001-.1553.0112-.0512.0332-.0991.0645-.1404.0456-.0905.0658-.1923.0583-.294.0094-.1615.0634-.3168.1555-.4476.0548-.1677.1219-.3308.2009-.4878.0454-.0601.0583-.167.162-.2271.0556-.1909.1583-.3636.2981-.5011 0 0 0 .0601.0584 0-.0091-.0047-.0191-.0072-.0292-.0072s-.0201.0025-.0292.0072c0-.1203.0778-.1804.162-.2405.0843-.0602 0-.2339.1426-.294.0232-.0981.081-.1838.162-.2405.0028-.0783.0251-.1545.0649-.2212.0397-.0667.0955-.1217.1619-.1597v.147c.0713-.0601.0713-.0735 0-.147.0584-.1069.0584-.2405.1556-.314.0907.0735.0907.0735.1361 0v-.0468h-.0454c0-.0627.0196-.1238.0557-.1743.0362-.0505.087-.0877.1452-.1063v.0401c0 .0401 0 0 0-.0401h-.0454c-.0066-.0492.0042-.0992.0304-.1409.0261-.0417.066-.0723.1122-.0862 0 .0467 0 .0467.0842 0 .0843-.0468.0454-.0869.0584-.1804h.0453c0-.0401-.0453-.0401-.0453-.0401s0-.1203.0583-.1336c.0583-.0134.0454.0534.0907 0h-.1296c0-.0802 0-.1069.0907-.1069-.0453-.0869.0389-.1336.1426-.2071.0454.0735.0583.0735.0583 0h-.0583c-.0054-.0699.013-.1395.052-.1968.0391-.0573.0963-.0988.1619-.1173h.0712-.0388c-.0096-.0102-.0163-.0229-.0195-.0367-.0032-.0137-.0028-.0282.0011-.0418.004-.0135.0114-.0258.0214-.0355.0101-.0097.0224-.0164.0358-.0196v.1737c.0237-.0121.0433-.0314.056-.0553s.0181-.0512.0153-.0783c0 0 .0584-.0735.1037-.0869h-.1037c.0437-.1238.1257-.2295.2333-.3006v.1804c.0583-.0468.0584-.1069.0584-.1804h-.0584c.0583-.147.1296-.3073.2852-.3541 0 .0468.0453.0468.0907 0h-.0907c0-.0869 0-.147.0907-.1804v.1804c.0457-.0496.0751-.1127.0842-.1804h-.0842c0-.0601.0389-.1136.0842-.1336.3435-.4744.7194-.8886 1.0628-1.3363.4124-.5199.8822-.9886 1.3998-1.3963.3366-.3284.7189-.6031 1.1341-.8151.3086-.1976.6454-.3442.998-.4343.0584-.0421.1306-.0589.2009-.0468.0857.0381.1791.0541.2722.0468.1126-.0085.2256.01.3302.0541.1045.044.1978.1124.2724.1998.0319.0434.0518.0949.0575.149s-.003.1089-.0251.1583c-.0879.115-.1619.2407-.2203.3742-.216.1938-.4037.4189-.5573.6681-.0477.0899-.1168.1658-.2009.2204-.1131.0819-.2155.1785-.3046.2873s-.0583.0334-.1166.0802zm-6.9795 6.3939c-.1166 0-.1296.1069-.1296.1938v.1069h.0518c-.0016-.0305.0027-.061.0127-.0897s.0256-.055.0457-.0774c.0174-.0421.0241-.0881.0194-.1336zm.1879-.2672c.0584-.0735.0713-.2205.2139-.147l-.0713-.1203c0-.0601-.0583 0-.0907 0-.1394.1523-.2338.3423-.2722.5479h.1296c.0171-.0976.0476-.1921.0907-.2806zm-.0583.2873c-.0453 0-.0453 0-.0583 0s.0259.0601.0583 0zm.3046-.7617c.0583-.0601.1102-.0735.1296-.1336.0195-.0601.0389-.0601.0843-.0735v-.1336c-.1556.0133-.175.1469-.2139.3407zm.8878-1.4231h.0713v-.1804c-.0713-.0133-.0713.0936-.0713.1537zm.4796 2.0912c.1518.0139.2941.0825.4018.1938.0583.0735.0583.1804.1296.1804s.1555-.0602.2009-.0869c.0453-.0267.1555-.1069.2462-.1336.1632-.0431.3186-.1131.4601-.2071.3956-.2731.7704-.5769 1.1212-.9087.2624-.1992.4555-.4804.5508-.8017 0 0 0-.0468 0-.1069h-.0778c-.2623.1192-.5305.224-.8035.314-.0598.0485-.128.0848-.2009.1069-.3176.1938-.5898.3808-.9073.5612-.1905.1025-.3726.2209-.5444.3541-.1879.1203-.3758.2673-.5508.3742-.0729.031-.1327.0879-.1685.1603zm-.0713-2.8328c-.0583 0-.0454.1069-.0454.1804.0454-.0601.0972-.0735.0454-.1804zm1.4775-1.4699c-.003.0354-.0132.0698-.03.1009-.0167.031-.0396.0582-.0672.0795-.1425.1604-.3305.2539-.3758.5011-.0304.0656-.0697.1263-.1167.1804-.1101.093-.1931.2155-.2398.3541-.0861.1293-.1837.2501-.2916.3608v.0735c-.0597.1439-.1532.2702-.2722.3675-.0097.0208-.0148.0436-.0148.0668 0 .0231.0051.0459.0148.0668h.0972c.1143-.0741.2246-.1544.3305-.2405.7971-.5947 1.6007-1.2628 2.333-1.9109.4601-.3875.8684-.775 1.2961-1.1892.0583-.0468-.1166-.0468-.0454-.1203.0713-.0735.2333-.2071.3305-.314l.1297-.1336.648-.6681c.002.02.002.0401 0 .0601 0 0 0 0 .0389-.0601h-.0519s0-.0735.0519-.0735c.0518 0 .0777-.0602.1037-.0602v.0602s.0583 0 .0583-.0602h-.0583c0-.0467 0-.0735.0713-.1002.0712-.0267 0 0 .0453 0 0-.1804.1426-.2539.2463-.3541v.1737l.0972-.0735v-.1336c-.0454 0-.0583-.0601-.0972-.0601s.0518-.1203.1425-.1336c.0908-.0134.0389-.0468.0843-.0936.0454-.0467 0-.1002.0713-.1336.0628-.1176.1413-.2256.2333-.3207 0-.1069 0-.1804-.0454-.2272-.0552-.0455-.1237-.0703-.1944-.0703s-.1392.0248-.1944.0703c-.0995.0975-.2161.1746-.3435.2272-.162.1002-.3759.2071-.5767.3073-.3311.1397-.6343.3413-.8943.5947-.0895.1068-.2029.1894-.3306.2405-.0916.0965-.1938.1817-.3045.2539-.2574.2286-.4764.4995-.6481.8017 0 0-.0972.0401-.1166.0735-.0466.0451-.0989.0833-.1556.1136-.0047.06-.0249.1176-.0583.167-.0535.1039-.1164.2023-.1879.294-.1225.1555-.2569.3008-.4018.4343-.13.1505-.2351.322-.3111.5077zm-1.2377 1.1559c.0312 0 .062-.0064.0908-.0189.0287-.0125.0547-.0309.0765-.0539.0217-.0231.0388-.0504.0501-.0803.0113-.03.0167-.062.0159-.0941-.0556.0184-.1059.0505-.1466.0936-.0406.0431-.0704.0958-.0867.1536zm.7517-1.049c.1426 0 .1426 0 .1426-.1336-.0315.0109-.0604.0284-.0849.0514s-.0442.051-.0577.0822zm1.8988.0869c-.1382.0633-.2505.1744-.3176.314.1407-.0644.2569-.1747.3305-.314zm.3175-.2205c-.0842 0-.1296 0-.1426.0869-.0129.0868.1167 0 .1426-.0869zm4.478 3.4275h-.1296c-.3305.1804-.648.3273-.9785.4877-.2139.147-.4731.2672-.7194.4142-.1592.0811-.3237.1503-.4925.2071l-.4731.2873c-.1037.0869-.2462.1337-.3434.2071-.3176.1938-.6481.3809-.9397.5613-.1963.1042-.3756.2395-.5314.4008h.1296c.1296-.0868.2722-.1336.3888-.2071.4342-.2338.8749-.5345 1.2961-.7683.2593-.1203.4601-.2673.7194-.4009.5184-.3274 1.0498-.628 1.6006-.9086.1296-.0468.2269-.1002.3565-.147s.1166-.0601.1166-.1336zm-3.8883-3.9486c-.0417-.0061-.0842.0025-.1206.0243s-.0647.0556-.0803.0959c.0393.0012.0781-.0096.1115-.031s.06-.0524.0765-.0892zm1.5683-1.4699v-.0601c.0454 0 .0454.0133-.013.0601zm.6481-1.1425s0-.0601.0453-.0601v-.0468c0-.0868 0-.0868-.0583-.0601s-.0454.0468-.0583.0468c-.013 0 0 .0601-.0843.0601.0389.0735.0843.0601.1556.0601z"/><path d="m52.9965 33.5131v-.1336c-.1167.0601-.3046.1203-.3435.314.0959.005.191-.0207.2722-.0735 0-.0334.0583-.0467.0713-.1069v.1203c-.0713.0735-.162.2205-.2592.2672-.0292.0393-.0492.0851-.0584.1337-.2648.2281-.502.4883-.7063.775.002.0132-.0009.0267-.0081.0378-.0072.0112-.0182.0191-.0308.0223-1.4594 1.4177-3.0806 2.6472-4.828 3.6613l-.2981.3407c-.0583.1671-.1879.2072-.2916.3475-.0533.0811-.0968.1686-.1296.2605 0 .1671-.1426.2272-.1879.3742-.0397.1018-.0873.2001-.1426.2939 0 .0468-.0713.1069-.0842.1537-.013.0468-.175.1002 0 .1938-.0804.1212-.115.2685-.0972.4142-.0042.0657.0153.1307.0548.1825s.0961.0867.159.0981c.2766.0494.5594.0494.836 0 .455-.112.8917-.2921 1.2961-.5345.5184-.3006 1.0369-.628 1.5359-.9688.3758-.2538.6934-.5612 1.0368-.7549.0584-.0468.0908-.1203.1491-.1337.0242-.0472.0629-.0848.1101-.1069.0439.0116.0903.0065.1308-.0143.0405-.0209.0723-.0561.0896-.0992.0649-.1203.1713-.2109.2981-.2539.2179-.1317.422-.2862.6092-.461.0577-.0472.1246-.0812.1961-.0996.0716-.0184.1461-.0209.2186-.0073.0454 0 .1037 0 .1037.0467 0 .0468.1101.1203.1814.1671.0713.0467.0584.0735.0324.1737-.0259.1002-.0842.0735-.1296.1202-.0302.0305-.0653.0553-.1037.0735-.0871.003-.1728.024-.2518.0619-.0791.0379-.1499.0919-.2083.1586-.2075.1227-.4087.2565-.6027.4009l-.5638.4209c-.0568.0235-.1061.0628-.1425.1136-.0371.0352-.0857.0548-.1361.0548s-.099-.0196-.1361-.0548c0 0-.0583.0401-.0583.0868 0 .0468 0 .147-.0843.1938-.1558.0473-.2923.1459-.3888.2806-.0933.0843-.201.1499-.3175.1938-.0606.0407-.1152.0902-.1621.1469-.1078.0962-.2277.1771-.3564.2406-.1351.1099-.2757.2125-.4212.3073-.2013.1411-.4191.2556-.6481.3407-.1551.0897-.3153.1701-.4795.2406-.145.0848-.3067.1351-.4731.147-.1748.0379-.3528.0581-.5314.0601-.2999.0007-.5912-.1033-.8265-.2949-.2353-.1917-.4008-.4598-.4696-.7607-.0259-.1413-.0259-.2864 0-.4276.0375-.2063.1123-.4035.2204-.5813.043-.1491.111-.2893.2009-.4142 0 .0467.0388.0467.0712 0 .0242-.0182.0435-.0425.056-.0706s.0178-.059.0153-.0898h-.0713c-.0324-.1202.0584-.1804.1297-.2405.0712-.0601 0-.1069.0842-.1203.0842-.0133 0-.0401 0-.0401l.0454.0401c0 .0468.0388.0468.0518 0v-.0401.0401c.0209-.0231.0369-.0506.047-.0805.01-.0299.0139-.0616.0113-.0932h-.0713c.0695-.2309.1943-.44.3629-.608.0454.0401.0454.0401.0454.0535 0 .0133 0 0 0-.0535h-.0713c-.0006-.0513.0168-.1012.0489-.1405.0321-.0392.0769-.0652.1261-.0733h-.0454.0454v.0468c.0104-.0027.0197-.0087.0266-.017.007-.0084.0113-.0188.0123-.0298h-.0389c0-.0601 0-.1069.0389-.1202v.1202c.0264-.0159.0474-.0399.0602-.0685.0127-.0287.0166-.0608.0111-.0918h-.0519c0-.0601 0-.0735.0519-.0735v.0735s.0583-.0601.0907-.0735h-.0648c0-.1336.0583-.1804.162-.2405 0 .0735.0454.0601.0713 0h-.0713c-.0004-.0268.0059-.0532.0184-.0766s.0308-.0431.0529-.0571v.1337c.0255-.0109.0473-.0294.0623-.0533s.0227-.0519.0219-.0804c.0454 0 .0713-.04.0713-.1002l.0454-.0601h-.0454v-.0601c.1017-.2816.2766-.529.5055-.7149.0049-.0717.0295-.1405.0708-.1985.0413-.0579.0976-.1026.1625-.1289.0073-.0644.0326-.1253.0729-.1751s.0938-.0865.1539-.1055v.1069c.0094-.035.0094-.0719 0-.1069h-.0713c0-.0601 0-.0735.0713-.0735v.0735s0-.0601.0454-.0735h-.0454v-.0601c.0833-.1574.2036-.2907.3499-.3875h.0454-.0583v-.0869c.1426-.1603.2592-.3675.4147-.5345.5314-.5211 1.0369-1.069 1.5554-1.5567.2066-.2531.444-.4776.7063-.6681.5232-.4 1.0757-.7574 1.6525-1.069.3055-.0987.6356-.0772.9267.0601.0871.04.1646.0993.2269.1737.0289.0435.0471.0937.0527.1462.0057.0524-.0013.1055-.0203.1545-.0395.134-.1108.2557-.2074.3541l-.2527.3741c0 .1203-.188.1203-.2333.1938-.0454.0735 0 0 0 .0735h.0712s.0713-.0735.0843 0c.0129.0735 0 0 0 .0601-.0267.0319-.0634.0532-.1037.0601-.1166-.0601-.1879 0-.2463.1203v.0601h.0454.0713.0453c-.0552.0147-.1132.0147-.1684 0-.1167 0-.1167.0735-.1297.1871-.0129.1136 0 0-.0583.0601h.175c.0123.0297.0177.062.0158.0942s-.0111.0635-.0268.0914c-.0158.0279-.0376.0517-.0638.0693-.0262.0177-.0561.0288-.0872.0324zm-7.0248 6.6077c-.0289-.0182-.0593-.0339-.0908-.0468h-.0388v-.2204c-.0584 0-.0908.0467-.0584.0601v.1603c-.1037 0-.0842.0936-.0842.1337h.0518s0 .0467.0454.0601.0454-.0601.0454-.0601c.0256-.0095.0496-.0231.0712-.0401 0 0 .026-.0468.0584-.0468zm.1425-.6681v-.1336c-.0583 0-.0583.0735-.0583.147-.1166 0-.1426.1202-.1426.1937.0267.0019.0534-.0026.0781-.013s.0468-.0265.0645-.0471c0 .0468.0454.0468.0454.0601 0 .0134 0 0 0-.0601.1101-.0601.1101-.1203.0129-.147zm.2463-.5211c-.1167 0-.162.1202-.1491.2271.0778-.0467.175-.1069.1491-.2271zm.648-.8151c-.006-.003-.0127-.0046-.0194-.0046s-.0134.0016-.0194.0046v-.1804c-.1297 0-.1621.1002-.1426.1737h.0324s0-.0401.0907-.0401v.0401c.0118.0068.0256.0092.0389.0067zm.1037-.4143c.0409-.0218.0845-.0376.1296-.0467-.014-.057-.014-.1167 0-.1737-.1361.0534-.149.0868-.149.2204zm.2009-.3741c-.0246.0153-.0428.0395-.0512.0679-.0084.0283-.0063.0589.0059.0858.0583-.0201.0583-.0802.0259-.1537zm.1167-.0869c.0713 0 .1166-.0868.1166-.2071-.0252.0034-.0494.0126-.0707.0269-.0213.0144-.0392.0335-.0523.056s-.0211.0478-.0233.0739c-.0023.0262.0012.0525.0102.0771zm6.2925-5.8059c-.0111-.026-.0284-.0486-.0504-.0657-.0219-.0171-.0477-.0282-.0749-.0322s-.055-.0008-.0807.0093-.0485.0268-.0662.0485c-.1645.1633-.3498.3026-.5508.4142-.2667.1471-.5223.3146-.7647.5011-.0583 0-.0713.1069-.1296.1069-.2372.1491-.4549.3287-.6481.5345-.2462.147-.4018.4276-.648.6214-.1665.233-.3602.4439-.5768.628 0 .0401-.0842.0735-.0972.1136-.0835.1213-.1767.2353-.2786.3407-.0843.1203-.2269.2673-.3111.3875-.0843.1203-.1491.2405-.2463.3408-.0972.1002-.1166.1336-.149.2071s-.0713.1069-.1102.1804c-.0658.0565-.1286.1167-.1879.1804-.0583.0735-.0907.1603-.1296.2071-.0165.011-.0303.0258-.0404.0432-.0101.0173-.0162.0368-.018.057 0 .1336-.1166.1804-.1879.3006-.2343.2391-.4509.496-.648.7684-.0908.1069-.1037.2539-.2074.3407-.1037.0869-.0842.1069-.0842.2272.1296.0401.2592-.167.3305-.2272.4601-.3073.7906-.5011 1.3803-.9621.5663-.441 1.1012-.9233 1.6007-1.4431.4601-.5278 1.1081-1.0222 1.5553-1.5567.3175-.3675.6027-.755.9072-1.1291.1193-.1751.2193-.3634.2981-.5613.088-.1293.1619-.2682.2204-.4142.0129-.0601-.0259-.1069-.0259-.167zm-6.2148 5.552c.1296 0 .1685-.0735.1685-.2071-.0907.0735-.1685.147-.1685.2071zm.1685-.2071c.0547-.0224.1018-.061.1352-.1109.0334-.05.0518-.109.0528-.1697-.0481.0292-.0886.07-.1179.1188-.0294.0489-.0468.1045-.0506.1618zm.3629-.3541v-.167c-.0252.0188-.0451.0442-.0576.0735-.0125.0294-.0172.0617-.0137.0935zm0-.167c.1167 0 .1167 0 .1556-.147-.0357.0045-.0687.0216-.0935.0484-.0249.0268-.0399.0617-.0426.0986zm.0584 4.6768h.1166c.4542-.2035.8883-.4518 1.2961-.7416.3196-.2032.6269-.4264.9202-.6681.0432-.0036.0865-.0036.1296 0 0-.0601 0-.0869.0584-.1136.2138-.1336.4017-.3006.648-.4476s.2592-.2205.4018-.314c.1494-.0471.2837-.1348.3888-.2539 0 0 0-.0401.0583-.1002-.0972 0-.1684.0601-.2592.0734-.2337.197-.4782.3799-.7323.5479-.1476.1093-.3012.2097-.4601.3007-.3434.2338-.7193.4276-1.0239.6681s-.648.4409-.9461.6681c-.0553.0614-.1278.1035-.2074.1203-.1512.0422-.2824.1396-.3694.2739zm.3693-5.1913c-.0842 0-.1231 0-.1231.1203.1296.0134.1426.0134.1426-.1069zm.363-.3006v-.1804c-.0973.0735-.2139.1203-.2139.294.0728-.0446.1513-.0783.2333-.1002zm.1555-.4142c-.0713 0-.0843.0868-.0713.167.0907-.0334.1231-.0668.0907-.1537zm2.4107.2338-.0583-.0735c-.0823.0505-.1548.1162-.2139.1938.025.0141.0529.0222.0814.0237.0285.0014.0569-.0039.0832-.0155.0262-.0116.0495-.0292.0682-.0514.0186-.0223.0321-.0487.0394-.0771zm.5314-.5345c-.0362-.0125-.0663-.0388-.0842-.0735-.0584.0401-.1426.0601-.1426.1604 0 .1002.0713 0 .0713.0467 0 .0468.1426-.0267.1426-.1136zm.0713-.167v-.0401s0 0-.0518.0401h.0518v.0735c.0324 0 .0583-.0401.0713-.0735zm.2916-.3074-.0583-.0467-.2333.1336v-.0468.0468.147c.0324 0 .0583.0467.0713.0735.0781-.0885.1476-.1848.2074-.2873zm-.162 4.0087c.0329.0105.0683.0089.1002-.0045s.0583-.0377.0748-.0689h-.0713c-.0454.0133-.1167.0467-.1167.1202zm.4601-4.483c0 .0735-.0518.0735-.1296.0735s-.0713.0467-.0518.1336c.0194.0868 0 .0735 0 .0868 0 .0134.0453 0 .1037-.0734.051-.0748.1273-.1272.2138-.147-.0454-.0468 0-.147-.0842-.147-.0843 0-.0584.0467-.0778.0735v-.0735s0 .0467-.0389.0467.0389.0735.0519.0735z"/><path d="m58.7975 38.7571c-.2322.0375-.4617.0911-.687.1603-.0161.0333-.0412.061-.0722.08s-.0667.0283-.1027.0269c-.1822.0008-.364.0142-.5444.0401-.2589.0172-.5187.0172-.7776 0-.4342 0-.4213-.0601-.6805.3274l-.499.5479c0 .04 0 .0601-.0583.0868-.4212.2673-.7647.608-1.1989.8485-.2861.1623-.6066.2495-.9332.2539-.2452-.0104-.477-.1186-.6463-.3019-.1692-.1833-.2628-.4272-.2609-.6802.0011-.1382.0298-.2746.0842-.4009.112-.5327.3502-1.0285.6934-1.4431.1555-.1871.2852-.4009.4601-.5947.0602-.0494.1085-.1125.1411-.1844.0326-.0718.0486-.1505.0469-.2298-.021-.1458.0138-.2944.0972-.4142.0976-.1132.2038-.2182.3175-.314.1875-.0938.3801-.1763.5768-.2472.0816-.0508.1775-.072.2721-.0602.1342-.0334.2742-.0334.4083 0 .1058.0085.2121-.0075.3111-.0467.2074-.0735.3629.0467.5378.1069.0713 0 .0713.1336 0 .1737-.0712.04-.0907 0-.0453.0467.0547.1064.1222.2051.2009.294.1354.155.2284.3444.2694.5487s.0285.4161-.0361.6138c-.0583.1604-.1037.3408-.188.5212.2327.0533.4738.0533.7064 0 .3435-.0602.6869-.1403 1.0498-.2138.2132-.0651.4295-.1186.6481-.1604.1134-.0312.2164-.0935.2981-.1804.1174-.0384.2397-.0587.3629-.0601.0454-.0401.1296.2138.1296.2272zm-3.493.2338s-.0583 0-.0713-.0601c-.4932-.0957-.9356-.3736-1.2442-.7817-.0713-.0802-.1296-.0802-.1491 0-.1343.1948-.2453.4057-.3305.628-.1296.2806-.2592.5479-.4147.8285-.1556.2806-.188.5345-.3046.755-.0389.0935.0454.167.1296.1937h.2333c.1392.0112.2786-.019.4018-.0868.5133-.2628.9888-.5979 1.4127-.9955.111-.1262.23-.2445.3564-.3541 0 0 .0195-.127-.0388-.127zm.5897-2.2716c-.0321-.041-.0717-.075-.1166-.1002 0 0-.0713 0-.0843 0-.2011.0996-.3903.2229-.5638.3675-.1977.1306-.3862.2758-.5638.4343l-.3175.2939c-.0165.0082-.0303.021-.04.037-.0097.0159-.0148.0344-.0148.0532s.0051.0373.0148.0532c.0097.016.0235.0288.04.037 0 .0401.0907.0869.1037.1336.1391.1314.3087.2234.4925.2673.2447.0943.4991.1593.7582.1937.0547.0125.1118.0078.1638-.0137s.0966-.0586.1278-.1065c.1602-.2549.2581-.5461.2852-.8485.0261-.1477.0135-.3-.0367-.4409-.0501-.141-.1359-.2656-.2485-.3609z"/><path d="m67.7272 38.07c-.1369.1635-.2963.3053-.4731.421-.2005.1661-.4178.3094-.6481.4276-.1905.1084-.3687.2384-.5314.3875-.1296.1002-.2592.1737-.3888.2806-.155.0954-.3043.2002-.4471.314-.3326.2816-.7298.4703-1.1536.5479-.0842 0-.1555.0467-.2592.0467-.0978.0434-.2078.0476-.3085.0117-.1007-.0358-.1848-.1091-.2358-.2054-.0067-.0389-.0222-.0755-.0454-.1069-.0743-.0539-.1326-.1281-.1681-.2143s-.0469-.1809-.0328-.2735v-.1804c-.0147-.1756.0262-.3514.1167-.501.0301-.1188.0691-.2349.1166-.3475h-.0324c-.0454 0-.0583 0-.0583 0-.2463.2406-.5185.4477-.7647.6682l-.7323.5679c-.0966.065-.1839.1437-.2592.2338-.2409.2204-.5265.3825-.836.4744-.0591.048-.1338.0706-.2087.0632-.0749-.0075-.1441-.0445-.1931-.1033-.1168-.0956-.2037-.2245-.2498-.3706-.0461-.1462-.0494-.3031-.0094-.4512.0723-.2992.1928-.5837.3564-.8418.2869-.5172.6211-1.0049.998-1.4565.1426-.1604.2268-.1604.3759 0 0 0 .0583.04.0583.0868s.0518.1203 0 .147c-.0788.0885-.1423.1901-.1879.3007-.0995.2056-.2121.4042-.337.5946-.095.1529-.1816.3113-.2592.4743-.1102.1938-.2398.3809-.3435.608-.0583.0869-.0713.2071-.1296.2806l.0713.0468c.0901-.0364.1769-.0811.2592-.1336.4342-.3474.8684-.6681 1.2961-.9955l1.7562-1.3362c.087-.0671.19-.1087.2981-.1203h.0778c.0777 0 .0972.0401.1425.0868.0454.0468.188.1203.1296.2539-.0075.075-.0227.1489-.0453.2205-.1296.1203-.175.314-.2852.4142l-.0777.0468c-.1685.4276-.4148.8485-.5703 1.2761 0 .1069 0 .1203.0583.1203.2386.0353.4817-.0167.6869-.147.4731-.2873.8943-.5813 1.3285-.8953s.9008-.5612 1.3804-.9153l.1879-.1203c.3305-.2405.4147-.2806.648 0 .1037.127.013.2406-.0712.314zm-1.9442.8486c-.1166 0-.1879.0467-.2009.1603.0472.0057.0947-.0079.1322-.0379.0376-.03.0623-.0739.0687-.1224zm.175-.1203h-.0583c-.0374.0267-.0666.0638-.0843.1069.0516.0039.1027-.0128.1426-.0468zm.4731-.1203c-.0584 0-.1167 0-.1296.1069.0712 0 .1166 0 .1296-.1069zm.4601-.2806c-.1102 0-.188 0-.2139.1537.1037 0 .1556-.0601.2139-.1537zm-.1426-.1336c.0112.0111.0244.0197.0389.0254.0144.0058.0299.0085.0454.008h.0583c.0269-.0407.0466-.0859.0583-.1336-.0454 0-.1166 0-.1296.0735z"/><path d="m78.8609 38.4915c-.2916.1135-.5638.2071-.8684.3073-.0827.0622-.1828.095-.2851.0935-.0973 0-.1426 0-.1167.1337l-.0842.04-1.5554.6682c-.4147.1603-.8748.3407-1.2507.4743-.2051.1118-.4227.197-.648.2539-.2275.0789-.471.0951-.7064.0468-.0583-.0468-.175-.1069-.2462-.1537-.0885-.0854-.1688-.1794-.2398-.2806-.0577-.0816-.0894-.1796-.0908-.2806-.0342-.4873.0208-.9768.1621-1.4431.0629-.1412.1107-.2891.1425-.441.0311-.1061.0464-.2165.0454-.3274 0-.1069 0-.1202-.0907-.0467-.3435.1202-.6481.2538-.9786.3741-.1879.0869-.3046.1938-.4731.2806-.1684.0869-.473.314-.7063.4877-.0843.0936-.2722.0936-.3629.2272-.4553.3108-.8749.6739-1.2508 1.0823-.0712.0602-.1425.147-.2008.2072-.1341.2148-.3223.388-.5444.5011-.0583.0601-.0907.1202-.1491.1803-.0367.0093-.075.0098-.112.0017-.0371-.0081-.0718-.0246-.1018-.0484-.1167-.2071-.2463-.4276-.1167-.6681.0474-.1428.1059-.2813.175-.4143.0713-.1804.1555-.314.2333-.4877.0166-.0747.0551-.1423.1102-.1938.3225-.5028.5653-1.0553.7193-1.6368.0713-.1604.175-.2072.3046-.1604.1537.0746.2872.1871.3888.3274.0583.0601 0 .0868 0 .1202-.1248.133-.2044.3042-.2268.4878-.0493.0549-.0849.1214-.1037.1937-.1743.2831-.3343.5752-.4795.8753-.0422.062-.0709.1326-.0843.2071.0272.0102.057.0102.0843 0 .2916-.2071.5508-.3808.823-.608.2765-.2579.581-.482.9072-.6681.1862-.1357.3835-.2541.5898-.3541.2014-.161.4186-.2999.648-.4143.1479-.0552.2876-.1317.4148-.2271.1338-.0824.2748-.1518.4212-.2071.1239-.0651.2637-.0907.4018-.0735.0362.0186.0691.0434.0972.0735.0777.1069.1879.2271.2592.3407.0198.063.0198.1308 0 .1938-.0713.3607-.1555.7148-.2398 1.0823-.0842.3675-.1166.5679-.175.8218-.0542.0823-.0794.1814-.0712.2806 0 .1603.0713.2071.2462.1737.3764-.0372.7479-.1156 1.1082-.2338.2762-.1346.5596-.2529.8489-.3541.2463-.1069.4601-.2272.7193-.314.2593-.0869.6935-.2807 1.0045-.3742.3111-.0935.5962-.2338.9267-.3675.3305-.1336.5444-.2071.8166-.3541.0907-.0601.2462 0 .3758-.0467.0062-.0012.0126-.0008.0187.0011.006.0019.0115.0053.016.0099.0044.0046.0077.0103.0096.0165s.0022.0128.0011.0192c-.0583.1938.1296.3541-.4601.5947zm-4.3354 1.3897h-.1556s0 .0467.0583.0467c.0189.0029.0382 0 .0555-.0083s.0318-.0217.0418-.0384zm.2008-.0535s-.1555-.0468-.1879.0401h.1037c.0842 0 .0842 0 .0842-.0401zm1.2961-.481h-.1166c-.0454 0-.0583 0-.1037.0935.0648.0134.149.0134.2203-.0935zm.3694-.127c-.0599-.013-.1219-.0119-.1813.0031-.0595.015-.1149.0437-.1621.0838.0558.0094.113.0065.1677-.0085.0548-.0149.1058-.0417.1498-.0784zm.2204-.1069h-.1037c-.0285.0012-.0556.0125-.0769.032s-.0353.0459-.0398.0749c.0778 0 .162.0134.1944-.1069zm2.4172-.8619s-.0454-.0601-.0454 0c-.1638.0171-.3237.0623-.4731.1337 0 0-.0713.0735-.1166.0401-.188-.0401-.3305.0801-.5185.1403-.0583 0 0 .1269-.1425.1269-.0506.0031-.0996.0192-.1426.0468-.0634.0311-.1312.0514-.2009.0601-.2333.0869-.4601.147-.648.2405-.0454 0-.1037.0401-.1037.0869.1037.0601.1879 0 .2851 0 .35-.1436.7069-.2685 1.0693-.3742 0 0 .0389 0 .0842-.0467.0454-.0468.2204-.0735.2917-.127.2305-.0563.4498-.1535.648-.2873 0 0-.013-.0401-.013-.0401z"/><path d="m82.5481 41.1631c-.0453 0-.0583 0-.0842.0401s0 .2405-.162.2806c-.0219.0246-.034.0568-.034.0902s.0121.0655.034.0902v.0735c-.0843 0-.1685 0-.1296.1202-.0322.0162-.0588.0422-.0761.0745-.0174.0322-.0248.0692-.0212.1059 0 .1002-.1036 0-.1296.0535-.1166.2271-.2333.4209-.3434.6146-.1002.2083-.2389.3945-.4083.5479-.1102.1603-.2009.2472-.3175.4009-.1167.1536-.0972.147-.2009.147-.0024.0546-.0165.1081-.0411.1566s-.0593.0908-.1015.124c-.1399.1755-.2938.3386-.4601.4877-.1167.0802-.1879.2138-.3176.2539-.0249.0336-.0586.0591-.0972.0735-.2916.1804-.4925.1202-.7063-.1737-.2087-.2793-.3019-.6324-.2592-.9822.0017-.26.0885-.5119.2462-.7149.2006-.3078.417-.6044.6481-.8886.1555-.1336.2851-.2806.4471-.4142.4328-.3906.8896-.7521 1.3674-1.0823.0384-.0087.0782-.0087.1166 0 0 .1002-.1166.1135-.1749.1737-.1556.1202-.2852.2071-.4018.314-.0262.0207-.0478.0469-.0635.0768-.0156.0299-.0249.063-.0273.0969.1187-.0678.2314-.1461.337-.2338.2707-.2495.5739-.4587.9008-.6214l.1037-.1336c.1673-.0412.3241-.1187.4601-.2272.0583-.0601.0583-.0735.1037-.1002s0-.0935-.0454-.1203c.0454 0 .0454-.0868.0584-.1202.1403-.1093.2535-.2512.3305-.4143.0354-.1101.1006-.2074.1879-.2806.0037-.0463.0246-.0894.0583-.1202.0055-.089.0304-.1756.0731-.2531.0427-.0776.1019-.1441.1732-.1946-.0063.0264-.0063.0539 0 .0802-.006.0173-.006.0362 0 .0535v-.0535-.0935h-.0584c.0616-.249.1576-.4875.2852-.7082.1166-.2806.2462-.5345.3629-.7884 0 0 0-.0468 0-.0601 0 0-.0454 0-.0713.0467-.0287.0189-.053.044-.0713.0735-.2196.2447-.4604.4683-.7193.6681-.1879.1337-.3305.3007-.5184.4143l-.5898.5345c-.2333.2538-.5184.4476-.7258.6681-.2456.2234-.5205.4101-.8165.5545-.1286.0482-.2505.1133-.3629.1938-.114.0429-.2353.0611-.3564.0534-.1201.0103-.2401-.0217-.3402-.0909-.1-.0692-.1743-.1714-.2107-.2899-.0496-.1122-.0753-.2341-.0753-.3574 0-.1234.0257-.2453.0753-.3575.0777-.1875.19-.3577.3305-.5011.3375-.4175.7302-.7841 1.1665-1.089.4041-.2854.8239-.5464 1.2572-.7817.2398-.0802.5185-.2539.7582-.3274.0568-.0198.1183-.0198.175 0 .2604.0076.5111.104.7128.2739 0 .0401.0713.0401.1297 0 .1629-.1691.3361-.3276.5184-.4743.0403-.0372.0837-.0708.1296-.1002.1296-.1938.3046-.147.4147.0601v.1002c-.154.471-.3335.9328-.5378 1.383-.0715.1706-.1583.3338-.2592.4877-.1232.1874-.2193.3922-.2852.608 0 .0735 0 .1336-.0583.147-.0739.1023-.1228.2215-.1426.3474.188 0 .2722-.1202.4472-.1804.1022-.0705.2207-.112.3434-.1202-.1936.1287-.3949.2447-.6027.3474-.0453 0-.1166 0-.1879 0v-.0735c-.0453 0-.0453.0601 0 .0735-.0324.1136-.1296.1136-.162.1938-.0324.0801-.0518.04 0 .0534.0519.0134 0 .0601 0 0 .1866-.0749.3684-.1619.5444-.2606.2009-.1069.4342-.2138.648-.3006.2139-.0869.5508-.2673.823-.4009 0 0 0 0 0-.0468-.1227.0028-.2437.0301-.3564.0802-.0407.033-.0878.0566-.1381.0693s-.1026.0141-.1535.0042c0 0 0-.0468.0453-.0735.2954-.1564.609-.2732.9332-.3474.256-.1041.5239-.1738.7971-.2071.2398-.147.4148 0 .5703.1937.0454.0468.1879.0735.1879.1938 0 .1202-.0583.167-.1101.167h-.0584c-.1364-.0493-.2815-.0682-.4256-.0556-.1441.0127-.2839.0567-.4103.1291-.0377-.0143-.079-.0143-.1167 0-.0446.0322-.0978.0495-.1523.0495s-.1076-.0173-.1523-.0495c0-.0468.0584-.0468.1167-.0735s0-.0467.0842-.0802c-.1268.0035-.2519.0307-.3694.0802-.0324 0-.0324.0535-.0583.0735h.1879v.1136c-.1013.0093-.2032.0093-.3045 0l.0583-.0601s0-.0468.0713-.0735c-.2101.0016-.4151.0667-.5897.187-.162 0-.2917 0-.3629.1604.0621.0135.1263.0139.1887.0013.0623-.0126.1216-.0381.1742-.0748-.005.0539-.0253.105-.0584.147-.0129.0183-.0314.0316-.0526.0377s-.0438.0045-.064-.0043c-.0188-.0141-.0415-.0217-.0648-.0217s-.046.0076-.0648.0217c-.0843 0-.1426 0-.2268 0v-.0802c-.0584 0-.1167 0-.1491.0802h.1491c.001.0577-.0153.1143-.0466.1621s-.0761.0845-.1284.1051c-.1037 0-.1879 0-.2722 0l.1426-.0735c.0713 0 .1555-.0467.1555-.1603-.1299.0214-.255.0667-.3694.1336-.1513.0695-.2966.1522-.4342.2472 0 0-.0712.0468-.0712.0602.1425.0467.2462-.0401.3434-.0602.0972-.02.0454-.0601.1037-.0601s0 0 0 .0601v.0468c-.0967.0545-.1962.1036-.2981.147-.0907.0601-.1037 0-.1879-.0401v-.0935c-.1139.0475-.2243.1033-.3305.167-.1037.0868-.0584.147-.0584.2071h.0389-.0389c-.0467.0496-.1015.0903-.162.1203v.0467c-.0842.1337-.1814.2673-.2592.4009s-.0518.1603-.1296.1737c.0027.0555-.0123.1104-.0427.1563-.0304.0458-.0746.0801-.1258.0976-.0583 0-.0583.0601-.0583.1203v.0467s.0907.147.0907.1203zm-.2462.0401v-.147c-.0155.0199-.0353.0358-.0578.0462-.0225.0105-.0472.0152-.0718.0139 0 .0869 0 .1336-.0843.1737-.0044-.0316-.0014-.0639.0087-.0941.0102-.0302.0272-.0575.0496-.0796 0-.1069.0584-.1804.1556-.1937.0277-.0721.0515-.1457.0712-.2205v-.0601h-.0583c-.1173.1586-.271.2848-.4471.3674-.0713.0468-.1296.1069-.2268.1804-.3046.2205-.6092.461-.9073.6681s-.3759.3875-.5638.5679c-.09.0761-.1725.1611-.2463.2539-.1354.0918-.2396.225-.2981.3808l-.1166.1537c-.2198.2695-.3771.5871-.4601.9287-.0033.0199-.0033.0402 0 .0601-.0071.041-.0043.0832.0081.1228s.0341.0755.0632.1044c.0325.0287.0721.0477.1144.0547.0423.0071.0857.002.1253-.0146.1132-.0113.222-.0502.3176-.1136.1945-.1343.3787-.284.5508-.4476.0717-.1028.1543-.1969.2463-.2807.0782-.1907.2118-.3517.3823-.461 0 .1938-.1555.2539-.2722.4143 0 0-.0712 0-.0842.0467-.013.0468 0 .1203-.0842.147-.1297.1604-.2333.314-.3759.461-.0583 0-.0713.0735-.0583.147.1425 0 .1879-.1202.2592-.1804.1099-.1645.2457-.3091.4018-.4276.1037-.147.2138-.3006.3305-.4476.2281-.2774.4259-.5799.5897-.902l.0324-.1804-.1296.0735c0-.1336 0-.1937.1296-.2071 0-.0868 0-.1336.0583-.1603.0583-.0268.0583-.0936.0972-.0936s0-.1135.0583-.147c.0584-.0334 0 .1203-.0453.147-.0454.0268 0 .0936-.0713.0936-.0016.033-.0113.0651-.0283.0932-.0171.0281-.0408.0512-.0689.0671v.1336c0-.0601.0972-.0601.1166-.0735.1585-.2059.2933-.4301.4018-.6681.0673-.097.1301-.1973.188-.3006zm-2.3589 3.2069c-.0611.0025-.12.0235-.1696.0603-.0495.0369-.0875.0879-.1091.1469.175.0334.2463-.1003.2787-.2072zm-.0324-2.3317v.1069c.2013-.1317.37-.3102.4925-.5211-.0082-.0071-.0185-.011-.0292-.011-.0106 0-.021.0039-.0291.011-.1605.1194-.3063.2585-.4342.4142zm3.4865-5.0443h-.1167c.044-.0658.083-.1351.1167-.2071 0-.0601 0-.1069 0-.167 0-.0602-.1167-.0401-.175 0l-.0972.0735c-.0454.0467-.0713.0935-.1296.1202-.2009.0601-.3629.2405-.5509.314-.1879.0735-.4018.294-.6027.4009-.2131.091-.3941.2473-.5184.4476v.0401c-.4042.2883-.7684.6322-1.0822 1.0223-.0854.1111-.1492.2381-.1879.3741.1474.007.2937-.0301.4212-.1069.1814-.0735.3434-.2205.5314-.3073l.1685-.1069.9202-.6682c.4212-.3407.823-.6681 1.2118-1.0422.0309-.019.0559-.0467.072-.0798.0161-.0332.0226-.0704.0188-.1073zm-2.9227 4.5432c.1879 0 .2722-.1336.3564-.2873-.0741.0064-.1455.0317-.2078.0737-.0622.042-.1133.0994-.1486.1669zm.7906 1.0356c-.0005.0456-.0113.0905-.0316.1311-.0202.0406-.0493.0758-.0851.1027-.0552.1622-.1689.2962-.3175.3742.0209-.0833.0589-.161.1115-.2279.0525-.0668.1184-.1213.1931-.1596-.007-.0466.0021-.0943.0258-.1346s.0605-.0707.1038-.0859zm.175-.2405c.0054.0343-.0006.0695-.0171.0998-.0165.0304-.0424.0541-.0737.0672 0-.0868 0-.1603.0908-.1937zm.7063-2.0445c-.0409-.0124-.0846-.0106-.1244.0051s-.0735.0444-.0959.0818c-.0842 0-.1426.0735-.1879.0735v-.0735c.2225-.1528.4591-.2826.7063-.3875 0 .0935-.0907.1202-.1296.147-.0357.0062-.0695.0209-.0988.0429-.0292.0221-.0531.0508-.0697.084zm-.1879 1.2294c.0004.0506-.0172.0996-.0494.1377-.0322.0382-.0769.0629-.1256.0694-.0069-.0276-.0076-.0564-.002-.0843.0055-.028.0172-.0542.034-.0767.0169-.0226.0386-.0409.0634-.0535.0247-.0126.052-.0192.0796-.0193zm.1296-.2405c-.002.0477-.0147.0943-.0372.136-.0225.0418-.0542.0775-.0924.1045-.0187-.055-.0156-.1153.0087-.1679.0243-.0525.0677-.0931.1209-.1127zm.3759-.4744c-.0528.0212-.098.0585-.1296.1069v.1203c.1101-.0602.1296-.1337.1296-.2539zm0-.3808c.0389-.0602.0842-.0735.1101-.147.026-.0735 0 0 0 0-.0505.0432-.1106.0731-.1749.0868 0 0-.013.0334.0453.0334zm.1037.2472c-.1037 0-.0843.0601-.0843.1336s.0648-.1002.0648-.1604zm-.0843-.7082c0-.0735.0843-.0602.1426-.0602s-.0778.0602-.162.0334zm.1685.4877c-.0454.0401-.0583.0868-.0583.1871.0583 0 .0842-.1003.1166-.147-.0031-.0189-.0126-.036-.0269-.0483-.0142-.0122-.0323-.0188-.0508-.0185zm1.9441-1.6169c-.0583-.0467 0-.0868.0584-.0868.0588-.031.1224-.0513.1879-.0601-.0319.0438-.0745.078-.1235.0992-.049.0211-.1025.0284-.1552.021zm.3176.1604c-.0283-.0048-.0572-.0002-.0828.013s-.0465.0343-.0598.0605c.0713 0 .1426.0334.1685-.0735zm.8165-.2071c0 .0601-.0583.0735-.0972.1336s-.1296.0735-.2009.0468c-.0713-.0268-.0713-.0468-.1296-.0602v-.0601h.2009c.0563-.0461.1233-.076.1944-.0869zm.0907-.4143c-.0583 0-.149 0-.162.0869-.0129.0868.0843.0067.1296-.1136zm.2009-.0601c-.0713 0-.1749 0-.2009.0601h.1297c.0064-.0267.0388-.04.0388-.0868zm.2139-.0468h-.0583c-.0251-.0121-.0538-.014-.0802-.0054-.0264.0087-.0487.0273-.0624.0522h.162c.0095.0009.0189-.0021.0262-.0084s.0118-.0153.0127-.025c.0008-.0097-.0021-.0194-.0082-.027-.006-.0075-.0148-.0122-.0242-.0131zm.5897.0468c-.1651-.0023-.3279.0391-.4731.1203.1595.0086.3164-.0437.4407-.147zm-.2722-.1937h.2139.0324c.0324 0-.0454 0-.0583 0-.0678-.0366-.1462-.0461-.2204-.0268z"/><path d="m94.212 38.6048s-.0713.0401-.0907.0401c-.2389.0527-.47.1381-.6869.2539-.3629.1604-.7194.3007-1.0693.4476-.0389 0-.0972 0-.1102.0602-.3074.1731-.6256.3248-.9526.4543-.3175.1336-.648.2873-.9332.4343-.436.2575-.9153.4275-1.4127.5011-.0843 0-.1426 0-.2009.1069-.2586.0816-.5379.0552-.7777-.0735-.1415-.0391-.2709-.115-.3758-.2205-.1512-.1317-.2579-.3095-.3046-.5078-.0612-.2182-.0612-.4499 0-.6681l.1037-.1938c.2225-.5241.5676-.9832 1.0044-1.3362.388-.3888.8238-.7234 1.2961-.9955.1525-.1178.3304-.1957.5185-.2271.1296-.0535.2981-.0735.4277-.1337.069-.0666.1581-.1069.2523-.1142.0943-.0073.1882.0189.2661.0741 0 .0401.0713 0 .1296.0401s.1426 0 .162.0602c.0893.0983.1655.2084.2268.3273.0637.0827.0983.1851.0983.2907 0 .1055-.0346.2079-.0983.2906-.1879.2338-.3045.5011-.5897.6214l-.2073.1336c-.3888.3037-.8502.4931-1.335.5478-.1359.0452-.2792.0611-.4213.0468-.1814 0-.4147-.0468-.648-.0468-.0248-.0019-.0496.0026-.0722.0131s-.0424.0267-.0574.0471c-.2599.3162-.4778.6667-.6481 1.0422-.0116.0258-.0179.0537-.0186.0821s.0043.0566.0146.0829.0258.0502.0455.0701c.0196.0198.043.0354.0687.0455.162.0468.35.1337.4925.0468.3127-.0217.6217-.0822.9203-.1804.2492-.0784.4938-.1721.7322-.2806.2787-.1336.4926-.2539.7388-.3875.0713.0869.0713.0869.1426 0 .105-.1083.234-.1885.3759-.2338 0-.0602.0972-.0602.1879-.0936.4731-.2071.9591-.461 1.4062-.6681.1356-.0662.2765-.1199.4213-.1604.1252-.0511.2447-.1161.3564-.1937.0718-.0394.1555-.0489.2339-.0265s.1454.0749.1873.1468c.0356.0395.0802.0693.1296.0868.0973.127.1556.294.0713.3474zm-5.6315 0c.0454.0468.1296 0 .175 0 .0619-.0139.126-.0139.1879 0l.4148-.0735c.1658-.054.3281-.1187.486-.1937.367-.1099.7102-.2913 1.0109-.5345.1633-.1066.2902-.2631.363-.4477.0388-.04.0388-.1336.0388-.2071s0-.1002-.0713-.1603c-.0712-.0601-.0972 0-.1166.0601s-.0842.0735-.1685.0735c-.3206.023-.6315.1237-.9073.294-.3332.1912-.6479.4149-.9396.6681l-.3889.3875s-.0972.1336-.0842.1804z"/></g></svg>