<svg fill="none" height="53" viewBox="0 0 319 53" width="319" xmlns="http://www.w3.org/2000/svg"><g fill="#55937c"><path d="m0 13.1807h10.715v.6343h-3.69267l4.98287 14.0975 4.6352-11.1292-1.1125-2.9291h-1.8772v-.6344h8.8455v.6344h-2.982l5.1605 13.9721 5.5545-13.9721h-4.1794v-.6344h7.2464v.6344h-2.3562l-7.9571 20.1515-6.0412-16.3609-6.7597 16.3609-7.16139-20.1907h-3.02061z"/><path d="m34.231 31.8915h3.4223v-31.241453h-3.4223v-.650047h7.2463v17.7392h.0927c.2138-.5131.4723-1.0059.7726-1.4724.3933-.6263.8807-1.1865 1.4446-1.6603.6658-.5688 1.4169-1.0262 2.2249-1.3549.995-.399 2.0591-.5907 3.1287-.5639 1.6998-.0842 3.3782.4122 4.7666 1.4097 1.2309.9659 1.8463 2.4984 1.8463 4.5973v13.1968h3.4224v.6265h-10.6687v-.6265h3.4223v-14.5595c.0444-1.0292-.2461-2.0446-.8266-2.89-.3038-.3845-.6954-.6881-1.1409-.8846-.4456-.1966-.9317-.28-1.4162-.2432-.9397-.0003-1.8671.2167-2.7116.6344-.8638.4269-1.6337 1.0263-2.2635 1.7622-.676.778-1.2003 1.6789-1.5451 2.655-.3783 1.0701-.5666 2.1997-.5562 3.3364v10.1814h3.4223v.6266h-10.6609z"/><path d="m62.2892 22.8762c-.0075-1.4174.3182-2.8162.9502-4.0804 1.2273-2.4483 3.2805-4.3687 5.7863-5.4119 1.1426-.5063 2.3762-.7677 3.6232-.7677s2.4806.2614 3.6232.7677c2.5018 1.0466 4.5515 2.9663 5.7785 5.4119.638 1.2707.9665 2.678.958 4.1039.0056 1.3807-.301 2.7444-.8962 3.9864-1.1577 2.4633-3.1633 4.4129-5.6395 5.4823-1.2052.5372-2.5074.8145-3.824.8145s-2.6188-.2773-3.824-.8145c-1.2264-.5288-2.349-1.2769-3.3142-2.2086-.9632-.9357-1.7487-2.0426-2.3176-3.2659-.6027-1.2507-.9121-2.6258-.9039-4.0177zm4.4421 0c-.0433 1.7107.1201 3.4203.4867 5.0907.2316 1.0471.6705 2.0356 1.2901 2.9056.4713.6303 1.1248 1.0958 1.8696 1.3314 1.4836.4165 3.051.4165 4.5347 0 .7447-.2356 1.3983-.7011 1.8696-1.3314.6196-.87 1.0585-1.8585 1.2901-2.9056.3665-1.6704.53-3.38.4867-5.0907.0249-1.5196-.0941-3.0381-.3554-4.5347-.1781-1.0519-.5475-2.061-1.0892-2.9761-.4433-.7198-1.0853-1.2917-1.8464-1.6447-1.6883-.6581-3.5573-.6581-5.2455 0-.7599.355-1.4014.9264-1.8464 1.6447-.5418.9151-.9111 1.9242-1.0892 2.9761-.2575 1.497-.3764 3.0152-.3554 4.5347z"/><path d="m15.7595 42.1923c-.0154-.3609-.1161-.7128-.2935-1.026-.0464 0-.0464-.047-.0464-.0705s.1159-.047.1391-.047c.1027.0368.1992.0896.2858.1567.2833.3109.4382.7202.4326 1.1434v.3368c.0044.1968-.0494.3905-.1545.5561-.3642.5236-.767 1.0184-1.2051 1.4802l-1.043 1.026c-.3705.4588-.8241.8416-1.3364 1.1278-.1545.1018-.3631.2427-.5717.3681-.2687.1429-.5508.2583-.8421.3446-.1429.0146-.2848.0381-.4249.0704-.1473.0593-.3073.0788-.4643.0569-.157-.022-.30576-.0847-.4318-.1822 0 0-.04636 0-.04636-.047-.17163-.2028-.29164-.4453-.34955-.706-.05791-.2608-.05195-.532.01736-.7898l.06953-.3838v-.0705h-.05408s-.10043 0-.11588.0705c-.35735.3972-.73649.7738-1.13562 1.1278-.19998.2956-.4421.5595-.71846.7832-.1854.3994-.61802.4856-.89613.7832-.03549.0286-.07638.0495-.12015.0615s-.0895.0148-.13437.0082-.08793-.0225-.12654-.0466c-.0386-.0241-.07192-.056-.09791-.0936-.09415-.1215-.15335-.2669-.17107-.4203-.01772-.1535.00672-.3088.07064-.4491.0659-.1785.14599-.3514.23948-.5169.39399-.7832.82661-1.5663 1.20515-2.3495.10501-.1304.19088-.2755.25494-.4308.00514-.0543.02876-.1051.06682-.1437s.08818-.0625.14176-.0678c.09595-.0212.19545-.0195.29064.005s.18347.071.25786.136c.03072.0389.04745.0873.04745.1371s-.01673.0981-.04745.137c-.13063.1824-.2347.3829-.30901.5953-.09607.3395-.25321.6581-.46352.9398-.08008.1895-.17841.3705-.29357.5404-.10042.188-.22403.3446-.30901.5169v.1253c.11084-.038.206-.1124.27039-.2115.41717-.3602.77253-.7831 1.17425-1.1277.20231-.26.44496-.4848.71846-.6658.37854-.3446.77255-.6578 1.12785-.9868.18-.1479.348-.3103.5022-.4856.0921-.0903.2122-.1456.3399-.1566.1931-.0705.309 0 .4635.1331v.1958c0 .0392-.1777.141-.2626.2428-.1074.1202-.2055.2485-.2936.3838-.0695 0-.085.0705-.1545.1175-.1766.1476-.3124.3392-.394.556l-.5099 1.0495c-.1249.2418-.19111.5103-.1931.7832 0 .1958.06953.2271.2086.2271.3393.0043.675-.0708.9811-.2193.2021-.1266.411-.2416.6258-.3446.0793-.0344.1524-.082.2163-.1409.6257-.3894 1.2176-.8322 1.7691-1.3236.0899-.1158.1998-.214.3244-.2898.0927-.0548.1545-.1253.2936-.094-.0464.094-.1159.1253-.17.1801-.054.0549-.2549.1567-.2781.3446h.1236c.1004-.0915.1934-.191.2781-.2976.1545-.1018.2395-.2584.4249-.3132.0195-.0558.0195-.1166 0-.1723h-.139c-.0026-.0421.0101-.0837.0358-.1169.0256-.0332.0623-.0557.1032-.0633v.1802c.0223.0091.0473.0091.0696 0 .3862-.3734.7403-.7795 1.0583-1.214-.0278.0077-.0571.0077-.085 0-.1158.1253-.224.2663-.3399.3994-.1262.1634-.2715.3106-.4326.4386.0086-.0413.0086-.084 0-.1253.0618-.1175.1854-.2036.255-.3133.0199-.0493.0487-.0944.0849-.1331v-.0705.0705c.1165-.1098.1996-.2511.2395-.4073h-.085c0-.0626 0-.1566.085-.1566v.047c.085 0 .085-.0862.085-.1723h-.085c0-.047 0-.141.085-.1723v.1723c.085-.047.085-.1175 0-.1723v-.2115c.0386-.0457.0676-.099.085-.1566v.1566c-.0063.0231-.0063.0474 0 .0705.0618 0 .0618-.0705.0618-.0861.0146-.0201.0238-.0436.0265-.0684s-.0011-.0498-.0111-.0726zm-2.9974 3.8454c-.0327-.0064-.0665-.0013-.096.0143-.0295.0157-.0528.041-.0662.0719.0927-.0157.1622.0392.1622-.0862zm.3708-.2584c-.085 0-.1545 0-.1854.0861.1004-.0156.1545.0157.1854-.1018zm.703-.6109h-.1159c-.2203.1777-.4176.383-.5871.6109h.0541c.2524-.1668.4723-.3791.6489-.6266z"/><path d="m24.1877 45.4347c-.2768.044-.5504.1068-.8188.188-.0193.039-.0492.0715-.0862.0937-.037.0223-.0795.0332-.1224.0316-.2197.0006-.4391.0163-.6567.047-.3087.0205-.6183.0205-.927 0-.5099 0-.4944-.0705-.7726.3838l-.6025.6422c0 .047 0 .0705-.0696.1018-.4944.3133-.9038.7127-1.4214.9946-.3415.1894-.7233.2916-1.1125.2977-.2952.0021-.5794-.1131-.7917-.3211-.2124-.2079-.3358-.4919-.3439-.7911.0014-.1619.0356-.3219.1004-.4699.1304-.6255.4148-1.2075.8266-1.6917.1854-.2193.34-.4699.5485-.697.0718-.058.1293-.1319.1682-.2162.0389-.0842.058-.1764.0559-.2694-.0141-.0847-.0111-.1714.0088-.2548.0199-.0835.0563-.162.1071-.2308.1144-.1345.2412-.2577.3785-.3681.2235-.1098.4531-.2066.6876-.2898.0969-.0606.2115-.0855.3244-.0704.1573-.0392.3217-.0392.479 0 .1286.0105.258-.0082.3785-.0549.2395-.0861.4326.0549.6335.1253.085 0 .085.1567 0 .2037s-.1004 0-.0463.0548c.0652.1246.1456.2404.2394.3446.1623.1812.2731.4036.3208.6435.0476.24.0302.4885-.0504.7193-.0614.2083-.1362.4124-.224.6108.2773.0626.5648.0626.8421 0 .4171-.0704.8266-.1644 1.2592-.2506.2395-.0861.479-.1175.7725-.1879.1379-.0353.2636-.1085.3631-.2115.14-.0451.2858-.0688.4326-.0705.0464-.047.1545.2506.1545.2663zm-4.1716.2741s-.0696 0-.085-.0704c-.5796-.1175-1.098-.4428-1.4601-.9164-.085-.094-.1545-.094-.17 0-.1632.2264-.2957.4741-.394.7362-.1545.329-.309.6422-.4944.9712-.1854.3289-.224.6265-.3631.885-.054.1096.0541.1958.1545.2271h.2704c.1685.0133.3372-.022.4867-.1018.6107-.3062 1.1752-.6991 1.6764-1.167.137-.1458.2814-.2844.4326-.415 0 0-.0154-.1489-.0695-.1489zm.703-2.6628c-.0349-.0483-.0797-.0884-.1314-.1175 0 0-.0849 0-.1081 0-.2374.1167-.4603.2613-.6644.4308-.2371.1512-.4618.3214-.6721.5091l-.3785.3446c-.0196.0096-.0362.0246-.0477.0433-.0116.0187-.0177.0403-.0177.0624s.0061.0437.0177.0624c.0115.0187.0281.0337.0477.0433.0453.0487.0867.1011.1236.1567.163.1536.3627.2616.5794.3132.2943.1107.6001.1869.9115.2272.0641.0152.1313.0098.1922-.0155s.1126-.0691.1478-.1255c.1966-.2966.3162-.6387.3476-.9947.0294-.1753.0111-.3554-.0529-.521-.0639-.1656-.1712-.3103-.3102-.4188z"/><path d="m33.3037 44.3533c-.0279.0983-.0724.191-.1313.2741-.1391.2271-1.3442 1.0103-1.4755 1.2374-.0994.1201-.2278.2121-.3727.267-.1448.0548-.3012.0708-.4539.0463-.0518.0068-.1043-.0032-.1501-.0286-.0458-.0253-.0825-.0646-.1049-.1124 0-.1018-.0695-.1566-.0927-.2428-.091-.1195-.1524-.2593-.1793-.4078s-.0184-.3014.0248-.4459c0-.0469-.085-.1018-.1313-.0861-.1777.0861-.3631.141-.5176.2271-.7379.4345-1.4429.924-2.109 1.4646-.0989.0741-.2021.1421-.3091.2036-.0975.1-.2007.1941-.309.282-.2288.1802-.4271.3972-.5871.6422-.2795.3243-.5376.6671-.7725 1.026-.085.1958-.2395.2819-.309.4385-.0696.1567-.1236.141-.2241.0862-.1004-.0548-.139-.0548-.139-.0548-.085-.1332-.1854-.2272-.255-.3446-.0193-.1325-.0193-.267 0-.3995.0354-.0869.0821-.1686.1391-.2428.2704-.509.5485-.9946.8421-1.5663.2935-.5718.6643-1.2375.9733-1.864.1573-.2715.2892-.5573.394-.8537.0241-.0485.058-.0914.0993-.126.0414-.0346.0894-.06.141-.0747.0516-.0148.1056-.0185.1587-.0109s.104.0263.1495.055l.2781.1566c.0541.0862.1005.2115 0 .2663-.1666.2463-.3089.5086-.4248.7832l-.4636.8537v.0861h.0464c.6945-.583 1.4481-1.0897 2.2481-1.5116.4326-.2114.8652-.368 1.2746-.5795.1421-.0657.3016-.0821.4538-.0467s.2886.1206.3883.2425l.2704.2976c.037.0554.0527.1227.0441.189-.0085.0664-.0407.1273-.0905.1713-.0984.0717-.1758.1692-.224.2819-.0541.2115-.2395.3446-.2781.5404.7372-.3875 1.454-.8136 2.1476-1.2766 0 0 .0309.141.0309.1567z"/><path d="m42.4352 38.6282c-.0464 0-.0464.0705 0 .1018.0463.0313-.0464.2271-.1855.1958-.0849.1018-.1004.2271-.1854.2741-.1716.2112-.3575.4101-.5562.5953-.0359.0392-.0807.069-.1305.0868-.0498.0177-.1031.0229-.1553.015.0009.0297-.0049.0593-.0169.0864-.0121.0272-.0301.0512-.0527.0702-.0516.0379-.109.067-.1699.0862.0463 0 .0463.0704.0695.0861s0 .0548 0 .0705v.0548c-.2117.1614-.4082.3423-.5871.5404 0 .0705-.085.1018-.1159.1723-.2369.1362-.4341.3334-.5717.5717 0 .0705 0 .0862-.0695.0862-.1699.0705-.2395.2271-.394.3368-.1545.1096-.1854.2036-.309.2898-.1818.1541-.3546.3189-.5176.4934-.5082.4337-1.0395.839-1.5914 1.2139-.3713.3061-.8077.5206-1.2747.6266-.085 0-.1545.0861-.2163.1018-.0373.0456-.0786.0875-.1236.1253 0 .2271-.1545.3446-.2395.5012-.085.1567-.224.3133-.3399.4543-.0947.1176-.149.2633-.1545.4151.0958-.0313.1868-.0762.2704-.1332.4102-.362.8409-.6994 1.2901-1.0103.192-.1454.3993-.2689.618-.3681.0594-.0683.1373-.1174.2241-.141.0618-.0626.1313-.1879.2858-.1174.0656-.0793.1353-.1552.2086-.2272.1005-.0211.1953-.0639.2781-.1253.2812-.0589.5454-.1821.7725-.3602.1622-.1473.3697-.2331.5872-.2428.054-.0296.111-.0532.1699-.0705.2246-.1141.4759-.1629.7262-.141.1571.0025.31.0512.4403.1402s.2323.2144.2936.361c.0287.035.0426.0801.0386.1254-.0504.2278-.1393.445-.2626.6422-.0643.2281-.1965.4305-.3786.5795-.2514.234-.5258.4413-.8189.6187l-.6566.47c-.0464.0704-.0695.0939-.1159.0939-.3476 0-.5871.329-.9116.4151-.3115.16-.6492.2608-.9965.2976-.1005 0-.1546.047-.2086.1567-.0302.1022-.0509.2071-.0618.3133.0182.3286.0182.6581 0 .9868 0 .0705 0 .0861.0695.141.0086.0302.027.0567.0522.0752.0252.0184.0558.0278.0868.0266.4692.0674.9475.0135 1.3906-.1567.5594-.2134 1.0996-.4755 1.6146-.7832.2395-.1018.4403-.2036.6798-.3289s.6181-.3289.8962-.5169c.2953-.2076.6112-.3834.9425-.5247.394-.2115.7725-.4386 1.1201-.6658.1314-.0469.255-.1723.4249-.2584.0769-.0239.148-.0639.2086-.1175.2871-.2121.5983-.3883.9271-.5247.1487-.0505.2873-.1274.4094-.2271.0624-.0557.1393-.0919.2215-.1044s.1662-.0008.242.0339c.085 0 .17 0 .1854.0705.0155.0704.2627.1879.2627.3837v.0705s0 0-.0695 0c-.3332.0393-.649.1722-.9116.3838-.0896.0147-.1809.0147-.2704 0-.0386 0-.1082 0-.1082 0-.0695.2114-.1854.2428-.3553.2819v-.0705c-.0696 0-.1777 0-.1932.0705-.0695 0-.0695.0548 0 .0705.0696.0157 0 .141 0 .141-.2395.0626-.394.3133-.6025.4151-.2396.092-.4742.1966-.7031.3132-.1475.0647-.2813.1578-.3939.2742-.2241.1409-.4327.2819-.6721.4072-.2395.1253-.564.329-.8421.5169-.0464.0705-.1159.0862-.1313.1253-.3477.1723-.6412.3446-.9657.5169-.3049.2016-.6314.3671-.9734.4934-.2842.1591-.5921.2703-.9116.329-.3257.0942-.6709.0942-.9966 0-.192-.0299-.3751-.1031-.5355-.2142-.1605-.1112-.2943-.2574-.3915-.428-.2556-.4472-.3536-.9692-.2781-1.4803.0595-.1806.1009-.3669.1236-.556.0541 0 .0541-.141.0541-.2115-.0264-.0479-.0403-.1018-.0403-.1566 0-.0549.0139-.1088.0403-.1567 0 0-.0541 0-.0696-.0469-.0154-.047 0 0 0 0-.2583.1738-.499.3731-.7184.5952-.3631.2898-.703.6422-1.0661.9555-.0695.047-.17.1723-.2549.2036-.085.0313-.1005.0705-.1005.1801.0068.019.0087.0393.0054.0592-.0032.0199-.0114.0386-.0238.0543-.0124.0158-.0286.028-.047.0355-.0184.0076-.0385.0102-.0582.0077-.1545 0-.1854.0861-.224.2036s-.1159.0861-.1854.0705c-.0542-.0276-.1017-.067-.139-.1154s-.0636-.1046-.0769-.1645c-.0133-.06-.0133-.1221 0-.1821.0133-.0599.0395-.1161.0768-.1646.0544-.106.0785-.2254.0695-.3446.0113-.1892.0756-.3713.1855-.5247.0652-.1965.1453-.3877.2394-.5717.0541-.0705.0696-.1958.1932-.2663.0662-.2237.1887-.4262.3553-.5874 0 0 0 .0705.0696 0-.0108-.0055-.0227-.0084-.0348-.0084s-.024.0029-.0348.0084c0-.141.0927-.2115.1932-.282.1004-.0704 0-.2741.1699-.3446.0277-.115.0966-.2154.1932-.2819.0033-.0917.0299-.181.0773-.2593.0473-.0782.1139-.1426.1931-.1871v.1723c.0849-.0705.0849-.0862 0-.1723.0695-.1253.0695-.282.1854-.3681.1081.0861.1081.0861.1622 0v-.0549h-.0541c.0001-.0735.0233-.1451.0664-.2043s.1038-.1029.1731-.1246v.047c0 .047 0 0 0-.047h-.0541c-.0078-.0577.005-.1163.0362-.1652.0312-.0488.0787-.0847.1338-.1011 0 .0549 0 .0549.1004 0 .1004-.0548.0541-.1018.0695-.2114h.0541c0-.047-.0541-.047-.0541-.047s0-.141.0696-.1567c.0695-.0156.054.0627.1081 0h-.1545c0-.094 0-.1253.1082-.1253-.0541-.1018.0463-.1566.1699-.2428.0541.0862.0696.0862.0696 0h-.0696c-.0064-.0818.0155-.1634.062-.2306.0466-.0672.1148-.1158.193-.1375h.0849-.0463c-.0114-.012-.0194-.0268-.0232-.043-.0038-.0161-.0034-.0331.0013-.049.0048-.0159.0136-.0303.0255-.0416.012-.0114.0268-.0193.0427-.023v.2036c.0283-.0142.0515-.0368.0667-.0648s.0216-.06.0183-.0918c0 0 .0695-.0862.1236-.1018h-.1236c.0521-.1452.1498-.2691.2781-.3525v.2115c.0696-.0548.0696-.1253.0696-.2115h-.0696c.0696-.1723.1545-.3602.3399-.415 0 .0548.0541.0548.1082 0h-.1082c0-.1019 0-.1724.1082-.2115v.2115c.0544-.0582.0896-.1321.1004-.2115h-.1004c0-.0705.0464-.1332.1004-.1566.4095-.5561.8575-1.0417 1.267-1.5664.4916-.6096 1.0516-1.1589 1.6687-1.6369.4012-.3849.8569-.7069 1.3519-.9555.3679-.2316.7693-.4034 1.1897-.5091.0697-.0493.1556-.069.2395-.0548.1022.0446.2135.0635.3244.0548.1343-.0099.2691.0118.3937.0635.1246.0516.2358.1317.3248.2342.038.0508.0617.1112.0685.1747.0068.0634-.0035.1276-.0299.1855-.1048.1349-.193.2821-.2626.4386-.2575.2273-.4813.4911-.6644.7832-.0568.1054-.1393.1944-.2395.2584-.1348.096-.2568.2092-.3631.3368 0 0-.0695.0392-.139.094zm-8.3202 7.4951c-.1391 0-.1545.1253-.1545.2272v.1253h.0618c-.002-.0357.0031-.0715.0151-.1051.0119-.0337.0304-.0645.0544-.0907.0208-.0494.0288-.1033.0232-.1567zm.224-.3133c.0695-.0861.085-.2584.2549-.1723l-.0849-.1409c0-.0705-.0696 0-.1082 0-.1661.1785-.2786.4012-.3245.6422h.1545c.0204-.1143.0568-.2251.1082-.329zm-.0695.3368c-.0541 0-.0541 0-.0696 0-.0154 0 .0309.0705.0696 0zm.3631-.8928c.0695-.0705.1313-.0862.1545-.1567.0231-.0704.0463-.0704.1004-.0861v-.1566c-.1854.0156-.2086.1723-.2549.3994zm1.0583-1.6682h.085v-.2115c-.085-.0156-.085.1097-.085.1802zm.5717 2.4514c.181.0162.3506.0966.479.2271.0695.0861.0695.2115.1545.2115s.1854-.0705.2395-.1019c.0541-.0313.1854-.1253.2935-.1566.1945-.0505.3797-.1325.5485-.2428.4716-.3201.9184-.6762 1.3365-1.0651.3128-.2336.5431-.5632.6567-.9398 0 0 0-.0549 0-.1254h-.0927c-.3127.1398-.6325.2627-.958.3681-.0712.0569-.1525.0995-.2395.1254-.3785.2271-.703.4464-1.0815.6578-.2272.1202-.4442.259-.6489.4151-.2241.141-.4481.3133-.6567.4386-.0869.0364-.1582.103-.2008.188zm-.085-3.3207c-.0695 0-.054.1253-.054.2114.054-.0705.1158-.0861.054-.2114zm1.7614-1.7231c-.0036.0415-.0158.0818-.0358.1182-.0199.0365-.0472.0682-.0801.0933-.1699.188-.394.2976-.448.5874-.0362.0768-.083.148-.1391.2114-.1312.109-.2302.2527-.2858.4151-.1027.1516-.2191.2932-.3477.423v.0861c-.0712.1687-.1827.3167-.3244.4308-.0117.0244-.0177.0512-.0177.0783s.006.0539.0177.0783h.1158c.1362-.0868.2677-.181.394-.2819.9502-.6971 1.9082-1.4803 2.7812-2.24.5485-.4542 1.0352-.9085 1.545-1.394.0696-.0549-.139-.0549-.0541-.141.085-.0862.2782-.2428.394-.3681l.1545-.1567.7726-.7831c.0024.0234.0024.047 0 .0704 0 0 0 0 .0463-.0704h-.0618s0-.0862.0618-.0862.0927-.0705.1236-.0705v.0705s.0696 0 .0696-.0705h-.0696c0-.0548 0-.0861.085-.1175.085-.0313 0 0 .0541 0 0-.2114.17-.2976.2936-.415v.2036l.1158-.0862v-.1566c-.054 0-.0695-.0705-.1158-.0705-.0464 0 .0618-.141.1699-.1566.1082-.0157.0464-.0549.1004-.1097.0541-.0548 0-.1175.085-.1566.0749-.1379.1686-.2644.2781-.3759 0-.1254 0-.2115-.054-.2663-.0658-.0534-.1476-.0825-.2318-.0825-.0843 0-.166.0291-.2318.0825-.1186.1142-.2575.2046-.4094.2663-.1931.1174-.4481.2427-.6876.3602-.3947.1638-.7561.4001-1.0661.6971-.1065.1252-.2418.222-.394.2819-.1092.1132-.231.2131-.363.2976-.3068.268-.5679.5856-.7726.9398 0 0-.1159.047-.139.0862-.0555.0528-.1179.0976-.1854.1331-.0057.0704-.0297.1379-.0696.1958-.0638.1218-.1388.2372-.224.3446-.146.1824-.3062.3526-.479.5091-.1549.1765-.2802.3775-.3708.5952zm-1.4755 1.355c.0371 0 .074-.0076.1082-.0222.0343-.0147.0653-.0362.0912-.0632s.0463-.059.0598-.0941.0199-.0726.0189-.1103c-.0662.0215-.1262.0592-.1747.1097-.0485.0506-.084.1124-.1034.1801zm.8961-1.2297c.17 0 .17 0 .17-.1566-.0375.0128-.072.0333-.1012.0603-.0293.0269-.0527.0597-.0688.0963zm2.2635.1019c-.1646.0741-.2985.2044-.3785.3681.1677-.0755.3061-.2049.394-.3681zm.3786-.2585c-.1005 0-.1545 0-.17.1018-.0154.1018.1391 0 .17-.1018zm5.3382 4.0178h-.1545c-.394.2114-.7726.3837-1.1666.5717-.2549.1723-.5639.3133-.8575.4856-.1897.095-.3859.1761-.5871.2428l-.5639.3367c-.1236.1018-.2936.1567-.4095.2428-.3785.2271-.7725.4464-1.1202.6579-.234.1222-.4477.2808-.6334.4699h.1545c.1545-.1018.3244-.1566.4635-.2428.5176-.2741 1.0429-.6265 1.5451-.9006.309-.141.5485-.3133.8575-.47.618-.3837 1.2515-.7362 1.9081-1.0651.1545-.0548.2704-.1175.4249-.1723s.1391-.0705.1391-.1566zm-4.6352-4.6287c-.0498-.0071-.1004.0029-.1438.0285-.0435.0256-.0772.0652-.0957.1125.0468.0013.093-.0114.1329-.0364.0398-.0251.0715-.0614.0911-.1046zm1.8695-1.723v-.0705c.0541 0 .0541.0157-.0154.0705zm.7725-1.3392s0-.0705.0541-.0705v-.0549c0-.1018 0-.1018-.0695-.0704-.0695.0313-.0541.0548-.0695.0548-.0155 0 0 .0705-.1005.0705.0464.0861.1005.0705.1854.0705z"/><path d="m63.1772 39.2855v-.1567c-.1391.0705-.3631.141-.4095.3681.1144.0059.2277-.0242.3245-.0861 0-.0392.0695-.0548.085-.1253v.141c-.085.0861-.1932.2584-.309.3132-.0348.0461-.0586.0997-.0696.1567-.3157.2674-.5984.5724-.842.9085.0023.0155-.0011.0313-.0097.0444-.0086.013-.0217.0223-.0367.0261-1.7397 1.6619-3.6724 3.1031-5.7554 4.2918l-.3553.3995c-.0696.1958-.2241.2427-.3477.4072-.0635.0951-.1154.1977-.1545.3055 0 .1958-.1699.2663-.224.4386-.0473.1193-.1041.2346-.17.3446 0 .0548-.085.1253-.1004.1801-.0155.0548-.2086.1175 0 .2271-.0958.1421-.137.3148-.1159.4856-.0049.077.0183.1532.0654.2139.047.0607.1145.1017.1896.115.3297.0579.6668.0579.9965 0 .5424-.1313 1.063-.3424 1.5451-.6265.618-.3525 1.2361-.7362 1.8309-1.1356.4481-.2977.8266-.6579 1.2361-.8851.0695-.0548.1081-.1409.1776-.1566.0289-.0554.0751-.0995.1314-.1253.0522.0136.1076.0076.1558-.0169.0483-.0244.0862-.0657.1068-.1162.0774-.141.2043-.2472.3554-.2977.2597-.1543.5031-.3354.7262-.5404.0689-.0553.1486-.0951.2339-.1167.0852-.0216.174-.0245.2605-.0086.0541 0 .1236 0 .1236.0549 0 .0548.1313.1409.2163.1958.085.0548.0695.0861.0386.2036s-.1004.0861-.1545.141c-.036.0356-.0778.0648-.1236.0861-.1038.0035-.206.0281-.3002.0726-.0943.0444-.1787.1076-.2483.1859-.2474.1438-.4872.3007-.7184.4699l-.6721.4934c-.0678.0276-.1266.0736-.17.1331-.0442.0413-.1021.0642-.1622.0642s-.118-.0229-.1623-.0642c0 0-.0695.047-.0695.1018 0 .0549 0 .1723-.1004.2272-.1857.0555-.3485.171-.4635.3289-.1113.0988-.2396.1758-.3786.2271-.0722.0477-.1372.1058-.1931.1723-.1286.1128-.2715.2076-.4249.282-.161.1289-.3287.2492-.5021.3602-.2401.1654-.4996.2996-.7726.3995-.185.1051-.3759.1993-.5717.2819-.1729.0995-.3656.1584-.5639.1723-.2084.0445-.4206.0681-.6335.0705-.3575.0008-.7047-.121-.9853-.3457-.2805-.2247-.4778-.5389-.5598-.8917-.0309-.1656-.0309-.3357 0-.5013.0448-.2418.1339-.4729.2627-.6813.0514-.1748.1324-.3391.2395-.4856 0 .0548.0463.0548.085 0 .0288-.0214.0518-.0498.0667-.0828.0148-.0329.0211-.0691.0183-.1052h-.085c-.0387-.141.0695-.2114.1545-.2819s0-.1253.1004-.141 0-.047 0-.047l.0541.047c0 .0548.0463.0548.0618 0v-.047.047c.0249-.0272.044-.0593.056-.0944.012-.035.0166-.0723.0135-.1092h-.085c.0828-.2707.2316-.5159.4327-.7127.054.0469.054.047.054.0626 0 .0157 0 0 0-.0626h-.0849c-.0008-.0603.0199-.1187.0582-.1647.0383-.0461.0917-.0766.1503-.086h-.054.054v.0549c.0124-.0032.0235-.0102.0318-.02s.0134-.022.0146-.0349h-.0464c0-.0704 0-.1253.0464-.1409v.1409c.0315-.0187.0565-.0467.0717-.0804.0152-.0336.0199-.0711.0133-.1075h-.0618c0-.0705 0-.0862.0618-.0862v.0862s.0695-.0705.1081-.0862h-.0772c0-.1566.0695-.2114.1931-.2819 0 .0861.0541.0705.085 0h-.085c-.0005-.0314.0071-.0623.022-.0898s.0366-.0505.063-.0669v.1567c.0304-.0127.0563-.0345.0743-.0625.0179-.028.027-.0608.0261-.0942.0541 0 .085-.047.085-.1174l.0541-.0705h-.0541v-.0705c.1212-.3301.3296-.6201.6026-.838.0059-.0841.0351-.1647.0843-.2326.0493-.068.1164-.1204.1938-.1512.0087-.0755.0389-.1468.0869-.2052.048-.0585.1118-.1014.1835-.1237v.1253c.0112-.041.0112-.0843 0-.1253h-.085c0-.0705 0-.0862.085-.0862v.0862s0-.0705.0541-.0862h-.0541v-.0705c.0993-.1845.2427-.3407.4171-.4542h.0541-.0695v-.1018c.1699-.188.309-.4308.4944-.6266.6335-.6109 1.2361-1.2531 1.8541-1.8248.2463-.2967.5293-.5599.8421-.7832.6236-.4688 1.2822-.8878 1.9699-1.2531.3642-.1156.7577-.0905 1.1047.0705.1038.0469.1962.1164.2704.2036.0346.051.0562.1098.0629.1713s-.0016.1237-.0242.1811c-.0471.1571-.1321.2998-.2473.4151l-.3012.4386c0 .141-.2241.141-.2782.2271-.054.0862 0 0 0 .0862h.085s.085-.0862.1004 0c.0155.0861 0 0 0 .0705-.0318.0374-.0755.0623-.1235.0705-.1391-.0705-.2241 0-.2936.1409v.0705h.0541.0849.0541c-.0659.0173-.135.0173-.2008 0-.1391 0-.1391.0862-.1546.2193-.0154.1332 0 0-.0695.0705h.2086c.0147.0348.0212.0726.0189.1104-.0023.0377-.0133.0745-.032.1072-.0188.0327-.0448.0605-.0761.0812-.0312.0207-.0668.0337-.1039.038zm-8.3743 7.7457c-.0344-.0214-.0706-.0397-.1082-.0548h-.0463v-.2584c-.0695 0-.1082.0548-.0695.0704v.188c-.1236 0-.1005.1097-.1005.1566h.0618s0 .0549.0541.0705c.0541.0157.0541-.0705.0541-.0705.0305-.0111.0592-.027.085-.047 0 0 .0309-.0548.0695-.0548zm.17-.7832v-.1566c-.0696 0-.0696.0862-.0696.1723-.139 0-.1699.141-.1699.2271.0317.0022.0636-.003.093-.0152.0295-.0123.0558-.0311.0769-.0553 0 .0549.0541.0549.0541.0705 0 .0157 0 0 0-.0705.1313-.0705.1313-.1409.0155-.1723zm.2935-.6109c-.139 0-.1931.141-.1777.2663.0927-.0548.2086-.1253.1777-.2663zm.7726-.9554c-.0073-.0035-.0152-.0053-.0232-.0053s-.016.0018-.0232.0053v-.2115c-.1545 0-.1931.1175-.17.2036h.0387s0-.047.1081-.047v.047c.0141.008.0305.0108.0464.0079zm.1236-.4856c.0486-.0256.1007-.0441.1545-.0548-.0167-.0669-.0167-.1368 0-.2037-.1623.0627-.1777.1018-.1777.2585zm.2394-.4386c-.0293.018-.051.0463-.061.0796-.01.0332-.0075.069.007.1005.0695-.0235.0695-.094.0309-.1801zm.1391-.1018c.085 0 .1391-.1018.1391-.2428-.0301.0039-.059.0147-.0844.0315-.0254.0169-.0467.0393-.0623.0657s-.0251.056-.0278.0866c-.0027.0307.0015.0615.0122.0903zm7.5013-6.8059c-.0132-.0304-.0339-.0569-.06-.077-.0262-.0201-.0569-.0331-.0894-.0378-.0324-.0047-.0655-.0009-.0962.0109-.0306.0119-.0577.0314-.0789.0569-.196.1914-.4169.3548-.6566.4856-.3179.1724-.6226.3688-.9116.5873-.0695 0-.085.1254-.1545.1254-.2827.1747-.5423.3853-.7725.6265-.2936.1723-.479.5012-.7726.7284-.1984.2731-.4293.5204-.6875.7362 0 .047-.1005.0861-.1159.1331-.0996.1423-.2107.2759-.3322.3994-.1004.141-.2704.3133-.3708.4543s-.1777.2819-.2936.3994-.139.1566-.1777.2428c-.0386.0862-.0849.1253-.1313.2115-.0785.0662-.1533.1368-.224.2114-.0696.0862-.1082.188-.1545.2428-.0196.013-.0361.0303-.0481.0506-.0121.0204-.0194.0432-.0215.0669 0 .1566-.139.2115-.224.3524-.2793.2803-.5375.5814-.7725.9007-.1082.1253-.1236.2976-.2472.3994s-.1005.1253-.1005.2663c.1545.047.309-.1958.394-.2663.5485-.3602.9425-.5874 1.6455-1.1278.6751-.5169 1.3128-1.0823 1.9082-1.6917.5485-.6187 1.321-1.1982 1.8541-1.8248.3785-.4307.7184-.885 1.0815-1.3236.1422-.2052.2613-.4259.3554-.6579.1048-.1516.1929-.3144.2626-.4855.0155-.0705-.0309-.1253-.0309-.1958zm-7.4086 6.5083c.1545 0 .2009-.0862.2009-.2428-.1082.0861-.2009.1723-.2009.2428zm.2009-.2428c.0652-.0263.1212-.0716.1611-.1301s.0618-.1277.0629-.1989c-.0573.0342-.1055.082-.1405.1393s-.0557.1224-.0604.1897zm.4326-.4151v-.1958c-.0301.022-.0538.0518-.0687.0862-.015.0344-.0206.0722-.0163.1096zm0-.1958c.139 0 .139 0 .1854-.1723-.0425.0053-.0819.0254-.1115.0568s-.0475.0722-.0507.1155zm.0695 5.4823h.1391c.5415-.2385 1.0589-.5297 1.545-.8693.381-.2383.7474-.4998 1.097-.7832.0515-.0043.1031-.0043.1545 0 0-.0705 0-.1018.0696-.1332.2549-.1566.4789-.3524.7725-.5247s.309-.2584.479-.3681c.1781-.0551.3382-.1579.4635-.2976 0 0 0-.047.0695-.1175-.1159 0-.2008.0705-.309.0862-.2786.2309-.57.4453-.8729.6422-.176.1281-.3591.2458-.5485.3524-.4095.2741-.8576.5013-1.2207.7832-.363.282-.7725.5169-1.1279.7832-.0658.072-.1523.1213-.2472.141-.1802.0495-.3366.1636-.4403.3211zm.4404-6.0854c-.1005 0-.1468 0-.1468.141.1545.0157.1699.0157.1699-.1253zm.4326-.3524v-.2115c-.1159.0862-.255.141-.255.3446.0868-.0522.1805-.0917.2782-.1174zm.1854-.4856c-.085 0-.1004.1018-.085.1958.1082-.0391.1468-.0783.1082-.1801zm2.8738.2741-.0695-.0861c-.0981.0591-.1845.1361-.2549.2271.0298.0166.0629.0261.0969.0278s.0679-.0045.0992-.0181.0591-.0342.0813-.0603.0383-.057.047-.0904zm.6335-.6265c-.0431-.0146-.0791-.0455-.1004-.0862-.0696.047-.17.0705-.17.188s.085 0 .085.0548.1699-.0313.1699-.1331zm.085-.1958v-.047s0 0-.0618.047h.0618v.0861c.0386 0 .0695-.047.0849-.0861zm.3476-.3603-.0695-.0548-.2781.1566v-.0548.0548.1723c.0386 0 .0695.0549.0849.0862.0932-.1037.176-.2165.2473-.3368zm-.1931 4.6992c.0392.0122.0814.0104.1195-.0053.038-.0157.0695-.0443.0891-.0809h-.085c-.0541.0157-.1391.0548-.1391.141zm.5485-5.2552c0 .0861-.0618.0861-.1545.0861s-.085.0548-.0618.1566c.0231.1019 0 .0862 0 .1019 0 .0156.054 0 .1236-.0862.0609-.0876.1518-.149.2549-.1723-.0541-.0548 0-.1723-.1004-.1723-.1005 0-.0695.0548-.0927.0862v-.0862s0 .0548-.0464.0548c-.0463 0 .0464.0862.0618.0862z"/><path d="m70.0918 45.4339c-.2768.0439-.5504.1067-.8188.1879-.0193.039-.0492.0715-.0862.0938-.037.0222-.0795.0331-.1224.0315-.2171.0009-.4339.0166-.649.047-.3086.0202-.6183.0202-.927 0-.5176 0-.5021-.0705-.8112.3838l-.5948.6422c0 .047 0 .0705-.0695.1018-.5022.3133-.9116.7127-1.4292.9947-.3411.1902-.7232.2924-1.1125.2976-.2923-.0122-.5686-.1391-.7704-.3539s-.3134-.5008-.3111-.7974c.0014-.162.0356-.3219.1004-.4699.1335-.6245.4175-1.2057.8266-1.6917.1854-.2193.3399-.4699.5485-.6971.0718-.0579.1293-.1319.1682-.2161.0389-.0843.058-.1765.0559-.2694-.0251-.171.0165-.3451.1158-.4856.1165-.1326.243-.2557.3786-.3681.2235-.1099.4531-.2066.6875-.2898.0974-.0595.2116-.0843.3245-.0705.1599-.0392.3268-.0392.4867 0 .1261.01.2528-.0088.3708-.0548.2472-.0861.4326.0548.6412.1253.085 0 .085.1566 0 .2036s-.1081 0-.0541.0549c.0652.1246.1457.2404.2395.3446.1615.1817.2723.4037.3212.6432.0488.2394.034.4878-.0431.7195-.0695.188-.1236.3994-.224.6109.2773.0625.5648.0625.8421 0 .4094-.0705.8188-.1645 1.2515-.2506.2541-.0763.5119-.139.7725-.188.1351-.0366.258-.1096.3554-.2114.1399-.0451.2857-.0689.4326-.0705.0541-.047.1545.2506.1545.2663zm-4.1639.2741s-.0695 0-.085-.0705c-.588-.1122-1.1154-.438-1.4833-.9163-.0849-.094-.1545-.094-.1776 0-.1601.2284-.2924.4756-.394.7362-.1545.3289-.309.6422-.4945.9711-.1854.3289-.224.6266-.363.885-.0464.1097.054.1958.1545.2271h.2781c.1659.0131.3321-.0222.4789-.1018.612-.308 1.1788-.7008 1.6842-1.1669.1322-.1479.2742-.2866.4249-.4151 0 0 .0231-.1488-.0464-.1488zm.703-2.6629c-.0383-.048-.0856-.0879-.1391-.1175 0 0-.0849 0-.1004 0-.2397.1168-.4653.2613-.6721.4308-.2358.1532-.4604.3233-.6721.5091l-.3785.3446c-.0196.0096-.0362.0246-.0477.0433-.0116.0187-.0177.0403-.0177.0624s.0061.0437.0177.0624c.0115.0187.0281.0337.0477.0433 0 .047.1081.1019.1236.1567.1658.1539.368.2618.5871.3133.2917.1105.595.1867.9039.2271.0652.0146.1332.009.1952-.0161.0621-.0252.1151-.0687.1524-.1249.191-.2988.3076-.6401.3399-.9946.0312-.1732.0161-.3516-.0437-.5169-.0597-.1652-.162-.3113-.2962-.423z"/><path d="m80.7372 44.6271c-.1632.1916-.3532.3578-.564.4934-.239.1947-.498.3628-.7725.5013-.2271.1271-.4396.2795-.6335.4542-.1545.1175-.309.2036-.4635.329-.1847.1118-.3627.2347-.533.3681-.3965.3301-.87.5513-1.3752.6422-.1004 0-.1854.0548-.309.0548-.1166.0508-.2478.0557-.3678.0137s-.2203-.1279-.2811-.2408c-.0079-.0456-.0264-.0885-.0541-.1253-.0886-.0631-.158-.1501-.2004-.2512-.0423-.101-.0558-.2121-.0391-.3206v-.2114c-.0175-.2059.0313-.412.1391-.5874.0359-.1392.0824-.2754.1391-.4073h-.0387c-.0541 0-.0695 0-.0695 0-.2936.282-.618.5248-.9116.7832l-.873.6657c-.1151.0763-.2191.1685-.309.2741-.2871.2585-.6276.4485-.9965.5561-.0705.0563-.1596.0829-.2488.0741-.0893-.0088-.1718-.0521-.2302-.1211-.1392-.112-.2428-.2631-.2978-.4344-.0549-.1714-.0588-.3553-.0112-.5289.0862-.3507.2299-.6843.4249-.9868.342-.6063.7404-1.178 1.1897-1.7074.1699-.188.2704-.188.448 0 0 0 .0696.047.0696.1018s.0618.141 0 .1723c-.0939.1037-.1697.2229-.2241.3525-.1186.241-.2528.4739-.4017.697-.1132.1793-.2164.365-.309.5561-.1313.2271-.2858.4464-.4094.7127-.0696.1018-.085.2428-.1546.3289l.085.0548c.1075-.0426.2109-.0951.309-.1566.5176-.4073 1.0352-.7832 1.5451-1.167l2.0936-1.5663c.1037-.0786.2265-.1274.3553-.141h.0927c.0928 0 .1159.047.17.1018s.224.141.1545.2976c-.009.0879-.0271.1745-.0541.2585-.1545.1409-.2085.3681-.3399.4855l-.0927.0549c-.2008.5012-.4944.9946-.6798 1.4959 0 .1253 0 .1409.0695.1409.2845.0415.5742-.0195.8189-.1723.5639-.3367 1.0661-.6813 1.5837-1.0494s1.0738-.6579 1.6455-1.073l.224-.141c.394-.2819.4944-.3289.7726 0 .1236.1488.0154.282-.085.3681zm-2.3176.9947c-.1391 0-.2241.0548-.2395.1879.0562.0067.1128-.0092.1576-.0444.0448-.0351.0742-.0867.0819-.1435zm.2086-.141h-.0696c-.0445.0313-.0793.0747-.1004.1253.0615.0046.1224-.015.17-.0548zm.5639-.141c-.0695 0-.139 0-.1545.1253.085 0 .1391 0 .1545-.1253zm.5485-.3289c-.1313 0-.224 0-.2549.1801.1236 0 .1854-.0705.2549-.1801zm-.1699-.1567c.0133.013.029.0231.0463.0299.0172.0067.0356.0099.0541.0093h.0695c.032-.0477.0556-.1007.0695-.1566-.054 0-.139 0-.1545.0861z"/><path d="m94.0096 45.121c-.3477.1331-.6722.2428-1.0352.3603-.0987.0728-.2179.1113-.34.1096-.1158 0-.1699 0-.139.1566l-.1004.047-1.8541.7832c-.4944.188-1.0429.3995-1.491.5561-.2445.131-.504.2309-.7725.2976-.2712.0925-.5615.1114-.8421.0548-.0695-.0548-.2086-.1253-.2936-.1801-.1054-.1001-.2011-.2103-.2858-.3289-.0688-.0957-.1066-.2106-.1082-.329-.0408-.5712.0247-1.145.1932-1.6917.075-.1655.132-.3388.1699-.5169.0371-.1244.0553-.2538.0541-.3837 0-.1253 0-.141-.1081-.0549-.4095.141-.7726.2976-1.1666.4386-.224.1018-.3631.2271-.5639.329-.2009.1018-.564.3681-.8421.5717-.1004.1096-.3244.1096-.4326.2663-.5428.3643-1.043.79-1.491 1.2687-.085.0705-.1699.1723-.2395.2428-.1598.2518-.3841.4548-.6489.5874-.0695.0705-.1082.141-.1777.2115-.0438.0108-.0895.0115-.1336.002s-.0856-.0289-.1213-.0568c-.1391-.2428-.2936-.5013-.1391-.7832.0564-.1674.1262-.3298.2086-.4856.085-.2115.1854-.3681.2781-.5717.0198-.0876.0657-.1669.1314-.2272.3844-.5894.6739-1.2371.8575-1.9188.0849-.1879.2086-.2428.3631-.1879.1831.0875.3423.2192.4635.3837.0695.0705 0 .1018 0 .141-.1488.1559-.2437.3565-.2704.5717-.0588.0644-.1012.1424-.1236.2272-.2078.3318-.3986.6742-.5717 1.0259-.0503.0727-.0845.1555-.1004.2428.0324.012.068.012.1004 0 .3476-.2428.6567-.4464.9811-.7127.3297-.3022.6926-.565 1.0816-.7832.2219-.159.4571-.2979.703-.4151.2401-.1887.499-.3514.7725-.4855.1764-.0648.3428-.1544.4944-.2663.1596-.0966.3277-.1779.5022-.2428.1477-.0763.3144-.1063.4789-.0862.0432.0219.0824.051.1159.0862.0927.1253.2241.2663.309.3994.0237.0738.0237.1533 0 .2271-.0849.423-.1854.838-.2858 1.2688s-.1391.6657-.2086.9633c-.0647.0966-.0947.2127-.085.329 0 .1879.085.2428.2936.2036.4487-.0436.8915-.1355 1.321-.2741.3293-.1578.6672-.2964 1.012-.4151.2936-.1253.5485-.2663.8576-.3681.309-.1018.8266-.329 1.1974-.4386s.7107-.2741 1.1047-.4307c.394-.1567.6489-.2428.9734-.4151.1082-.0705.2936 0 .4481-.0549.0074-.0014.015-.0009.0222.0013.0072.0023.0137.0063.0191.0117.0053.0054.0092.012.0115.0193.0022.0073.0026.0151.0012.0226-.0695.2271.1546.4151-.5484.697zm-5.1683 1.629h-.1854s0 .0549.0695.0549c.0225.0034.0455 0 .0661-.0098.0206-.0097.0379-.0254.0498-.0451zm.2395-.0626s-.1854-.0548-.224.047h.1236c.1004 0 .1004 0 .1004-.047zm1.5451-.5639h-.1391c-.0541 0-.0695 0-.1236.1096.0773.0157.1777.0157.2627-.1096zm.4403-.1488c-.0714-.0153-.1453-.014-.2162.0036-.0708.0176-.1369.0512-.1932.0982.0666.011.1347.0076.2-.0099.0652-.0175.126-.0489.1785-.0919zm.2627-.1253h-.1236c-.0339.0013-.0663.0146-.0917.0374-.0253.0229-.0421.0539-.0474.0879.0927 0 .1931.0156.2318-.1253zm2.8815-1.0103s-.0541-.0705-.0541 0c-.1952.0199-.3859.0729-.5639.1566 0 0-.085.0861-.1391.047-.224-.047-.394.094-.618.1645-.0695 0 0 .1488-.17.1488-.0602.0036-.1186.0225-.1699.0548-.0756.0365-.1564.0603-.2395.0705-.2781.1018-.5485.1723-.7725.2819-.0541 0-.1236.047-.1236.1018.1236.0705.224 0 .3399 0 .4172-.1683.8426-.3147 1.2747-.4386 0 0 .0463 0 .1004-.0548s.2626-.0861.3476-.1488c.2749-.0659.5363-.1799.7726-.3368l-.0155-.0469z"/><path d="m98.405 48.2527c-.054 0-.0695 0-.1004.047s0 .282-.1931.329c-.0261.0288-.0405.0666-.0405.1057s.0144.0769.0405.1057v.0862c-.1005 0-.2009 0-.1545.141-.0384.019-.07.0494-.0908.0872-.0207.0378-.0295.0812-.0251.1242 0 .1175-.1236 0-.1545.0627-.1391.2663-.2781.4934-.4095.7205-.1194.2442-.2847.4623-.4867.6422-.1313.188-.2394.2898-.3785.4699-.1391.1802-.1159.1723-.2395.1723-.0029.0641-.0196.1268-.0489.1836-.0294.0569-.0707.1065-.121.1454-.1668.2057-.3503.397-.5485.5717-.1391.094-.2241.2506-.3786.2976-.0297.0394-.0699.0693-.1159.0862-.3476.2114-.5871.1409-.842-.2037-.2488-.3274-.3599-.7412-.309-1.1512.002-.3049.1055-.6002.2935-.8381.2392-.3608.4971-.7085.7726-1.0416.1854-.1566.3399-.3289.533-.4856.516-.4579 1.0604-.8817 1.63-1.2687.0459-.0102.0933-.0102.1391 0 0 .1174-.139.1331-.2086.2036-.1854.141-.3399.2428-.479.3681-.0312.0242-.0569.0549-.0756.09-.0186.0351-.0297.0738-.0325.1136.1414-.0795.2758-.1712.4017-.2741.3227-.2924.6841-.5376 1.0738-.7284l.1236-.1566c.1994-.0483.3864-.1391.5485-.2663.0696-.0705.0696-.0861.1236-.1175.0541-.0313 0-.1096-.054-.1409.054 0 .054-.1019.0695-.141.1673-.1281.3023-.2945.394-.4856.0422-.1291.1199-.2432.224-.3289.0044-.0544.0293-.1049.0695-.141.0065-.1043.0363-.2058.0872-.2967.0508-.0909.1214-.1689.2064-.228-.0075.0308-.0075.0631 0 .0939-.0071.0203-.0071.0424 0 .0627v-.0627-.1096h-.0695c.0733-.2919.1878-.5715.3399-.8302.1388-.3289.2938-.6265.4328-.9242 0 0 0-.0548 0-.0704 0 0-.054 0-.085.0548-.034.0221-.063.0515-.085.0861-.262.2869-.549.549-.8577.7832-.224.1567-.3939.3525-.618.4856l-.703.6265c-.2781.2977-.618.5248-.8652.7832-.2928.2619-.6205.4807-.9734.6501-.1533.0565-.2987.1328-.4326.2271-.1359.0503-.2806.0717-.4249.0627-.1432.0121-.2862-.0255-.4055-.1066-.1193-.0812-.2079-.201-.2512-.3399-.0591-.1315-.0897-.2744-.0897-.419 0-.1445.0306-.2874.0897-.419.0927-.2197.2265-.4192.394-.5874.4023-.4894.8704-.9191 1.3906-1.2766.4817-.3345.9821-.6404 1.4987-.9163.2858-.094.618-.2976.9038-.3838.0677-.0232.141-.0232.2086 0 .3105.009.6093.1219.8498.3212 0 .047.085.047.155 0 .194-.1984.4-.3841.618-.5561.048-.0436.099-.0829.154-.1175.155-.2271.363-.1723.494.0705v.1175c-.183.5521-.397 1.0934-.641 1.6212-.085.1999-.188.3913-.309.5717-.147.2196-.261.4597-.34.7127 0 .0862 0 .1566-.0692.1723-.088.12-.1463.2597-.1699.4073.2241 0 .3241-.141.5331-.2115.122-.0826.263-.1313.409-.141-.23.1509-.47.2869-.718.4073-.0542 0-.1392 0-.2241 0v-.0862c-.0541 0-.0541.0705 0 .0862-.0387.1331-.1545.1331-.1932.2271-.0386.094-.0618.047 0 .0627.0618.0156 0 .0705 0 0 .2225-.0878.4393-.1898.6493-.3055.239-.1253.517-.2506.772-.3524s.657-.3133.981-.4699c0 0 0 0 0-.0548-.146.0032-.29.0352-.425.0939-.048.0387-.104.0664-.164.0813-.06.0148-.123.0165-.183.0049 0 0 0-.0548.054-.0862.352-.1833.726-.3202 1.112-.4072.305-.1221.625-.2037.951-.2428.285-.1723.494 0 .679.2271.054.0548.224.0862.224.2271 0 .141-.069.1958-.131.1958h-.069c-.163-.0578-.336-.08-.508-.0651-.172.0148-.338.0664-.489.1513-.045-.0168-.094-.0168-.139 0-.053.0377-.117.058-.182.058s-.128-.0203-.181-.058c0-.0548.069-.0548.139-.0862.069-.0313 0-.0548.1-.0939-.151.0041-.3.0359-.44.0939-.039 0-.039.0627-.07.0862h.224v.1331c-.12.011-.242.011-.363 0l.07-.0705s0-.0548.085-.0861c-.251.0019-.495.0782-.703.2193-.193 0-.348 0-.433.188.074.0158.151.0163.225.0015.075-.0148.145-.0446.208-.0877-.006.0631-.03.1231-.07.1723-.015.0215-.037.0371-.062.0442-.026.0071-.053.0053-.077-.005-.022-.0166-.049-.0255-.077-.0255s-.055.0089-.077.0255c-.101 0-.17 0-.271 0v-.094c-.069 0-.139 0-.177.094h.177c.002.0676-.018.134-.055.19-.037.0561-.091.0991-.153.1232-.124 0-.224 0-.325 0l.17-.0861c.085 0 .186-.0548.186-.188-.155.0252-.304.0782-.441.1567-.18.0814-.3532.1783-.5172.2897 0 0-.085.0549-.085.0705.1699.0549.2932-.047.4092-.0705.116-.0234.054-.0704.124-.0704.069 0 0 0 0 .0704v.0549c-.115.0639-.234.1214-.3555.1723-.1082.0705-.1236 0-.2241-.047v-.1097c-.1357.0557-.2674.1212-.394.1958-.1236.1018-.0695.1723-.0695.2428h.0464-.0464c-.0557.0582-.1211.1059-.1931.141v.0548c-.1004.1567-.2163.3133-.309.4699-.0927.1567-.0618.188-.1545.2037.0032.065-.0147.1294-.0509.1831-.0363.0538-.089.094-.15.1145-.0695 0-.0695.0705-.0695.1409v.0549s.1081.1723.1081.1409zm-.2935.047v-.1723c-.0184.0234-.042.042-.0689.0542-.0269.0123-.0562.0179-.0856.0163 0 .1018 0 .1567-.1005.2036-.0052-.0371-.0017-.0749.0104-.1103s.0324-.0674.0592-.0933c0-.1253.0695-.2114.1854-.2271.033-.0845.0614-.1708.0849-.2585v-.0704h-.0695c-.1399.1859-.323.3339-.533.4307-.085.0548-.1545.1253-.2704.2115-.3631.2584-.7262.5404-1.0816.7832-.3553.2427-.448.4542-.6721.6657-.1072.0891-.2056.1888-.2935.2976-.1615.1076-.2857.2637-.3554.4464l-.139.1801c-.2621.316-.4496.6883-.5485 1.0887-.0039.0233-.0039.0471 0 .0704-.0085.0481-.0052.0975.0096.144.0149.0464.0407.0884.0753.1223.0388.0337.086.0559.1364.0642.0505.0083.1022.0024.1495-.0172.1348-.0131.2646-.0588.3785-.1331.2319-.1575.4515-.3329.6567-.5248.0854-.1204.1838-.2307.2935-.3289.0932-.2235.2525-.4123.4558-.5404 0 .2271-.1854.2976-.3245.4856 0 0-.0849 0-.1004.0548-.0154.0548 0 .141-.1004.1723-.1545.188-.2781.3681-.4481.5404-.0695 0-.0849.0862-.0695.1723.17 0 .224-.141.309-.2115.1311-.1929.293-.3623.479-.5012.1236-.1723.2549-.3524.394-.5247.2719-.3252.5077-.6798.703-1.0573l.0386-.2115-.1545.0862c0-.1567 0-.2272.1545-.2428 0-.1018 0-.1567.0695-.188.0696-.0313.0696-.1096.1159-.1096.0464 0 0-.1332.0695-.1723.0696-.0392 0 .1409-.054.1723-.0541.0313 0 .1096-.085.1096-.0019.0388-.0135.0764-.0338.1093s-.0485.06-.0821.0787v.1566c0-.0705.1159-.0705.1391-.0861.1889-.2415.3496-.5043.4789-.7832.0803-.1138.155-.2314.2241-.3525zm-2.812 3.7593c-.0728.003-.1431.0276-.2022.0707-.0591.0432-.1043.1031-.13.1721.2085.0392.2935-.1174.3322-.2428zm-.0387-2.7333v.1253c.24-.1544.4411-.3636.5871-.6109-.0097-.0083-.022-.0128-.0347-.0128s-.025.0045-.0348.0128c-.1913.14-.3651.303-.5176.4856zm4.1562-5.9131h-.139c.0524-.0771.0989-.1583.139-.2428 0-.0704 0-.1253 0-.1958 0-.0704-.139-.0469-.2085 0l-.1159.0862c-.0541.0548-.085.1096-.1545.141-.2395.0705-.4326.2819-.6567.3681-.224.0861-.479.3446-.7184.4699-.2541.1067-.4699.2898-.6181.5247v.047c-.4819.338-.9159.7411-1.2901 1.1983-.1018.1302-.1779.2791-.224.4386.1758.0082.3502-.0353.5021-.1253.2163-.0862.4095-.2585.6335-.3603l.2009-.1253 1.097-.7832c.5021-.3994.9811-.7832 1.4446-1.2218.0368-.0222.0666-.0547.0858-.0936.0191-.0388.0269-.0825.0223-.1257zm-3.4841 5.3257c.2241 0 .3245-.1566.4249-.3368-.0884.0075-.1735.0372-.2477.0864-.0742.0493-.1351.1165-.1772.1956zm.9425 1.214c-.0006.0535-.0135.1061-.0376.1537-.0241.0475-.0589.0888-.1014.1204-.0659.1901-.2015.3472-.3786.4386.025-.0977.0703-.1888.1329-.2671.0627-.0784.1412-.1422.2302-.1872-.0083-.0546.0026-.1105.0308-.1577.0283-.0473.0721-.083.1237-.1007zm.2086-.282c.0065.0402-.0007.0815-.0203.1171-.0197.0355-.0506.0633-.0879.0787 0-.1018 0-.188.1082-.2271zm.8421-2.3965c-.0488-.0146-.1009-.0125-.1483.0059-.0475.0184-.0877.0521-.1144.0959-.1004 0-.17.0861-.224.0861v-.0861c.2653-.1791.5473-.3313.842-.4543 0 .1097-.1081.141-.1545.1723-.0426.0073-.0829.0246-.1177.0504-.0349.0258-.0634.0595-.0831.0984zm-.2241 1.441c.0005.0593-.0204.1168-.0589.1615-.0384.0447-.0916.0737-.1497.0813-.0082-.0323-.009-.0661-.0024-.0989.0066-.0327.0205-.0634.0406-.0899.0201-.0264.0459-.0478.0755-.0626.0295-.0148.062-.0226.0949-.0227zm.1545-.2819c-.0023.0559-.0175.1105-.0444.1595-.0268.0489-.0645.0908-.1101.1224-.0223-.0644-.0186-.1351.0104-.1967.0289-.0617.0808-.1092.1441-.1322zm.4481-.5561c-.0629.0249-.1168.0686-.1545.1253v.141c.1313-.0705.1545-.1566.1545-.2976zm0-.4464c.0464-.0705.1004-.0862.1313-.1723.0309-.0862 0 0 0 0-.0602.0507-.1319.0857-.2086.1018 0 0-.0154.0392.0541.0392zm.1236.2898c-.1236 0-.1004.0705-.1004.1566 0 .0862.0772-.1175.0772-.188zm-.1004-.8302c0-.0862.1004-.0705.1699-.0705.0696 0-.0927.0705-.1931.0392zm.2008.5717c-.054.047-.0695.1018-.0695.2193.0695 0 .1004-.1175.1391-.1723-.0037-.0221-.0151-.0422-.0321-.0565-.017-.0144-.0385-.0221-.0606-.0218zm2.3174-1.8953c-.069-.0548 0-.1018.07-.1018.07-.0363.146-.0602.224-.0705-.038.0514-.089.0915-.147.1163-.059.0248-.123.0333-.185.0247zm.379.188c-.034-.0056-.068-.0003-.099.0152-.03.0154-.055.0403-.071.0709.085 0 .17.0392.201-.0861zm.973-.2428c0 .0705-.069.0861-.116.1566-.046.0705-.154.0862-.239.0548-.085-.0313-.085-.0548-.155-.0704v-.0705h.24c.067-.0541.147-.0892.232-.1018zm.108-.4856c-.069 0-.177 0-.193.1018-.015.1018.101.0078.155-.1331zm.24-.0705c-.085 0-.209 0-.24.0705h.155c.008-.0313.046-.047.046-.1018zm.255-.0548h-.07c-.03-.0142-.064-.0165-.095-.0063-.032.0101-.058.032-.075.0611h.193c.012.0011.023-.0025.032-.0098.008-.0074.014-.0179.015-.0293.001-.0115-.003-.0228-.01-.0316-.007-.0089-.018-.0144-.029-.0154zm.703.0548c-.197-.0026-.391.0459-.564.141.19.0101.377-.0512.525-.1723zm-.325-.2271h.255.039c.038 0-.054 0-.07 0-.08-.0428-.174-.054-.262-.0313z"/><path d="m112.31 45.2545s-.085.047-.108.047c-.285.0618-.56.1619-.819.2976-.432.188-.857.3525-1.274.5248-.047 0-.116 0-.132.0704-.366.2029-.746.3808-1.135.5326-.379.1566-.773.3368-1.113.5091-.52.3018-1.091.5011-1.684.5874-.1 0-.17 0-.239.1253-.309.0957-.642.0648-.927-.0862-.169-.0458-.323-.1348-.448-.2584-.181-.1544-.308-.3628-.364-.5952-.073-.2559-.073-.5274 0-.7832l.124-.2272c.265-.6144.677-1.1526 1.197-1.5663.463-.4558.982-.8481 1.546-1.167.181-.1381.393-.2294.618-.2663.154-.0626.355-.0861.509-.1566.083-.0781.189-.1253.301-.1339.113-.0085.225.0221.317.0869 0 .047.085 0 .155.047.069.047.17 0 .193.0705.107.1153.197.2443.27.3837.076.097.118.217.118.3407s-.042.2438-.118.3407c-.224.2741-.363.5874-.703.7284l-.247.1566c-.463.3561-1.013.5781-1.591.6422-.162.0529-.333.0716-.502.0549-.217 0-.495-.0549-.773-.0549-.029-.0022-.059.0031-.086.0154s-.05.0313-.068.0551c-.31.3708-.57.7816-.773 1.2218-.014.0302-.021.0629-.022.0962-.001.0332.005.0663.017.0972.013.0308.031.0588.055.0821.023.0233.051.0415.081.0534.194.0549.418.1567.588.0549.372-.0255.741-.0965 1.097-.2115.297-.0919.588-.2018.873-.3289.332-.1567.587-.2977.88-.4543.085.1018.085.1018.17 0 .125-.1269.279-.221.448-.2741 0-.0705.116-.0705.224-.1097.564-.2427 1.144-.5404 1.677-.7831.161-.0776.329-.1405.502-.188.149-.06.292-.1362.425-.2271.085-.0462.185-.0573.279-.0311.093.0263.173.0878.223.172.042.0464.095.0813.154.1019.116.1488.186.3446.085.4072zm-6.713 0c.054.0548.155 0 .209 0 .073-.0163.15-.0163.224 0l.494-.0861c.198-.0634.391-.1392.579-.2272.438-.1287.847-.3414 1.206-.6265.194-.1249.346-.3084.432-.5248.047-.0469.047-.1566.047-.2427 0-.0862 0-.1175-.085-.188s-.116 0-.139.0705c-.024.0705-.101.0861-.201.0861-.383.027-.753.145-1.082.3446-.397.2241-.772.4864-1.12.7832l-.464.4543s-.115.1566-.1.2114z"/><path d="m108.087 29h7.936v-1.984h-2.56c-.56 0-1.344.08-1.936.144 2.16-2.112 3.952-4.416 3.952-6.576 0-2.208-1.504-3.632-3.728-3.632-1.616 0-2.688.624-3.776 1.792l1.296 1.28c.608-.672 1.296-1.232 2.176-1.232 1.136 0 1.76.736 1.76 1.92 0 1.824-1.888 4.048-5.12 6.944zm14.142 0h2.192v-11.84h-2.832l-4.4 7.168v1.616h8.64v-1.808h-6.352l1.824-2.944c.336-.64.656-1.296.96-1.936h.064c-.032.704-.096 1.776-.096 2.464zm10.909-11.888v1.664h8.176v-1.664zm-.544 3.072v1.696h9.2v-1.696zm.032 3.056v1.68h9.056v-1.68zm3.6-7.84v5.872h1.888v-5.872zm2.032 6.384v6.592c0 .224-.08.272-.336.272-.24.016-1.12.016-1.904-.016.256.496.544 1.264.608 1.792 1.2 0 2.064-.032 2.704-.32.624-.272.8-.768.8-1.696v-6.624zm-4.992 4.208c.736.816 1.536 1.952 1.84 2.704l1.648-.96c-.352-.784-1.2-1.84-1.952-2.624zm-5.072-9.6v1.712h2.336v7.52h-2.336v1.712h4.128v-10.944zm.096 4.544v1.68h3.104v-1.68zm-.992-4.544v12.368h1.776v-12.368zm20.784 8.784v1.376h4.384v-1.376zm-.112-2.368v1.408h3.6v3.328h-3.6v1.408h5.392v-6.144zm-.784 0v6.96h1.728v-6.96zm-2.688-4.56v1.296h4.016v-1.296zm7.424 0v1.296h4.048v-1.296zm3.264-2.224v12.128c0 .272-.096.368-.384.368s-1.264.016-2.096-.032c.256.512.544 1.408.624 1.952 1.376 0 2.304-.032 2.944-.352s.848-.88.848-1.92v-12.144zm-10.528 0v1.392h3.264v3.04h-3.264v1.376h5.056v-5.808zm11.552 0h-5.408v5.856h5.408v-1.376h-3.584v-3.088h3.584zm-12.656 0v14.416h1.904v-14.416zm20.352 5.712h4.752v1.136h-4.752zm-1.776-1.408v3.936h8.4v-3.936zm3.008 3.344c-.08.64-.288 1.504-.496 2.144l1.68.24c.288-.576.688-1.392 1.008-2.256zm-4.352 1.568v5.232h1.824v-3.584h7.52v3.584h1.92v-5.232zm1.024 3.056v1.648h9.136v-1.648zm-2.256-10.384v3.424h1.744v-1.792h10.048v1.792h1.856v-3.424zm10.736-2.416c-.336.768-.96 1.792-1.472 2.48l1.552.592c.576-.608 1.296-1.536 1.984-2.448zm-9.856.848c.528.64 1.104 1.536 1.328 2.112l1.76-.768c-.256-.592-.88-1.44-1.424-2.048zm4.016-.4c.432.672.928 1.616 1.12 2.208l1.776-.656c-.224-.592-.768-1.504-1.216-2.144zm10.736 9.264v1.568h14.272v-1.568zm.032-7.184v1.584h14.176v-1.584zm.656 2.864v1.504h12.912v-1.504zm.8 2.208v1.392h11.36v-1.392zm4.64-1.44v8.784h1.904v-8.784zm-1.392-6.256v3.376h1.792v-3.376zm2.96 0v3.264h1.824v-3.264zm-1.92 10.512c-1.312 1.216-3.856 2.272-6.272 2.736.416.4.976 1.136 1.232 1.6 2.464-.64 5.024-2 6.544-3.664zm2.64-.048-1.488.592c1.504 1.808 3.952 3.168 6.48 3.808.288-.528.864-1.328 1.296-1.728-2.496-.416-4.992-1.408-6.288-2.672zm2.96-10.336c-.224.704-.64 1.68-1.008 2.336l1.552.48c.416-.592.96-1.456 1.472-2.336zm-2.112 3.44c-.16.592-.496 1.408-.784 1.984l1.632.464c.336-.512.752-1.216 1.184-1.984zm-8.08-2.928c.432.736.944 1.712 1.12 2.336l1.744-.624c-.224-.624-.752-1.584-1.216-2.272zm2.032 3.584c.24.464.512 1.136.608 1.552l1.952-.336c-.128-.432-.432-1.056-.704-1.504zm21.344-1.584-2.192-.064c-.16 1.68-.512 3.52-.976 5.024-.672 2.16-1.28 3.184-1.968 3.184-.608 0-1.248-.784-1.248-2.4 0-2.016 1.856-4.784 5.248-4.784 2.768 0 4.336 1.792 4.336 4.304 0 2.352-1.6 3.808-3.632 4.304-.432.096-.88.176-1.504.256l1.216 1.888c4.032-.624 6.096-3.008 6.096-6.368 0-3.504-2.512-6.256-6.464-6.256-4.144 0-7.36 3.168-7.36 6.848 0 2.704 1.472 4.672 3.264 4.672 1.744 0 3.12-1.984 4.08-5.216.56-1.888.88-3.76 1.104-5.392zm20.976.24-1.552-.976c-.432.08-.976.112-1.52.112-1.136 0-7.008 0-7.648 0-.736 0-1.456-.016-1.952-.048.048.416.064.896.064 1.328v3.376c0 .432-.032.832-.08 1.312h2.352c-.048-.496-.048-1.072-.048-1.312 0-.64 0-2.176 0-2.656h7.664c-.16 1.712-.64 3.504-1.456 4.8-1.248 2-3.728 3.312-5.872 3.856l1.776 1.808c2.576-.896 4.752-2.496 6.08-4.576 1.248-1.936 1.616-4.272 1.904-5.936.032-.224.192-.848.288-1.088zm3.024 3.312v2.528c.608-.048 1.68-.096 2.576-.096h8.608c.672 0 1.488.08 1.872.096v-2.528c-.432.032-1.136.112-1.888.112-1.424 0-6.704 0-8.592 0-.832 0-1.984-.064-2.576-.112zm28.928-2.528-1.648-1.024c-.352.128-.896.192-1.392.192s-3.856 0-4.56 0l-.736 1.824h5.392c-.256 1.184-1.184 3.104-2.272 4.352-1.408 1.584-3.184 2.976-6.448 3.968l1.888 1.68c3.008-1.184 4.928-2.656 6.448-4.512 1.456-1.776 2.368-3.904 2.8-5.344.128-.4.352-.832.528-1.136zm-5.216-2.544-2.352-.768c-.144.56-.48 1.296-.72 1.68-.784 1.376-2.192 3.44-4.992 5.152l1.792 1.328c2.304-1.568 4.208-3.824 5.296-5.76.176-.336.592-1.072.976-1.632zm10.4.208v2.08c.464-.048 1.136-.064 1.664-.064h6.112c.592 0 1.344.032 1.76.064v-2.08c-.432.064-1.216.096-1.728.096-.928 0-5.136 0-6.144 0-.544 0-1.232-.032-1.664-.096zm10.896 4.656-1.424-.896c-.224.112-.656.176-1.184.176-1.088 0-6.816 0-7.904 0-.512 0-1.184-.048-1.872-.112v2.08c.672-.048 1.472-.064 1.872-.064h7.712c-.272.88-.784 1.888-1.632 2.752-1.232 1.264-3.136 2.304-5.552 2.816l1.6 1.808c2.048-.592 4.096-1.664 5.712-3.472 1.184-1.312 1.872-2.88 2.368-4.432.048-.16.192-.448.304-.656zm10.688-5.44h-2.464c.096.688.112 1.008.112 1.472v2.304h2.24c0-.608 0-1.888 0-2.304 0-.464.016-.784.112-1.472zm5.376 3.376-1.376-.848c-.288.096-.672.16-1.328.16h-8.432c-.608 0-1.088-.016-1.632-.064.064.368.064 1.008.064 1.36v2.784c0 .432-.016.944-.064 1.344h2.208c-.048-.32-.064-.832-.064-1.184 0-.496 0-1.792 0-2.352h7.936c-.192 1.424-.608 2.944-1.408 4.128-.912 1.28-2.32 2.224-3.632 2.72-.672.272-1.536.512-2.272.64l1.664 1.92c2.848-.752 5.264-2.448 6.528-4.8.8-1.456 1.216-3.008 1.504-4.544.064-.304.192-.912.304-1.264zm5.328-2.48-1.52 1.616c1.168.8 3.184 2.544 4.016 3.44l1.632-1.664c-.944-.976-3.024-2.64-4.128-3.392zm-2.016 10.656 1.36 2.112c2.24-.384 4.304-1.264 5.936-2.24 2.576-1.552 4.704-3.76 5.904-5.936l-1.232-2.24c-1.024 2.16-3.104 4.592-5.84 6.224-1.552.912-3.616 1.728-6.128 2.08zm25.824-10.768-1.344.544c.592.832.944 1.52 1.424 2.528l1.376-.608c-.352-.736-1.008-1.792-1.456-2.464zm2.208-.784-1.36.576c.592.8.976 1.424 1.488 2.432l1.376-.608c-.384-.704-1.008-1.76-1.504-2.4zm-9.152.464-1.168 1.76c1.056.592 2.736 1.68 3.616 2.304l1.2-1.776c-.832-.576-2.592-1.712-3.648-2.288zm-2.96 11.36 1.2 2.112c1.408-.256 3.712-1.056 5.328-1.984 2.624-1.504 4.88-3.536 6.368-5.744l-1.232-2.176c-1.28 2.288-3.504 4.48-6.224 6-1.744.96-3.664 1.488-5.44 1.792zm.496-7.712-1.168 1.776c1.088.56 2.736 1.648 3.648 2.272l1.168-1.792c-.816-.576-2.576-1.68-3.648-2.256z"/></g><path d="m96.915 32.5v-22.5" stroke="#54917a" stroke-width="2"/></svg>